<?xml version="1.0" standalone="no"?>
<!DOCTYPE svg PUBLIC "-//W3C//DTD SVG 1.1//EN" "http://www.w3.org/Graphics/SVG/1.1/DTD/svg11.dtd" >
<svg xmlns="http://www.w3.org/2000/svg" xmlns:xlink="http://www.w3.org/1999/xlink" version="1.1">
<metadata></metadata>
<defs>
<font id="selimaregular" horiz-adv-x="710" >
<font-face units-per-em="2048" ascent="1638" descent="-410" />
<missing-glyph horiz-adv-x="512" />
<glyph horiz-adv-x="0" />
<glyph horiz-adv-x="682" />
<glyph horiz-adv-x="0" />
<glyph horiz-adv-x="0" />
<glyph unicode="&#xd;" horiz-adv-x="512" />
<glyph unicode=" "  horiz-adv-x="512" />
<glyph unicode="&#x09;" horiz-adv-x="512" />
<glyph unicode="&#xa0;" horiz-adv-x="512" />
<glyph unicode="!" horiz-adv-x="698" d="M168 121q-2 5 -6.5 15t-5.5 16q-33 152 -31 251l8 91q0 18 7 54t7 54v57l82 306q7 23 18.5 68t18.5 67l64 188q6 15 20 15q15 -1 41.5 -5.5t38.5 -5.5q9 -1 47 -20q44 -25 66 -55q19 -26 10 -50q-6 -16 -13.5 -45t-15.5 -52.5t-18 -43.5q-21 -46 -53 -135l-33 -60 q-3 -11 -10 -22q-8 -32 -21 -43q-3 -2 -7 -10t-7 -11q-5 -12 -18.5 -38.5t-20.5 -42.5l-27 -52l-2 -6q-9 -45 -31 -76q-3 -23 -19.5 -75t-18.5 -82q-1 -19 -7.5 -51t-7.5 -43l-6 -21q-4 -6 -8 -22q-5 -25 -25 -41q-14 -7 -14 -29l4 -43q-1 0 -3 -1t-3 -1zM154 -109l-15 68 q1 10 5.5 40t5.5 46q3 27 22 35q12 6 16 2q5 -4 11.5 -4.5t14.5 1t11 1.5q7 0 16 -2t13 -2q22 -2 31 -33q5 -28 -1.5 -50.5t-23.5 -53.5q-26 -39 -72 -52q-4 0 -10 -6q-10 -7 -15.5 -5t-8.5 15z" />
<glyph unicode="&#x22;" horiz-adv-x="452" d="M113 1026l-19 -20q0 8 6 12q16 32 23 39l10 14q11 11 14 25q2 9 17 24q13 13 20 0q7 -6 16 -10.5t23 -9t19 -6.5q25 -14 47 -39q14 -17 10 -45q0 -15 -4 -17q-8 -12 -19 -25t-18 -20l-21.5 -21.5l-19.5 -19.5l-45 -41q-13 -7 -14 -8q-2 -2 -8 -2q-3 -12 -29 -16 q-20 -8 -27 -17q-23 -19 -47 -14q-4 0 -20 -4q-16 4 -9 24q0 7 3 18t4 17q8 -8 12 -8q6 18 19 49t16 39q24 40 43 80q-2 0 -2 2zM537 995q0 -17 -13 -24q0 -6 -4 -6q-7 -10 -22.5 -25t-20.5 -20q-2 -2 -12 -17l-23 -24q-19 -15 -22 -23q-8 -13 -21 -16l-77 -47 q-19 -9 -29 -7q-12 5 -27 5q-12 0 -12 8q-4 12 4 18q4 0 4 12l17 48q6 11 16 14q12 4 12 22q0 13 8 21q12 19 33.5 58t26.5 48l18 33q9 10 13 11t14 -5q4 0 4 -6q8 -10 35 -10q5 0 35 -12q6 -4 15.5 -14t14.5 -13q13 -10 13 -29z" />
<glyph unicode="#" horiz-adv-x="1071" d="M512 238l-18 -58l-15 -55q2 0 4 -2q3 9 10 24.5t11.5 28.5t7.5 25q36 97 45 129l-2 2q-2 -1 -5.5 -5t-6.5 -5l-2 2l28 61l-47 8l-141 6q-24 0 -37 -26l-59 -123q-26 -56 -56 -76q-8 -5 -21.5 -10.5t-17.5 -7.5l-26 -11q3 3 -8 11l-11 -9q-7 0 -12.5 17t-5.5 37q2 0 6 -4 q3 31 11 60.5t22 70t20 59.5q-8 4 -12 4q-31 0 -47 -2q-28 -3 -41 10q-1 1 -4.5 4t-4.5 4.5t-3.5 4.5t-3.5 5t-3 5t-3 6t-2 7t-1 9q10 10 25 5q29 -7 102 -3q22 0 35 29q8 22 24.5 63t22.5 58l4 12q-2 10 -16 10l-82 -6l-106 -6q-7 0 -31 6q0 19 12 19q96 16 178 33l58 6 q24 0 35 28l49 101q11 20 31 59.5t32 59.5q8 25 33 14q16 -12 22 -14q32 -12 64 -64q6 -12 6 -18q4 -32 0.5 -69.5t-20.5 -66.5l-9 -12q0 -2 2 -8q2 0 6.5 -1t6.5 -1l141 8q29 0 39 37q1 8 4.5 15.5t10 16.5t8.5 13q8 11 30 61q28 77 74 158q10 16 18 4q6 -7 17.5 -16.5 t13.5 -11.5l19 -21q12 -16 6 -37l-17 -94q-15 -60 -30 -88q-4 -2 -11 -21q6 0 15 -1t12 -1q68 5 78 5q42 3 82 -11l-33 -22l18 -6q-22 -22 -45 -25l-82 -4l-65 -6q-10 0 -12 -4q-5 -5 -19 -2l-4 -13q-5 -9 -12 -25t-10 -22q-9 -18 -9 -33q-7 -31 -16 -47q-9 -9 -7 -18.5 t11 -11.5q4 -1 13.5 -1t13.5 -1q11 -1 31 -6.5t24 -6.5q-9 -22 -10 -24q-3 -15 -13 -15q-17 -3 -63 -8q0 -1 -20 -1l-21 1l-6 -20q-2 -2 -5 -6t-5 -5.5t-4.5 -3t-6.5 -0.5q-3 0 -10 -10q8 -12 6 -14q0 -7 -8 -19q-3 -3 -10 -7.5t-11.5 -9.5t-7.5 -13q-1 -4 -10 -17 q-4 -4 -4 -8l-4 -24q-2 -7 -7 -8q-2 -1 -3 1q-13 -17 -21 -32l-35 -91q-3 -17 -16 -30q-6 -4 -16 -19q-41 -51 -74 -39q-3 1 -10.5 -0.5t-10.5 -1.5q-10 11 -11 15.5t7 21.5q1 2 11 37l4 4q18 14 22 51l29 86zM637 537l2 -2q-1 17 8 45t10 34q-3 0 -9 1t-9 1l-135 -6 q-24 0 -31 -26q-1 -1 -4 -5.5t-4 -7.5l-57 -92l-13 -20q10 -2 21 -2l106 -6q31 0 47 -2q24 0 29 24l12 14l2 -2q-1 -2 -6.5 -11t-7.5 -15q0 -2 2 -4q1 1 3.5 4t4.5 5t4 3q0 -13 -4 -21q8 8 14 17.5t12.5 23t8.5 17.5q19 38 27 61q-16 -16 -19 -24q-2 -6 -6.5 -8t-7.5 4z M711 387l-9 -12l5 -4q4 4 4 6v10zM514 244v-4l-2 -2q0 1 1 3t1 3z" />
<glyph unicode="$" horiz-adv-x="940" d="M395 0q-5 0 -14.5 2t-13.5 2q-15 -4 -21 -16l-27 -54q-13 -22 -20 -26q-6 -2 -12 -19q-19 -38 -33 -59q-9 -18 -17.5 -23t-23.5 -2h-27q-7 8 -2 45q12 53 41 130q13 36 15 49q3 18 -15 22q-18 8 -43.5 31t-31.5 27q-2 2 -11 8.5t-12 11.5l-3 2q-2 2 -3 3.5t-2.5 4 t-0.5 5.5t3 6l-2 4q-15 13 -19 51q-7 10 0 20l17 39q16 4 22 -6q3 -5 27 -10q2 -1 4.5 -1t4 -0.5t1.5 -2.5q3 -2 47 -28.5t66 -41.5l96 -61q9 0 12 2q-3 2 -7.5 8t-6.5 8h10q67 -33 156 -20q44 3 84 28q17 11 20.5 18.5t-0.5 26.5q-12 75 -49 135q-1 3 -8.5 17t-11.5 22 q-29 50 -72 72q-2 1 -14 11.5t-19 15.5q-1 0 -1 1t-1 1q-45 25 -135 98q-51 41 -72 102q-19 46 -8 95q4 12 4 34q3 62 39 109q49 72 129 119q4 2 33 12q6 3 26 12t33.5 13.5t26.5 7.5q15 2 18 22q28 90 52 177l4 24l16 8l45 -30q15 -11 19 -48v-16q6 -17 -13 -51 q-8 -12 -28 -62q-7 -13 4 -16q8 -2 14.5 -5.5t12 -10.5t8 -11t8 -15l6.5 -13q21 -37 41 -90l6 -11q18 -12 19 -35.5t-7 -46.5q-3 -14 -16 -14q-36 -4 -51 -4q-2 25 -39 25q-12 0 -35 -2t-35 -2q-5 0 -18.5 -4t-18.5 -3q-10 0 -43 -14l-39 -16q-41 -15 -104 -74 q-11 -11 -12.5 -17t8.5 -16q62 -49 69 -53q21 -16 69 -51.5t73 -55.5q62 -47 116 -147q27 -56 33 -78q2 -7 12 -35t13 -45q0 -4 4 -23t4 -30q-2 -13 -16 -41q-6 -15 -15 -27l-10 -16l-6 -4q-14 -23 -36 -40t-39 -24.5t-46 -17.5q-35 -12 -104 -8q-42 0 -86 12q-3 0 -15 -6z M125 223q-8 0 -10.5 -1.5t-8.5 -10.5q4 2 19 12zM125 246l-8 -4q4 -4 4 -6l4 4v6z" />
<glyph unicode="%" horiz-adv-x="1112" d="M584 401q-5 5 -9 5q1 9 3.5 15.5t8.5 12t8.5 7.5t12 6.5t10.5 5.5q2 2 11 -2q6 -4 43 -23.5t55 -36.5q4 -2 12 -10q7 -11 2 -21l-18 -36q31 -39 20 -86q-5 -25 -8 -29q-2 -4 -1.5 -17.5t-6.5 -17.5q-4 -3 -3.5 -15t-2.5 -20q-10 -17 -10 -35q-2 -20 -10.5 -40t-15.5 -30 t-23 -32l-19 -31q-12 -25 -37 -28q-4 0 -12 -4q-48 -26 -98 -2q-14 8 -36.5 27.5t-31.5 25.5l25 8q-4 36 -4 53q-2 7 2 15v20l-15 -20l19 112q-15 -6 -19 -10q-18 -10 -50 -32t-40 -27q-3 -2 -92 -68q-59 -38 -94 -53q-8 -2 -21 -13.5t-16 -13.5l-21 -18l-36 24l-15 -6 q-7 19 3 49.5t30 52.5q2 -6 2 -16q14 0 20 16l60 127q3 7 16 29q22 35 29 53q2 7 10 19t10 16q66 120 82 150q17 33 33 55q24 38 51 72q3 5 13 13.5t14 12.5q15 11 10 29q-6 22 12 31q8 6 13.5 15t11 22t8.5 18q-11 -4 -24 -25l-23 -30l-4 4l6 14l29 45l39 53q37 50 57 80 l84 113l82 98q5 8 8 21q-1 0 -15.5 -2t-21.5 -4l-123 -25q-14 -3 -57 -16v-66q0 -3 -1 -7.5t-1 -6.5v-17l6 -30q0 -3 -1 -5.5t-2.5 -6t-2.5 -5.5l-18 -37l-19 -32q-22 -42 -39 -70q-26 -42 -49 -61q-12 -8 -24 -11q-38 -9 -101 6q-2 0 -16 7q-27 20 -49 34q-33 19 -47 68 q-15 43 -7 127q12 100 86 219q22 36 48 62t40 30q27 9 43 -2q29 -23 87 -63q22 -16 47 -13q195 21 284 17h17q18 0 30 18l33 45q12 20 12 33q0 17 17 10l26 -16q41 -41 52 -59q25 -32 16 -70q-6 -25 -41 -84q-10 -13 -39 -52.5t-47 -60.5q-8 -9 -26 -25.5t-23 -21.5 q-10 -7 -10 -14q4 -7 -6 -12q-5 -7 -16.5 -19.5t-16.5 -19.5q-6 -7 -17.5 -23.5t-17.5 -23.5l-88 -113l-23 -25q-8 -12 -6 -22q0 -11 -3 -14.5t-13 -6.5q-10 -5 -12 -10q-27 -44 -54 -90q-6 -11 -16 -25l-25 -36l-2 -2l-39 -60q-6 -8 -14 -24q-14 -35 -45 -74 q-10 -10 -29 -43l-47 -92l17 6l133 90q6 5 22.5 15.5t24.5 17.5q32 23 41 32q12 12 12 23q0 23 16 45q1 1 11 16zM662 258l-19 -18l-53 -62q-5 -5 -8 -14l-7 -14q-3 -4 -8.5 -14.5t-11 -18t-12.5 -11.5q-8 -4 -8 -12q1 -5 0 -9.5t-4.5 -10t-4.5 -6.5q-16 -28 -6 -58 q14 -4 35 13q2 2 10 11.5t13 12.5q29 21 51 74q21 58 28 80q10 26 5 57zM322 874q2 -2 2 0q32 40 41 89q-26 -32 -43 -89zM412 434q-9 -1 -17.5 -12.5t-13.5 -13.5l8 -13q13 13 16 17.5t7 21.5zM348 334q5 0 13.5 11t7.5 15q0 5 -9 5q-6 -1 -11 -9t-5 -14q0 -4 4 -8z M406 442q4 3 11.5 6t11.5 5.5t8 8t5 13.5q-4 -3 -12.5 -7t-14 -10t-9.5 -16zM301 256l12 6q-3 3 -2 5.5t2 3.5t4.5 2.5t4.5 2.5t2 5t2 6q-12 0 -18 -6.5t-7 -24.5zM494 741l20 29q-1 0 -2 1t-2 1q-19 -16 -16 -31zM225 115q2 2 9 8.5t10.5 12.5t3.5 14q-21 -21 -23 -35z M262 186q4 -4 6 -4l15 35q-11 -5 -21 -31zM469 516q-16 3 -16 -8q0 -2 2 -4q2 1 6 5t8 7zM516 592l-10 -8q0 -4 4 -4l8 10q0 2 -2 2zM600 700q-5 5 -6 5q-2 -3 -2 -5l2 -4q2 0 6 4z" />
<glyph unicode="&#x26;" horiz-adv-x="1183" d="M750 608q1 2 2 -1.5t11 -14t28 -19.5q81 -41 129 -32q29 7 50 24.5t29 32.5q3 8 24.5 -9t41.5 -43t18 -40q-3 -26 -63 -67.5t-100 -35.5q-27 3 -78 33q-3 -12 -37.5 -96t-32.5 -127q20 -27 49 -92t29 -92l-21 -107q-91 -97 -120 -62q-17 20 -5 58q10 28 23 21 q19 -12 34.5 2.5t21 31t5.5 21.5q0 1 -1.5 21t-8.5 40.5t-24 40.5q-7 9 -12 12.5t-9 5t-11 -2t-12 -7.5t-18 -14t-24 -18l-82 -82q-3 -5 -42.5 -32.5t-45.5 -29.5q-15 -8 -31 -14t-38.5 -10.5l-32.5 -6.5t-38 -5t-30 -3l-27 -4q-52 -7 -123 31q-93 55 -117 180 q-12 55 -5.5 116t38.5 120q36 77 88 131q20 20 54.5 43t56.5 29q27 7 43 21t15.5 25.5t-5.5 18.5q-39 51 -56 131t-5 141q21 108 81 182t142 103q76 27 127 8q12 -5 40 -13t40 -13q49 -20 69 -78q1 -4 12.5 -33t13.5 -37t8.5 -32.5t6 -38.5t-3 -34.5t-10.5 -39.5 q-25 -62 -49.5 -100.5t-42.5 -52.5t-37 -19t-32.5 -1.5t-29 3t-26.5 -9.5q-10 -8 -30.5 1t-40 28t-36 43t-19.5 46t11 37q33 -30 53 -35.5t41 5t66 47.5q43 36 38.5 109.5t-46.5 105.5q-39 24 -80 -2q-5 -4 -36 -29.5t-42 -37t-31.5 -34t-30 -44t-12.5 -44.5q-11 -61 4 -125 q20 -54 83 -137t81 -115q3 -2 36 -60q62 -111 101 -99q29 9 48 82q2 11 2.5 46.5t7.5 53.5q-6 8 -14 24q-16 49 2 76zM588 293q-6 6 -26 26.5t-30 29t-29.5 24t-33 19t-30.5 5t-33 -9t-31 -31.5q-60 -90 -84 -157q-31 -86 96 -183l109 2q13 1 62 37.5t60 42.5q21 18 31.5 36 t13 31t-6.5 32t-16 29t-25.5 33t-26.5 34z" />
<glyph unicode="'" horiz-adv-x="356" d="M158 745q0 2 -1 6t-1 5q-5 62 24 147q8 29 56 127l18 37q5 10 16 6q30 -6 33 -6q6 0 6 -4q11 0 23 -8q27 -10 35.5 -37.5t-5.5 -48.5q-2 -2 -15 -21.5t-21 -27.5q-22 -25 -47 -39q-4 -3 -14.5 -10t-14.5 -11l-23 -26q-5 -15 -28 -52q-8 -12 -19 -14q-14 -7 -16 -18 q0 -1 -3 -3q-1 -1 -1.5 -1t-1.5 -1z" />
<glyph unicode="(" horiz-adv-x="641" d="M264 180l-12 -51q1 -2 0 -6.5t0 -7.5q2 -10 2.5 -31.5t1.5 -28.5q2 -18 2 -59l4 -68v-22q-3 -5 2 -10q5 -4 6.5 -13.5t2 -22t1.5 -18.5q3 -32 17 -127q9 -65 16 -84q0 -31 -8 -47q-2 -4 -3.5 -9.5t-3.5 -13t-3 -12.5q-21 -11 -39 7q-72 68 -92 176q-28 126 -37 254 q-3 36 0 73q0 35 4 93q5 86 8 104q23 143 33 186q23 144 92 299q78 180 150 299q30 50 124 195q19 24 19 35q0 4 5 9.5t5 6.5q41 62 94 115q10 15 25 8q3 -1 8 -5t6 -5q2 -1 21 -6q13 -4 14 -7q34 -53 39 -102q0 -39 -2 -59q0 -6 -2.5 -12t-7 -14t-6.5 -11l-74 -101 q-44 -56 -98 -135q-8 -13 -56.5 -87t-75.5 -113q-6 -16 -14 -25q-3 -4 -7 -13t-7 -12q-18 -12 -25 -40q-7 -18 -23.5 -52t-23.5 -51l-24 -74l-9 -18q-7 -20 6 -25q-33 -42 -36 -106q0 -9 -4.5 -26t-4.5 -19q-4 -37 -10 -55q-4 -8 0 -15q1 -1 1 -5t1 -7q-10 -3 -10 -16 q6 2 10 10q0 -4 -1 -12t-1 -11z" />
<glyph unicode=")" horiz-adv-x="669" d="M344 250q0 -4 6 -8q-20 -6 -24 -31q-3 -15 -19 -35q-2 -3 -8 -9.5t-10.5 -12.5t-7.5 -11q-46 -84 -95 -141q-3 -4 -19 -23.5t-22.5 -27.5t-20 -20.5t-26.5 -20.5q6 -2 15 -6q-5 -4 -35 -34.5t-51 -37.5q0 -8 2 -14q-20 -16 -66 -45q6 -2 10 -6q0 -3 2 -7q-33 -26 -61 -32 q-26 -6 -47 -27q-26 -36 -60 -57q-8 -6 -16 -17q-45 -35 -53 -43l-14 -4q-1 11 8 23.5t10 17.5q-10 11 -23 -2q1 4 1 11t1 10q-6 1 -7 1t-6 -3.5t-7 -4.5l-12 -6q-2 6 -2 17q4 13 6 19t8.5 13t15.5 11q9 5 16.5 12.5t17 21.5t13.5 19q16 26 46 49q22 22 38 49l31 41 q21 23 55 69t41 54q6 6 14 20.5t11 18.5l41 57q66 100 127 217q50 106 63 148q6 19 19 43q8 20 2 24q2 5 6.5 15t5.5 16q18 46 15 68q0 1 2 5.5t2 6.5q41 132 53 256v6l6 250v16q-44 151 -49 166q-5 14 -17 29q-19 29 -16 51q6 8 23 4q44 -21 61 -59q81 -132 82 -133 q72 -116 84 -279q10 -89 -6 -211q-4 -31 -10.5 -66t-16 -78t-14.5 -67q-9 -37 -39 -112q-1 -3 -8 -27t-15 -35q-5 -7 -14 -26.5t-14 -26.5q-5 -10 -15.5 -26.5t-13.5 -22.5z" />
<glyph unicode="*" horiz-adv-x="438" d="M434 1184l-14 -10q5 -2 11.5 -8t8.5 -7q45 -24 70 -55q9 -10 23.5 -31.5t19.5 -28.5q2 -2 2 -12h-10q-7 2 -25 19q-21 18 -53 36q-62 32 -82 39l-8 4q-2 -4 -4 -13t-4 -13l-21 -60q-15 -60 -22 -96q-1 -5 -3 -8t-9 -6l-7 -2q-15 -4 -18 10q-4 5 -8.5 15.5t-4.5 11.5 q-4 15 -6 31.5t-3.5 37t-2.5 31.5q0 13 -2 23q-23 -7 -37 -15q-18 -9 -22 -10q-8 -8 -15 -4q-34 4 -55 -8l-4 2l10 14q36 52 107 105q2 2 6 4.5t5.5 4.5t0.5 7q0 10 -12 14q-7 4 -27.5 13t-30.5 16q-33 17 -63 47q-13 13 -10 37q10 2 18 -6q1 -1 5 -4t7 -4q19 -9 53.5 -24 t47.5 -21q2 0 4 -1t5 -2t5 -2q0 4 1 11t1 10q2 20 2 59q4 16 -4 29q-3 6 2 27q23 3 39 -7q3 -3 12.5 -8.5t12.5 -7.5q38 -31 53 -57l6 -29q1 -3 1 -8.5t1 -9.5q3 1 7.5 3.5t6.5 2.5q33 16 76 33q9 4 12 2t5 -11l6 -28q6 -28 -15 -43q-8 -7 -25.5 -19.5t-25.5 -19.5z" />
<glyph unicode="+" horiz-adv-x="944" d="M334 573q-4 136 35 215h10q44 -17 59 -26q28 -17 31 -55q4 -43 8 -121q1 -7 2.5 -10t4 -4.5t8.5 -2.5q29 -5 71 -8l168 -24q36 -6 68 -9q2 0 14 -4v-4q-4 0 -9.5 -1t-8.5 -1q-8 -2 -29 -10q-23 -13 -43 -16q-18 -2 -51 -3.5t-41 -1.5q-46 -4 -70 -4l-33 -6q-10 0 -14 -2 q-17 -4 -20.5 -9.5t-1.5 -25.5q9 -77 8 -98q-7 -40 -23 -61q-20 -32 -24 -56q-1 -6 -15 -39q-2 2 -5.5 4t-4.5 3q-2 1 -4.5 3.5t-4 3.5t-4.5 2t-5 -1t-13 4q-44 28 -47 92q-2 27 -2 80q-2 18 -2 55q-4 2 -12 2q-45 -6 -135 2q-12 3 -27 0q-4 -1 -8.5 1.5t-9 6.5t-7.5 5 l-18 14q-1 3 -10 26q0 2 -1.5 10t-0.5 11q0 6 1 18t1 19q22 -5 62 4t46 10q25 2 95 10l4 1q4 1 8 1z" />
<glyph unicode="," horiz-adv-x="397" d="M37 244q16 -3 24 10q16 16 31 8q23 -9 43 -20q14 -7 29 -19q21 -13 26 -44t-6 -60q-17 -34 -18 -37q-10 -15 -10 -16q-8 -22 -33 -60q-25 -37 -57 -53q-30 -17 -46 -19h-4q-19 -5 -26 7q-1 5 14 26l49 78q5 3 10 18q3 6 3 15q-2 6 -15 0q-2 -2 -6 -2l-25 26q0 1 -12 13 q-32 37 -4 75l23 27q15 11 10 27z" />
<glyph unicode="-" horiz-adv-x="966" d="M748 537l2 -7q-4 -35 -52 -43q-114 -12 -120 -12l-177 -4q-21 0 -44.5 -1t-52.5 -2.5t-46 -2.5q-5 0 -17 1t-18 1q-37 2 -80 49l-26 25q-13 10 -6 24l39 -4q17 -4 28 -2q106 12 160 14q169 6 371 -24q4 -1 18 -6t21 -6z" />
<glyph unicode="." horiz-adv-x="342" d="M195 174q0 -8 -2 -12q-4 -12 -11.5 -37t-14.5 -43t-17 -33q-10 -14 -21 -16q-2 0 -6 -1.5t-6 -2l-6 -1.5l-6 -1.5t-5.5 -1t-6 0t-5.5 1t-6 1.5t-6 3l-6 4l-4 2q-25 0 -41 26q-17 27 -17 58q3 65 49 121q7 8 11 4q30 -6 42 -8.5t33.5 -11.5t36.5 -23q17 -17 15 -29z" />
<glyph unicode="/" horiz-adv-x="972" d="M465 932l8 16q9 13 55 78t72 98q87 117 148 168q17 15 94 72q6 8 22 12q10 4 17.5 -1t7.5 -17q3 -18 0 -35q-26 -88 -58 -131q-16 -19 -88 -117q-100 -143 -114 -162l-64 -82q-57 -73 -80 -108q-2 -3 -13.5 -18t-16.5 -23q-75 -110 -95 -135q-28 -33 -59 -86 q-9 -13 -29 -34.5t-28 -31.5q-7 -8 -17.5 -24.5t-15.5 -22.5q-49 -69 -84 -125l-6 -6q-27 -55 -70 -98q-9 -8 -17.5 -20t-11.5 -17.5t-13 -25t-11 -21.5q-14 -21 -23 -45q-17 -26 -32 0q-14 22 -27 30q-18 9 -12 29q19 51 20 53q-5 -14 -10 -43q6 3 6 7q44 113 88 157 q0 6 4 10q17 25 70 115q4 5 12 18t15.5 21.5t17.5 13.5t10 17q-4 18 15 24q3 20 8 23q17 31 51 78h-2q14 19 33 49q14 6 14 22q0 2 2 2q24 19 39 56q2 4 16 18l58 90q11 18 16 31l8 -2q2 4 5.5 10.5t6 11t5.5 7.5q10 7 24 23t19 20l-11 10l13 12q1 1 6.5 5.5t7.5 7t3.5 7.5 t0.5 11q-1 0 -4.5 -1t-5.5 -1zM465 930v2v-2z" />
<glyph unicode="0" horiz-adv-x="727" d="M213 0q-97 0 -152 74q-51 62 -57 159q-3 49 -2.5 114.5t12.5 117.5q8 32 36.5 118t41.5 117q3 16 8 27q24 95 103 223q32 50 90 101q6 11 24 26q28 28 56 19q11 -3 22 8q4 4 13 8.5t10 5.5q3 6 10 6q9 -1 26 2.5t27 4t25 -6.5h20q78 15 119 -43q33 -46 45 -73q3 -4 8 -29 q5 -82 7 -96v-6q2 -18 1 -27.5t-4 -28t-4 -28.5q-4 -14 -8 -68q0 -27 -4 -39q-20 -103 -41 -164q-40 -129 -57 -160q-2 -3 -4 -13t-4 -15l-25 -64q-38 -79 -51 -96q-4 -5 -26.5 -36t-37.5 -46q-7 -4 -15 -14t-11 -12q-37 -39 -101 -54q-17 -3 -50 -6t-50 -6zM504 1049l8 -7 q14 -12 13 -22t-19 -23q-20 -20 -27 -39q-3 -12 -8.5 -25.5t-10 -22t-13.5 -23.5t-13 -23q-23 -32 -37 -61q-12 -14 -20 -43q-8 -16 -43 -94q-21 -69 -66 -183q-42 -107 -39 -184q4 -29 4 -88q0 -39 21 -66q2 -3 11 -15t13.5 -17t14 -11.5t20.5 -9.5q14 -5 22 -4t21 12 q35 35 50 60q44 60 65 112l25 70q4 10 32.5 82t36.5 100q9 29 23.5 88t17.5 82q21 106 17 150q0 37 -2 53q-5 62 -17 86q-8 12 -14 27q-20 34 -49 49q-10 8 -17.5 6.5t-19.5 -16.5z" />
<glyph unicode="1" horiz-adv-x="575" d="M289 782q-1 0 -47 6q-45 3 -76 39q-4 6 -15.5 14.5t-15.5 12.5l-14 14q26 21 63 43q106 71 129 90q33 23 93.5 50.5t103.5 40.5q30 13 41 26l10 8q21 15 27 -2q6 -18 24 -30q15 -9 9 -37q-17 -39 -19 -43q-42 -92 -49 -119l-8 -25q-42 -69 -37 -125q0 -26 -10 -53 q-11 -25 -13 -41q-20 -68 -26 -80q-14 -28 -40.5 -93t-29.5 -81q-16 -63 -57 -143q-4 -8 -8 -18t-8 -22t-7 -19q-9 -27 -14 -37q-6 -18 -27 -60q15 -6 55 -10.5t58 -1.5q4 -2 4.5 -6t-0.5 -10.5t0 -10.5l12 -20q-16 -14 -43 -10q-28 2 -82 -9l-65 -10q-14 -1 -67.5 -11 t-69.5 -11q-21 -6 -47 -6q-35 -3 -60 22q-4 4 -11.5 12t-12 12.5t-11.5 9.5t-14 7q-2 2 -3 3.5t-2.5 4t-2.5 4.5q5 1 12.5 6t11.5 5q51 0 60 -2q25 -3 49 4q0 18 2 26q10 104 14 119q33 145 156 422q7 16 65 125q3 3 5 6.5t4.5 7.5t3.5 6z" />
<glyph unicode="2" horiz-adv-x="661" d="M387 23h-14l6 -15q-22 1 -85 4.5t-95 3.5q-54 4 -84 2q-31 0 -60 25q-1 1 -11.5 12.5t-16.5 16.5q-20 17 -27 59q0 13 4 19q12 18 29 77q0 1 2 6t4 7q14 20 61 79q16 19 45 52t53 61t44 53q54 62 221 324q63 103 75 134q29 72 -46 30q-9 -5 -19 -12q-23 -15 -44 -36.5 t-32 -37.5t-32 -47l-33 -66q-1 -5 -6.5 -12t-6.5 -10q-11 -19 -28.5 -28.5t-30.5 -0.5q-3 2 -29 17t-48.5 29.5t-26.5 18.5q-12 10 -27 36.5t-14 39.5q17 82 73 164q19 22 54 49q69 50 137 72q43 10 117 -15.5t108 -54.5q42 -34 25 -104q-18 -72 -56 -141l-14 -33 q-6 -13 -15.5 -27.5t-16 -23.5t-20 -26.5t-18.5 -23.5q-84 -120 -157 -235q-1 -7 -5 -15t-12.5 -19t-13.5 -16.5t-19 -20.5t-17 -18l-16.5 -16.5t-14.5 -15.5t-12.5 -15t-8.5 -13t-5 -12t0.5 -9.5t6.5 -7.5t14.5 -4t22 -2t31.5 2q31 2 108 -11q49 -9 84 -34q45 -34 51 -39 q-3 -6 -24.5 -35.5t-24.5 -32.5q-19 -24 -20 -27q-4 -18 -27 -22q-12 0 -14 -2q-5 -6 -13.5 -18.5t-13.5 -18.5q1 0 4 -6q-1 -1 -1.5 -2.5t-1.5 -5t-3 -6.5z" />
<glyph unicode="3" horiz-adv-x="641" d="M348 510q66 -29 72 -33q38 -16 80.5 -41t52.5 -47q8 -8 8 -27q2 -19 -2 -51q0 -4 -4.5 -13.5t-5.5 -14.5q-4 -16 -12.5 -33.5t-16.5 -29t-22 -31t-19 -27.5q-3 -5 -6.5 -8.5t-10.5 -8t-9 -6.5l-45 -41q-16 -19 -37 -28q-11 -5 -28.5 -19.5t-25.5 -19.5q-9 -4 -39.5 -22 t-50.5 -23q-36 -6 -59 14q-3 2 -23.5 12t-39.5 20.5t-23 14.5q-3 1 -8 5t-6 5q-6 1 -11.5 2.5t-10.5 5t-8 5.5t-7.5 7t-6 7t-6.5 8.5t-6 7.5q-8 5 -8 23q0 2 12 160q3 37 37 71q5 -2 29 -8q20 -10 20 -29q0 -13 1 -40t1 -41q2 -30 6 -50.5t10.5 -30.5t14.5 -13.5t18.5 1 t21.5 12.5t23.5 21.5t25.5 28t28 31.5q5 6 8 9.5t7.5 9t8.5 9.5q47 48 55 100q7 46 -31 44q-26 -1 -69 -25l-24 31q-5 6 -13.5 18.5t-13.5 18.5q-14 17 6 32q65 45 141 148t134 203q27 52 37 79q23 52 5 59q-14 5 -33 -25q-6 -10 -11 -21q-17 -19 -39.5 -56.5t-28.5 -46.5 q-13 -18 -51 -55.5t-49 -50.5q-18 -22 -131 26l-60 35q-3 2 -9 5.5t-9 4.5q-15 6 -17.5 12t3.5 21q3 14 14 41.5t14 36.5q55 123 166 205q59 47 123 47q46 0 104 -36.5t76 -74.5q3 -4 5 -8.5t4.5 -9.5t3.5 -8q23 -36 10 -86q-7 -45 -41 -127q-33 -68 -117 -203 q-12 -22 -63 -66q-15 -14 -19 -22z" />
<glyph unicode="4" horiz-adv-x="661" d="M385 543q13 -2 21 18l59 135q30 72 57 127q7 21 29 54q13 20 27 24t38 -2q-6 -18 -6 -41q-4 -24 -4 -39q-6 -54 -6 -55l-6 -59q-3 -13 -27.5 -85.5t-27.5 -87.5q37 -18 69 -59q11 -11 8 -29q-20 -10 -55 -10q-3 -2 -6.5 -2t-7 1t-4.5 1q-10 0 -15 -1t-7.5 -4.5t-2.5 -7 t-1 -13t-3 -17.5l-33 -135l-6 -37q-14 -73 -51 -186q-6 -15 -6 -33q-9 -22 -75.5 -13.5t-88.5 23.5q-8 8 -12 10q-20 15 -25 17q-25 6 -22 31q4 41 12 65q9 32 24 71.5t23.5 59.5t33.5 74t29 63q3 5 8 14t7 13q-4 0 -9 1t-8 1h-104q-82 8 -111 43q-2 3 -12.5 27.5t-21 47 t-13.5 23.5q-25 16 -26 68.5t14 83.5q8 21 43 65q13 13 39 39.5t46.5 48t37.5 42.5q22 27 50 58.5t48.5 53t55.5 58t51 53.5q22 25 53 10l22 -14q29 -20 60 -68t31 -80q0 -41 -27 -78q-15 -24 -36 -28t-38 -25q-30 -11 -94 -73q-115 -108 -108 -175q6 -57 110 -67z" />
<glyph unicode="5" horiz-adv-x="768" d="M33 543q12 9 49.5 38.5t58.5 43.5q21 15 25.5 24t1.5 29q-3 16 6 31q82 224 111 278q19 35 21 43t-3 41q-3 7 -3 23.5t-5 23.5q-4 5 8 17q15 5 29 -9t61 -14q119 7 209 -6q10 -1 43 -4t51 -6q19 0 23 -2q51 -35 63 -80v-6q-5 -48 -26 -119q-2 -10 -12 -18.5t-21 -8.5 q-21 0 -31 4q-51 4 -71 0q-5 -2 -12.5 -2t-16.5 1t-14 1q-12 0 -33.5 0.5t-39.5 0.5t-34 -1q-36 -4 -113 13q-66 -111 -72 -125q-11 -27 13 -29q15 -2 63 6q23 0 91 -13.5t82 -23.5q24 -18 45 -39q27 -27 32 -53q23 -79 23 -127q0 -11 1.5 -24.5t1 -19.5t-4 -16.5 t-12.5 -25.5q-6 -12 -3 -15.5t-2 -13.5q-2 -10 -18 -32q-10 -7 -25 -29q-5 -9 -14 -35q-16 -28 -14 -39q0 -31 -19 -45q-8 -8 -10 -12l-12 -18q-16 -14 -41 -52q-5 -18 -31 -41l-18 -18q-10 -16 -24 -29.5t-33.5 -29.5t-26.5 -23q-4 -2 -16.5 -11.5t-20.5 -11.5 q-20 -16 -109 31.5t-104 73.5q-11 20 -45 94q-2 5 -4.5 15.5t-6 18t-8.5 11.5v6q3 34 9 72l4 53q5 22 29.5 36.5t41.5 4.5q9 -9 9 -10q4 -28 4 -47q0 -83 2 -100q7 -24 26 -31q37 -7 66 8q93 45 170 137q15 18 76 96q2 3 5 12t5 13l16 39l27 43q8 20 8 31q2 19 -5.5 25 t-29.5 5q-12 0 -33.5 -13.5t-25.5 -14.5q-13 -4 -32.5 -21t-29.5 -22q-12 -6 -38.5 -22t-45.5 -23l-34 -15q-7 -2 -23.5 -7t-26.5 -7q-22 -6 -56 9.5t-48 35.5l-31 45q-3 2 -10 12t-12 15z" />
<glyph unicode="6" horiz-adv-x="704" d="M354 623q-11 -31 -12 -50t5.5 -27.5t20.5 -13t29 -6.5t35.5 -9t36.5 -19l10 -9q35 -63 43 -83q33 -68 17 -138l-11 -35l-30 -90q-16 -46 -47 -71l-70 -60q-2 0 -6 -4q-78 -27 -123 -20q-16 4 -23 4q-44 2 -94 21.5t-72 47.5q-11 12 -21 42.5t-15 57t-11 67.5t-8 51 q-2 23 -2 67q0 52 19 117q18 67 41 135l4 14q9 18 40.5 82.5t60.5 120t46 80.5q52 78 109 125q13 14 53.5 31t52.5 28q0 1 3 2t6.5 2.5t4.5 3.5q25 23 37.5 26.5t44.5 0.5q59 -9 105 -43q46 -24 51 -61q24 -81 12 -146v-16q-5 -26 -23.5 -38t-43.5 -3l-60 24q-27 10 -22 35 q-29 261 -180 -204q-11 -35 -13 -39zM418 190l20 58q13 147 -37 211q-34 34 -63 27.5t-49 -34t-27 -65.5q-16 -42 -14 -167.5t31 -149.5q39 -31 81 4q20 15 31 49z" />
<glyph unicode="7" horiz-adv-x="724" d="M430 887q-6 2 -85 18t-91 27q-1 1 -14 8q-2 -10 -2 -13.5t2.5 -10t3.5 -9.5q6 -15 6 -30q0 -11 -8 -16t-17 1l-4 2q-7 10 -29 32.5t-30 37.5q-6 18 -8 22q-2 17 -18.5 73t-18.5 67v16q0 17 20 23q8 0 22.5 -3t20.5 -4q9 0 28.5 -1t29.5 -1q3 0 76 1.5t108.5 2.5t91 5.5 t86.5 11.5q2 2 6 2q47 17 90 -14l9 -9q7 -16 31 -49t36 -45q4 -4 10.5 -12t10.5 -12q6 -12 -7 -29q-4 -6 -12.5 -21.5t-13.5 -21.5l-64 -74q-7 -9 -64 -83t-73 -91l-12 -14q-26 -21 -58 -70q-4 -3 -10.5 -11.5t-11.5 -12.5q-23 -21 -68 -78l-32 -37q-20 -25 -31 -43 q-6 -14 -27 -39l-28 -45q-18 -33 -72 -143q-28 -66 -53 -162q-3 -17 -17 -32t-33 -21q-3 -1 -13.5 -5.5t-16.5 -3.5q-6 2 -17 13q-22 28 -16 75q26 109 59 179q18 37 52 90q39 71 79 131q66 98 86 123q9 29 88 119q85 97 98 133q17 51 -52 53q-10 1 -23 0z" />
<glyph unicode="8" horiz-adv-x="704" d="M524 457q9 -18 29 -68q1 -2 2 -9t2 -9q9 -12 14.5 -25.5t7 -31t2 -28t0 -33t-0.5 -30.5q0 -4 -5 -14q-51 -97 -139 -156l-30 -26q-9 -9 -21 -13q-56 -22 -137 -18h-23q-58 -3 -112 39q-90 65 -107 176q-18 108 45 217q38 71 94 119q8 7 24 14.5t28 11.5t23 11.5t10 15.5 t-11 23q-23 28 -43 96q-9 68 10 145q18 91 89 157t153 85q66 16 115 -6q30 -17 71 -31q48 -26 64 -80q38 -94 24 -194q-15 -66 -73 -146q-15 -22 -40.5 -37.5t-44.5 -24.5t-33.5 -22.5t-11.5 -39.5t25 -68zM272 270q-43 -106 33 -170l21 -14q27 -23 65 -2q57 31 83.5 90.5 t12.5 112.5q-5 110 -47.5 138.5t-92 -19t-75.5 -136.5zM408 723q8 14 16.5 27.5t12 20t9.5 18t13 28.5q39 89 39 172q0 35 -33 15q-13 -6 -26 -15t-29 -21.5t-23 -17.5q-52 -40 -61 -94q-9 -42 3 -107q12 -67 40 -62q17 3 39 36z" />
<glyph unicode="9" horiz-adv-x="747" d="M618 1110q4 2 7 2q36 17 55 -12q7 -7 41 -23t39 -26q16 -27 10 -66q-25 -118 -104 -323q-6 -19 -25.5 -61t-24.5 -64q-40 -120 -133 -278t-176 -245q-11 -6 -37 -28q-22 -16 -47 -13q-6 3 -14 0q-9 -1 -30 8t-44 20t-29 13l-55 27q-31 15 -43 43.5t-2 62.5q0 5 4 11.5 t4 7.5q14 14 23 4q45 -39 71 -49t41 -1.5t41 38.5q14 17 45 89.5t67.5 166.5t39.5 100q6 18 9.5 31.5t4.5 22t-1.5 13t-4.5 6.5t-8.5 0.5t-10 -2.5t-12 -5t-10.5 -5q-38 -10 -95 -1t-89 28q-64 45 -53 115q20 144 102 246q29 35 96 86q36 27 88 59q12 6 29 6q18 4 53 4 q49 0 80 -28l10 -8q10 -9 13 -10.5t12.5 -6.5t15 -2.5t14.5 6t17 14t16 27.5zM383 682q25 28 62 110t44 93l29 57q13 34 4 42.5t-26.5 2t-28.5 -19.5q-43 -49 -84 -105q-41 -42 -66 -131q-23 -81 1 -91q19 -8 65 42z" />
<glyph unicode=":" horiz-adv-x="591" d="M418 578v-5q-13 -68 -86 -102l-74 -27q-12 -6 -18 0q-15 15 -17 25q-16 55 -4 119q8 39 37 57q12 8 51 27l49 18q15 10 19 12q10 10 22 5q14 -9 21 -35q15 -49 0 -94zM236 106l-52 -8q-10 0 -19 3t-20 9.5t-16 8.5q-3 2 -10.5 4.5t-12.5 6t-8 9.5q-4 12 -2 21q7 17 4 28 q-2 31 9.5 51t40.5 37q11 6 33 15t24 10l16 6q28 10 33 6q5 -5 12 -20q13 -28 17 -105q0 -16 2 -18q1 -18 -16 -39.5t-35 -24.5z" />
<glyph unicode=";" horiz-adv-x="626" d="M90 66l94 84q-18 18 -26 34q-2 1 -2.5 5.5t-1.5 5.5v63l-7 37q-6 34 29 51q5 4 17.5 9.5t15.5 6.5l33 17q10 7 13.5 8t6 -0.5t6.5 -9.5q5 -6 14.5 -21.5t16.5 -21.5q30 -30 23 -88q-3 -56 -17 -107q-12 -64 -76 -90q-3 -1 -20.5 -10.5t-26.5 -13.5q-8 -3 -53 -13 q-1 0 -3.5 2t-2.5 4q-4 5 -33 48zM432 635q0 -15 -20 -39q-26 -36 -68 -55q-15 -6 -63 -31q-30 -18 -45 14q-14 33 -11 78q0 5 -2 15.5t-2 15.5q0 29 2 45q8 32 45 47q34 18 82 39q5 2 11.5 4t7.5 2l20 10q15 -6 21 -18q9 -15 22 -53q10 -29 0 -74z" />
<glyph unicode="&#x3c;" horiz-adv-x="804" d="M483 778l-20 -6l-2 2q23 14 31 17q-5 -5 -9 -13q9 0 19 13q-6 0 -10 2q2 1 8.5 5t10 8t5.5 9q0 4 12 10l37 29q34 21 41 37l8 4q4 0 4 -2q5 -32 9 -37q17 -13 22 -29q20 -50 8 -82q-3 -8 -8 -32q-4 -17 -37 -54q-6 -9 -18 -12q-20 -4 -33 -14q-25 -20 -39 -25l-8 -4 q-34 -24 -65 -29q-1 0 -2 -0.5t-3.5 -2t-5.5 -3.5q4 0 11 1t8 1v-4q-12 -6 -15 -6q-29 -8 -43 -22l-8 -4q-7 0 -10 -3q-4 -5 -10.5 -10t-14 -10t-10.5 -8q-10 -8 -28.5 -26t-24.5 -23q-21 -21 -25 -23q-9 -5 -18 -12t-22.5 -19.5t-16.5 -15.5q0 -1 -1 -1.5t-2.5 -2 t-2.5 -4.5q17 4 47 8q-6 -7 -20 -11.5t-19 -11.5q-27 -31 2.5 -51.5t93 -36.5t78.5 -24q20 -4 121 -35q16 0 24 -2q17 0 19 -6q7 -9 22 -45q-4 -6 -9.5 -9.5t-9 -5.5t-10 -3t-9.5 -1h-10h-9q-3 0 -9 1t-9 1q-30 4 -60.5 12t-72.5 20.5t-60 17.5q-44 10 -98 38l-37 13 q-8 4 -34 17.5t-40 19.5q-36 20 -49 69q-18 58 23 107q0 -3 -3 -10.5t-4 -12.5l21 19l57 49q18 14 23 20q10 13 24 13l25 20l14 14v4q4 0 11.5 1.5t11.5 1.5l6 2q4 10 15 14t12 4q22 17 26 23q6 7 18.5 18.5t14.5 13.5q3 4 11.5 10.5t11.5 10.5q12 12 26 23.5t32.5 25 t27.5 20.5q1 1 4 2t4.5 2t4 3.5t2.5 5t-1 6.5q4 4 8 6zM268 410q3 6 7.5 9.5t10 5t8.5 2t10.5 0t8.5 -0.5v-4l-43 -19q0 5 -2 7zM412 522l2 -2q-15 -19 -29 -14zM440 756l-37 -25q9 14 14 17.5t23 7.5zM188 537h15q-12 -16 -19 -11q-2 0 4 11zM70 459q3 13 16 20 q-5 -14 -16 -20zM342 453l-14 -13q-1 3 -1 7t-1 6h16z" />
<glyph unicode="=" horiz-adv-x="851" d="M156 649h8q6 -5 14 -7.5t12.5 -3t16.5 0t14 0.5h211q11 -1 44 -1.5t52 -2.5q20 -2 70 -19q14 -6 17.5 -13.5t2.5 -24.5q0 -5 5 -25q5 -24 -6.5 -40.5t-32.5 -16.5q-14 0 -43.5 -1t-44.5 -1q-12 0 -37 1t-39 1h-223q-11 0 -29 22q0 1 -1 3.5t-1 4.5q-22 71 -10 123z M178 391q5 19 23 23l71 12q2 0 22 2t30 4q62 6 116 -2h64q44 5 102 -16q13 -4 16 -8t3 -15q-6 -37 -25 -37q-29 -3 -49 11q-11 8 -31 8q-60 -6 -61 -6q-11 0 -34 1t-34 1h-92q-23 -3 -92 6q-4 1 -29 16z" />
<glyph unicode="&#x3e;" horiz-adv-x="966" d="M326 858l22 12l12 -24q-2 -28 29 -55l25 -19l108 -90q84 -66 109 -88l35 -27l45 -39q2 -2 9 -7.5t9 -8.5q11 -10 11 -15t-11 -24q-12 -28 -14 -43q-6 -23 -19 -31q-20 -12 -45 -16q-12 -3 -63 -23l-154 -67q-15 -4 -26 -12q-30 -22 -89 -45l-81 -37l-97 -43l-16 -9 q-12 -8 -17 -8.5t-22 2.5q0 13 2 21q4 9 -2 18q-6 7 -4 19.5t12 21.5q19 19 35 27q63 43 197 104q9 6 20 6q17 10 113 38q95 28 100 53q4 22 -51 51q-9 5 -21 10l-59 49q-5 3 -24.5 13.5t-28.5 17.5q-20 13 -39 39q-27 51 -31 90q-2 12 2 33q0 2 17 77q2 8 2 29z" />
<glyph unicode="?" horiz-adv-x="880" d="M260 225l12 -6q-4 -6 -32 -57q-37 0 -60 26q-23 27 -37 52q-13 26 -10 61q2 31 2 90q-3 69 35 156q36 93 115 182q16 21 33.5 39.5t42 40.5t35.5 31t45.5 37t39.5 32q86 78 133 125q39 39 60 80q14 28 14 60q-3 40 -33 40q-35 3 -69 0q-28 -3 -58 -18.5t-49.5 -31 t-52.5 -44.5l-16 -14q-22 -42 -56 -25l-26 9q-15 2 -21.5 18.5t0.5 36.5q21 52 72 96q116 105 227 102q80 0 121 -43q59 -67 72 -122q17 -76 -8 -154q-12 -36 -56 -117q-9 -18 -20 -26q-10 -13 -32.5 -36t-29.5 -32q-3 -2 -6 -10t-10 -10q-2 -1 -8.5 -10t-10.5 -13 q-3 -3 -16 -15t-21.5 -18.5t-17.5 -11.5q-15 -10 -40.5 -33t-33.5 -30q-1 -2 -10 -11q-12 -5 -33 -26q-6 -9 -24 -24.5t-21 -18.5q-69 -53 -94 -74q-7 -6 -15 -15t-17.5 -20.5t-14.5 -17.5q-4 0 -4 -4q-3 -17 -20.5 -54.5t-18.5 -60.5l-6 -19q-13 -31 2 -49q24 -36 47 -43z M168 -109q-9 7 -22 19t-19 16q-8 11 -8 31q2 23 24 74q21 39 70 88q14 17 35 6q7 -5 41 -33q7 -6 2 -29q-12 -40 -31 -55q-30 -30 -61 -80l-13 -14q-13 -15 -18 -23zM141 422q1 0 2 -1t2 -1q1 4 6 13t7 16q2 4 11.5 33t16.5 44q18 40 33 84q10 23 23 25q10 0 10 8 q16 18 34 39t38.5 46t31.5 38l6 10l-4 4l-20 -18l-92 -103q-38 -38 -60 -90q-5 -16 -19.5 -48t-19.5 -50q-11 -32 -6 -49z" />
<glyph unicode="@" horiz-adv-x="1363" d="M831 131q1 -6 -9 -30.5t-9 -30.5q-106 -115 -405 -66q0 2 2 4q-20 10 -31 12q-1 0 -3 -1t-3 -1q-4 -2 -11 -2q-13 10 -50.5 24.5t-53.5 33.5q-7 6 -25 16t-26 23q-10 17 -28.5 49t-27.5 47.5t-20.5 38t-19.5 41.5q-19 39 -22.5 107.5t7.5 117.5q25 114 72 203 q67 121 111 184q53 70 122 127q41 35 177 125q13 27 121.5 48t185.5 28q101 -16 180 -56t131 -105.5t66.5 -155t-13.5 -203.5q-31 -69 -41.5 -92.5t-27 -53.5t-20 -34t-27 -35t-41.5 -56q-9 -16 -47 -55t-46 -49q-39 -44 -81 -72q-12 -6 -15 -12q-6 -6 -25.5 -16.5 t-25.5 -12.5q-5 0 -28.5 -4.5t-26.5 -7.5q-58 -3 -90 10q-7 0 -16 2.5t-19.5 6.5t-14.5 5q-38 17 -71 64q-18 29 -21 57l-4 23l-35 -33l-14 -16q-43 -37 -72 -35q-6 0 -19 -1.5t-23 -1t-19 4.5q-28 11 -45 33q-34 43 -43 102q-15 119 61 258q49 85 150 172q57 49 84 66 q41 29 76 45q32 16 59 4q29 -14 43 -37q28 -51 49 -107q14 -34 8 -71q-8 -35 -41 -47l-35 -6q-4 -1 -12.5 -3t-15 -4t-10.5 -6q-7 -3 -84 -55q-12 -8 -24.5 -19t-20.5 -19t-22.5 -23t-20.5 -21q-66 -67 -63 -100q3 -25 42 -5q39 19 92 74l10 13q6 12 13 23t17 22.5 t16.5 18.5l19.5 21t18 19q3 5 19 10q40 6 76 -16q23 -15 34 -33q24 -52 -6 -121q-5 -14 -20.5 -38t-20.5 -35q-24 -35 -22.5 -80t37.5 -51q47 6 73 24.5t70 73.5q7 7 18 25t13 20q7 18 18 29q164 340 105 579q-2 10 -13 22.5t-29.5 26.5t-32.5 23t-34.5 21.5t-21.5 13.5 q-22 22 -121.5 25.5t-130.5 -11.5q-93 -46 -113 -59q-26 -21 -77 -57t-82 -59.5t-70.5 -64.5t-67.5 -88q-20 -32 -67 -153.5t-50 -145.5q-5 -14 -2 -56t2 -54q7 -75 26.5 -123t63.5 -107l17 -18q25 -46 86 -78.5t115 -28.5q24 3 79.5 19t73.5 26q69 39 94 54q3 1 45.5 -14 t46.5 -13z" />
<glyph unicode="A" horiz-adv-x="983" d="M762 680l4 -4l41 18q43 22 82 25q12 3 26 -4q6 -2 18.5 -9t18.5 -10q-4 -11 -26 -20q-25 -13 -52.5 -29t-60.5 -37t-51 -32q-17 -10 -17 -27q0 -9 -2 -28.5t-2 -28.5q-4 -28 -18 -33q-10 -4 -10 -29q5 4 9 11t5 8q6 -1 7 -8t-2.5 -15t-10.5 -12l-4 -4q-2 0 -8 -6 q0 -107 -2 -160q0 -6 -5 -41q-11 -46 0 -123q8 -43 11 -96q0 -12 1 -34t1 -34q0 -15 -4 -51l-19 18l-6 -8q-2 -2 -2 -10h-15t-18 -4t-4 -15q-17 -5 -35 9q-27 22 -32 30q-40 63 -60 146q0 1 -0.5 6t0 7t2.5 5.5t6 5.5q2 0 2 19l-12 49q-27 87 -39 264l-6 33q-3 -2 -11 -5 t-11 -5q-11 -8 -21.5 -15t-26.5 -14t-22.5 -9.5t-28 -10.5t-24.5 -9q-54 -16 -105 -28q-42 -14 -76 -72q-19 -33 -59 -90.5t-55 -81.5q-11 -11 -27 -14q-16 -1 -19 -8.5t2 -14t2.5 -10t-16.5 1.5q-36 -6 -53.5 2t-19.5 22t-7 37.5t-16 38.5q48 63 103 127l55 58l12 13 q-2 -1 -1 2q2 3 11 15l-18 17l-41 30q-16 16 -10 35q16 7 39 -8q22 -12 59 -27q9 -5 18 4l66 76q2 2 5 8.5t5 8.5q25 28 47 59t52.5 79.5t40.5 63.5l157 248q34 49 37 103q3 35 21 131q22 92 81 213q9 17 16.5 20t24.5 -2l93 -22q16 -3 28 -15q33 -33 47 -51q10 -16 13 -33 q12 -55 -2 -135q-11 -83 -27 -176q0 -3 -1 -11t-1 -12q0 -54 -25 -131q-5 -13 -20 -102q-2 -14 -2 -43zM373 627q-44 -58 -59 -96t-2.5 -50.5t50.5 -1t95 48.5q17 7 20 29q0 34 4 100q9 122 -10 123q-15 0 -64 -90q-4 -7 -11 -21z" />
<glyph unicode="B" horiz-adv-x="1120" d="M406 -51q-14 -11 -23 -2q-8 16 -43 6q-11 -5 -64 -10q-10 -1 -27.5 -1.5t-31.5 -3t-29 -8.5q-12 -6 -33 -11.5t-24 -6.5q-17 -4 -21 -8t-10 -19v-12q-8 -14 -23.5 -25t-27.5 -10q-2 0 -14 1.5t-19 0.5q-18 3 -18 23q1 7 -5.5 11.5t-15.5 2.5q-6 1 -22 4.5t-25 3.5 q-17 -1 -47 -6t-39 -6q-33 -10 -63 -10q-5 0 -17 -2t-18 -2q-18 -5 -25.5 1t-3.5 23q3 8 10.5 26.5t10.5 29.5q25 55 31 77q14 45 30 68q19 16 31 45q14 25 41 33q19 10 45 6q40 -6 80 -6q34 -6 58.5 2t39 27.5t24 39t18.5 44.5t16 36q22 60 26 76q8 14 -2 14l-14 11 q-36 14 -27 59q-4 30 4 53q0 35 25 60q14 1 37.5 1t36.5 1q15 0 20 3.5t14 20.5q10 23 29.5 63.5t34 74t22.5 63.5q13 38 0.5 53.5t-65.5 18.5q-14 -3 -51 2q-11 0 -15 16q-16 100 27 178q3 7 14.5 21t14.5 18q18 15 30 17q49 2 105 9t123.5 18t105.5 16q44 4 193 4 q72 0 123 -11q75 -21 102 -75.5t12 -145.5q-6 -41 -43 -88l-22 -37q-25 -39 -62 -61l-26 -16q-18 -13 -47 -29l-99 -49q-16 -4 -24 -8l-33 -13q0 -4 -2 -6q5 -1 13.5 -1t12.5 -1q-4 0 -14 -3t-14 -3l-2 -2l10 -6q-5 -5 -16 -9q2 -4 2 -6q4 -1 18 -4t21 -6q15 -4 47 -13 t49 -14q3 -1 8 -5t8 -5q6 -2 17.5 -3t15.5 -3q3 -2 5 -6t4 -9.5t3 -8.5q7 -12 26.5 -39.5t27.5 -44.5q28 -69 10 -123q-1 -3 -19 -39q-22 -38 -24 -45q-28 -31 -33 -58q-2 -4 -12 -14q-9 -13 -20.5 -23.5t-33 -26.5t-26.5 -20h-8q-9 -5 -41 -16q8 -6 6 -10l-2 -2l-15 -8 q-22 -25 -65 -35q-14 -5 -54.5 -17t-62.5 -22q-10 -3 -30.5 -6t-26.5 -4q-5 0 -25 -5q-12 -4 -55 -14q-9 -5 -23 -8l-4 -4q5 0 9 -2zM330 166q8 1 21.5 1.5t25 1.5t22.5 3l109 10q45 2 125 27l184 49q39 14 33 43q0 3 -0.5 12.5t-1 13.5t-2 12t-3.5 12.5t-5.5 10t-8.5 9.5 q0 1 -1 3t-1 3q0 7 -3 14.5t-5 11.5t-8.5 10.5l-8 8t-10.5 9t-10 7.5q-1 2 -5 2t-9 -0.5t-10 0.5h-15q-50 -3 -84 2q-40 7 -65 7q-14 -2 -41 -4.5t-41 -4.5q-13 0 -59 -8q-53 -11 -66 -14q-37 -3 -61 -13.5t-36.5 -29.5t-19.5 -37t-16.5 -46.5t-20.5 -49.5q-9 -23 -12.5 -39 t0 -25t7.5 -14t17 -5.5t22 0t30 3.5t33 4zM453 639q126 38 325 113q124 55 183 96q25 15 31 35.5t-11 29.5q-2 2 -4 6t-4 5q-36 21 -49 22q-38 13 -105 0q-3 0 -7.5 -1t-6.5 -1q-22 16 -66 -2q-1 -3 -4 -3.5t-4 1.5q-2 1 -11.5 -0.5t-10.5 4.5q-4 4 -27 -8q-3 0 -10 1.5 t-10 0.5q-21 -5 -58 -10.5t-47 -7.5q-37 -7 -95 -98q-60 -97 -68 -161q-5 -41 24 -37q14 2 35 15zM717 1155l244 -12q-6 12 -23 12q-47 6 -193 6q-10 -4 -28 -4v-2zM870 393q-12 -17 0 -69q1 -2 6.5 -6t8.5 -7q7 21 1.5 46t-16.5 36zM489 4q-16 0 -40 -12q24 -6 40 12z M584 29q-2 -2 -2 -6q3 1 7.5 1.5t8.5 1.5t8 3q2 2 2 6zM551 2q12 -3 16.5 -1.5t16.5 11.5q-26 -8 -33 -10z" />
<glyph unicode="C" horiz-adv-x="808" d="M117 897q23 64 131 209t149 186q23 26 52 23q131 70 226 -49q76 -95 96 -260q19 -155 -25 -243q-11 -22 -25 -36q-48 -53 -127 -43q-16 5 -62 14q-14 3 -14 17l8 155l6 78q6 65 9 146v16q12 85 -30 82q-32 -3 -67 -42q-15 -18 -16 -28q-7 -28 -29 -53q-31 -29 -57 -86 q-8 -21 -28 -63.5t-29 -65.5q-37 -85 -49 -172q-14 -81 -19 -133q-2 -20 -10 -64.5t-10 -66.5q-1 -15 4 -101l6 -47q8 -55 19.5 -86.5t25 -38.5t27 -1.5t26.5 24.5t23.5 39t19.5 43q3 8 31 106q9 23 -2 45q-12 25 -0.5 47.5t41.5 34.5q36 14 125 27q60 8 67 -55 q0 -33 -10 -58q-14 -32 -52.5 -134.5t-70.5 -168.5t-65 -100q-4 -2 -21 -25q-20 -36 -57 -30q-40 5 -82 0t-96 16q-14 2 -39 2q-14 -3 -31 4q-53 15 -104 76q-27 27 -29 51q0 2 -14 43q-20 63 -17 143q0 25 12 91q28 113 37 147q3 9 20.5 57t24.5 72q27 66 29 72h-8l-10 -19 q-3 -6 -15 -18q77 167 105 221z" />
<glyph unicode="D" horiz-adv-x="1124" d="M279 -20l49 12q-18 -15 -40.5 -24.5t-37.5 -6.5q-2 -1 -8 -2t-8 -1.5t-6.5 -2t-6 -3t-5.5 -4.5t-6.5 -6.5t-6.5 -8t-8 -11.5q-16 -16 -29 -10q-10 2 -12 2.5t-14.5 -2t-14.5 -2.5q-14 -4 -22 -6.5t-9.5 -4l-3 -3t-3.5 -2t-9.5 -2t-22.5 -3.5q-86 -10 -94 -12q-10 6 -14 2 q-10 -3 -18.5 -4.5t-18 1t-13.5 3.5t-15.5 6t-12.5 6q-13 4 -16 27q3 27 -5 47q-5 0 -5.5 6t1.5 9q4 10 14 35.5t15 39.5q12 24 31 27q49 28 69 31q18 7 111 32l18 7q0 1 -4 1h-5q2 2 16 7q17 4 21.5 8.5t10.5 21.5l27 76l84 250q22 62 43 137q10 32 29.5 91t27.5 83 q0 1 21 66q-20 -4 -25 -4q-65 -24 -100 -29q-25 0 -39 4q-35 6 -35 58v41q-4 23 6 110q2 14 23 60q6 18 22 18q13 -3 29 1t36.5 12t28.5 10l68 12q21 5 69.5 12.5t73.5 15.5q114 24 246 17q133 -11 207 -45q64 -29 100 -92q33 -55 15 -170q-4 -37 -45 -152q-9 -19 -34.5 -78 t-43.5 -90q-5 -9 -20 -31t-23 -36q-5 -8 -17.5 -26.5t-19.5 -28.5t-18 -24.5t-21.5 -27t-21.5 -24.5q-51 -62 -86 -95q-76 -79 -148 -135q-139 -99 -264 -162l-55 -28q0 -4 -2 -6zM518 324q109 72 189 155q106 110 163 203q61 109 68 184q3 9 -0.5 17t-9.5 10q-52 15 -84 22 q-158 26 -312 -10q-23 -6 -30 -10q-3 0 -6 -4.5t-2 -7.5q-16 -22 -27 -52q-14 -51 -57 -174q-9 -31 -29.5 -88.5t-24.5 -68.5q-1 -6 -9 -43.5t-15 -59.5q-80 -172 -15 -183q58 -11 197 107z" />
<glyph unicode="E" horiz-adv-x="862" d="M238 737q-24 16 -48 47q-53 83 -34 164t73 127q67 62 162 94q148 46 287 31q26 -2 72 -18q31 -16 41 -66l18 -78q1 -5 10 -37q6 -39 -22 -67q-48 -51 -105 -39q-36 8 -76 8q-12 25 -140 -7q-137 -33 -198.5 -76t32.5 -56q18 -3 42 -4q79 -10 146 -2q33 8 77 -2 q18 -6 23 -27v-4q-25 -13 -49 -43q-16 -18 -45 -33q-63 -29 -153.5 -90t-180 -146.5t-111.5 -152.5q-6 -14 -1.5 -45.5t16.5 -42.5q22 -20 63 -27q56 -7 133 -4q17 2 80 9.5t96 13.5l123 12q56 10 103 37q12 9 17 8.5t11 -12.5q25 -32 33 -70q-14 -3 -26 -12 q-34 -37 -62 -51q-79 -43 -119 -53q-31 -8 -65 -11q-73 -10 -78 -10q-13 -2 -39 -4t-39 -4q-4 1 -15.5 -3t-17.5 -1q-12 5 -30 -2q-71 -6 -131 14q-78 27 -125 96q-2 6 -5 12.5t-7 12.5t-5 8q-64 108 -18 242q38 112 123 182q12 10 100 63q99 58 99 88q1 19 -35 31z" />
<glyph unicode="F" horiz-adv-x="940" d="M795 1022h26q-25 -14 -96 -23h-10q-24 0 -60 -4q-20 -2 -51 -6q-72 -7 -85 -16q-10 -7 -22 -40q-11 -31 -22 -54q-19 -41 6 -63t105 -11q78 12 119 12l-48 -6q4 -1 8.5 -3.5t6.5 -2.5q27 5 77.5 7.5t73.5 6.5h-94q37 10 100.5 8.5t94.5 -10.5q0 -16 -9 -20q-4 -4 -4 -6 q-2 -9 -9 -17.5t-11.5 -12t-17 -10t-15.5 -8.5q-21 -15 -24 -20q-2 -3 -5 -5.5t-5.5 -3.5t-6.5 -2.5t-6 -2.5q-54 -11 -115 -33q-7 -3 -80 -19l-16 -4l-72 -24l-24 -9q-85 -31 -104 -47q-20 -17 -42 -72l-6 -15q-15 -40 -26 -66q-14 -29 -58 -148t-57 -149q-16 -41 -21 -64 q-11 -43 -26 -116q0 -7 -4 -19q-41 -7 -64 -14q-19 -6 -53 -2l-37 14l-39 17q-24 10 -30 14q-35 24 -13 70q5 10 13 38l18 89q1 5 5 14t5 14q8 27 10 45q1 7 13.5 77t19.5 122.5t4 75.5q-9 39 -14 55q0 6 -4 8q-1 1 -8.5 4t-8.5 6q-9 14 -16 15q-11 0 -6 14q4 7 0 25 q-13 39 0 90q1 3 5 9t5 7h4q19 -18 26 -16t19 28q9 14 11 19l10 8q1 -2 6 -9.5t6 -12.5q7 -20 13.5 -23t31.5 0q40 3 66 8q19 -23 37 4q9 8 12 19q10 25 24 54.5t22 45.5t15 35t6 30t-7 23t-20.5 20.5t-39.5 16.5q-9 2 -25 23q-8 10 -20 34l-10 21q-15 24 -11 39q3 3 0 10 q-4 21 -3 30t6 31t6 31q0 15 20 19q4 0 4 -2q14 -19 45 -19l131 -8q0 -6 -2 -12q-10 -2 -33 -2l-61 -5q-2 0 -4 -1l-6 -3l-8 -4q32 -8 38 -8q50 -4 76 -4q17 0 22 5t5 20v14q15 10 31 -2q1 -1 4 -3.5t5 -3t6 -0.5t9 3q-4 -18 -4 -19q4 -4 14 -4l205 10q5 0 15.5 1t19 1 t14.5 -2q12 -3 26.5 -3.5t24.5 0t28.5 2t25.5 1.5q5 0 20 4t21 5l7.5 -2.5t8.5 -2.5t8 -1q53 0 80 2q70 4 103 4q23 0 36 18q-4 8 -8 12q1 5 15.5 9.5t17.5 1.5l12 -15q4 -8 8 -8q6 -1 10 -4.5t8 -10.5t5 -9q12 -17 -2 -41q-7 -11 -2 -27l-41 -25h18q-3 -17 -8 -21t-20 -1 q-17 2 -33 -10q-33 -26 -59 -21l45 21l-39 -7q-14 -3 -6 -14q-11 0 -11 21q2 0 7.5 1t7.5 1l-2 4q-50 3 -86 -8q-11 -4 -54 -9q-7 -1 -23.5 -2t-28 -4t-21.5 -10zM739 1010l13 4q0 1 -1 2t-1 2l-11 -4v-4zM793 1022q-16 -4 -19 -4q11 -8 19 4z" />
<glyph unicode="G" horiz-adv-x="948" d="M231 1016v2q16 13 27 29q5 7 39 36q2 2 10 6t12 7q3 3 8.5 11.5t8.5 10.5q48 36 92 64q4 4 49 26q29 9 64 41q21 19 51 15q40 -2 108 -29q16 -7 25 -18q9 -7 30 -22.5t36 -28.5t28 -27q37 -33 47 -60l6 -8q21 -12 17 -55q0 -20 4 -66q4 -45 -21 -131q-4 -14 -9 -27.5 t-13.5 -32t-11.5 -26.5q-5 -13 -23 -31q-8 -7 -18 -15t-22 -17t-19 -15q-25 -19 -54 -6q-35 8 -75 27q-33 10 -27 47q19 102 23 131l18 115q0 1 2 18t4 25q-3 61 -42.5 80.5t-91.5 0t-97 -64.5q-24 -24 -35 -49q-2 -7 -11 -19t-10 -14q-60 -89 -81 -125q-5 -7 -9.5 -16.5 t-9 -23l-6.5 -19.5l-23 -57q-13 -37 -43.5 -106t-42.5 -103l-34 -93l-27 -92q-16 -76 -6 -131q7 -22 18 -30q27 -19 49 -29q-8 -3 -18 -10q23 -23 39 -25q1 -1 2.5 0t3.5 3t4 3l6 -10q25 3 47 22q7 7 21.5 19t17.5 14q0 -1 1 -2t1 -2q-3 -4 -10.5 -15.5t-11.5 -15.5v-4l14 4 q6 4 19 15t20 16l115 111q4 4 12 8q-2 -6 -6.5 -12.5t-8.5 -10.5t-11 -10t-11 -10q-16 -12 -24 -31q47 36 118 123q-4 0 -12 -4q-6 -7 -14 -15t-17 -16.5t-14 -13.5q12 18 27 33l28 30q17 12 9 25l-25 -14q2 10 14 22t15 17q-18 4 -50 8l9 12q-7 10 -23 10q-32 3 -39 41h-12 l-14 49q5 0 11 2t7 2l-18 46q14 9 16 10q0 3 1 9.5t1 10.5q2 0 4.5 1t3.5 1q34 -14 45 -22q4 -3 10 -7l7 -5l5 -1q6 -2 9 0q17 0 25 -4q9 -6 47 -6q102 -4 161 -4h54q-2 10 -12.5 8.5t-18.5 1.5l43 4q11 0 20 3q11 5 21.5 2.5t17.5 -15.5q6 -12 26.5 -27t23.5 -18l14 -18 q0 -6 -6 -14.5t-8 -13t6 -13.5q-6 -12 -20.5 -16t-18.5 -7l18 -16q-3 -1 -8 -4t-6 -4l-45 -4q-16 0 -27 -11q-5 -5 -8 -2q-12 2 -31 -7.5t-22 -10.5q-10 -3 -15 -19q-14 -26 -24 -55q-1 -1 -2 -4.5t-2 -5.5q-17 -76 -17 -78q0 -5 -3 -23t-2.5 -23.5t3.5 -23.5q2 -2 2 -8 l4 -102q-6 8 -8 18q-8 -4 -8 -10q-5 -18 -16 -18q-1 0 -3 -3.5t-5.5 -9.5t-6.5 -10q-58 10 -96 51l-7 6q-7 6 -11 11h14l-10 80q-18 -26 -6 -78q-16 22 -13 51q2 10 -2 37q-11 0 -30 -19q-7 -12 -16.5 -21t-26.5 -20.5t-21 -15.5q-33 -29 -57 -39q-10 -3 -32 -14.5 t-34 -14.5q-45 -19 -98 5q-78 35 -193 108q-22 9 -18 23q-4 4 -8 6q-15 5 -17 8q4 -2 11 -2q4 12 3 14t-12 4q-2 0 -6 4q-1 1 -4.5 8t-7.5 11q7 -2 33 -10l-31 112q-2 0 -14 -4q-2 4 -13 23t-14 28q-6 6 -12 6q-17 6 -19 7q6 4 15 4q11 64 59 166q5 12 14.5 35.5t14.5 35.5 q1 2 37 62q60 101 67 112q42 67 55 93l7 14q-4 11 0.5 19t13.5 16t12 12q7 -1 12 3t10 12t7 10q5 3 11.5 13t8.5 13q-4 2 -12 2q38 53 55 68zM223 985l13 23q1 1 0 2l-2.5 2.5t-2.5 3.5q-1 -2 -4.5 -8.5t-4.5 -10.5t1 -12zM158 70l4 8l-15 4q-2 -2 -2 -4q3 -3 13 -8z M-115 354q0 3 1 9.5t1 9.5q-14 -10 -2 -19zM-102 389h2q4 8 4 12q0 2 -4 2q0 -3 -1 -7.5t-1 -6.5z" />
<glyph unicode="H" horiz-adv-x="1032" d="M418 -174l-17 -16q-20 -9 -25 -7.5t-11 15.5q-1 3 -8 10.5t-9 9.5q2 4 6.5 10t5.5 9q1 9 1 28.5t1 28.5v23q15 41 7 77q0 2 3 10t3 13q5 11 4 14q-8 11 8 33q3 6 6 17t4 14q6 21 15.5 66t15.5 67q-7 29 30 137q38 112 33 144q-6 39 -59 24q-11 -8 -31 -12h-1l-1 -1h-1 l-1 -1h-1l-1 -1h-1l-1 -1h-1l-1 -1h-1l-1 -1h-1q-89 -42 -109 -60q-23 -21 -40 -80q-2 -8 -8 -28q-5 -19 -8 -29q-2 -18 -10 -59q-1 -3 -1.5 -12t-2.5 -15q-5 -14 -25.5 -89t-44.5 -116q-3 -1 -6 -8q-30 -37 -38 -41.5t-46 -3.5q-3 0 -7.5 1t-8 1t-6.5 -2q-33 -6 -37 22 q-3 33 2 64q23 120 74 289q14 31 7 45.5t-21 15.5t-29 12.5t-17 36.5q-5 30 -2 39q3 12 6 35t6 35q7 26 -2 35l41 86q10 -4 22.5 -4.5t22.5 1.5l27.5 5.5t28.5 5.5q19 4 36.5 25.5t20.5 41.5q9 31 20.5 61.5t18 45.5t26 57t25.5 56q12 27 90 170q11 19 33 16l45 -6 q26 -8 16 -37q-5 -13 -18.5 -43.5t-17.5 -46.5l-37 -92q-35 -56 -43.5 -92t4 -51.5t43.5 -16.5t69 9t88 28q2 5 7 11.5t6 10.5q14 47 59 156q1 5 9 24.5t8 28.5q0 12 4 23.5t13.5 28t12.5 22.5q15 29 17 53q0 8 16 51q8 15 30.5 53.5t33.5 59.5h83q62 0 115 -29 q50 -26 39 -80q-3 -8 -7.5 -23t-9.5 -26.5t-12 -21.5q-42 -80 -96 -236q-8 -21 -6 -33.5t9.5 -19.5t21 -8.5t28 0t31 5t29.5 6.5l12 3q23 5 27 -8q-23 -4 -117 -25q-25 -5 -51 -18q-29 -15 -39 -57q5 0 19 -1t20 -1q13 0 22 6q7 1 25 3t24.5 2t24.5 -1q19 -4 47 4q16 2 49 2 q-13 22 -16 29q-1 3 8 38h14l5 5q-2 3 -10.5 11t-10.5 13q46 -17 57 -55q-8 -4 -14 -4q-4 -10 -4 -16.5t2.5 -9.5t10 -5t12.5 -2h16q-13 -10 -24.5 -12t-25 0.5t-20.5 1.5l35 -23q-3 -1 -10.5 -2.5t-11.5 -2.5t-9 -6t-8 -13l39 -4q-8 -2 -18.5 -7t-14.5 -6q-18 -5 -26 -16 q5 0 14 -2.5t12 -3.5q-90 -26 -147 -49q-75 -23 -105 -33q-40 -11 -53 -51q-16 -37 -28 -111q-13 -58 -21 -80q-7 -24 -15.5 -69t-13.5 -64q-16 -82 -28 -123q0 -2 -2 -4t-4.5 -5t-4.5 -5q0 -2 -1 -4.5t-1.5 -4t0.5 -3.5q3 -8 4.5 -17.5t-0.5 -20.5t-3.5 -18t-5.5 -20.5 t-5 -18.5q0 -3 -1 -8.5t-1 -7.5q4 -6 1 -21t-5 -20.5t-8 -20t-8 -20.5q-1 -5 -6 -11.5t-14 -14.5t-13 -13q-15 0 -27 -4q-12 0 -16 -2q-14 -12 -42.5 -21.5t-41.5 -21.5q-5 -3 -7.5 2t-6.5 2q-12 -12 -13 -12q-4 0 -7 1t-6.5 2.5t-6.5 2.5zM156 618l34 89q-33 -9 -57 -11 q-18 -4 -25.5 -12t-15.5 -29q5 0 17 -2t18 -2q12 -2 18 -18q-4 -2 -16.5 -6t-21 -9t-15.5 -14q37 6 64 14zM545 711l-10 10q-22 2 -70 -12q-26 -11 -45 -11q-22 0 -39 -14q72 3 164 27zM375 754q-23 -4 -23 -19h13l86 39q-13 -4 -38 -10t-38 -10zM481 678q12 2 20 1t16 1 t15 8q-2 0 -10 2t-12 2.5t-12 -3t-17 -11.5zM365 700q22 -7 36 13q-15 -3 -36 -13zM496 778q0 1 2 4t2 4q-16 -2 -39 -10q12 2 35 2zM1128 846l-2 2l2 2v-4z" />
<glyph unicode="I" d="M227 1053q4 5 0.5 7.5t-10 2.5t-11 1.5t-1.5 6.5q3 2 7 7.5t5 6.5q26 17 29 41q12 10 26.5 17t23.5 9.5t25 5.5t23 5q58 19 184 51q66 17 107 3q61 -13 49 -76q-4 -26 8 -33q12 -5 -4 -59q-19 -7 -66 -14t-78.5 -21t-43.5 -43q-5 -23 -13.5 -46.5t-13.5 -43.5l-57 -228 q-2 -7 -7 -33t-10 -42l-45 -138q-3 -9 -12 -31q-41 -99 -32 -131t61 -22q19 1 73 -4q0 -2 -0.5 -8.5t0 -8t1.5 -6.5t4.5 -4t9.5 0q-9 -17 -6 -22q3 -4 1.5 -15t-3.5 -16.5l-6 -16.5t-5 -16q-2 -4 -5 -13.5t-5 -12.5q-24 -30 -18 -52q5 -12 -15 -22q-31 -12 -37 -2 q-13 16 -55 10l-131 -18q-13 -2 -71.5 -11.5t-88.5 -13.5q-24 -3 -70 -6t-59 -4q-15 0 -32 10q-21 9 -22.5 23.5t13.5 42.5l35 51q7 14 19 18q45 23 82 37q29 11 77 25q16 5 35 18l12 17q18 52 33 102q12 63 37 129q2 2 5.5 8.5t6.5 9.5q26 38 43 111q17 61 27 82q5 11 7 30 t3 23q2 8 3.5 29.5t4.5 32.5q14 55 17 69q11 41 13 62t-8.5 30.5t-23 11.5t-40.5 5t-52 10q-2 0 -1.5 11t1 21t-1.5 13q1 1 3.5 2.5t9.5 5t12.5 7t11.5 6.5t9 5zM-59 20l6 -4q10 0 29.5 -1t29.5 -1l109 13q46 5 63 8l26 6.5t34 11.5q7 3 15 4t17.5 1t14.5 1q5 2 14.5 4t17 5 t17.5 10q-8 0 -19 1t-16 1q-10 2 -35 -2q-3 0 -10 -1t-12 -1t-9 2l56 6q-7 10 -31 6q-8 -2 -76 -12q-14 -5 -16 -6q-17 -9 -55 -17q-26 -2 -73.5 -8t-64.5 -8q-21 -4 -32 -19zM524 1051l58 16q-6 1 -16 4t-16 4t-15.5 -1t-20.5 -9q-5 -8 -2.5 -11.5t12.5 -2.5zM270 1018 l25 4v4q-6 0 -10 -2q-9 0 -13 -2q0 -2 -2 -4z" />
<glyph unicode="J" horiz-adv-x="768" d="M102 -96q-19 -9 -49 2q-4 1 -16.5 4.5t-20.5 7t-14 8.5q-36 28 -51 68q-26 77 -29 143q-4 78 -8 117q-2 25 -10 90l-6 23q-8 19 -15 43q35 20 103 16q22 -28 22 -70v-2q9 -35 -6 -65q-2 -4 -2 -8l-6 -54q8 -223 56 -219q36 4 75 125q24 73 37 158q10 34 32.5 101.5 t32.5 101.5q11 32 11 34l71 258q16 61 39 134q3 18 -10 24l-14 8q-27 9 -60 35q-5 4 -18 14.5t-24 17t-23 9.5q-12 4 -31 23q-2 2 -17 13.5t-22 20.5t-12 21q8 14 0 31q-10 16 8 26q47 26 57 29q112 25 191 25q29 0 59 -3q10 -2 36.5 -1t36.5 1.5t36.5 3t36.5 3.5 q85 8 120 10h52q28 0 38 12q9 -9 9 -12q8 -62 8 -94q-2 -58 -25.5 -92t-81.5 -60q-6 -2 -43 -2q-44 0 -67 -2q-15 0 -15 -12q0 -3 -1 -8.5t-1 -8.5q0 -17 1 -53t1 -55q5 -83 5 -96q0 -12 -9 -48q-3 -10 -6 -29.5t-7 -35t-11 -29.5q-2 -3 -2.5 -10.5t-1.5 -9.5 q-7 -24 -17 -51.5t-23 -60.5t-20 -52l-16 -62q-7 -27 -47 -159q-4 -12 -4 -19q-5 -51 -49 -106q-29 -37 -54 -45q-5 -1 -14 -11q-37 -29 -82 -71q-9 -6 -18 -15q-20 -14 -43 -34q-5 -5 -13 -9q-18 -11 -39 13z" />
<glyph unicode="K" horiz-adv-x="946" d="M365 410q20 -7 23.5 -11.5t21.5 -11.5l59 -27q119 -55 129 -61q34 -15 74 -43q47 -35 55 -78q-2 -2 -14 -17.5t-19 -21.5q-40 -35 -49 -41q-4 -2 -16 -2q-51 8 -74 10q-36 4 -109 37q-22 14 -75 37q-19 8 -31 17t-39 20t-33 14q-19 11 -40.5 26.5t-31.5 22.5t-23 11 t-21.5 -5t-19 -29t-23.5 -58q-5 -14 -15.5 -39t-18.5 -45.5t-14 -38.5l-28 -80q-16 -41 -43 -47q-3 0 -5.5 -2t-6 -5.5t-5.5 -4.5q-6 12 -9.5 12t-20.5 -10q-5 -5 -11 -5q-12 -2 -24 7.5t-12 21.5q-4 18 2 35q6 42 20.5 127t20.5 127l18 141q3 10 -6 23q-24 16 -12 51 q23 79 38 106q0 2 7 9q11 -8 22 -23q44 139 136.5 391.5t148.5 382.5q13 8 49 13q62 8 115 -29l49 -33q25 -17 39 -51q7 -15 -8 -45q-1 -2 -7.5 -18.5t-11.5 -26.5q-6 -22 -8 -27q-16 -30 -72 -177.5t-71 -193.5q-24 -64 49 -39q86 29 361 216q93 63 114 75q6 3 31 17t38 20 q12 6 52 21q9 2 13 -2t3 -13q-5 -12 -13.5 -35t-13.5 -34q-12 -19 -26 -29q-8 -10 -27 -18q-42 -21 -78 -74l-18 -19l-160 -131q-16 -13 -119 -64.5t-137 -66.5q-14 -7 -27 -14.5t-38.5 -24t-39 -31.5t-21.5 -32t6 -32t51 -25zM573 279l41 -15q1 4 -0.5 6.5t-3 4t-5.5 3.5 t-5 3q-2 2 -12 8t-13 10q-6 11 -32 20q-24 3 -49 15q-4 5 -21 14q-8 2 -29 13.5t-36 11.5q-3 0 -5 2q-7 9 -45 18q-12 3 -26 10l-76 39q-4 0 -6 2l-33 9l-16 4q0 -2 -2 -4l20 -13q12 -8 14 -14q9 -27 39 -27q38 2 66 -26q21 -21 43 -15q8 4 8 -2q4 -4 10 -6t13.5 -3.5 t11.5 -2.5q13 -3 47 -20q2 0 4 -2q0 -7 2.5 -11.5t10.5 -7t10.5 -3t13.5 -1.5q30 -3 61 -20zM637 248l4 4q-9 12 -25 12q0 -1 21 -16zM580 270l-7 9q-4 0 -20 4q11 -11 14.5 -12.5t12.5 -0.5z" />
<glyph unicode="L" horiz-adv-x="665" d="M510 150q46 0 104 -7q18 -4 74 -28q1 0 2.5 -1t2.5 -3t2.5 -4t2.5 -3l-12 -4q-27 0 -43 -20q0 -4 -8 -4q-31 3 -70 -13q-23 -10 -47 -10q-54 -5 -115 -37q-47 -23 -120 -55q-7 -4 -23.5 -11t-23.5 -11q-16 -11 -19 -15q-29 -29 -115 -84l-12 -7q1 0 4 1q8 1 6.5 -0.5 t-10.5 -7.5q-6 -3 -29 -16t-36 -19q-20 -8 -66 -20q-4 0 -6 2q-37 25 -41 28q-5 3 -14 27q-1 6 -5.5 19t-5.5 20v35q5 30 2 37q-2 8 4 16.5t17 9.5q26 21 35.5 32.5t22.5 45t30 104.5q6 21 26 96t33 117q47 163 88 287q18 53 63 212t64 212l33 80q9 16 15.5 20.5t19.5 4.5 q12 0 45 31.5t45 31.5q57 -6 66 -61q5 -24 -2 -60q-4 -26 -20 -96.5t-36.5 -153.5t-23.5 -98l-82 -334q-6 -22 -21.5 -70.5t-21.5 -74.5q-17 -54 -17.5 -87t10 -47.5t36.5 -18t51.5 -0.5t67.5 7.5t73 4.5z" />
<glyph unicode="M" horiz-adv-x="1271" d="M377 915q9 13 30.5 38.5t30.5 39.5l31 41q39 57 109 78q17 6 40 -8q33 -15 60 -8q38 6 47 -15q0 -3 -1 -9.5t-1.5 -10t0.5 -6.5q4 -25 -10 -45q-2 -1 -2 -11v-11.5v-7.5t0.5 -4t0.5 -2.5v-1.5t-1 -3t-2.5 -4t-3.5 -7.5t-5 -11.5q-5 -12 -10.5 -32t-9.5 -29 q-64 -162 -26 -143q28 14 112 126q10 29 41 60q13 18 44.5 58t47.5 63q73 95 164 159q6 4 20.5 15t24 15.5t18.5 2.5q34 -3 56 -22q24 -20 35 -43q2 -1 3.5 -2t2.5 -2t2 -1q10 -2 16.5 -7.5t8.5 -16t2.5 -16.5t0.5 -21q-1 -2 -3.5 -8t-2.5 -8q-53 -116 -61 -170 q-8 -57 -10 -86q-1 -9 -3.5 -26.5t-4.5 -32.5t-5 -29q-1 -4 -2 -15.5t-2 -17t-3.5 -15t-7 -17t-11.5 -15.5v-8q5 -9 4.5 -13t-8 -14t-9.5 -14q-5 -16 -2 -21q9 -35 -14 -70l-1 -4q-1 -4 -1 -8l-14 -51q1 0 1.5 0.5t3 2t5.5 3.5q-2 -10 -19.5 -37.5t-11.5 -42.5q15 0 8 -33 q-3 -12 -8 -38t-10.5 -45.5t-13.5 -38.5q1 -1 1 -3.5t1 -3.5q5 -10 -3.5 -36t-5.5 -39q1 -4 -3 -27.5t3 -30.5q0 -19 -22 -41q-2 -5 -11.5 -12.5t-11.5 -9.5q-9 -22 -15 -27t-26 -6l-24 -4q-24 -3 -31 8q-2 5 -16 8q-20 4 -26 21t3 37q19 72 39 209q2 6 14 53q24 74 27 82 q0 -4 -2 -14t-2 -15q6 4 8 4q11 40 12 45q1 7 12 48.5t9 62.5q-4 4 0 8q11 11 11 31.5t7 29.5q4 4 5 11t1 8q-5 28 19 67v11l-2 2q-24 -53 -39 -92h-6q22 126 17 140q-6 18 -51 -41q-22 -28 -67 -91q-4 4 -4 6l-6 -2q0 -1 -6 -19q-7 -20 -16.5 -30.5t-30.5 -22.5 q-10 -3 -10 -12q-11 -9 -19 -25q-10 -28 -48 -89.5t-87 -136t-59 -89.5q-7 -13 -16.5 -23.5t-28.5 -26.5t-25 -22q0 24 4 29h-4q-1 -2 -29 -41l-4 4q-13 -32 -55 -43q-59 -20 -106 -6q-5 2 -20.5 5t-26 7t-17.5 10q-11 8 -11.5 11t9.5 22q44 72 61 94q38 54 33 88 q12 61 68 260q28 98 16 98q-13 0 -80 -104q-45 -75 -69 -100q-23 -49 -85 -151t-109 -193t-58 -158q-4 -22 -15 -45q-16 -25 -32 -12q-10 4 -11 4q-5 12 -14 19t-18 9.5t-25 4.5q-7 1 -13.5 4t-14.5 7.5t-11 6.5q-4 4 2 17q42 76 72 202q2 7 6 34.5t10 43.5q3 17 32.5 93 t33.5 90l24 98q34 135 50 190q0 2 4 17.5t4 23.5q2 49 37 144q2 6 7 22t9 25q7 23 16 45q10 22 25 16q5 -5 17.5 -14.5t17.5 -14.5q3 -4 4 -9t1 -12t1 -11q-7 -48 -29 -123q-22 -108 18 -89q42 19 136 158zM776 825q24 9 31 27q0 8 8 16q18 18 38 54.5t28 48.5 q-18 -15 -57 -69t-48 -77zM592 561q8 6 14 14q10 13 31 52q21 52 59 82q13 17 13 30q-23 -20 -62.5 -80t-54.5 -98zM322 176h4l10 19v10q-3 -6 -12 -15q0 -10 -2 -14z" />
<glyph unicode="N" horiz-adv-x="1200" d="M49 664l101 276q8 25 34 92q11 28 35 25q12 -4 49.5 -0.5t50.5 2.5q101 -7 130 -64q9 -15 22 -57q5 -15 -2 -25q-10 -18 -15.5 -34.5t-10 -42.5t-5.5 -33q-6 -28 -19 -77q-22 -92 -16 -100q8 -11 68 58q14 20 38.5 56.5t45.5 67t41 56.5q166 217 262 277l23 16 q25 22 47 19q4 0 28 6q11 1 34 5t34.5 5.5t33.5 3t32 -1.5q48 -9 57 -55q10 -71 -21 -181q-9 -27 -59 -127t-59 -129q-18 -51 -29 -71q-4 -9 -5.5 -25.5t-4.5 -23.5q-7 -20 -27 -103q-1 -10 -7 -28.5t-7 -24.5q-4 -17 -2 -23q9 -31 -2 -63q-1 -4 -6 -18t-7 -21t-6 -21.5 t-3 -19t3 -12.5q4 -8 4 -12l13 -29q26 16 60 53.5t50 50.5q0 -31 10 -43q6 -3 0 -14q-13 -24 -34 -55q-6 -9 -23.5 -31.5t-26.5 -36.5q-19 -25 -43 -37q-73 -38 -92 -45q-50 -22 -98.5 -11t-58.5 60q-10 45 -21 111q0 9 4 29q1 9 9.5 35.5t12 41.5t-0.5 31q-11 21 4 55 q8 20 12 45q1 3 -0.5 5.5t-5 6.5t-4.5 7q14 15 21.5 44.5t13.5 39.5q8 16 10.5 42.5t9.5 41.5q-2 -2 -8 -2q-5 -20 -29 -88h-4q20 60 39 133q5 31 54 159q49 126 32 147q-7 8 -22 5l-170 -244q-21 -30 -39 -43q-42 -38 -64 -82q-19 -40 -59 -83q-35 -38 -60 -86 q-31 -66 -82 -123q-27 -30 -49 -82q-35 -82 -43 -99q-23 -45 -37 -102q-11 -49 -38 -74q-8 -12 -15 -12q-8 -1 -15 -5t-17 -12t-13 -10q-44 -26 -80 -34q-53 -7 -84 -2q-8 2 -17.5 16t-6.5 24q9 43 14 160q8 181 100 424l82 209q10 34 11 43q-14 -18 -25 -39t-22 -46.5 t-17 -37.5q1 2 1 8t1 9z" />
<glyph unicode="O" horiz-adv-x="958" d="M-25 365q-10 110 48 268l104 270q19 49 31 64l49 98q19 43 72 104q27 27 71 23q20 -9 31 10q22 15 65 49q76 58 201 62q50 -3 74 -27q51 -51 76 -82q30 -38 57 -137q20 -60 16 -160q-6 -68 -34 -125q-2 -3 -3.5 -12t-3.5 -12q0 -12 -1 -34t-1 -34q-2 -18 -12.5 -66 t-11.5 -73q-2 -25 -8 -51t-17 -63.5t-14 -49.5q-4 -21 -19 -57.5t-18 -44.5q-4 -16 -12 -34t-14.5 -29t-20 -32.5t-18.5 -29.5q-1 -6 -10.5 -19t-10.5 -14q-13 -13 -47.5 -49.5t-56.5 -57.5q-58 -58 -134 -75q-6 -3 -36 -13q-31 -16 -62 -6q-42 6 -43 6q-49 3 -94 33 q-105 67 -152 176q-39 82 -39 205q-1 3 -1 9.5t-1 9.5zM170 604q-4 -14 -4 -37q-8 -26 -12 -75q-1 -10 -5 -32.5t-4 -35.5q2 -10 10 -44.5t9 -53.5q27 -108 35 -164q10 -62 47 -86q24 -16 41 -4q58 26 78 43q133 120 200 245q83 154 119 345q22 138 27 239q3 48 -29 80 q-26 30 -68 18q-3 -2 -18 -7t-23 -11q-13 -3 -26 -23q-12 -18 -32.5 -52.5t-31.5 -51.5q-2 -4 -19.5 -30.5t-23.5 -43.5q-9 -32 -30 -78q-9 -6 -9 -14q-9 -22 -30 -68t-31 -71q0 -8 -7.5 -13.5t-15.5 -5.5q-37 0 -45 5q-10 6 -23 10t-22.5 6t-28 5t-28.5 5z" />
<glyph unicode="P" horiz-adv-x="1069" d="M903 1368q76 -3 152 -33l92 -37q5 -2 10.5 -7.5t7.5 -6.5t6 -5.5t7 -5.5t12 1q2 0 2 -2q5 -6 23.5 -20t23.5 -27q3 -7 12.5 -27t12.5 -31q17 -63 -35 -151q-7 -12 -25.5 -35t-25.5 -35q-17 -28 -23 -33q-56 -49 -72 -57l-12 -8v-6l21 10q2 -2 2 -4q-11 -5 -43 -23 l-47 -20q5 -5 22 -0.5t23 2.5q-7 -6 -14.5 -9.5t-16 -5.5t-12.5 -4l-33 -10l-55 -20v-21q-4 -1 -23 -5t-29 -7q-9 -2 -28.5 -10.5t-22.5 -9.5v-7q31 10 43 13q-75 -33 -110 -41q-23 -4 -65.5 -16.5t-57.5 -16.5q-3 0 -7 -4l7 -12l-119 -33q-27 -8 -37 -2q-16 5 -25 -4 q-4 -4 -14 -4q-19 1 -22 1.5t-25.5 -5.5t-26.5 -7l-57 -14l18 -6l-32 -23q6 -6 12.5 -6.5t34.5 4.5q-5 -8 -19 -8q-12 -2 -34 -2q-9 -15 6 -12q18 6 39 6l-11 -6q-20 -5 -29 -11.5t-18 -25.5l-2 -4q4 -4 1 -12.5t-5 -12t-7 -11.5t-7 -11v-4l-6 -29q-1 -3 -7 -14t-4 -17 q0 -6 -2 -8q-5 -9 -8.5 -18.5t-6.5 -21.5t-5 -17q-4 -17 -23 -76q-2 -8 -8 -25t-9.5 -29.5t-4.5 -23.5q-2 -21 -13.5 -60.5t-13.5 -50.5q-1 -6 -1 -16.5t-1 -15.5q-4 -20 -20 -25h-2q-15 -17 -30.5 -24.5t-40 -12t-30.5 -6.5q-10 -4 -51 -14q-18 -7 -51 -15q-6 0 -8 2 q-6 0 -9 3q-47 17 -30 79q45 164 86 293l45 137q15 43 24 84q5 29 35 99q0 6 4 6q16 11 31 51l96 209q15 30 34 64t29 51t16.5 35t2.5 23.5t-20.5 7.5t-45 -3.5t-77.5 -17.5q-21 -3 -27 12q-13 39 -4 94q7 50 25 90q4 16 4 25q4 19 16 29q12 -5 55 8q98 30 117 35 q-1 -5 -14 -9q-17 -6 -23 -10h27q-10 -6 -40 -17t-48 -26q4 0 13.5 -1.5t13.5 -0.5l151 31q12 4 16 8q13 11 60 20l164 25q32 4 104 16q7 1 18.5 -0.5t14.5 -1.5h47q31 0 47 4q32 5 105 -4l55 -8q8 0 16 4l-37 13q-57 8 -82 14zM731 834q115 39 125 43l131 53q60 26 105 84 q27 38 18 55q-16 41 -55 49l-2 2l10 8l-27 5l17 10q-13 4 -44.5 -1.5t-41.5 1.5q33 0 55 14q-40 4 -53 4q-8 1 -18 1t-22 -0.5t-18 -0.5q-30 3 -67 -6q-59 -14 -127 -27q-34 -6 -53.5 -9.5t-38.5 -11t-26 -10t-20 -17t-16.5 -21t-19 -32t-25.5 -40.5q-44 -85 -53 -102 q-71 -89 -82 -157q-9 -59 43 -56q40 2 111 41q6 2 22.5 5.5t28 9t22.5 15.5q7 7 17 7l67 18q18 4 29 18q-4 -1 -12.5 -3.5t-12.5 -3.5t-10 0t-10 5l37 15q17 4 73 22q19 5 23 19l-33 -6q-4 -1 -11 -3t-11.5 -3t-9.5 -1.5t-9 1.5t-6 6zM346 575l-22 5l4 6q20 -1 28 0t28.5 5 t29.5 5q8 1 22.5 2.5t23 2.5t22 4t26.5 7q-23 9 -29.5 9.5t-25.5 -3.5q-91 -19 -121 -26q-9 -2 -13 -6t-8 -21l33 6zM649 668q8 2 21 2q32 0 53 16q-37 6 -74 -18zM612 662l37 6q-10 10 -37 -6zM752 698q-20 0 -27 -10q12 2 27 10zM526 631q0 1 1 2t1 2l-24 -6v-2q6 0 22 4z M334 522h-2q2 0 2 2v-2z" />
<glyph unicode="Q" horiz-adv-x="1230" d="M1077 1208q-18 -27 -22 -41q-4 -22 8 -32l8 12q2 -6 6 -16.5t7 -20.5l6 -20q1 3 1.5 6t1 4l1 2t0.5 2q-1 5 -2 18t-4 22t-9 15q-9 7 -6 27h8q46 -41 58 -47q6 -2 10 -19l18 -55q4 -12 4 -26t-2 -31t-2 -27v-2q-7 -13 -8.5 -29t0.5 -28.5t0 -28.5q-9 -51 -22 -70l-11 -22 l-10 -21q0 2 1.5 7.5t2 8t1 7t0 7.5t-1.5 6.5t-4 6t-7 4.5q0 -3 -1.5 -7.5t-1 -8t4.5 -6.5q0 -2 -2.5 -9.5t-3.5 -7.5q-6 -2 -11 -12.5t-6 -11.5q-19 -33 -26 -43l-8 -21q0 -4 -2 -8.5t-6.5 -10.5t-6.5 -9q-1 -2 -25.5 -33.5t-35.5 -48.5q-33 -52 -41 -78q-2 -6 -8.5 -18.5 t-9.5 -20.5q0 5 -1.5 12t-1.5 9q-8 -6 -8 -21q3 -19 -16 -29l-25 -22l-10 -12q-37 -37 -53 -60q-8 -12 -31 -35q7 -8 37 -34q-12 -6 -27 1.5t-24 4.5q15 -40 45 -58q13 -5 26 -18q44 -33 52 -41q15 -12 39 -38t28 -30q2 -1 4 -4l2 -4q15 -23 35 -28q7 -2 20.5 -8.5 t20.5 -8.5q-4 4 -8.5 9t-11 11t-9.5 9q15 3 19.5 2.5t14.5 -6.5t14 -8q-2 5 -4.5 9.5t-5 7t-7 4.5t-6.5 3t-8.5 1.5t-8 0.5h-9.5h-9q3 3 7 9t6 8q37 -12 71 -58l-6 -6q-18 -10 -18 -39q0 -8 -4 -24l-13 -13l8 -28l-12 -4v-58q-4 -4 -8 -4q-1 -3 -1.5 -8t-1 -8t-1.5 -4 q-7 -3 -5.5 -9.5t-0.5 -11.5l-8 6q-45 40 -52 49q-6 7 -32 54q-1 2 -5 5l-4 3l-18 12q-13 19 -35 19q4 8 4 10q3 19 -10 24q-19 4 -25 15q-15 24 -41 30q-8 3 -8 15q0 8 -8 12q-16 4 -22 12h22q0 2 2 2q-9 6 -30.5 23t-34.5 25q-13 7 -27 4q-27 0 -39 8h-4q-20 6 -26 4 t-25 -21q-22 -22 -39 -26q-2 0 -5 -2.5t-3 -3.5q0 -7 -3.5 -11.5t-10.5 -9t-9 -6.5q-4 -5 -29 -25l-18 7l-27 -21q-8 -8 -8 -12q0 -12 -18 -19q0 2 -1 5.5t-1 5.5l-47 -29q8 -2 12 -2l-21 -14q-2 -1 -19.5 -8t-25.5 -9q-2 -1 -18.5 -7t-24.5 -11q-27 -12 -55 -15 q-17 0 -45 -4q-84 -11 -158 47q-15 11 -26 25l-19 29q-3 5 -7 15.5t-7 14.5q-28 46 -43 138q0 14 2 20q6 35 -4 64q-2 6 -2 18q3 136 74 281q3 6 15 30.5t16.5 34t15.5 30t18.5 33t18 29.5t20.5 31q132 187 223 299q91 105 228 193q94 57 225 114q18 8 57 21q9 5 14 2 q44 -12 62 -27q3 -4 11.5 -9t10.5 -7q9 -5 11 -8q12 -24 51 -43q56 -34 82 -80q2 -3 9 -8t9 -7zM897 735l12 15q-15 -30 -39 -74l-34 -64q6 -1 10 1.5t7.5 9.5t4.5 8l16 26q41 52 72 129q14 41 12 72q-13 -41 -22 -61q-14 -37 -29 -47q15 30 17 36q28 52 28 127 q-1 15 -9 50.5t-7 56.5q0 10 -8 14q-9 3 -14.5 20t-8.5 21q-1 24 -24 32t-48 2.5t-34 -17.5q-5 -3 -92 -48q-12 -8 -33 -21.5t-38.5 -25t-33.5 -22.5q-93 -70 -141 -125q-50 -58 -76 -82q-59 -55 -76 -76q-6 -6 -14 -18q-8 -21 -31 -41q-26 -28 -57 -92q24 -4 31 -4 q0 -7 -2 -9l-35 -12q5 -20 21 -32t38 -11q38 3 76 0q3 0 88 -18q60 -12 82 -23q137 -43 233 76q36 40 52 63q64 88 106 164zM502 287q-2 0 -5.5 1t-4.5 1q-19 -13 -25 4q-8 12 -21 2q-6 -6 -10 -2q-18 3 -33 12q-62 29 -131 23q-46 -4 -69 -2q-57 22 -85 5.5t-33 -55 t3.5 -81t24.5 -72.5q28 -48 86 -33q43 8 92 35q88 49 188 129q18 14 23 33zM836 178l-9 4q-3 2 -53 35q-1 1 -4.5 2t-5.5 2v-10.5t5 -5.5l5 -4q66 -51 162 -150l35 -31q18 -6 26 -2q-8 4 -16 18t-16 17q-7 3 -13 19q-3 11 -13 23.5t-19 15.5q-32 6 -48 32l15 -8 q-8 18 -24.5 33t-28.5 18q0 -2 1 -4.5t1 -3.5zM442 410v6l25 6q-19 2 -23 2.5t-22.5 -3.5t-22.5 -5q50 -20 72 -27q35 -14 61 -27q7 -2 18 -9t15 -9q10 -7 19 8q6 10 -4 17q-30 20 -58 34q-12 7 -35 15q-13 3 -22 -8h-23zM774 168l-2 -2l193 -191h10q-2 3 -4 9.5t-4 7.5 l-33 33l-33 41q-10 16 -24 22q-7 2 -15 10l-82 68q-1 0 -3 1t-3 1zM813 68q-16 11 -25 8q9 -16 25 -8zM795 219q-2 -2 -2 -4l20 -14l4 4q-6 6 -22 14zM942 1016q4 -4 16 -12q0 15 -16 12zM1147 897l-6 -25q12 9 6 25zM928 1063l6 -12l4 2l-6 14zM467 410l-2 -2v2h2z" />
<glyph unicode="R" horiz-adv-x="1087" d="M500 330q1 -2 6 -27q-1 0 -2 -1t-2 -1q-14 10 -17 31q-18 68 -32 110q-6 18 -17.5 20t-36.5 -11q-17 -9 -20 -23q-7 -16 -17.5 -46t-15.5 -42q-13 -45 -45 -111q-2 -4 -61 -149q-5 -13 -13.5 -36.5t-13.5 -35.5q-8 -22 -17.5 -31.5t-31.5 -17.5l-55 -18q-2 -2 -5 -2 q-18 -16 -69 -35q-25 -15 -35 -15q-1 -1 -7 -3t-7 -3q-10 -14 -29 -14h-20q-26 0 -15 31l6 24q-2 28 15 78q26 72 39 117q7 14 4 22q-3 23 8 45q25 74 55 144q6 12 6 16q6 13 7.5 17t0 8.5t-5.5 5t-16 2.5q-16 3 -16 18q0 2 -5 5.5t-6 5.5q-10 5 -12 10q21 7 23 8l55 18 q17 5 29 23l24 61q57 160 137 324q32 48 20.5 68t-45 19.5t-65.5 -17.5q-46 -18 -63 12q-6 6 -15 24q-3 5 -8 19q0 7 -0.5 23t-0.5 25t1.5 23.5t5.5 26.5q3 10 13 29t12 24q5 13 8 17l47 69q7 12 41 27l148 37q82 23 293 49q121 11 200 0q56 -4 80 -8q90 -6 143 -62 q41 -50 48 -137q6 -88 -56 -202q-20 -39 -73 -103q-107 -112 -207 -180q-23 -14 -34 -21t-15.5 -18t-4 -16.5t4.5 -27.5t6 -38q2 -20 10 -55q9 -35 14 -49q1 -7 5 -25t5 -27q1 -5 4.5 -14.5t5 -17t1.5 -15.5q2 -10 2 -32q-8 -78 -10 -117q-5 -10 -5 -12q12 -10 7 -52v-4 q8 -71 14 -110q8 -18 -14 -37l-37 -37q-29 -23 -43 -6l-49 63q-3 5 -7.5 15.5t-7.5 15.5q-13 26 -35 59q-9 9 -20 31l-2 2q-1 2 0 6q2 7 2 13v10t-3 10t-4.5 8t-6 8.5t-5.5 8.5q-18 49 -36 77q-1 3 -6.5 19t-6.5 24q-2 18 -24 58zM764 733l39 29q43 35 127 137 q23 26 25.5 47.5t-17.5 32.5q-57 33 -109 31h-55q-49 4 -176 -9q-49 -14 -71 -20t-52 -16.5t-40 -15t-25 -17t-17.5 -20t-7 -26t-4.5 -32.5v-43l6 -43q4 -20 12 -31q14 -28 11 -57q3 -46 17.5 -71t38.5 -27.5t51.5 5.5t62 28.5t64.5 40.5t64 43t56 34z" />
<glyph unicode="S" horiz-adv-x="823" d="M281 678q37 -22 96 -70q12 -8 18 -10q45 -24 123 -90q86 -76 115 -191q19 -86 -31 -174q-20 -39 -39 -61q-15 -20 -26 -29q-54 -51 -129 -80q-30 -16 -70 -12q-31 0 -53 -12q-16 -8 -49 -19q-63 -15 -117 -6q-99 14 -144 62q-46 49 -20 133q23 57 59 104q39 57 82 94 q4 3 15 19q12 24 22 30t33 3q2 1 15 10.5t22 5.5l-27 -14q20 -4 21 -4q0 -19 2 -29q3 -9 -6 -21l-37 -51q-34 -46 -39 -82q-1 -4 -6 -55q-3 -23 18 -29q27 -10 57 -4q66 11 113 31q111 48 113 49q48 21 80 51q28 22 18 43q-24 81 -72 119q-72 58 -211 139q-72 43 -125 88 q-59 46 -102 127q-24 38 -20 85.5t25 92.5t56 87q65 82 222 168q11 4 35 12.5t36 13.5q154 55 355 41l102 -14q63 -7 98 -33q18 -14 11 -33q-2 -4 -2 -14q-5 -27 -7 -31q-27 -60 -30 -104q-3 -18 -23 -51q-4 -9 -15 -23t-14 -20q-12 -22 -32 -33q-59 -26 -64 -27 q-20 -10 -33 0q-43 17 -96 23q-145 18 -203 16q-45 -4 -63 -10l-70 -15q-52 -13 -70.5 -38.5t-6 -54t35.5 -55t54 -48.5z" />
<glyph unicode="T" horiz-adv-x="729" d="M59 1171q39 29 74 43q65 25 121 39q21 4 119 33q60 19 137 29l192 26q128 15 265 27q38 4 61 18q4 -6 8 -18q13 -50 -4 -123q-8 -23 -26 -31l-64 -36q-9 -5 -78 -35q-14 -5 -28.5 -8.5t-33.5 -6t-28 -4.5q-37 -2 -64 -26.5t-43 -62.5t-28.5 -78t-29 -81t-36.5 -63 q-21 -42 -24 -51q-58 -147 -80 -191q-11 -27 -29 -102q-1 -6 -4 -15l-4 -12l-31 -96l-16 -49q-10 -42 -10 -70q0 -15 -13 -45q-21 -56 -26 -80q-6 -29 -31 -57q-17 -17 -29 -35q-22 -34 -61 -53l-29 -18q-12 -12 -27 -16t-24 5q-14 14 -20 29q-29 93 -25 143q7 71 25 176 q45 206 106 377q4 13 27 62q89 192 97 275q8 98 -75 97q-22 5 -24 7q-20 10 -68 14q-5 1 -15.5 1.5t-19 1.5t-14.5 3q-22 9 -27 21q-5 23 -43 36z" />
<glyph unicode="U" horiz-adv-x="1064" d="M569 399q15 15 38.5 43t33.5 39q7 7 29 55.5t46 105.5t29 67q4 9 17.5 39t19.5 47q67 168 115 260q2 6 30.5 48.5t30.5 49.5q5 0 16.5 1.5t14.5 0.5q70 -4 109 -8q11 0 -21 -64q-8 -17 -10 -22l-41 -123q-13 -55 -57 -121q-21 -36 -29 -61q-11 -43 -58 -160t-57 -180 q-3 -17 -14 -51.5t-20.5 -65t-16 -61t-1 -48.5t25.5 -18q2 -2 8 -8.5t8.5 -10t5.5 -10.5t4 -14q5 -47 -67 -100q-6 -4 -20 -12t-19 -11q-51 -25 -98 -16q-42 6 -43 6q-43 3 -46 31q-7 45 -2 79q13 47 13 74t-8 34.5t-28 0.5t-38.5 -20t-46.5 -35q-59 -50 -135 -94 q-120 -68 -232 -46q-76 12 -104 101q-22 85 10 205q8 33 21.5 97t21.5 97q12 40 29 106.5t31.5 112.5t39.5 107q4 9 43 119l21 73q8 11 31 15l67 12q48 4 78 -6q15 -7 47.5 -17.5t46.5 -17.5q73 -36 43 -137q-12 -32 -28.5 -67t-28.5 -75q-7 -18 -17 -52t-12 -40 q-7 -26 -26 -84.5t-27 -89.5q-10 -30 -16 -57q-4 -24 -12.5 -50t-23.5 -62.5t-20 -51.5q-66 -192 131 -19q45 39 126 119q33 33 42 41z" />
<glyph unicode="V" horiz-adv-x="942" d="M393 6l-33 6q-16 -30 -41 -32q-19 -4 -34 -13q-42 -26 -76 -12q-38 10 -78 41q-27 25 -31 88l-8 164q-2 47 -2 141q0 99 2 148v34q1 17 4.5 71t3.5 83q0 28 -1 59.5t-2.5 69.5t-2.5 59q0 17 -16 27q-19 7 -25 16q-9 9 -6 23q5 14 -6 25l-21 16q-2 2 -3 4l-3 6l-4 8 q7 0 16 1t11 1l121 -18q6 0 8 -2q15 -7 31.5 -12t40.5 -10.5t34 -8.5q48 -11 86 -49q22 -22 25 -51q6 -33 6 -105q-4 -23 -16 -41q-17 -23 -17 -49q0 -39 -4 -59q-9 -41 -18 -57q-5 -10 -7 -20.5t-2.5 -24.5t-0.5 -19q-4 -42 12 -68q6 4 9 9.5t4 8.5t2 10.5t1 8.5q0 17 1 52 t1 53l6 12l21 31q0 -1 3 -9.5t3 -13.5q-2 -14 6 -45q13 -48 -14 -98l-4 -12q3 0 9 -1t9 -1q6 -15 -5 -35t-30 -29q0 2 -2 17t-4 22q-1 3 -8.5 7.5t-11.5 8.5q-8 -20 -5 -61.5t1 -58.5q3 3 7.5 6.5t6.5 5t2 2.5q-3 26 27 39l14 14v-14q10 -3 10.5 -13t-2.5 -20q-2 -6 -2 -35 q16 -164 154 115q3 7 9 19l13 26q43 64 56 82q9 14 141 205q10 15 84 114l86 125l123 183q2 3 41 59q9 15 24 18q44 11 52 11q17 1 20.5 -5.5t-2.5 -23.5q-3 -7 -7 -23.5t-7 -23.5q-3 -8 -17 -31q-3 -4 -15.5 -26t-19.5 -33q-9 -18 -14 -23q-11 -18 -35.5 -51t-36.5 -51 q-5 -6 -13.5 -23.5t-14.5 -25.5q-69 -106 -127 -191l-6 -8q-24 -25 -58 -78t-49 -72q0 -2 -4 -6q-18 -38 -63 -102q-10 -16 -29 -48t-29 -48q-16 -24 -48.5 -68.5t-39.5 -54.5l-20 -29q-22 -45 -86 -113q-2 -2 -9 -11t-9 -12t-7.5 -10.5t-8 -12.5t-5.5 -11.5t-4 -13.5 q-1 -4 -8 -14t-9 -15zM125 119l-16 -6q3 -25 5 -29t13 -6q1 -3 -1 -10.5t-0.5 -12.5t9.5 -8q11 37 -8 88q0 -10 -2 -16zM326 295q-11 -5 -11 -6v-7v-7.5t0.5 -6t3 -6t5.5 -4.5q0 6 1 18.5t1 18.5zM330 301l-4 -6q2 2 6 2q5 3 8 8q-2 2 -2 4q-5 -3 -8 -8z" />
<glyph unicode="W" horiz-adv-x="1202" d="M360 422q16 23 27 29q6 4 14 16q5 13 18 36.5t17 33.5q55 108 80 170q46 108 53 143q7 29 37 72q6 11 39 20q18 3 24.5 3t21.5 -3t22 -4q11 -1 29.5 -7t21.5 -7q12 -3 18 -5t12.5 -8.5t6.5 -17.5q-2 -15 12 -33q6 -6 0 -29q0 -3 -1.5 -8.5t-1 -8.5t4.5 -5q5 -2 0 -12 q-3 -8 -8.5 -27.5t-11 -34.5t-13.5 -28q-18 -29 -24 -58q-9 -37 -51 -151q-40 -122 -48 -179q-46 -197 -3 -185q42 11 138 182q47 83 76 151l37 82q6 16 18 45t21 52.5t15 43.5q46 150 51 193q20 130 20 225l-4 104q0 17 -6 35q-14 18 -31 13q-25 -4 -33 20q-13 30 -16 41 q-2 5 2 18l10 21l27 10q13 -5 40 -13.5t40 -13.5q35 -8 51 -24l14 -6q14 -5 17 -25q1 -7 18 -35q13 -20 31 -30q3 -1 8 -17q8 -27 21 -35q20 -10 10 -41q-3 -13 6 -22q12 -15 12 -35q-1 -6 3.5 -19t2.5 -22q-2 -4 -3 -12t-3 -12q-4 -15 0 -21q4 -8 2 -12q-4 -6 -4.5 -11.5 t1 -11t1.5 -8.5q2 -6 2 -41q0 -25 -2 -35q0 -35 -4 -51q-2 -8 -10 -31t-10 -36l-6 -15q-7 -12 -12 -25.5t-10 -31t-9 -29.5l-10 39q-2 -2 -4.5 -5t-4.5 -5t-2 -4q-2 -20 -8 -41.5t-18.5 -52.5t-16.5 -41q0 -7 -6 -13q-9 -4 -14.5 -11t-7 -11t-4 -15t-2.5 -12q-6 -24 -25 -41 q-26 -26 -31 -47q0 -2 -12 -31l-39 -65q-74 -118 -82 -129q-50 -69 -117 -150q-42 -55 -98 -49q-12 0 -18 -2q-32 -4 -54 6q-67 30 -86 56q-12 12 -20 36q-5 128 -8 141q-7 36 -32 21q-27 -17 -114 -125q-7 -5 -19 -15.5t-18 -14.5q-53 -44 -147 -72h-16l-101 -4 q-44 -3 -69 16q-18 11 -21 31q-16 96 6 184q7 28 25.5 88t25.5 90q9 31 28 99.5t34.5 121t32.5 99.5q8 24 14 52.5t12.5 63t10.5 52.5q18 86 16 135q0 6 2 10q40 8 61 8q28 3 31 -22q0 -14 6 -23q13 -33 2 -100q-11 -50 -32 -166q-6 -27 -25 -145q0 -3 -6 -78q0 -31 -2 -49 q-21 -146 -5.5 -192t58.5 -3.5t102 158.5zM1038 897q-8 -16 -14.5 -45.5t-7.5 -34.5q-5 -13 -25 -80q-4 -14 -10 -39.5t-10 -38.5h8q37 89 59 238zM1065 1104l-12 -98q2 2 8 2q5 5 6 9.5t0.5 13t-0.5 9.5q0 5 1 16.5t1 16.5t-1 15.5t-1 15.5h-2zM1204 739h4q0 5 1 18t1 19 q-8 -6 -8.5 -10.5t2.5 -26.5z" />
<glyph unicode="X" horiz-adv-x="815" d="M-59 360l-78 -98q42 75 86 127l155 191q15 19 39 53t33 45q22 34 29.5 44.5t10 27.5t-0.5 21.5t-14.5 29.5t-20.5 47q-53 112 -78 176q-4 13 -6.5 27.5t-4.5 35.5t-3 29q-2 3 2 10q25 15 37 -6q3 -5 15 -23t18 -28q11 -10 22.5 -31t21 -43.5t21 -47.5t22 -44t24 -33.5 t26.5 -15t31 11.5q79 87 178 174q24 20 192 172q23 20 40.5 24t37.5 -7l27 -12l20 -13q32 -25 66 -84q22 -39 16 -86q-3 -26 -28 -45l-109 -82q-67 -51 -137 -90q-9 -5 -19.5 -13.5t-23.5 -19.5t-19 -16q-1 -1 -2.5 -2t-2.5 -2t-1 -2q0 -9 -4.5 -16t-15.5 -16t-13 -11 q-19 -18 -39.5 -35t-30.5 -24.5t-20 -19t-12 -18.5t0 -22.5t8 -32t19 -45.5l51 -127q54 -134 55 -137q49 -99 88 -160q23 -33 78 -92q5 -6 17 -12.5t16 -9.5q-6 -19 -34.5 -37t-35.5 -29q-52 -9 -74 23q-56 77 -102 159q-37 28 -78 161q-40 131 -54 160q-40 85 -93 36 q-11 -10 -23 -25q-1 0 -3 -1t-3 -1q-10 -20 -22 -35q-9 -11 -29 -28q16 -4 18 -5q0 -4 -2 -4q-63 -58 -157 -168q-11 -13 -21.5 -28.5t-22.5 -36t-18 -29.5q-9 -14 -27 -37t-24 -32q-12 -18 -27 -33q-24 -33 -69 -55q-15 -8 -72 -17q-8 -2 -23 -2q-16 -1 -19 1.5t-3 15.5 q0 43 2 51q17 120 98 250l11 8q-10 -23 -17 -35q-1 -2 -2.5 -6t-2.5 -7t-1 -5q2 -19 -23 -41q0 -4 1.5 -13t1.5 -14l67 119q17 33 66 112q0 1 -1 2t-1 2z" />
<glyph unicode="Y" horiz-adv-x="1067" d="M874 799q2 0 6.5 -1t6.5 -1q-1 -6 -3 -31.5t-5.5 -43.5t-8.5 -32q-1 -4 -5 -12t-5 -11.5t-2.5 -11.5t0.5 -12q2 -9 -12 -45q3 -1 8.5 -1t9.5 -1q-1 -6 -16 -57q-12 -32 -10 -47q0 -8 -12.5 -24.5t-14.5 -21.5l-29 -49q-5 -10 -8 -28q10 -4 10.5 -32.5t-4.5 -41.5 q31 2 107 -19l-60 -38q-45 -30 -53 -37q-18 -16 -26 -47q-1 -3 -1.5 -9t-1.5 -8q-12 -12 -16.5 -37t-13.5 -37q-2 -2 -2 -8l-6 -55l16 -4l-27 -19q-12 -24 -16 -36q-3 -12 -9 -23.5t-18 -28t-16 -22.5l-12 -12q-56 -35 -90 -41q-9 -2 -56 -23q-76 -27 -121 -47 q-18 -9 -63 -27q-37 -11 -76 -8q3 2 5.5 4.5t6.5 7t7 7.5l-33 -4q-49 -13 -82 -11q-18 2 -50 2.5t-42 1.5q-8 0 -23 3.5t-16 3.5t-7 3t-10 3q-31 -2 -61 37q-35 49 -53 79q-5 6 0.5 22t17.5 26q33 30 68 38q60 18 78 19q53 8 157 55l242 105q23 11 29 17t10 28q3 23 16 84v4 q0 26 14 59.5t17 52.5l25 146q0 6 -5 8l-8 -39q-1 12 1.5 27t5.5 25.5t8.5 29.5t7.5 27q-4 0 -4 2q-16 -22 -17 -25q-8 -22 -33 -46t-34 -38q-24 -40 -15 -63q4 -4 0 -15q-6 -10 -22 -30q-10 -16 -22 -28t-30 -21.5t-28 -13.5t-33 -13q-25 -8 -55 -15q-147 -38 -191 72 q-9 23 -23 36.5t-18 26t0 46.5q5 36 8.5 66.5t5 43.5t7 39.5t18.5 69.5q28 78 24 93q-6 23 -69 -17q-7 -2 -14.5 -6.5t-12 -8.5t-12 -11t-10.5 -9q-11 -15 -22 -23q-4 -2 -17 -2q-4 4 2 15q13 16 27 45.5t18 35.5q5 8 24.5 39t28 44.5t25 36t31.5 40.5l37 47l37 33 q15 12 24 27q15 18 37 24q145 34 225 -55q40 -42 15 -137q-3 -11 -31 -125q-17 -65 -18 -68q-16 -37 -11 -41t-6 -43q-47 -155 -6 -137q55 24 229 306q113 184 142 251q10 32 30 70l52 104q21 42 24 51q5 13 23 17q22 1 25 6q1 2 7 -1q7 -4 13 -7q12 -5 16.5 -8.5t3.5 -6.5 t1.5 -9.5t9.5 -14.5q12 -9 6.5 -30t-16 -39.5t-24 -43.5t-16.5 -41q-20 -103 -24 -143q-3 -18 -6 -64t-7 -69zM115 -215l-23 -8q33 -16 92 10q20 8 82 45q60 25 111 96q44 63 31 88q-18 31 -123 -43q-109 -50 -193 -63l-37 -10q-39 -9 -26 -39l30 -54q7 -14 23 -12 q4 0 9 -1.5t12 -4.5t12 -4zM545 428q-25 -55 -10 -82l10 80q14 60 33 125l30 123q-8 -3 -8 -8q-5 -19 -25.5 -91.5t-29.5 -111.5q0 -2 -3 -11.5t-2.5 -14.5t5.5 -9zM530 324q-3 -16 -12.5 -55.5t-14.5 -68.5t-7 -55q2 9 12 43.5t13.5 49.5t6.5 40.5t2 45.5zM449 35h-5 l-8 -21q3 5 7.5 12t5.5 9z" />
<glyph unicode="Z" horiz-adv-x="1001" d="M281 451l16 20q-24 4 -25 4q-37 0 -53 2q-15 0 -39 8q-14 6 -8 29q30 6 33 6t47 3t67 3q26 0 56 27q86 98 133 145q46 32 30 60.5t-81 27.5q-123 -7 -207 25q-94 38 -113 123q-3 14 -13 36.5t-13 30.5q-6 22 16 25h23q48 -16 151 -4q27 1 117 16q306 45 401 58l203 30 q27 3 49 -2l-29 -22q-18 -12 -18 -29q3 -16 -14 -29q-35 -28 -103 -104q-3 -3 -20 -22t-24 -25.5t-21 -19t-27 -21.5q-10 -8 -31 -33q-37 -40 -65 -78q-58 -47 -81 -100.5t7 -77.5t131 6q-11 -18 0 -47q5 -22 -20 -30q-77 -30 -140 -19q-40 4 -67 -8q-21 -11 -23 -16 q-8 -19 -31 -49t-28 -38q-196 -205 -171 -245.5t282 86.5q38 13 84 37q95 45 139 69q2 0 10 4l6 -41l-4 -14q-4 -9 -10 -26.5t-10 -26.5q-19 -55 -35 -86q-28 -61 -92 -88q-4 -2 -34.5 -14.5t-45.5 -20.5q-13 -8 -94 -39q-100 -42 -170 -37q-18 0 -56 -1t-57 -1q-51 0 -76 4 q-26 4 -89.5 17.5t-98.5 17.5q-25 3 -37 12.5t-12 32.5q0 19 -25 37q-25 15 -21 42t35 46q6 6 19 6q28 8 39 8q9 1 18 3t18 7t14.5 7.5t15.5 10.5t13.5 10.5t15 13t13.5 12.5q9 9 25.5 28.5t25.5 28.5q33 36 96 102t83 87z" />
<glyph unicode="[" horiz-adv-x="512" d="M420 1147l-23 -70l-12 -41q-21 -39 -25 -98l-6 -41l-18 -131q-15 -70 -17 -80l-28 -141l-25 -107l-4 -24q-4 -43 -10 -62q-2 -17 -8 -49t-8 -49q-15 -80 -27 -156l-6 -24q-24 -86 -33 -168q-2 -18 -10 -50.5t-10 -39.5q-2 -10 -8.5 -31t-8.5 -31q-4 -15 -2 -18.5t16 -5.5 q80 0 121 -2q44 0 68 -37l6 -21q-3 -28 -27 -28q-38 0 -120 4h-64q-4 0 -11 2t-11 2q-28 3 -37 31q-2 4 -8.5 12t-8.5 12q-16 23 -10 53q7 30 19.5 88.5t19.5 87.5q10 60 12 66q4 30 14.5 88.5t14.5 87.5q5 25 13.5 75.5t13.5 76.5q4 35 20 110q3 21 16 94q16 74 52 222 q7 29 31 137.5t38 167.5q4 17 17 51q13 44 20 61q7 22 -4 31q-16 11 -13 40t27 50q4 6 19 11q30 8 84 12q36 0 45 4q62 24 108 -25q17 -16 56 -65q4 -5 8 -23q9 -20 -12 -41q-26 -23 -56 -26q-5 0 -98 -6q-36 -3 -61 8z" />
<glyph unicode="\" horiz-adv-x="1124" d="M504 934q-1 -6 0.5 -11t3.5 -7.5t7.5 -7t6.5 -5.5l13 -12l-11 -10q5 -4 19 -20t24 -23q3 -3 5.5 -7.5t6 -11t5.5 -10.5q4 0 8 2q5 -13 16 -31l58 -90q14 -14 16 -18q15 -37 39 -56l2 -2q0 -16 14 -22q19 -30 33 -49h-2q34 -47 51 -78q5 -3 8 -23q19 -6 15 -24 q0 -12 10 -17t17.5 -13.5t15.5 -21.5t12 -18q53 -90 70 -115q4 -4 4 -10q44 -44 88 -157q0 -4 6 -7q-5 29 -10 43q1 -2 20 -53q6 -20 -12 -29q-13 -8 -27 -30q-15 -26 -32 0q-9 24 -23 45q-3 5 -9 18t-9.5 19t-9.5 16t-12 17t-13 14q-43 43 -70 98q-1 1 -1.5 2t-1.5 2t-3 2 q-35 56 -84 125q-5 6 -15.5 22.5t-17.5 24.5q-8 10 -28 31.5t-29 34.5q-28 49 -60 86q-10 13 -94 135q-5 8 -16.5 23t-13.5 18q-23 35 -80 108l-64 82q-14 19 -114 162q-58 78 -89 117q-30 40 -57 131q-3 17 0 35q0 12 7.5 17t17.5 1q16 -4 22 -12q76 -57 94 -72 q61 -51 148 -168q26 -33 72 -98t55 -78l6 -16q-2 0 -4.5 1t-3.5 1zM514 932v-2q-2 0 -2 2h2z" />
<glyph unicode="]" horiz-adv-x="653" d="M539 1241q-3 -10 -6.5 -20t-8 -20t-6.5 -15l-37 -90q-4 -8 -7.5 -25t-4.5 -20l-6 -27q-5 -20 -19.5 -69.5t-19.5 -75.5q-2 -6 -8 -39q0 -5 -4 -17l-29 -114q-17 -61 -33 -109q-24 -72 -51 -160q-4 -16 -8 -22q-2 -22 -6.5 -46.5t-12 -57t-10.5 -46.5l-4 -24 q-6 -37 -20 -72q-6 -21 -9 -45q-3 -9 -7 -28.5t-7 -28.5q-9 -39 -20 -97q-6 -18 -13.5 -51.5t-9.5 -40.5q-12 -46 -16 -71l-17 -39q-3 -6 2 -21q6 -42 6 -45q1 -1 -6 -14q-12 -9 -39 -45q-5 -6 -27 -26t-28 -23q-1 -1 -5 -1t-5 1q-7 12 -28.5 19t-24.5 9q-12 9 -48 21 t-51 26q-7 3 -26 17q10 24 9 39.5t-20 21.5q4 2 13 2q2 0 19.5 -2t25.5 -4q38 -6 123 2q4 8 7 29t11 30q1 5 3.5 14.5t4.5 12.5q1 4 4.5 11.5t5 12t3 11t0.5 12.5q-4 9 4 17l10 49q0 7 2 15.5t5.5 18.5t4.5 15q14 69 19 86q6 28 26 92q2 6 2.5 16t1.5 13q25 97 45 286 q33 224 111 480q31 116 63 174q5 12 15 63q4 9 -8 13q-22 4 -29 8q-44 13 -64 6q-8 -2 -18 8l-16 19q-6 11 -4 14q3 7 14 12q71 16 80 17q14 2 42.5 4t43.5 4q17 0 49 8q20 3 25 -12q2 -9 18 -25q4 -7 15 -21t14 -20zM350 1087q-16 -29 -14 -43q14 17 14 43z" />
<glyph unicode="^" horiz-adv-x="493" d="M510 938q-18 0 -25 14q-28 55 -30 62q-6 15 -21 65q0 3 -4 19q-4 -4 -11.5 -10t-10.5 -9l-97 -78q-19 -13 -49 -24q-48 -11 -76 -35q-8 3 -34 19q-14 4 -7 18q6 23 21 43l33 47q99 107 139 143q2 0 2 2q3 2 7 7t7 8.5t6 3.5q7 1 18 -1.5t15 -2.5t8 -4q34 -4 62 -45 q28 -45 39 -99q5 -24 26 -80q5 -20 7 -24q0 -7 -7 -14q-4 -4 -9.5 -12.5t-8.5 -12.5z" />
<glyph unicode="_" horiz-adv-x="1193" d="M1200 -172q-7 -1 -21 -6t-18 -6q-82 -12 -522.5 -16.5t-566.5 -0.5q-21 1 -61.5 -1.5t-61.5 1.5q-12 2 -29 -2l-39 -4q-7 15 6 25l27 24q8 8 8.5 16t-2 12t0 7t13.5 4q6 0 18 1t17 1q17 -1 46 -2.5t53 -2.5t45 -1q30 -1 448.5 -1t448.5 -1q6 0 120 -12q5 -1 19.5 -1.5 t24 -2t18.5 -7.5t10 -18q0 -2 -2 -6z" />
<glyph unicode="`" horiz-adv-x="243" d="M295 1036q-4 2 -8 2q-42 22 -94 70q-34 31 -72 76q-9 15 -21 24q-3 9 2 11q2 3 8 8t7 8t4 2q8 8 12 10q15 10 36 5.5t32 -19.5l24 -39q11 -25 13 -41q6 -22 6 -23q10 -20 12 -22q10 -10 25 -35q9 -9 6 -16q0 -11 6 -17q2 0 2 -4z" />
<glyph unicode="a" d="M727 477l6 4q17 -3 35 -20q-2 -11 -14 -38.5t-19 -33.5q-3 -1 -6.5 -5t-5.5 -5l-23 -27q-11 -11 -12 -14q-8 -15 -24 -25q-9 -5 -11 -8q-7 -8 -22 -21.5t-19 -17.5q-16 -13 -39 -20q-5 -1 -23.5 -4t-27.5 -6q-8 -4 -26 -7t-21 -4h-18q-56 18 -70 29l-10 6q-34 15 -49 35 q-27 -13 -43 -27l-23 -14l-4 -2q-4 -6 -10.5 -10t-10 -6t-13 -5t-11.5 -4q-47 -13 -84 6q-13 8 -31 15q-89 38 -98 133q-6 47 16 92q24 46 50 76q0 2 4 6q29 45 90 117q35 38 78 63q8 4 18 4q24 4 39 4h6q7 -3 22.5 -6t20.5 -4q8 -4 12 -4q20 -4 23 -10l4 -2q5 0 14.5 -5 t14.5 -5t10 -5q4 -4 12 -11t13.5 -13t9.5 -12l6 -17q6 -27 -19 -41q-17 -8 -51 -33v-2q-7 -7 -22 -20.5t-26 -25t-19 -23.5l-25 -27q-17 -19 -49 -65l-21 -29q-4 -4 -8 -12q-18 -35 -24 -68v-8l8 6q38 38 67 59q21 18 31 35l17 19q22 25 34 45l43 69q30 3 45 -14l13 -12 q14 -18 18 -60q0 -2 -4 -10l-29 -57q-9 -21 -6 -43q6 -26 19 -51q7 -11 18 -11q26 4 43 11q36 18 39 20l45 27l33 28q14 14 47.5 61t46.5 60z" />
<glyph unicode="b" horiz-adv-x="729" d="M63 -57q22 51 70 102q52 57 119 121l90 80q14 13 20 33q2 5 13 35.5t16 47.5q15 53 12 121q-3 24 -9.5 29.5t-28.5 1.5q-21 -6 -41 -29l-19 -20q-13 -10 -16 -25q-6 -22 -19 -32q-10 -10 -14 -31q-4 -25 -20 -33q-10 -5 -13 -22q0 -18 -14 -39l-6 -19l-8 -22 q-9 -27 -33 -27q-9 0 -29 -8q-3 -2 -6 -3t-6.5 -1.5t-5.5 -1.5h-15q-5 0 -16.5 -2t-17.5 -2q-2 0 -31 12q-36 9 -51 49q-9 32 -11 47q-4 28 -4 45q0 11 4 35l15 82q5 34 26 111q9 18 11 28q7 45 32 103q45 102 93 194q23 42 32 55q4 9 14.5 27t14.5 27q5 14 19 37t16 28 q3 7 16 29q82 108 123 154l18 22q10 10 15 10q2 0 8.5 4t12 7t7.5 0q2 -1 32.5 -26.5t35.5 -25.5l41 -32q7 -10 27.5 -46.5t27.5 -46.5q11 -21 -6 -79q-2 -4 -11 6.5t-18.5 21.5t-11.5 8q-3 -5 -5 -8t-3 -4t-2 -1t-1.5 -0.5l-1.5 -1.5t-3 -4t-4 -9q-1 -3 -12 -13.5 t-23.5 -21.5t-13.5 -12q-3 -6 -6.5 -11t-7.5 -10.5t-6.5 -8.5t-8.5 -9t-7.5 -7t-10 -9t-9.5 -9l-24 -31q-5 -6 -15.5 -21t-17.5 -22q-5 -6 -14 -20.5t-13 -18.5q-5 -7 -15.5 -20.5t-17.5 -24.5t-12 -22q-3 -5 -24.5 -38.5t-26.5 -49.5q-7 -22 -16 -35q-8 -13 -15 -35 l-30 -76q-5 -7 -13 -52t-12 -50q0 -2 -2 -10q-22 -89 -2 -89q7 2 14 7q8 12 16.5 25t16.5 24q49 70 70 98q13 20 39 39q16 13 32 13h11q49 6 84 -39l24 -31q6 -10 9.5 -21t5 -26t2 -23t0 -27t-0.5 -22q-2 -17 -1.5 -30.5t3.5 -21.5t12 -7.5t25 10.5l175 106q19 10 27 16.5 t26 16.5q2 1 2 -4v-12q-2 -30 4 -31l-10 -10q-11 -4 -14.5 -6.5t-7 -7.5t-11.5 -11q-6 -5 -18.5 -13t-18.5 -13q-2 -1 -15 -8t-22 -13t-12 -10q-2 -4 -5 -6t-7.5 -4.5t-6.5 -3.5q-19 -5 -43 -29q-19 -13 -35 -28.5t-26 -22.5q-21 -16 -29 -27t-12.5 -31.5t-9.5 -33.5 q-11 -28 -12 -29l-3 -4q-4 -13 -7.5 -19t-9.5 -13.5t-11 -16.5q-41 -57 -56 -72l-24 -23q-1 -1 -4 -3.5t-5 -4.5t-3 -4q-15 -29 -47 -43q-17 -7 -31 -18q-18 -15 -33 -17q-20 -6 -41 -2h-4q-5 5 -12 7.5t-17.5 4.5t-13.5 3q0 2 -1 6.5t-1 7.5q-5 1 -9 2.5t-8 5.5l-6 6 t-6.5 7.5t-5.5 7.5q-21 25 -27 43zM170 -41q32 15 59 61l13 21q4 6 14 16.5t14 18.5q18 24 33 51q7 16 -4 14q-18 -1 -35 -20l-2 -2q-9 -13 -26.5 -30t-26.5 -32l-10 -10q-8 -7 -27.5 -28t-32.5 -31l-4 -4q-27 -22 -22 -35q6 -15 57 10z" />
<glyph unicode="c" horiz-adv-x="653" d="M723 492q-3 -13 -19 -42t-26 -40l-37 -52q-25 -36 -37 -63q0 -6 -2 -6q-39 -56 -41 -58l-65 -69q-38 -33 -70 -51q-84 -48 -104 -48q-6 -1 -52.5 1.5t-52.5 -1.5h-20.5t-25 5.5t-27 8.5t-25 9.5t-19.5 7.5q-41 17 -80 45q-56 45 -65 133q-6 52 0 105q3 32 12 61l17 43 q6 20 15.5 40t24 45.5t19.5 35.5l16 25q26 41 54 63q8 7 33 29.5t40 32.5q20 14 43 14q7 0 19 4q26 13 47 10q2 -2 2 0q35 3 68 -20q1 0 3 -1t3 -1q4 0 6 2q9 6 16 2q11 -10 8 -23q-5 -12 2 -26q1 -1 1.5 -4t1.5 -4l-13 -19q4 -26 8 -37q7 -32 7 -57q0 -21 -2 -31 q-9 -44 -35 -104q-9 -22 -27 -25q-2 0 -6 -1t-6 -1q-9 0 -13 4q-10 10 -36 23l-7 4q-11 7 -8 20l6 29q24 84 39 119q0 6 2 12l-8 -6q-5 -12 -13.5 -24t-19.5 -25t-16 -21q-29 -42 -43 -73l-49 -103q-19 -37 -37 -100q-1 -2 -6 -33q-3 -22 6 -43l18 -41q3 -7 17 -25 q10 -5 21 -3t31.5 8t23.5 6q35 5 93.5 31t86.5 51q2 2 50.5 41t64.5 57l30 37q9 12 47 45t47 47q5 7 27 23.5t27 23.5q2 3 3 -3q4 -19 7 -19z" />
<glyph unicode="d" horiz-adv-x="997" d="M684 -27h-2q18 3 29 7t19 9.5t15 8.5q1 1 7 5.5t8 8.5q12 16 8 18q-3 2 8 19q12 24 27 45q9 14 22 52.5t33 76.5q22 30 42.5 64.5t44 78t36.5 66.5q7 12 13.5 28.5t9 22t10.5 5.5t22 -11q9 -6 9.5 -9.5t-4 -5.5t-9 -10t-4.5 -20q13 0 -20 -33q13 -18 -4 -39 q-6 -4 -7.5 -14t-1 -19t-4.5 -14t-16 -2q-11 -17 -36.5 -43t-35.5 -49v-31l-18 -22q-9 -12 -15.5 -21.5t-10 -15t-6 -12.5t-3 -10l-2 -12t-2.5 -13q-6 -3 -6 -6l-29 -39q-8 -8 -12 -23q-8 -24 -25 -51l-24 -35q-25 -29 -41 -39q-4 -5 -11.5 -10.5t-17.5 -12t-14 -9.5 q-10 -5 -32 -18.5t-36 -18.5q-1 -1 -3.5 -6t-4.5 -7q-28 0 -55 11q-9 4 -20 7.5t-15.5 5t-11.5 6t-14 11.5t-17 19q-37 28 -70 84l-10.5 21t-12 27t-6.5 24q-5 9 -6 10q-8 10 -8 28q1 8 -3 26t-5 22q-8 35 -10 57q-4 22 -2 33q-1 1 -4 4.5t-3 5.5l-12 -12q-13 -16 -20 -43 q-12 -57 -64 -72q-20 -8 -26 -14q-20 -20 -54 -13q-46 11 -78 29q-52 25 -77 84q-20 38 -17 72q0 6 -4 22v23q0 55 6 80q25 104 47 141q54 90 95 131q58 64 147 92q4 3 37 8q4 0 16 -4l35 -14q18 -24 30.5 -30.5t19.5 5t11 27t9 41.5q1 8 2 12.5t2.5 12t2.5 12t2.5 10.5 t3 10.5t3.5 9.5t4 9l11 26q5 11 14 41q13 30 22 56q5 9 13 32q35 63 47 90q26 43 47 64q27 21 53 47q3 4 13 10t12 8q27 15 51 33q33 24 80 0q9 -5 25 -19t26 -20q4 -4 8 -16q5 -53 2 -68l-6 -45q0 -35 -10 -51q-1 -2 -1 -6t-1 -6q-3 -18 -13 -35q-11 -16 -26 -49 q-11 -28 -21 -49q-8 -25 -10 -35q-11 -33 -24 -51q-23 -23 -33 -56q-8 -22 -31 -37q-22 -22 -27 -32q-7 -25 -47 -76q-9 -11 -10.5 -25t-5.5 -22q-8 -6 -12 -23q-9 -37 -11 -51q-3 -21 -12 -49q1 -7 -0.5 -20.5t-1.5 -18.5q3 -7 -4 -14v-31q4 -15 0 -41v-53q0 -6 2 -8 q3 -7 3 -20.5t1 -16.5q2 -23 19 -82q8 -6 12 -21q9 -13 6 -18q-2 -15 10 -27q14 -29 58 -67q-2 -1 -6 -1t-6.5 -1t-4.5 -4q3 -2 9 -6.5t11.5 -7t10.5 -3.5q0 6 4 10zM651 707q29 52 41 69q46 66 49 72q9 21 50 102q6 15 6 31q0 19 4 27q20 47 24 153q0 13 -4 37 q-10 23 -30 12q-1 -1 -6.5 -4.5t-6.5 -7.5q-3 -9 -30 -47q0 -1 -3.5 -8t-3.5 -10q2 -17 -12 -39q-7 -19 -27 -39q-14 -8 -14 -23q3 -15 -4 -35q-12 -27 -14 -43q-5 -19 -22.5 -64.5t-20.5 -72.5q-3 -13 -10 -43q-23 -88 -11 -96q10 -7 45 29zM260 420q-10 -11 -17.5 -24 t-16.5 -32.5t-13 -27.5l-10 -19l-29 -57q-15 -70 8 -115q0 -2 6 -8q13 5 37 29q9 12 30 34t26 27q17 17 30 43q0 2 1 6.5t1 6.5l4 41q-3 21 0 43q27 90 8 110q-19 18 -61 -50q-2 -3 -4 -7zM465 -86h-19v8l-6 6l-4 -2q0 -3 6 -6l2 -4l9 -16q40 -47 79 -58q2 -2 17 -2 q-2 2 -6.5 7.5t-7.5 7.5l-76 57q-2 0 0.5 1t5.5 1zM627 -25v9q-1 2 -4 4.5t-7 6t-6 5.5q-9 24 -30 45q-5 5 -11 2q6 -8 21 -28.5t24 -30.5q0 -4 13 -13zM588 86q-3 12 -15 39q-2 4 -4.5 11.5t-6 14t-9.5 11.5q6 -29 31 -70q0 -6 4 -6zM643 -6q0 5 -8 0q9 -7 14 -14l-1 6 q-1 6 -5 8zM553 25h4q0 1 -2 3t-2 3l-2 -2q2 -2 2 -4zM592 80l-4 6q3 -3 0 -6h4zM541 57l-2 2h-4q4 -2 6 -2zM518 -121v2q-2 0 -2 -2h2zM545 45l-2 -2h2v2z" />
<glyph unicode="e" horiz-adv-x="688" d="M201 498q-1 -4 -6 -14t-5 -17q0 -6 -8 -10q-6 -6 -6 -11q-2 -9 -10 -12q-4 -2 -6 -16q6 0 8 -2v-2h-14q2 6 2 16h-4l-7 -43q8 -4 9 -4q2 -14 2 -41q0 -17 8 -37q3 -4 14.5 -30.5t14.5 -30.5l9.5 -9.5l10.5 -10.5t10 -9.5t11.5 -10t10.5 -8.5t11.5 -8t10.5 -5.5t11.5 -5 t10.5 -1.5q15 -3 80 10q68 20 141 76q20 16 55.5 46.5t46.5 39.5l6 6l37 41q42 42 62 72q13 21 24 25q-8 -36 -16 -52q-3 -9 -10 -16q-23 -27 -31 -43l-20 -25l-9 -12l17 6q-1 -6 -7.5 -12.5t-7.5 -11.5l7 -7q-4 -7 -21 -24q-19 -16 -35 -35q-19 -21 -59 -53 q-28 -22 -29 -23l-24 -16q-22 -11 -37 -21q-34 -20 -66 -26l-18 -6q-38 -12 -74 -15q-20 -3 -86.5 9t-89.5 20q-32 13 -52.5 28t-39.5 36t-27 28q-19 16 -29 43q-10 28 -14 86q0 91 43 182q6 12 4 31q-16 -10 -20 -22q-8 -23 -25 -54q0 10 15 45q26 61 57 105q35 52 76 94 q48 51 92 78l20 10q20 8 27 -4q3 -3 9.5 -4.5t8.5 -3.5q3 -2 7.5 -8.5t5.5 -7.5q8 -4 57 -20t59 -23q7 -4 15 -21q2 -5 7 -14t8 -14.5t7.5 -12t9.5 -10.5q4 -4 9 -19q7 -42 0 -73q-5 -33 -31 -80q-20 -35 -23 -43q-3 -12 -20 -41q-12 -24 -37 -31q-19 -9 -39 -6q-2 1 -4.5 1 t-4.5 0.5t-4 2t-3 4.5l-2 2q-9 -1 -23 10.5t-16 12.5q-4 4 -4 10q2 5 -2 18q-22 44 -27 52q-4 12 -14 2zM311 643q-8 -6 -16.5 -14.5t-13.5 -15t-14 -18.5t-13 -17l-14 -23q-12 -21 4 -31t18 -14q12 -14 45 -10q18 5 33 32q6 16 17.5 36.5t17.5 39.5q16 39 5 49.5t-31.5 5 t-37.5 -19.5zM0 285l-4 -2l6 -17q0 -1 2.5 -8t-0.5 -10l-4 4q-10 20 -18 74v6q0 59 8 90q4 12 4 18v15q-10 -19 -12 -29l-7 -29q-13 -88 17 -145q3 -5 16 -23q4 -5 15 -8h6q-16 27 -17 29q-3 6 -6 18t-6 17zM0 420q-4 -4 -4 -6q-11 -38 -4 -95l4 -4l6 64q4 29 -2 41z" />
<glyph unicode="f" horiz-adv-x="634" d="M424 657q5 29 20 60q9 22 29.5 61.5t22.5 44.5q28 73 36 146q4 41 -11 67q-16 27 -38 -20q-4 -12 -14 -36.5t-14 -37.5l-45 -123q-2 -8 -9 -27t-10 -28q-10 -36 -53 -139q-21 -61 -35 -88q-15 -36 -21 -56.5t-18 -52.5q-26 -64 6 -72q13 2 60 -13t55 -13q13 0 41.5 -7.5 t42.5 -3.5l31 9q24 8 26 8q0 2 25 16q12 0 47 49t49 48q48 25 45 -2q-3 -31 -57 -86q-19 -20 -39 -35l-39 -25q-41 -15 -85.5 -19.5t-80 -1t-69.5 10.5t-58.5 13.5t-43 9t-26.5 -3.5t-6 -23q1 -14 7 -133v-27q-2 -25 -2 -70q-7 -21 -7 -37q-10 -40 -10 -47q-5 -27 -4 -36 q-8 -19 -10 -35h-2t-3 -2t-3 -2q-2 -2 -2 -9q0 -20 -7 -32q-11 -45 -12 -50q-19 -59 -33 -79v-15q0 -19 -16 -35l-6 -12q-12 -30 -43 -90q-9 -24 -29 -27q-5 1 -14 -0.5t-10 -1.5t-4.5 -2.5t-6.5 -1.5l-16 -4q-20 -9 -43 10q-6 4 -27 25q-26 26 -26 66l-11 24q-8 33 -8 82 q0 82 2 100q2 2 2 4q-3 9 -1.5 27.5t2.5 27t5 27t5 27.5q23 99 39 154q5 33 6 37q4 21 8 30q0 5 10 35q0 4 4 16q16 49 19 68q12 45 47 131q1 4 5.5 13t4.5 14q6 32 78.5 195.5t134.5 283.5l-23 -26l-22 -25q4 7 38.5 54.5t35.5 49.5q25 39 38 54t27 18q35 34 66 59 q19 18 52.5 27t53.5 2q21 -5 25 -4q32 -4 73 -41q0 -3 2.5 -5.5l6.5 -6.5t6 -7q2 -8 9 -27t9 -29t0 -34q13 -38 -6 -94q-48 -115 -106 -194q-5 -16 -27 -27q-6 -3 -21 -10t-24 -13zM94 156l-6 -19l-18 -59q-7 -21 -7 -39q-1 -5 -6 -25.5t-6 -31.5q-9 -38 -14 -50 q2 -8 -2 -19t-4 -13l-4 -12t-4 -15q0 -8 -2 -16.5t-5 -19t-4 -17.5q-6 -32 -8 -37q-10 -35 -10 -45t-1 -30t-1 -27q0 -5 4 -17q4 -8 8 -12t7.5 -3t6.5 3.5t6 8.5l5 10t4 9.5t2 6.5q6 15 8 22.5t8 22.5q6 24 23 78q7 27 10 53q7 44 20 157q10 62 15 119q4 83 -9 65 q-9 -13 -16 -48zM244 920l-2 6q-3 -8 -24 -41t-25 -37q-5 -24 -17 -31l2 12q8 18 20 37.5t29 43.5t25 36l-2 8q58 74 92 111q1 1 4 3t5.5 3.5t4.5 5t2 6.5l19 21q-24 -18 -31 -25q-3 -2 -7.5 -5.5t-7.5 -5.5t-7 -6.5t-7 -10.5q-84 -93 -139 -207q-4 -16 -10.5 -33.5 t-7.5 -19.5q-3 -8 -3.5 -18t-2.5 -15v-6q7 12 24 57q5 10 33.5 55.5t32.5 55.5zM156 797q-4 -2 -6 -4q-36 -67 -56 -136v-12q7 13 14 28t14 33t11 27q13 24 23 64zM162 -102v-7h-2q0 7 2 7zM162 -102v4q2 0 2 -2q-2 0 -2 -2z" />
<glyph unicode="g" horiz-adv-x="802" d="M31 -612q-35 -23 -76 -13h-18q-7 2 -21 3.5t-22 3.5q-12 0 -15 12q-12 70 -12 104q-3 42 20 84q73 136 111 189q66 95 139 168q15 18 25 38q1 15 33 102t34 97q-1 4 -22.5 -19.5t-45.5 -50.5l-24 -28q-31 -22 -44 -25.5t-44 -3.5q-41 4 -90 49q-23 20 -29 56 q-2 11 -2.5 24t2 30t4 28.5t7 34.5t7.5 31t9 34t8 29q4 9 10 25t9 22q31 90 59 135q11 19 24.5 40t30 46.5t25.5 40.5q9 9 22.5 26.5t16.5 20.5q14 13 24 20t23.5 15.5t26.5 17.5q7 11 16 14q27 21 45 13q12 -9 33 -2h18q21 -6 73 -49t64 -50q22 -9 35 -26q13 -13 8 -25 q-3 -17 -20 -26q-19 -6 -29 0q-13 13 -39 6q-10 0 -22 -8q-27 -17 -43 -33l-60 -68q-30 -28 -59 -80q-4 -3 -9 -11.5t-9 -10.5q-50 -71 -78 -123q-14 -17 -27 -43q-4 -9 -14.5 -29.5t-18.5 -38.5t-12 -32q-8 -52 28 -29q13 10 54 51q25 20 33.5 30.5t27.5 39.5q4 5 19 23 t20 26q16 26 55 71t56 70q12 16 21 25.5t25.5 25.5t23.5 23q6 12 24 12q8 -1 18 6t17 4q17 -6 20.5 -26.5t-6.5 -42.5q-4 -2 -4 -6q-44 -64 -67 -101q-2 -3 -21 -41q-23 -57 -37 -116q-18 -74 -1.5 -94t77.5 16q33 30 91.5 66.5t105.5 71.5t71 77q4 6 19 32.5t26 39.5 q7 4 13.5 19t11 26t14.5 17t25 -7q7 -8 8 -9.5t-2.5 -4t-5.5 -5.5l-8 -14q-18 -18 -25 -45q-3 -7 -24 -36.5t-23 -39.5q-17 -39 -60.5 -76.5t-112 -80.5t-85.5 -56l-104 -88q-28 -22 -41 -40.5t-17 -47.5q-6 -24 -6 -31q-18 -97 -18 -100v-2q-5 -15 -11.5 -44t-11.5 -44 q-10 -51 -12 -57q-1 -11 -7 -31.5t-8 -30.5q-3 -16 -18 -35l-18 -24q-8 -16 -35 -43l-33 -27q-18 -10 -45 -37q-5 -5 -28 -7.5t-27 -8.5q-6 -13 -15 -4q-4 -4 -6 -4q-12 -4 -18 0zM31 -287q-4 -15 -19 -41q-3 -6 -6.5 -16.5t-5.5 -13.5q-31 -51 -37 -103q-8 -49 21 -78 q8 -11 20 -2q30 17 39 37q0 14 8 19q10 7 10 26q-3 31 9 68q10 20 10 43q4 19 14 31q-3 17 2 30q4 12 4 19q36 101 12 90q-23 -10 -67 -83q-8 -14 -14 -26z" />
<glyph unicode="h" horiz-adv-x="946" d="M324 508q16 17 69 66.5t64 60.5q110 99 215 33q30 -50 -10 -228q-7 -26 -38.5 -107.5t-37.5 -99.5q-7 -62 42 -56q51 7 132 72q5 4 8 7l38 26q37 27 38 29q11 13 32 27t33 29q3 4 22 37t34 45q25 21 20 -2q-4 -13 -16 -35q-26 -33 -56 -84q-3 -5 -13 -16.5t-17 -22.5 t-9 -21q-3 -9 -27 -23t-28 -18q-33 -45 -37 -51q-5 -7 -40 -34.5t-42 -32.5q-17 -16 -42 -26.5t-53 -15t-54.5 2.5t-46.5 24t-29.5 50.5t-3.5 80.5q7 42 72 174t67 136q11 25 15 40q4 10 4 35q-23 38 -56.5 35t-64 -24.5t-47.5 -49.5q-15 -10 -23 -26q-9 -18 -24 -33 l-105 -129q-38 -43 -43 -51q-7 -10 -127 -242q-9 -19 -12 -37q-2 -10 -10 -35q-1 -5 -5.5 -19.5t-5.5 -21.5q-4 -38 -24 -49q-2 -2 -5.5 -8t-6.5 -10h-13q-4 4 -26 0q-6 -2 -6 -3q-4 -1 -5 -1q-2 0 -5.5 3.5t-6.5 4.5q-4 6 -13 16.5t-11 12.5q-26 23 -29 69 q-16 58 -15.5 135t11 145t35 159.5t43 148.5t48 143.5t38.5 114.5q77 156 94 186q76 145 133 218q49 68 100 108q34 25 75 9t79 -54.5t65.5 -83t34.5 -76.5q10 -15 13.5 -38t-4.5 -48q-5 -7 -7 -6.5t-8 8t-10 9.5l-16 6l-25 8q-17 3 -31 -14l-28 -31q-62 -58 -95 -119 q-22 -37 -41 -51q-3 -3 -7 -11.5t-7 -11.5q-9 -18 -28 -48t-23 -36l-39 -71q-50 -93 -59 -111q-6 -14 -22 -48.5t-23 -53.5q-4 -9 -9 -20.5t-7 -16.5t-5 -13t-4.5 -13t-3.5 -13.5t-4 -17.5t-4 -21q0 -39 72 50q42 52 53 75z" />
<glyph unicode="i" horiz-adv-x="499" d="M94 647q7 -4 12 -2l3 2q6 9 16 15q8 1 28.5 11t38.5 16t27 1q3 -4 17 -13t18 -13q13 -16 4 -46q-6 -14 -21 -41t-22 -42l-10 -31q-1 -2 -11 -26.5t-16 -35.5q-3 -9 2 -1q2 4 8 14q13 23 15 23q1 1 0 -3q0 -4 -6 -16q-4 -9 -8 -19t-5 -13t-2.5 -9t-2 -11.5t-1.5 -17.5 q0 -6 -3.5 -69.5t-2.5 -73.5q2 -12 16 -31q3 -1 8.5 -4.5t11.5 -6.5t11 -5q8 -6 33 -2q60 22 91 41.5t39 35t27.5 47.5t49.5 64q4 6 17.5 24t21 31.5t12.5 28.5q0 2 6 12q5 -11 2 -22t-1 -20.5t15 -12.5q-11 -20 -37.5 -79.5t-50.5 -96.5t-55 -55q-9 -12 -34.5 -34 t-64 -46.5t-77.5 -35t-74 0.5q-13 -4 -26.5 0.5t-31.5 15.5t-28 15q-29 12 -59 45q-21 57 -21 82q-4 12 -4 36q3 11 5 45t6 43q6 30 6 33l3 7q3 7 11 8q1 0 2 2t2 4.5t2 3.5q5 7 11.5 20.5t11.5 20.5l-22 -19q-11 -5 3 17q9 22 35 61.5t31 52.5l4 11q11 23 8 34t6 29z M307 885q-3 -3 -6.5 -9t-5.5 -8q-9 -13 -10 -18q0 -6 -4 -10l-21 -25q-8 -11 -31 -16q-5 3 -14 -6q-14 -9 -29 -2q-6 4 -16 4q-15 0 -23 2l7 8q0 3 2.5 10t3.5 10q4 11 14 27q0 2 3 5.5t3 4.5q0 5 2.5 11t7.5 13t7 11l12 18q9 9 12 9q7 3 10 0q0 -6 9 -2q7 3 8 2 q10 -5 26 -9q21 -9 33 -30z" />
<glyph unicode="j" horiz-adv-x="487" d="M193 68q28 21 172 209t149 194q5 -2 2 -8l-6 -12q-3 -5 5 -6h6q12 0 13 -3l-2 -4q-2 -4 -10 -25.5t-16 -40t-12 -20.5q-4 -4 -19 -14q-14 -12 -24 -35q-3 -6 -28 -41.5t-53 -74t-54.5 -75t-28.5 -38.5q-4 -4 -4 -6q-3 -10 -40 -50t-46 -45q2 -23 -28 -47t-71 -47.5 t-53 -38.5q-37 -20 -55 -38t-31 -52q-4 -23 -13 -45t-22 -48.5t-18 -39.5q-14 -23 -19 -27q-16 -12 -45 -41q-23 -17 -28 -18q-22 -12 -60 -16q-11 0 -20 6q-5 5 -19.5 18t-21.5 21q-29 25 -49 80q-8 30 -25 61q-12 10 -16 37q0 2 -1 6t-1 6q-6 26 -25 35q-14 8 -39 33 q-2 -2 -4 3q0 2 -2 7q10 0 14 -2q8 -4 27 0l74 12q10 4 30 8q40 0 58 2q36 3 63.5 24t38.5 54q10 40 55 187q23 84 41 129q19 57 31.5 104.5t32.5 104.5q13 38 40.5 108.5t39.5 102.5q3 8 12.5 29t11.5 32q6 13 15 55q13 13 35 0q30 -10 34 -10q35 -15 58 -41q12 -13 16 -37 q21 -54 18 -135q0 -11 -2 -24t-5.5 -28.5t-4.5 -23.5q0 -5 -4 -12t-4 -10q-2 -36 -27 -91t-28 -65t-14 -28t-13 -31q-4 -18 -9 -29t-9 -29q-61 -112 -59 -155q2 -46 96 39zM158 1112l12 4q38 -3 76 -26q21 -11 45 -48q18 -34 0 -63q-17 -25 -25 -29q-12 -6 -24 -18 q-14 -9 -17 -14q-10 13 -30 -3q-6 -4 -25 -4l-8 4q-1 10 4 56q8 63 10 90q7 28 -12 37q-1 1 -3 3.5t-3 4.5t0 6zM-385 -233q0 -11 10 -21q8 -16 29.5 -50.5t30.5 -55.5l8 -9q4 -6 11.5 -15.5t8.5 -10.5q8 -11 17 -2q9 12 12 24q30 72 47 135q0 14 -22 16t-54.5 -2t-38.5 -3 h-6q-3 0 -22 -2t-31 -4z" />
<glyph unicode="k" horiz-adv-x="880" d="M401 174q2 -21 21 -55q17 -34 35 -58q12 -24 35 -24q31 -7 65 6q11 3 58.5 37t58.5 39q4 2 50.5 49.5t51.5 50.5q24 25 84 121q10 16 29 50.5t29 51.5l12 27l6 25q3 -10 9.5 -14t11.5 -3t8 -1.5t0 -8.5q-7 -18 -7 -27q-1 -12 -19.5 -43t-18.5 -32q-19 -55 -35 -82v-4 q-5 -11 -21 -37.5t-22 -40.5q-100 -115 -127 -138q-13 -11 -35 -20q-10 -5 -66.5 -45t-74.5 -45q-50 -10 -64 -10q-53 -3 -88 32l-33 41q-59 100 -71 127q-3 4 -7 9.5t-6 8.5t-5.5 6t-6 3.5t-5.5 0t-6 -3.5t-7 -9q-2 -3 -4.5 -12.5t-4.5 -12.5q-6 -9 -20 -37q-5 -17 -18 -39 q-13 -13 -25 -10q-21 0 -31 -10q-32 -14 -49.5 -13t-40.5 21q-46 30 -61 113q-2 4 -2 12q2 26 2.5 31.5t-2 32t-2.5 32.5q-3 27 2 123q1 6 2.5 16.5t2.5 19.5t1 17q1 16 2.5 32.5t6 37t7 31t9 36t8.5 31.5q23 75 32 99q19 61 68 172q6 11 17.5 36t19.5 37q32 69 121 217 q64 89 94 117q2 1 18.5 16.5t26.5 22.5q11 10 51 14q1 0 4.5 -3.5t5.5 -4.5q5 -10 12.5 -18.5t24.5 -20.5t19 -14q54 -41 94 -104q20 -27 20 -68v-18q-1 -7 -8 -13t-12 -6q-1 1 -15 8q-2 3 -8 8.5t-8 8.5q-28 22 -59 -9q-9 -8 -28.5 -28t-29.5 -29q-1 -3 -12 -20 q-12 -19 -35.5 -52t-27.5 -38q0 -1 -7 -15q-16 -40 -30 -63q-4 -8 -20.5 -39.5t-24.5 -50.5l-23 -43q-7 -17 -25.5 -58t-27.5 -63q-37 -78 -57 -152q-1 -6 -4.5 -16t-4.5 -14q-16 -73 -18 -78q-7 -59 9 -55q8 3 15 14q13 19 41.5 71t47.5 78q64 89 116 139q65 51 133 39 q16 0 25 -18q1 -4 8 -14q23 -33 23 -76q0 -77 -23 -150l-4 -20q-15 -41 -39 -74q-6 -5 -16 -16t-15 -15q-20 -26 -47 -36q-8 -2 -26 -11q-3 0 -6.5 -4.5t-6.5 -5.5zM418 518q-40 -44 -56 -82q-18 -44 -24 -53q-4 -9 -14 -26.5t-13 -26.5q-13 -19 8 -18q25 2 44 16l2 2 q63 48 110 157q23 75 3 80t-60 -49zM-10 309v-43q4 26 0 43z" />
<glyph unicode="l" horiz-adv-x="667" d="M686 465q38 5 -16 -90q-3 -6 -15.5 -25t-21 -36t-8.5 -27q-9 -9 -13 -11q-11 -11 -16 -24q-2 -6 -7 -13t-7 -10q-42 -75 -95 -125q-10 -8 -66.5 -62.5t-62.5 -61.5q-27 -22 -58.5 -28.5t-81 -3.5t-58.5 3q-30 0 -43 8l-22 11t-32.5 18t-17.5 16q-4 11 -36 56.5t-34 82.5 q-1 8 -6 21.5t-6 21.5q1 28 21 199q16 63 30 145q10 44 19 71t15.5 42t31.5 66q10 26 29.5 54.5t29.5 55.5q17 35 47 82q5 14 13.5 28.5t20.5 33t18 28.5q58 100 127 176q63 63 94 90q42 33 55 37q9 6 18 9q50 3 76 -23q30 -27 21 -86q-9 -57 -13 -72q-2 -19 -20 -55 q-22 -56 -53 -100l-45 -80q-11 -17 -34 -54.5t-36 -56.5q-25 -34 -68 -99.5t-51 -76.5q-19 -32 -30 -54t-19 -46t-10.5 -35t-9.5 -46t-11 -54t-5 -36t-0.5 -39t-0.5 -36q1 -5 5 -50.5t5 -49.5q4 -18 25 -66q2 -4 10 -7t19 -6.5t14 -4.5q9 -6 59 23.5t78 49.5q12 6 24.5 16.5 t20 17.5t23 23t20.5 21q14 13 25 28.5t24.5 37.5t22.5 35q19 25 44 71t44 72zM264 621q48 69 78 122q72 114 135 234q12 22 32.5 65t31.5 64q14 42 20 92q2 5 2.5 8.5t-1.5 4.5t-7 -1q-11 -2 -23 -10q-42 -16 -69 -59q-5 -6 -18.5 -24t-22.5 -27q-25 -32 -37 -72l-31 -66 q-12 -36 -55 -129l-23 -63q-19 -52 -36 -105q-8 -20 1 -37q7 -14 23 3z" />
<glyph unicode="m" horiz-adv-x="1257" d="M389 389l-14 -20q-1 0 -4 2t-4 2q-1 2 -5.5 1t-5.5 -5q-2 0 -2 -4q-14 -34 -37 -29q-5 -5 -11.5 -15t-10.5 -14q-19 -9 -21 -26q0 -3 -4 -11q-5 -6 -14.5 -18.5t-13.5 -18.5q-8 -20 -37 -45q-1 -1 -10 -10.5t-13 -17.5q0 -2 -3 -5t-7 -3q-10 -2 -31 -19q-42 -22 -69 -24 q-40 0 -64 12q-42 23 -49 98q0 21 4 31q5 80 33 190q7 25 35 97q14 28 37.5 85.5t37.5 84.5q0 3 2 8t3 6q14 54 61 135q2 3 21 41q18 4 28 -6q9 -5 32.5 -21t37.5 -24q10 -5 10 -10q4 -9 14 -28.5t16.5 -35t10.5 -31.5l10 -59q7 -39 -8 -68q-4 -8 -10 -25.5t-10 -25.5 l-9 -31q-21 -72 -43 -122q-2 -2 -2 -4q0 -3 -4 -7q-4 -27 -14 -47q2 1 5.5 2t4.5 2l64 74q22 24 58.5 68.5t45.5 54.5q32 37 39 47q43 58 125 148q13 13 22 16q26 12 52 8q16 -8 18 -10q5 -5 21.5 -23t25.5 -26q13 -10 23 -37q8 -29 10 -43q6 -32 -2 -64q-26 -88 -45 -133 q-2 -7 -8.5 -26.5t-8.5 -32.5q10 3 15 8q53 30 112 92q58 55 105 80q6 2 16 12q17 14 31 0q3 -2 12 -13.5t17 -14.5q6 -2 24 -25q-3 -27 0 -51q0 -18 -10 -45q-7 -3 -8 -16t-4 -17q-1 -16 -11 -72q-3 -32 0 -65q0 -19 15 -25q21 -4 81 35t77 62q43 48 96 137q4 18 12 26 q5 -7 4 -8q-3 -14 -0.5 -22t0.5 -25q0 2 -1 -1l-3 -6q-8 -24 -12 -24q-2 0 -3 -1.5t-2 -4t-3 -4.5q-4 -8 -11.5 -21t-13.5 -24t-10 -22q0 -3 -8 -19q-12 -8 -45 -41q0 -4 -11 -10q-8 -17 -55 -50.5t-64 -33.5q-54 0 -69 12q-4 4 -16.5 14.5t-20 17t-16.5 17.5t-13 21 q-15 37 -2 86q16 80 41 149q4 12 4 21v12q-6 -1 -15.5 -9t-14.5 -9q-19 -8 -29 -15q-2 -21 -14 -39q-5 -5 -11.5 -14.5t-9.5 -13.5q-12 7 -31 -8l-49 -41q-13 -13 -14 -15q-17 -22 -66 -57q-1 -2 -4.5 -4.5t-5.5 -5.5q-7 -15 -29.5 -34.5t-25.5 -23.5q-9 -12 -21 -24 q-48 -39 -104 -33q-22 3 -43 27q-22 22 -19 61q0 29 13 66q44 137 141 278q6 12 22.5 38t24.5 42q15 15 10 31q-10 10 -22 -2q-4 -5 -19 -17q-41 -41 -61 -57q-23 -27 -31 -45q-15 -37 -39 -64q-35 -35 -47 -55q-7 -9 -17 -27.5t-13 -23.5q-4 -10 -19 -35z" />
<glyph unicode="n" horiz-adv-x="997" d="M444 518q-4 -7 -10.5 -14.5t-15 -17t-12.5 -13.5q-6 -6 -38 -40.5t-46 -53.5q-21 -29 -64 -72q-20 -20 -35 -47q-22 -35 -28 -41q-14 -10 -17 -20q-11 -11 -35.5 -87t-31.5 -85q-13 -13 -27 -13q-9 0 -29 -10q-15 -12 -32 -6q-10 3 -21.5 4t-25 1t-21.5 1q-8 2 -23.5 4 t-17.5 2q-24 8 -35.5 31t-5.5 55q33 153 61 226q18 51 48 112q34 87 67 154q17 31 72 125q34 61 39 73q16 29 22 56q0 3 1 7t1 7q17 10 25 -2q22 -28 55 -37q5 0 10 -10l31 -41q12 -18 8 -59q-3 -103 -63 -230q-5 -10 -8.5 -19t-4.5 -12.5t-5.5 -10.5t-12.5 -19 q-24 -38 -7 -55q10 -9 26 -1q29 28 84 91q27 33 63 68t51 52l39 41q14 24 43 31h21q13 -2 37.5 -3t37.5 -3q22 -5 37 -31q8 -13 8 -31q7 -55 0 -83q-16 -76 -22 -101q-9 -30 -12 -85t0 -85q1 -17 13 -25.5t27.5 -8.5t29 3t22.5 7q4 1 14 6.5t17 7.5q33 21 83 62t70 67 q3 4 38.5 32.5t39.5 33.5q8 12 16.5 30.5t16.5 30.5l2.5 5t3.5 6t6 7q0 -8 2 -10q1 -6 0 -16.5t0 -16.5q0 -3 -4 -12q-8 -11 -8 -27q-2 -13 -13 -30q-5 -7 -26 -42.5t-31 -47.5q-88 -99 -115 -123q-3 -3 -30 -19l-25 -8q-22 -9 -83.5 -11t-88.5 7q-130 43 -133 217 q4 54 4 78q15 78 0 101q-10 12 -29 -7z" />
<glyph unicode="o" horiz-adv-x="643" d="M57 524q0 4 -2 6q-28 46 -39 129q-8 45 23 101q4 7 14 10q20 17 62 41q25 17 65 10q11 0 72 -49q33 -28 39 -31q27 -24 41 -61q15 -39 18 -45q3 -8 5 -18t4 -22.5t3 -19.5q4 -38 7 -49q0 -5 1 -16l1 -10q-1 -9 0.5 -36t-2.5 -34q-5 -9 2.5 -18t19.5 -9q33 2 119.5 1 t118.5 8l33 16l14 8q5 -8 0 -18q-3 -5 3.5 -12t2.5 -11q-21 -23 -61.5 -37.5t-99.5 -19t-85.5 -5.5t-77.5 -1h-6q-12 0 -12 -6q0 -3 -4 -11q-3 -16 -9 -32t-16 -37.5t-14 -32.5q-9 -22 -39 -61q-19 -28 -29 -35l-14 -11q-10 -5 -12 -12q-28 -31 -58 -39q-8 0 -20 -8 q-34 -9 -84 -2q-47 5 -82 66l-18 55q-7 65 -2 113q5 53 34 112q23 58 76 121q5 2 8 12zM301 563q7 28 -2 49q-5 32 -14 66q-10 33 -29 49q-2 2 -5.5 6t-6.5 7t-7 6.5t-8 5.5q-21 17 -36 26q-26 21 -84 -37q-28 -37 -23 -84t24.5 -85.5t47.5 -69.5q28 -56 67.5 -67t63.5 26 t12 102zM156 301q-20 -28 -39 -88q-2 -10 -2 -33q-2 -2 2 -10q8 -19 22 -25q2 0 4 2l9 7q42 45 79 131q4 7 8 15.5t7.5 19t5.5 14.5q-38 12 -55.5 4t-40.5 -37zM369 526l-1 4l1 -6v2zM371 522q-2 0 -2 2z" />
<glyph unicode="p" horiz-adv-x="808" d="M430 262q-9 -4 -29 -8t-30 -12q-21 -10 -21 -45q4 -19 15 -19q2 2 7 4t7 4q19 11 27 25q24 32 26 52v2q-1 -1 -2 -3zM608 479l2 -76q0 -11 1.5 -18t5 -10.5t7.5 -4.5t12.5 0t16.5 3t23 5t29 5q56 9 98 51q19 18 51 -14q0 -5 -13.5 -27t-17.5 -26q-16 -9 -31 -17t-26 -13 t-26 -9.5t-22.5 -6.5t-23 -5t-20.5 -3.5t-22.5 -2.5t-22.5 -3q-12 -3 -22 -8t-15.5 -8t-12 -14t-8 -13t-8.5 -18.5t-8 -18.5l-8 -16q-3 -11 -8 -21.5t-13 -23t-10 -16.5q-1 -1 -5.5 -6.5t-6.5 -6.5l-21 -24q-16 -28 -34 -41l-15 -17l-20 -18q-10 -3 -19 0q-16 11 -20 12 q-2 6 -2 19q-7 34 -29 36q-2 1 -20 19q-8 12 -25 22q-14 9 -16 30.5t10 41.5q10 23 31 37q18 15 41 25q14 9 38.5 16.5t34.5 11.5q22 12 33 45q28 107 37 187v69q0 9 -2 13q-2 8 -8 10t-11 -4q-5 -3 -8 -11q-33 -55 -39 -69q-14 -27 -43.5 -88t-46.5 -92q-40 -76 -61 -127 q-14 -33 -63 -109t-64 -119q-13 -30 -23 -37q-14 -6 -14 -32q0 -25 -6 -43q-8 -16 -13 -21q-3 -4 -22 -35q-36 -93 -41 -157q-5 -61 -8 -74q-3 -30 -25 -39q-16 -10 -24 -31q-10 -10 -11 -10q-3 0 -5 -3.5t-4 -9t-3 -7.5h-2q-45 -8 -65 57q-15 50 -19 123q-5 133 14 291 q2 17 5 37t7.5 43.5t6.5 35.5q10 81 39 187q39 152 74 264q2 5 9.5 26.5t10.5 36.5q13 32 35.5 96.5t34.5 94.5q6 18 41 96q15 12 30 0l49 -31l3 -2q46 -55 55 -143q6 -47 -6 -100q-21 -87 -45 -154q-9 -25 -37 -111q-23 -80 8 -89q19 -6 34 16q3 4 5 8q3 7 21.5 37t21.5 41 l67 139q14 37 37 66q4 4 20 24t25 29q22 22 45 22h35q17 4 51 -26q17 -10 21 -39q6 -48 6 -49z" />
<glyph unicode="q" horiz-adv-x="724" d="M29 -63v16l45 -10l37 -6q7 0 20 -5t19 -4q7 5 22.5 59t15.5 62q5 21 39 99.5t39 95.5q4 8 2 12q2 4 0.5 7t-4.5 1q2 -5 -20.5 -24.5t-61.5 -37.5t-71 -14q-6 -1 -10.5 -1.5t-15 5t-16 8.5t-15.5 9l-9 6q-31 27 -37 37q-1 1 -8 25.5t-8 25.5q-13 35 4 162q8 33 31.5 85.5 t48.5 88.5q5 7 31.5 42t44.5 55t36 32q4 3 31 24.5t50 39.5t32 24q5 4 29 16q52 21 73 27q14 9 29 -6q7 -7 58 -43.5t59 -44.5q4 -5 35 -57q2 -1 1.5 -6t-3.5 -9q-10 5 -11 6q-22 13 -43 -8q-12 -3 -16 -18q-4 -6 -12.5 -12.5t-21 -13.5t-15.5 -9l-51 -41q-31 -31 -107 -84 q-4 -4 -26.5 -25.5t-41 -42.5t-24.5 -36q-15 -12 -45 -55.5t-37 -65.5q-16 -46 13 -43q32 2 79 51q7 7 13 14q16 18 27.5 29.5t31.5 29t41 37.5q33 33 55 58q5 7 37 39q14 13 27 0q18 -21 37 -31q9 -7 26 -41q2 -4 2 -12q-3 -48 -20 -78q-5 -7 -11.5 -22t-7.5 -17 q-4 -8 -14 -24.5t-14 -24.5q-9 -19 -36 -79.5t-36 -78.5q-6 -13 -9.5 -43t-9.5 -43q-8 -19 -22.5 -61.5t-20.5 -57.5v-6q0 -12 7 -16h16q96 -5 115 -4q41 0 90 6q26 3 63 10q38 5 99 27q57 22 94 59q4 8 12 4q-2 -4 -10 -12l-37 -45q-9 -16 -25 -25q-5 -2 -12 -7.5t-8 -6.5 l-8 -8q-5 -16 -25 -23l-100 -47q-8 -4 -12 -4q-33 -11 -109 -33q-6 -2 -19 -4t-20 -4q-30 -4 -47 -8q-11 -3 -14 -21q0 -3 -3.5 -19t-3.5 -24q-2 -4 -2 -14q6 -17 -4 -33q-14 -55 -34 -86q-19 -27 -35 -35q-9 -6 -15 -18q-6 -8 -18 -12q-11 -6 -23 2q-11 9 -30 12 q-28 6 -49 45l-5 6q0 11 -4.5 29t-5.5 25q-6 19 -2 61q-1 1 -0.5 48t0.5 48q3 15 -6 19l-53 18l-29 8q-13 6 -16 25v18q-4 34 -2 52zM281 -365q5 4 20 29l39 92q2 4 2 11q4 12 -4 12q-26 0 -47 -8q-10 -3 -10 -19q-7 -33 -5 -53q-2 -9 -2.5 -26.5t-1.5 -22.5q1 -3 4.5 -8.5 t4.5 -6.5z" />
<glyph unicode="r" horiz-adv-x="700" d="M178 369q-15 -46 4 -43q21 4 51 44q14 19 17 31q5 21 42 98t52 103q26 39 35 57q21 28 33 52q12 21 32 24q7 0 20 1t19 1q32 0 52 -45v-8l14 -84q2 -13 2 -82v-55q3 -2 4.5 -3.5t3 -4.5l1.5 -3q0 -2 1 -1q2 2 11.5 1t11.5 1l8 10q16 12 24 22q9 15 21 0q0 -11 -8 -16 l-6 -10q-4 -12 -13 -15l-6 -6q-1 -1 -2.5 -2t-2.5 -2t-1 -2l-6 -4q-10 -10 -23 -10q-7 0 -18 -8q-10 -6 -16 0q-8 5 -23 9.5t-20 6.5q-37 9 -54 57q-16 50 -6 117q2 11 4 30t2 21l6 37q5 10 2 23q-6 0 -6 -2l-8 -11l-29 -51q-9 -15 -12 -37q1 -4 0 -7t-3 -7l-3 -6 q-35 -68 -47 -107q-6 -16 -19 -43.5t-18 -38.5q-4 -9 -25.5 -55t-29.5 -72q-2 -8 -9.5 -24.5t-9.5 -22.5q-4 -12 -31.5 -63t-35.5 -58q0 -2 -1.5 -3.5t-4.5 -3.5t-4 -3q-17 -24 -40.5 -28t-46.5 4q-4 -4 -12 4q-43 11 -57 80q-6 35 -6 106q4 108 8 160q4 22 5.5 40.5t3.5 32 t9 37.5q4 21 7 44t5 31.5t7 25.5t16 47q1 8 6.5 21t7.5 18q23 61 43 102q6 20 13.5 25t23.5 2q16 0 52 -8q21 -4 41 -21q6 -12 15 -23t21 -24.5t19 -21.5q25 -47 10 -97q-5 -20 -12.5 -25.5t-12.5 -27.5q-13 -43 -49.5 -117.5t-48.5 -113.5z" />
<glyph unicode="s" horiz-adv-x="557" d="M39 -258l-8 -6q7 11 21.5 29t15.5 20q-9 0 -27 -12v6q-4 2 -6 6q-1 -1 -6 -4t-6 -6q-9 -7 -33 -15q-4 -2 -15 2l5 11q-3 0 -8.5 -2t-8.5 -2q-3 -7 -10 -7q-21 -13 -33 11q-9 27 -14 32q-11 15 -19 60q0 15 7 33q7 30 34 73q51 73 107 123q54 50 59 81t-18 73 q-10 40 -53 119q-1 4 -5.5 11t-5.5 11q-13 20 -35 102.5t-22 110.5q2 2 3 7t3 9q-3 18 10 37q7 21 2 29q3 5 7.5 17.5t7.5 17.5q1 2 5.5 12t6.5 17l12 18l19 37q4 9 14.5 23t13.5 20q1 2 9 6q7 5 12 14q9 13 14 8q23 -10 37 -24q2 0 4 -2q13 -6 32 -47.5t21 -63.5 q0 -11 5 -16q0 -22 -5 -37q-10 -42 -16 -53q-8 -15 -14 -17q-10 -7 -17 -20q-1 -2 -3.5 -6t-4 -8.5t-0.5 -8.5q0 -4 -2 -6l-16 -33q-6 -15 -6.5 -38t4.5 -35t20 -27q14 -12 37.5 -62t34.5 -61q5 -4 9.5 -19.5t8.5 -19.5q5 -13 15.5 -16t25.5 1.5t29.5 11.5t34 15.5 t32.5 12.5q77 57 93 70q27 19 65 53q15 12 39 41l31 35l8 -21q8 -23 -2 -37l-2.5 -5t-2.5 -5.5t-1 -5.5q-5 -18 -19 -39q-5 -6 -13 -20.5t-13 -20.5l-27 -25l-43 -36l-8 -9q-13 -7 -36 -25.5t-30 -23.5l-22 -18q-13 -10 -42.5 -22t-45 -25.5t-15.5 -38.5q6 -31 5.5 -38 t-9.5 -44q1 -3 0 -8.5t0 -8.5l-2 -8q-5 -7 -6 -25t-2 -22q-3 -7 -10 -10l-6 -4q-23 -35 -25 -39q-11 -25 -82 -96l-16 -21q-3 -4 -8 -8t-9.5 -6t-11.5 -5.5t-10 -4.5q-4 -4 -4 -5q-16 -18 -39 -22zM8 -33q-9 -9 -20 -12q-21 -7 -31 -31q-9 -18 -20 -26q-17 -17 -21 -27 q-5 -31 -6 -33q-6 -16 4 -26l25 -29q12 -8 22 2l25 20l24 27q30 23 45 55q1 1 8 15q16 25 25 53q5 10 9 30t7 29q2 0 2 6q0 53 -69 -21q-4 -5 -13 -15q-12 -13 -16 -17z" />
<glyph unicode="t" horiz-adv-x="575" d="M551 385l39 88q5 -1 15 1q7 1 7 -1q0 -6 -2.5 -11.5t-1.5 -10.5t-9.5 -36t-14.5 -40l-39 -99l-56 -104q-6 -11 -56.5 -75t-57.5 -70q-14 -9 -49 -44.5t-47 -43.5q-12 -7 -47 -20t-46 -15q-55 -4 -80 2q-31 4 -70.5 40.5t-55.5 69.5q-27 48 -29 56q-13 46 -17 100 q0 51 2 86t9 70.5t12.5 54.5t21 69.5t25.5 82.5l10 40q0 3 13 41l18 66q2 11 9.5 29.5t13.5 34t10 31t-0.5 25.5t-18.5 13q-3 0 -10 1l-10.5 1.5t-9 2t-9.5 5.5l-36 23q-12 12 -13 18q8 4 11 4l84 19q17 4 59 8q15 4 20 16q2 5 10.5 22.5t10.5 27.5q6 11 25 53t32 63 q32 52 68 86l14 17q14 11 27 8q2 -3 18.5 -0.5t20.5 2.5q2 0 4 2q20 4 30 -3t17 -26q14 -28 14 -65q0 -13 4 -33q3 -13 0 -29l-6 -32l-12 -50q0 -10 -2 -16q6 -4 20 -4l76 6h107q7 0 21.5 -3t17.5 -3l-9 -12l-14 -11l-45 -20l-2 -2q-7 -1 -32.5 -6t-39.5 -4q-18 0 -43 -7 q-5 -2 -15 -4t-11 -2l-48 -6q-9 -2 -16 -16l-4 -6q-14 -40 -44 -109.5t-40 -93.5l-10 -23q-19 -38 -25 -61q-8 -24 -26 -53q-4 -6 -8 -22.5t-9 -24.5q-18 -39 -33 -133.5t-12 -151.5q2 -36 21 -94q1 -2 18 -25q1 0 3.5 -1t4.5 -1q59 0 74 10q22 15 86 68q96 96 121 147 q9 17 23.5 56.5t23.5 56.5zM346 948l12 64l7 28l8 50q2 18 -2 55q-1 6 -5.5 7.5t-7.5 -1.5q-14 -10 -18 -21q-17 -33 -21 -53l-8 -18l-12 -27q-10 -49 -14 -65q-4 -25 9 -36.5t29.5 -6t22.5 23.5zM254 680q16 45 41 96q8 21 11.5 35.5t1 24t-16 7t-37.5 -17.5 q-13 -39 -28.5 -100t-20.5 -78q-27 -102 -7 -81q22 25 56 114z" />
<glyph unicode="u" horiz-adv-x="823" d="M332 322v8q-13 -13 -32.5 -26.5t-47.5 -30.5t-37 -23q-15 -8 -35 -12t-40 -6.5t-27 -4.5q-14 0 -42 6.5t-38 12.5q-37 22 -46.5 40t-17.5 72q-10 27 11 86q6 27 69.5 137.5t69.5 123.5q15 35 37 69q5 13 26 25q2 1 17.5 5.5t21.5 10.5q10 5 14.5 11.5t4 10.5t1.5 7t9 4 q29 0 45 -23q4 -1 8.5 -9t7.5 -11q4 -3 4 -21q-6 -26 -34.5 -99t-34.5 -97q-6 -8 -12 -45t-7 -39q-8 -40 -18 -60q-12 -48 -4 -55q3 -4 7 -15.5t8 -19.5t9 -6q18 10 72.5 26.5t69.5 35.5q8 12 21.5 17.5t21.5 14.5q6 6 10.5 12.5t8.5 14.5l5 10q6 14 13 22t12 19q8 18 47 74 q7 20 27 47q15 5 26 2h16v-1q-1 -4 7 -9q2 -3 2.5 -11t3.5 -10q-6 -17 -15.5 -59t-19.5 -66q-2 -4 -2.5 -5.5t-1.5 -2t-1.5 -0.5t-3 -2.5t-5.5 -7.5q2 -13 -15 -47q-3 -7 -7 -27.5t-11 -29.5q-25 -109 -25 -115q-3 -13 17 -23t52 -10.5t69 10.5q35 15 88 66t82 98 q33 60 49 82q14 26 25 -1q10 -25 3 -38l-12 -24q-8 -6 -25 -45.5t-24 -45.5q-1 -1 -3.5 -6.5t-8.5 -7.5q-56 -73 -121 -125q-8 -2 -13.5 -4.5t-12 -6.5t-13.5 -7q-15 -14 -37 -27q-14 -6 -22 -14q-13 3 -27 -6q-21 -12 -70 -16t-95 9.5t-52 45.5q-1 7 -4 25t-4 24.5 t-2.5 20.5t-1.5 22.5t0.5 22t3 26t6.5 27.5z" />
<glyph unicode="v" horiz-adv-x="747" d="M780 449q2 -5 -2 -9q-3 -4 -5 -13.5t-3 -21t-2 -14.5q-1 -4 -10 -10l-8 -6q-3 -8 -36.5 -18.5t-41.5 -10.5q-6 -5 -20 -1t-25.5 9.5t-22.5 12t-12 6.5q-29 20 -31 22q-1 2 -9.5 10t-18.5 17t-11 10q-10 19 -24.5 41t-22.5 37q-6 -9 -10 -15.5t-6 -10.5t-6 -13.5t-9 -19.5 q-3 -6 -20 -42t-29 -55q-3 -2 -7 -7.5t-5 -6.5q-8 -26 -35 -53q-16 -21 -29 -54q0 -1 -1 -5t-1 -5q1 -10 -12 -37q-21 -24 -31 -47q-20 -49 -53 -69q-10 -13 -24 -13q-15 0 -23 2q-9 0 -37 -4q-22 -9 -41 -2.5t-28 27.5q-4 8 -41.5 37t-38.5 30q-11 11 -23.5 39t-9.5 41 q0 3 6 45q4 16 10.5 50.5t10.5 50.5l16 76q5 22 18 78.5t21 86.5q12 39 22 95q5 45 9 57l2 29q5 14 6 16q10 6 20 -4q2 -4 10 -12q2 -3 4 -6.5t3 -4t4 -1.5t8 -1q3 0 7.5 -3t4.5 -5q4 -6 9.5 -12.5t9.5 -10t11.5 -10t10.5 -8.5q3 -6 9.5 -14t10.5 -16t5 -17q-13 0 -21 2 q-7 -22 -2 -35q9 -18 13 -67q0 -6 1 -15t1 -12q8 -25 8 -76v-16q2 -20 2 -61q-2 -18 2 -48q0 -14 -6 -28l-6 2l-5 26q0 1 -6 7l-3 1q-3 2 -3 -1q-4 0 -4 -7q0 -43 2 -63q4 -21 2 -33q-3 -11 4 -18h11q6 0 2 8q-2 11 6 39l4 4q0 -1 1 -3.5t1 -4.5q4 -12 4 -33l4 -12l2 -6 q-4 -9 -4 -12t3.5 -8.5t4.5 -8.5l10 8q63 75 88 115l31 43q21 27 33 61q7 26 20 45q11 26 22.5 34t18.5 32q2 6 -12 61q0 10 -1 19t-1.5 11.5t1 5.5t4.5 4t11 3q6 0 27 -4.5t25 -7.5q4 -2 5.5 -4t1.5 -2.5t2 -1t7 -0.5q5 1 21 -4q5 -3 8 -11l4 -12q6 -39 12.5 -64.5 t11 -38.5t19.5 -46q5 -4 18.5 -23t29.5 -31t34 -8q8 3 24 10t27 9q10 2 27 17t24 19q3 3 6 3zM178 471l6 -6v10q-4 4 -6 2v-6zM195 229l2 4q3 1 3 4t-3 5h-2q0 -1 -1 -4t-1 -5q2 0 2 -4zM182 463l-6 -8l2 -4h2q2 4 2 12zM180 436l-2 2l-2 -2q0 -4 2 -6zM197 209q-2 2 -2 6 q-1 -2 -3 -3.5t-2 -2.5q1 -2 3 -2q2 2 4 2zM182 416h2q0 2 -2 2v-2z" />
<glyph unicode="w" horiz-adv-x="997" d="M254 244q4 9 14 12q51 55 76 98q18 31 127 209q6 11 18.5 30t16.5 28q27 10 57 -5q6 -3 4 -8q0 -1 -1 -5t-1 -5q-9 -33 6 -57q11 -11 7 -25q-11 -34 -11 -94v-82q0 -38 6 -82q0 -10 15 -22l8 16q37 54 72 145q45 107 53 129q14 28 20 62q7 18 17 52t12 40q4 15 7 30.5 t6 35t5 30.5q0 28 11 43q4 8 0 25t2 30q3 7 10.5 10t11.5 1q4 -4 15 -11t16 -12q6 0 6 -10l6 -51v-10q3 -14 15 -33q0 -28 6 -37q10 -23 4 -51q-4 -15 -14 -55t-17 -64q-2 -10 -10 -30.5t-10 -28.5q-1 -8 -7.5 -23t-7.5 -23q-3 -14 -32 -94q-6 -4 -9 -16q-6 -12 -15.5 -37.5 t-16.5 -40.5q0 -1 -2 -4t-2 -4q-12 -15 -33.5 -39.5t-30.5 -36.5q-11 -15 -22 -12q-20 0 -35 -6q-30 -17 -64 -2l-41 10q-16 4 -43 26q-30 33 -43 64q-1 6 -5 17.5t-5 15.5l-4 12q-2 -1 -5.5 -2t-4.5 -2q-7 -7 -9 -16q-4 -6 -15.5 -20t-21 -27t-14.5 -25q-17 -14 -26 -35 q-8 -20 -33 -35q-6 -2 -18.5 -9.5t-20.5 -10.5q-4 -3 -39 -15q-22 -8 -45 -12q-18 -6 -41 -6q-37 3 -68 22q-13 5 -28 25q-25 44 -31 74q0 2 -1 7t-1 7v27q-10 40 2 137q8 66 35 141l37 109q18 35 28 65l48 119q12 24 34 57q4 14 23 33q36 4 45 4q6 2 12 2q77 -9 127 -53 q7 -5 21 -33q4 -8 0 -34q-7 -24 -23.5 -70t-21.5 -61q-6 -15 -24.5 -54t-25.5 -59l-30 -80l-8 -16q-10 -16 -15.5 -33t-9 -39t-6.5 -33q1 -11 -1.5 -45t1.5 -45q0 -2 2.5 -6.5t3.5 -7.5z" />
<glyph unicode="x" horiz-adv-x="698" d="M41 684q19 16 43 6q24 -8 51 -35q5 -6 24.5 -23t28.5 -30q3 -6 9 -6q5 -3 10 -7.5t10 -11.5t8 -12t8 -14t7 -12q7 -14 14 -21l12 21l62 110l108 185l8 10q29 -11 41 -39q8 -12 13 -14q17 -30 22 -52q17 -70 17 -106q0 -45 -13 -92q-22 -54 -32 -74q-15 -29 -33 -70 q-26 -59 -66 -118q-1 -1 -4 -6t-6 -9v-6q-2 -12 8 -27q10 -17 43 -59q10 -15 30.5 -11.5t33.5 23.5q6 16 12 23l14 29q19 36 31 0q16 -52 10 -103q-8 -32 -8 -45q0 -8 -4 -12q-9 -16 -23 -58q-4 -20 -24 -49q-8 -12 -17 -12q-37 0 -53 10q-64 48 -106 111q-10 15 -16 15 t-19 -15l-41 -47q-14 -14 -16 -17q-12 -23 -45 -41q-7 -4 -28.5 -17.5t-37 -22t-31.5 -13.5q-14 -7 -26 -10q-29 -16 -56 -16q-2 0 -45 -11q-9 -2 -28 8q-15 9 -47 50q-4 8 -11 22.5t-13.5 26.5t-12.5 22q-6 9 -9 23l11 8q11 7 32 18.5t29 16.5q14 8 36.5 25t27.5 20 q9 6 18.5 14.5t14 14t17 20t15.5 18.5l27 31q33 38 59 80l41 64q23 44 8 84q-12 24 -26 45q-8 11 -28 29t-28 30l-8 6q-6 11 -21 31.5t-22 34.5q-10 17 -10 59z" />
<glyph unicode="y" horiz-adv-x="907" d="M795 315q45 48 110 127q21 26 41 60l12 20l3 2v-8q-3 -12 8.5 -22.5t1.5 -26.5q-38 -47 -41 -57q-1 -6 -9.5 -16.5t-20.5 -22.5l-15 -15q-11 -14 -21 -37q-25 -33 -37 -47q-6 -6 -28 -39q-8 -19 -29 -40q-12 -14 -28 -35.5t-33 -40.5q-6 -6 -28.5 -42.5t-31.5 -43.5 q-17 -17 -24 -31q-8 -8 -93 -48t-88 -42q-2 -2 -4.5 -5t-4 -4.5t-3.5 -2.5q-29 -16 -35 -48q-17 -43 -61 -118q-22 -32 -41 -68q-13 -34 -45 -63q-6 -8 -27 -27t-30 -33q-55 -49 -113 -76q-27 -14 -115 -14q-89 -20 -186.5 41t-116.5 148q-2 14 9 30t26 19q10 3 67 14 q105 11 226 64q95 34 147 59q12 6 28 21t23 28q49 110 74 154q83 157 87 168q3 11 -3 11q-3 -1 -56 -30q-55 -31 -106 -47q-19 3 -57.5 27t-48.5 41q-2 3 -33 49t-52.5 85.5t-17.5 53.5q3 12 7.5 21.5t5.5 18t0 32.5q3 31 17 76.5t20 78.5q1 3 13.5 37t12.5 49q6 11 24 62 t29 65q15 32 39 66q12 16 23 25l20 -15q9 -16 76 -57l19 -21l8 -14q36 -25 43 -82q7 -28 -6 -65q-5 -6 -14.5 -25.5t-16.5 -30.5q-2 -4 -41 -80q-6 -15 -24.5 -41.5t-24.5 -37.5q-4 -5 -12.5 -19t-14.5 -22q-100 -153 -44 -145q58 8 228 151q124 105 150 145q17 25 21 37.5 t16 34.5q17 17 49 63q12 24 20 29q11 13 25 8q13 -7 25.5 -38.5t5.5 -51.5q0 -16 -12 -25q-29 -57 -29 -59q0 -9 -2.5 -17.5t-7.5 -19t-7 -14.5q-48 -96 -63 -160q-3 -14 -41.5 -121t-40.5 -123q-2 -81 209 105q61 54 115 108zM-209 -367q-37 -36 0 -72q38 -37 108 -36 q94 1 146 76q20 20 32.5 33.5t24.5 28.5t14.5 23.5t-2 14t-20.5 4t-46 -10t-73 -24.5q-47 -12 -141 -28q-20 -3 -43 -9z" />
<glyph unicode="z" horiz-adv-x="751" d="M-139 -420q-7 15 -19 12v-2l-8 19q-3 19 -14 24q-13 17 -8 35q14 39 30 74q47 100 129 188l45 47q60 54 64 58q61 58 129 98q12 12 40 29.5t34 21.5q5 -19 -9 -30q-2 -3 -6.5 -11t-8.5 -13t-9 -9q-7 -6 -25.5 -24.5t-31.5 -26.5q-2 -3 -10 -11t-11 -12q-13 -17 -43 -43 q-11 -8 -51 -59q4 -4 10 2q3 5 11 12.5t10 11.5q7 7 18 11q1 0 3.5 1.5t5.5 3.5t5 3l6 6q-21 -21 -57 -66t-55 -65q-24 -33 -53 -86q-20 -27 -23 -60q-3 -6 -8 -38q0 -8 3.5 -11.5t14.5 -3.5h13q28 -7 71 15q36 22 60 43q33 38 43 51q45 48 59 71q31 39 51 70q3 11 12 29 t11 24l22 37l2 8q7 18 21.5 59t23.5 62q2 12 5 22.5t4 15t1.5 12t0.5 20.5q5 19 2 39q-1 4 -6.5 7t-15.5 5.5t-19 4t-20.5 3t-16.5 2.5q-1 0 -25 1.5t-26 -1.5q-29 -7 -52 -4q-11 -6 -21.5 -6t-23 3t-20.5 3q-54 0 -74 23q0 3 -14 24q-20 4 -10 19q22 13 24 16q35 7 45 13.5 t33 35.5q1 2 2.5 4t2.5 3.5t1 2.5q45 52 147.5 147t145.5 144q21 32 17.5 62t-22.5 39t-40 0q-40 -12 -82 -35t-67 -41t-71.5 -54t-64.5 -49q-31 -9 -70.5 -1.5t-50.5 34.5q-9 15 -20 49v13l2 4q14 -2 66 4q118 37 182 69q83 40 123 52q14 3 48 13.5t54 14.5q16 4 55 4 q11 0 17 -2q4 -2 26.5 -11t31 -13.5t21.5 -15t19 -23.5q22 -19 27 -78q14 -43 -13 -86q-28 -65 -53 -111l-37 -45l-86 -75q-2 -5 -16 -23q-11 -3 -6 -18q9 -3 27.5 -14.5t21.5 -16.5q27 -40 29 -51q3 -7 5.5 -15.5t5 -19t3.5 -14.5q1 -13 4.5 -26t-0.5 -26q-3 -52 -18 -92 l-5 -10t-4 -10q3 -22 -16 -41q-1 -5 -14 -27q-2 -4 -7.5 -13.5t-8.5 -17t-1 -14.5q2 -8 -9.5 -31.5t-20.5 -27.5q-3 -6 -9 -14.5t-9.5 -16t-4.5 -14.5q-5 -9 -12 -13q-2 -6 -10 -14t-9 -14q0 -3 1 -9t1 -10l-4 -3q-5 -3 -6 -5q-3 -3 -10.5 -8.5t-11 -8.5t-7 -9t-4.5 -13 q-4 -4 -14.5 -17.5t-15.5 -19.5q-1 -1 -8.5 -6.5t-10.5 -11.5q0 -2 -6 -4q-29 -33 -63 -55q-8 -2 -41 -23q-5 -5 -27 -16q-9 -4 -14 -15q-18 -14 -64 -28q-4 -1 -35 -11q-37 -13 -67 -10q-10 0 -12 2q-5 0 -13 3t-10 3q-11 0 -23 4q-30 7 -47 41q3 -11 17 -8zM-55 -195 q11 4 16 11q11 23 25 32q16 23 51 62q1 1 4 3.5t3.5 3.5t-1.5 5q-4 -4 -11.5 -10t-13.5 -12t-10 -13q-40 -40 -63 -82zM-55 -195q-18 -28 -19 -32q19 16 19 32zM147 -4l17 14q1 -2 -3.5 -4.5t-4.5 -3.5zM-98 -264v-2q0 2 2 2h-2z" />
<glyph unicode="{" horiz-adv-x="618" d="M387 -219v-4l-27 -29q1 -2 4.5 -3.5t4.5 -2.5v-4q-20 -32 -50 -53t-47.5 -27t-58.5 -18q-21 -6 -39 -9q-85 -9 -125 64q-37 70 -37 158q-6 87 8 172q14 72 50 153l49 101q3 7 14 26.5t17 32.5q-8 4 -15 4q-37 15 -55 35q-21 27 -11.5 64t42.5 65q20 10 34 10 q60 0 105 -29q2 0 6 -4h6q9 6 12 19q39 79 58 170q20 106 20 217q7 130 41 231q20 62 66 127l20 19l72 61q25 25 53 14q31 -13 37 -18l80 -72q18 -18 12 -57q-3 -13 -11 -21t-17 -6q-54 12 -54 54v2q-6 28 -13.5 30.5t-41.5 -18.5q-33 -24 -64 -74q-3 -4 -8 -20 q-19 -65 -14 -103q0 -24 1 -69t1 -68q10 -117 10 -211q1 -12 -4 -59q-6 -62 -57 -107q-6 -5 -15 -16t-12 -14l-57 -52l-72 -67q-9 -9 -12 -19q-5 -14 -14 -49q-4 -14 -21 -72t-27 -90q-16 -50 -26 -77q-15 -58 -6 -111q4 -45 8 -123q13 -47 33 -72q14 -17 43.5 -15t58.5 20 q4 2 45 14zM123 420q-7 -22 -4 -28t18 -1q18 5 47 21q13 3 13 18q0 20 -7 45q-3 15 -24 0q-8 -12 -29 -33q-6 -6 -14 -22z" />
<glyph unicode="|" horiz-adv-x="595" d="M377 770q-6 -3 -9 -7.5t-4 -8t-1.5 -10.5t-0.5 -9l-4 -20q-2 2 -10 4q-10 -50 -10 -66l-12 -32q2 -3 6 -5q-11 -22 -13 -34q-6 -16 -18 -52t-20 -55q0 -16 -5 -26q-17 -28 -20 -68v-2q-16 -16 -10 -27l-19 -61l-2 2q-1 -4 -28 -94q0 -8 -15 -23q4 -2 2.5 -12t-12.5 -14 q-8 -8 -4 -21q0 -12 -3 -24t-8 -25.5t-7 -22.5q-7 -21 -24 -65.5t-24 -69.5q0 -6 -6 -8q-9 -71 -69 -178q-2 0 -2 -8q1 1 8.5 10.5t11.5 15.5l-22 -43q-12 -15 -29 -6q-9 4 -37 4q-31 -6 -16 29q17 46 18 49q31 64 35 96q10 71 37 125v10q29 76 47 152q1 3 9.5 24t10.5 33 q1 4 6 39.5t11 52.5q22 55 30 105q13 48 52 170q3 8 7 25.5t7 25.5q8 25 21.5 76t15.5 59l26 111q15 53 60 201q18 61 39 149q18 62 69 133l25 23q9 9 17 5t10 -16q6 -13 4 -28q0 -82 -2 -125q-3 -70 -45 -236q-10 -40 -31.5 -114.5t-30.5 -106.5q-2 -1 -3.5 -3.5t-3.5 -6.5 l-3 -6zM53 -236l-8 -10zM381 758h-2v2q0 -2 2 -2z" />
<glyph unicode="}" horiz-adv-x="681" d="M412 819l18 -6q-7 -24 -20 -37q-29 -29 -48 -69q-11 -33 -30 -52q-20 -30 -21 -37q-9 -21 -22 -24q-2 -25 -10 -90q12 4 16 8q22 7 35 2q14 0 20 2q38 10 82 2q45 -5 55 -65l-18 -43q-1 -1 -3.5 -1.5t-4.5 -1t-2 -1.5q-11 -15 -24.5 -23t-36.5 -15.5t-27 -9.5 q-2 0 -6.5 1t-6.5 1q-2 1 -5.5 3t-5 2.5t-3.5 -0.5q-26 -11 -33 -25q-33 -56 -49 -115q-10 -31 -16.5 -87t-12.5 -81q-3 -10 -13 -58t-21 -73q-5 -15 -13.5 -42t-13.5 -42q-17 -44 -22 -53q-11 -27 -41 -74l-11 -8q-33 -33 -112 -67l-68 -35q-17 -8 -20 2q-6 11 -19 8 q-10 0 -14 2l-35 12q-2 2 -3.5 8.5t-4.5 6.5q-8 0 -8 12q2 16 -13 41q-8 25 0 43q18 2 35 -19q21 -25 41 -32q17 -9 33 2l74 61q31 27 47 68q35 57 51 102q8 14 14 30t8 27.5t5.5 30.5t5.5 27q16 100 20 143q8 34 10 56q0 14 9 14q2 5 18 36t23 48q4 2 0 2q-4 -1 -15 -12v4 q9 18 0 37q-40 46 -37 104q1 17 7 49t8 47q0 9 3 18.5t11.5 27t9.5 20.5q5 5 8 18q7 35 7 60q2 1 4 4.5t4 5.5l96 160q21 40 90 135q68 100 88 196q1 2 6 45q0 23 -18 23q-40 -6 -41 -6q-9 0 -39 -6q-29 0 -59 -23q-2 -1 -7.5 -5t-8 -5.5t-8 -3t-7.5 1.5q-27 9 -29 24 q-1 1 -1 4.5t-1 4.5q95 95 191 73q51 -12 88 -55q6 -10 10 -37q4 -12 4.5 -27.5t0 -24.5t-3.5 -32.5t-3 -27.5q-2 -11 -10.5 -49.5t-10.5 -59.5q-1 -13 -4 -26t-8 -27.5t-9 -23.5t-11.5 -27t-10.5 -25q-21 -55 -67 -66q-4 -6 -10 -10zM340 467q0 -33 -2 -45q8 0 14 12 q3 23 -12 33zM258 489q7 0 10 3q0 5 -1 17t-1 17h-4q0 -17 -4 -37zM133 68h4q0 14 -2 22q-2 0 -4 -2q0 -14 2 -20zM360 731l13 14q-1 0 -2 1.5t-2 1.5q-1 -1 -3.5 -4t-5 -5.5t-6.5 -5.5q2 0 3.5 -1t2.5 -1zM145 150q-6 -12 -6 -15q0 -10 2 -12h2q0 17 2 27z" />
<glyph unicode="~" horiz-adv-x="1064" d="M901 469l35 20q0 -3 2.5 -4.5t7 -3t11 -9t12.5 -21.5q11 -23 4 -52t-29 -51q-44 -40 -106 -59q-28 -3 -99 -8q-10 -2 -26 2q-13 1 -38 6t-32 6q-2 2 -9 0.5t-9 3.5q-15 0 -25 4q-24 3 -53 14q-13 7 -70 25q-2 0 -4.5 1t-4 1.5t-3.5 -0.5q-7 7 -31 12q-9 0 -24.5 5 t-22.5 6q-34 14 -86 32l-53 11h-6q-14 -6 -45 -10t-47 -11q-4 -2 -13 -2q-30 -7 -33 -22q-12 -33 -10 -50q2 -2 2 -10q-9 0 -10 2q0 1 -8 0q-4 6 -13 14.5t-13.5 16.5t-2.5 18l6 43q23 34 45 45l56 33q10 7 20.5 11.5t23.5 7t21 4t25.5 3.5t25.5 3q75 14 164 -2 q32 -4 64 -12t75 -22.5t62 -20.5q17 -6 135 -37q47 -11 78 -9q34 7 45 17q25 18 12 37zM176 473q0 -4 2 -4l23 4q38 11 61 16q42 4 70 11q19 3 24 -6q4 -2 11 -2l125 -21h10v6l-21 6q-27 6 -106 19q-32 9 -82 2q-18 -3 -45.5 -7t-34.5 -5q-21 -3 -37 -19z" />
<glyph unicode="&#xa1;" horiz-adv-x="485" d="M305 690q2 -5 6.5 -15t5.5 -16q33 -152 31 -251l-8 -91q0 -19 -7 -54t-7 -54v-57l-82 -306q-7 -22 -18.5 -67t-18.5 -68l-64 -188q-6 -15 -20 -15q-15 1 -41.5 5.5t-38.5 5.5q-9 1 -47 20q-44 25 -66 55q-19 26 -10 50q6 16 13.5 45t15.5 52.5t18 43.5q21 46 53 135 l33 60q3 11 10 22q8 32 21 43q3 2 7 10t7 11q5 12 18.5 38.5t20.5 42.5l27 52l2 6q9 45 31 76q3 23 20 75t19 82q1 19 7 52t7 42l6 21q4 6 8 22q6 25 25 41q14 7 14 29l-4 43q1 0 3 1t3 1zM319 920l15 -68q-9 -77 -10 -86q-3 -27 -23 -35q-12 -6 -16 -2q-5 4 -11.5 4.5 t-14.5 -1t-11 -1.5q-6 0 -16 2t-13 2q-22 2 -31 33q-5 28 1.5 50.5t23.5 53.5q26 39 72 52q4 0 10 6q10 7 15.5 5t8.5 -15z" />
<glyph unicode="&#xa2;" horiz-adv-x="704" d="M422 989l27 -28q0 -1 -9 -31.5t-14 -40.5l-16 -45q15 0 47 -21q16 -26 16 -65q0 -11 4 -35q3 -22 0 -51q-1 -2 -2 -12.5t-2 -14.5q-5 -17 -19.5 -48t-19.5 -46q-9 -15 -28 -19q-2 0 -7.5 -1t-7.5 -1q-5 0 -10 5q-3 3 -29 16q-2 4 -6 4l-3.5 3.5t-3.5 4t-0.5 5t3.5 7.5 l6 23q8 23 45 109q0 2 6 10q-8 -4 -12 -8q-14 -29 -51 -58q-33 -42 -45 -67l-55 -92q-21 -27 -46 -91l-8 -30q-3 -20 2 -39l13 -35q0 -7 12 -23q2 -3 8 -3.5t15 2t16.5 5l16.5 5.5t11 4q35 2 93 24t90 47l24 15l-51 -140q-61 -34 -84 -34q-5 0 -29 1.5t-43 1.5t-26 -3h-27 l-6 -17q-1 -7 -7.5 -35t-6.5 -38q0 -6 -3.5 -22t-4.5 -19q1 -1 -11 4t-26 9t-17 1q-3 8 5 28t8 23q0 25 2 35q0 8 -1 23t-1 22l-2 2l-27 12q-16 5 -30 19t-23 20q-44 38 -47 121q0 42 10 90q5 29 16 58q15 21 23 40q6 17 16.5 34t26 39t22.5 34q7 7 19 23q6 6 24.5 27.5 t28.5 29.5q15 8 40 26.5t40 26.5q8 9 23 16.5t24 6.5h14v4q-2 0 -2.5 3t0.5 5q1 4 1.5 16.5t2.5 20.5q4 28 11 53q7 30 22 53z" />
<glyph unicode="&#xa3;" horiz-adv-x="772" d="M512 57q-4 -22 14 -37q25 -25 31 -30q6 -9 -6 -19q-23 -20 -45 -14q-12 0 -27 6q-23 10 -102 29l-88 20q-57 16 -99 11l-16 -5q-30 -17 -76 -28l-35 -10l-83 -25q-7 0 -9 -2q-2 8 -11 23t-9 16q-7 12 -5 20.5t15 18.5q7 8 25.5 23.5t25.5 23.5q47 41 68 65q32 32 47 70 q22 53 31 88q5 15 2.5 19t-15.5 4l-86 6q-10 0 -18 4q-11 4 -14 10q-12 15 -25 37q-3 6 -6 18.5t-4 16.5v4q10 0 16 -2q6 0 16 -2t15 -2q74 4 102 4q15 0 21 2q12 0 15.5 3t6.5 17l15 105q3 14 9.5 58t12.5 69q2 26 21 69q15 49 55 140q44 72 84 112l31 31q36 36 77 45 q65 15 93 -8q12 -10 39.5 -28.5t40.5 -28.5q55 -47 36 -144q-12 -51 -57 -147q-4 -5 -20 -43q-27 -49 -31 -54q-18 -32 -62 -84q-26 -33 -61 -24q-9 4 -23 14q-6 3 -20 11.5t-23 11.5q-10 6 -11 19t9 28q40 60 56 80q55 72 82 153q25 58 32 101q4 50 0 73q-5 19 -13.5 24 t-27.5 -1q-99 -40 -143 -119q0 -1 -1 -4t-1 -4q-10 -13 -19 -28.5t-14 -26t-11 -31t-8 -27t-7.5 -31t-6.5 -28.5q-1 -3 -1 -9t-1 -9q-18 -51 -14 -146v-104q1 -20 5 -23.5t24 -3.5l119 -4q16 -4 28 -10q25 -7 23 -31q-1 -5 2.5 -15t3.5 -14q-12 -12 -31 -12q-82 0 -121 -2 q-17 0 -49 -8q-5 -20 -12 -61.5t-12 -61.5q-12 -46 -41 -121q6 0 22 -4l137 -23q11 -2 35 -8t37 -8q22 -7 41 12z" />
<glyph unicode="&#xa5;" horiz-adv-x="915" d="M614 1036l95 68q13 10 28 4q4 -3 12.5 -10t13.5 -11.5t11.5 -12t9.5 -15.5q3 -7 16.5 -31.5t18.5 -40.5q9 -28 6 -65q-2 -11 -10.5 -24.5t-21.5 -20.5l-82 -52l-11 -8q-27 -5 -57 -29q-6 -5 -23.5 -17.5t-26 -19t-21.5 -18t-23 -22.5l-8 -6q-20 -18 -66 -54 q-6 -8 -24 -26q-7 -8 -23 -22.5t-26.5 -26.5t-16.5 -25q-3 -8 -14 -12q-11 -9 -27 -33q-4 -5 -15.5 -19.5t-17.5 -23.5q16 -4 21 -4h74q32 0 43.5 -13t13.5 -47q0 -33 2 -49q-9 -1 -21.5 -4.5t-17.5 -3.5q-55 10 -141 -12q-17 -7 -23 -13q-14 -3 -14 -12q-4 -18 -17 -57 q10 -3 13.5 -3.5t15 2.5t14.5 3l41 6q21 7 39 -4q13 -10 13 -25q1 -8 9 -22t9 -17q-28 -24 -47 -26l-98 -15q-7 -4 -21.5 -8t-15.5 -4q9 -28 -4 -45q-5 -8 -2 -18q-4 -40 -4 -62q0 -10 -5 -55q-6 -26 -26 -23q-1 0 -31 5q-11 0 -20 -3q-13 -5 -18 -2.5t-5 15.5q0 40 2 63 q4 64 10 99q0 10 -5 15t-13 3q-36 -8 -66 12q-13 10 -20 25q-6 8 -21 43h66q42 5 65 14l13 82h-37q-46 4 -72 4q-11 0 -18 17q-5 12 -16.5 32t-16.5 31q1 1 5.5 9t6.5 10q1 1 19 10l65 8q2 0 4 -1t4 -1l-8 -14q29 5 66 8q-4 58 -4 82q-15 131 -31 213q-14 98 -61 184 q-18 30 -31 70v8h10q48 -9 55 -12q55 -26 72 -50q45 -55 80 -145q8 -17 27 -90l8 -31q133 177 372 383q-4 -3 -12 -6.5t-10 -5.5q10 15 18 20zM481 887q-3 -2 -16 -19q13 0 16 19zM594 1014h-2q2 0 4 2z" />
<glyph unicode="&#xa6;" horiz-adv-x="550" d="M252 477l-74 2q0 1 -4.5 19t-3.5 20q8 25 21.5 76t15.5 59l26 111q15 52 60 201q18 62 39 149q18 62 69 133l25 23q9 9 17 5.5t10 -15.5q7 -13 4 -29q0 -82 -2 -125q-3 -70 -45 -236q-10 -40 -31.5 -114.5t-30.5 -106.5q-2 -1 -3.5 -3.5t-3.5 -6.5l-3 -6l-2 10 q-7 -4 -10 -8.5t-3.5 -15t-0.5 -11.5l-5 -20q-2 2 -10 4q-10 -50 -10 -66zM143 362l93 -45l-9 -26l-2 2q-1 -4 -28 -94q0 -8 -15 -23q4 -2 2.5 -12t-12.5 -14q-8 -8 -4 -21q0 -12 -3 -24t-8 -25.5t-7 -22.5q-7 -21 -24 -65.5t-24 -69.5q0 -6 -6 -8q-9 -71 -69 -178 q-2 0 -2 -8l28 36q-7 -10 -16.5 -28t-13.5 -25q-12 -15 -29 -6q-9 4 -37 4q-31 -6 -16 29q17 46 18 49q31 64 35 96q10 71 37 125v10q29 76 47 152q1 3 9.5 24t10.5 33q1 4 6 39.5t11 52.5q0 1 14 21.5t14 21.5zM338 631v2q0 -2 2 -2h-2z" />
<glyph unicode="&#xa8;" horiz-adv-x="538" d="M264 1001q0 -6 -2 -10q-2 -5 -11.5 -33.5t-17.5 -42.5q-7 -10 -14 -10q-29 -8 -41 0l-2 2q-16 0 -29 19q-10 17 -10 39q2 39 33 82q5 5 8 2q51 -8 76 -29q10 -10 10 -19zM481 1001q0 -6 -2 -10q-3 -6 -11.5 -34.5t-16.5 -41.5q-7 -10 -15 -10q-29 -8 -41 0l-2 2 q-15 0 -28 19q-11 18 -11 39q2 39 33 82q5 5 8 2q51 -8 76 -29q10 -10 10 -19z" />
<glyph unicode="&#xad;" horiz-adv-x="966" d="M748 537l2 -7q-4 -35 -52 -43q-114 -12 -120 -12l-177 -4q-21 0 -44.5 -1t-52.5 -2.5t-46 -2.5q-5 0 -17 1t-18 1q-37 2 -80 49l-26 25q-13 10 -6 24l39 -4q17 -4 28 -2q106 12 160 14q169 6 371 -24q4 -1 18 -6t21 -6z" />
<glyph unicode="&#xb0;" horiz-adv-x="368" d="M143 991q0 11 4 21q4 19 11 64.5t14.5 76t20.5 55.5q14 31 28 33q6 2 24 9t26.5 9.5t23.5 2t29 -6.5q1 -3 2.5 -4.5t2.5 -1.5h1q40 5 73 -37q33 -38 41 -92q5 -101 -51 -213q-3 -1 -7.5 -3.5t-6.5 -2.5t-6 2q-45 0 -70 1.5t-61 12t-64 31.5q-25 18 -31 28q-3 6 -4 15z M389 1106q2 6 2 16q-7 9 -13.5 16.5t-14.5 13.5t-13 10t-14 10l-12 8q-3 0 -11 2q-45 -32 -57 -70q-1 -4 -5 -17.5t-5 -21.5q10 -26 26 -29q3 -5 6.5 -8.5t8.5 -4.5l7.5 -1.5t9.5 0t9 0.5q5 -8 15 2q12 10 29 30.5t30 29.5q-2 4 2 14z" />
<glyph unicode="&#xb4;" horiz-adv-x="239" d="M98 1036q0 4 2 4q6 6 6 17q-2 7 7 16q17 27 24 35q4 4 13 22q0 1 6 23q3 19 12 41l25 39q11 15 31.5 19.5t35.5 -5.5q4 -2 12 -10q1 2 4 -2q1 -3 7 -8t8 -8q5 -2 2 -11q-12 -9 -21 -24q-42 -49 -71 -76q-51 -47 -95 -70q-4 0 -8 -2z" />
<glyph unicode="&#xb8;" horiz-adv-x="329" d="M-4 195q19 1 33.5 1h18.5t7 1q36 2 74 24q9 5 22.5 14.5t18.5 12.5q2 1 4 3.5t4 2.5l10 12l15 10q0 3 6 9q3 11 -8 14q-1 3 -11.5 0.5t-11.5 -2.5q-4 0 -13.5 1.5t-14.5 0.5q-7 0 -17.5 -1t-17.5 -1l-13 -2q-6 2 -18 2q-7 0 -17 9.5t-12 17.5l-4 18v35q5 26 19 72l10 32 q12 27 29 13q6 0 17.5 -3.5t14.5 -7.5l-14 -43q-4 -8 -8 -17t-7 -14.5t-5.5 -11t-4 -9t-2 -6.5t1 -5t4.5 -4t7.5 -3.5t11.5 -2.5l27 -5q28 -6 51.5 -11.5t25.5 -8.5q10 -15 11 -18q7 -11 4 -21q0 -24 -6 -45q-9 -20 -17 -27q-3 -3 -2.5 -4t-3.5 -4q0 -3 -3 -5.5t-5 -2.5 l-12 -6q-9 -9 -11 -10q-3 -3 -8 -13t-12 -12q-2 0 -4 -2q-4 -4 -6 -4q-4 -2 -19 -12q-1 -1 -16 -11l-8 -4q-5 -3 -18.5 -8t-18.5 -8q-3 0 -8.5 -1t-8.5 -1q-7 -3 -31.5 16.5t-27.5 30.5q-2 6 -2 25z" />
<glyph unicode="&#xbf;" horiz-adv-x="653" d="M375 629l-13 6l12 18t12 19.5t9 15.5q36 0 60 -24q26 -31 37 -50q13 -22 10 -55q-2 -29 -2 -86q3 -63 -35 -143q-36 -88 -115 -170q-13 -16 -29 -32.5t-29 -28.5t-34 -29t-32 -25.5t-36 -27t-34 -25.5l-133 -117q-44 -51 -58 -76t-14 -55q3 -37 33 -37q31 -3 67 0 q40 3 75.5 24.5t84.5 63.5q3 1 8.5 6t7.5 6q22 40 56 23q15 -6 26 -6q15 -2 21.5 -18t-0.5 -35q-22 -47 -72 -88q-118 -100 -227 -97q-78 0 -119 41q-58 58 -72 113q-16 71 8 143q13 35 56 111q10 16 20 24l62 62q3 2 6 10t10 10l6 8q5 8 10 13q6 4 17 14t20.5 17.5 t18.5 11.5q15 9 39.5 30t33.5 27q1 2 3 4t4.5 3.5t3.5 2.5q2 1 32 25q6 9 24 23t22 18q71 50 94 68q7 6 14.5 14.5t16 19.5t14.5 17l4 2q3 16 20.5 51t18.5 57l6 17q13 30 -2 45q-22 34 -47 41zM467 940q7 -6 20.5 -17.5t20.5 -15.5q8 -11 8 -28q-2 -24 -24 -68 q-21 -37 -70 -82q-14 -17 -35 -6q-9 5 -41 31q-4 4 0 26q8 34 29 51q28 24 61 74q2 3 14 15t17 20zM494 446h-5q-10 -20 -12 -26q-2 -5 -11.5 -31.5t-16.5 -40.5q-18 -38 -33 -78q-9 -22 -23 -22q-10 0 -10 -8q-22 -23 -59.5 -66t-42.5 -49l-7 -10l5 -4l20 18l90 94 q38 35 60 84q5 15 19 45t19 47q11 33 7 47z" />
<glyph unicode="&#xc0;" horiz-adv-x="983" d="M762 680l4 -4l41 18q43 22 82 25q12 3 26 -4q6 -2 18.5 -9t18.5 -10q-4 -11 -26 -20q-25 -13 -52.5 -29t-60.5 -37t-51 -32q-17 -10 -17 -27q0 -9 -2 -28.5t-2 -28.5q-4 -28 -18 -33q-10 -4 -10 -29q5 4 9 11t5 8q6 -1 7 -8t-2.5 -15t-10.5 -12l-4 -4q-2 0 -8 -6 q0 -107 -2 -160q0 -6 -5 -41q-11 -46 0 -123q8 -43 11 -96q0 -12 1 -34t1 -34q0 -15 -4 -51l-19 18l-6 -8q-2 -2 -2 -10h-15t-18 -4t-4 -15q-17 -5 -35 9q-27 22 -32 30q-40 63 -60 146q0 1 -0.5 6t0 7t2.5 5.5t6 5.5q2 0 2 19l-12 49q-27 87 -39 264l-6 33q-3 -2 -11 -5 t-11 -5q-11 -8 -21.5 -15t-26.5 -14t-22.5 -9.5t-28 -10.5t-24.5 -9q-54 -16 -105 -28q-42 -14 -76 -72q-19 -33 -59 -90.5t-55 -81.5q-11 -11 -27 -14q-16 -1 -19 -8.5t2 -14t2.5 -10t-16.5 1.5q-36 -6 -53.5 2t-19.5 22t-7 37.5t-16 38.5q48 63 103 127l55 58l12 13 q-2 -1 -1 2q2 3 11 15l-18 17l-41 30q-16 16 -10 35q16 7 39 -8q22 -12 59 -27q9 -5 18 4l66 76q2 2 5 8.5t5 8.5q25 28 47 59t52.5 79.5t40.5 63.5l157 248q34 49 37 103q3 35 21 131q22 92 81 213q9 17 16.5 20t24.5 -2l93 -22q16 -3 28 -15q33 -33 47 -51q10 -16 13 -33 q12 -55 -2 -135q-11 -83 -27 -176q0 -3 -1 -11t-1 -12q0 -54 -25 -131q-5 -13 -20 -102q-2 -14 -2 -43zM373 627q-44 -58 -59 -96t-2.5 -50.5t50.5 -1t95 48.5q17 7 20 29q0 34 4 100q9 122 -10 123q-15 0 -64 -90q-4 -7 -11 -21zM799 1456q-4 2 -8 2q-44 23 -95 70 q-29 27 -71 76q-9 15 -21 24q-3 8 2 10l8 8t7 9t4 2q8 8 12 10q15 10 36 5.5t32 -19.5l24 -39q9 -21 12 -41q5 -20 7 -23q10 -20 12 -22q8 -8 24 -35q9 -9 7 -16q0 -11 6 -17q2 0 2 -4z" />
<glyph unicode="&#xc1;" horiz-adv-x="983" d="M762 680l4 -4l41 18q43 22 82 25q12 3 26 -4q6 -2 18.5 -9t18.5 -10q-4 -11 -26 -20q-25 -13 -52.5 -29t-60.5 -37t-51 -32q-17 -10 -17 -27q0 -9 -2 -28.5t-2 -28.5q-4 -28 -18 -33q-10 -4 -10 -29q5 4 9 11t5 8q6 -1 7 -8t-2.5 -15t-10.5 -12l-4 -4q-2 0 -8 -6 q0 -107 -2 -160q0 -6 -5 -41q-11 -46 0 -123q8 -43 11 -96q0 -12 1 -34t1 -34q0 -15 -4 -51l-19 18l-6 -8q-2 -2 -2 -10h-15t-18 -4t-4 -15q-17 -5 -35 9q-27 22 -32 30q-40 63 -60 146q0 1 -0.5 6t0 7t2.5 5.5t6 5.5q2 0 2 19l-12 49q-27 87 -39 264l-6 33q-3 -2 -11 -5 t-11 -5q-11 -8 -21.5 -15t-26.5 -14t-22.5 -9.5t-28 -10.5t-24.5 -9q-54 -16 -105 -28q-42 -14 -76 -72q-19 -33 -59 -90.5t-55 -81.5q-11 -11 -27 -14q-16 -1 -19 -8.5t2 -14t2.5 -10t-16.5 1.5q-36 -6 -53.5 2t-19.5 22t-7 37.5t-16 38.5q48 63 103 127l55 58l12 13 q-2 -1 -1 2q2 3 11 15l-18 17l-41 30q-16 16 -10 35q16 7 39 -8q22 -12 59 -27q9 -5 18 4l66 76q2 2 5 8.5t5 8.5q25 28 47 59t52.5 79.5t40.5 63.5l157 248q34 49 37 103q3 35 21 131q22 92 81 213q9 17 16.5 20t24.5 -2l93 -22q16 -3 28 -15q33 -33 47 -51q10 -16 13 -33 q12 -55 -2 -135q-11 -83 -27 -176q0 -3 -1 -11t-1 -12q0 -54 -25 -131q-5 -13 -20 -102q-2 -14 -2 -43zM373 627q-44 -58 -59 -96t-2.5 -50.5t50.5 -1t95 48.5q17 7 20 29q0 34 4 100q9 122 -10 123q-15 0 -64 -90q-4 -7 -11 -21zM745 1454q0 4 3 4q6 6 6 17q-2 7 6 16 q16 27 24 35q4 4 13 22q0 1 6 23q3 19 12 41l25 39q11 15 31.5 19.5t35.5 -5.5q6 -3 13 -10q1 2 4 -2q1 -3 6.5 -9t7.5 -8q5 -2 2 -10q-10 -8 -20 -24q-38 -45 -72 -76q-52 -48 -94 -70q-5 0 -9 -2z" />
<glyph unicode="&#xc2;" horiz-adv-x="983" d="M762 680l4 -4l41 18q43 22 82 25q12 3 26 -4q6 -2 18.5 -9t18.5 -10q-4 -11 -26 -20q-25 -13 -52.5 -29t-60.5 -37t-51 -32q-17 -10 -17 -27q0 -9 -2 -28.5t-2 -28.5q-4 -28 -18 -33q-10 -4 -10 -29q5 4 9 11t5 8q6 -1 7 -8t-2.5 -15t-10.5 -12l-4 -4q-2 0 -8 -6 q0 -107 -2 -160q0 -6 -5 -41q-11 -46 0 -123q8 -43 11 -96q0 -12 1 -34t1 -34q0 -15 -4 -51l-19 18l-6 -8q-2 -2 -2 -10h-15t-18 -4t-4 -15q-17 -5 -35 9q-27 22 -32 30q-40 63 -60 146q0 1 -0.5 6t0 7t2.5 5.5t6 5.5q2 0 2 19l-12 49q-27 87 -39 264l-6 33q-3 -2 -11 -5 t-11 -5q-11 -8 -21.5 -15t-26.5 -14t-22.5 -9.5t-28 -10.5t-24.5 -9q-54 -16 -105 -28q-42 -14 -76 -72q-19 -33 -59 -90.5t-55 -81.5q-11 -11 -27 -14q-16 -1 -19 -8.5t2 -14t2.5 -10t-16.5 1.5q-36 -6 -53.5 2t-19.5 22t-7 37.5t-16 38.5q48 63 103 127l55 58l12 13 q-2 -1 -1 2q2 3 11 15l-18 17l-41 30q-16 16 -10 35q16 7 39 -8q22 -12 59 -27q9 -5 18 4l66 76q2 2 5 8.5t5 8.5q25 28 47 59t52.5 79.5t40.5 63.5l157 248q34 49 37 103q3 35 21 131q22 92 81 213q9 17 16.5 20t24.5 -2l93 -22q16 -3 28 -15q33 -33 47 -51q10 -16 13 -33 q12 -55 -2 -135q-11 -83 -27 -176q0 -3 -1 -11t-1 -12q0 -54 -25 -131q-5 -13 -20 -102q-2 -14 -2 -43zM909 1475q-8 0 -18 10q-2 3 -10.5 19.5t-12.5 25.5q-3 7 -7 24t-7 25q0 6 -4 14q-5 -7 -16 -14q-48 -42 -72 -59q-3 -2 -37 -19q-37 -8 -55 -24q-4 2 -12.5 6.5 t-12.5 5.5q-9 6 -6 14q7 22 14 33l27 35q9 9 30 32.5t37.5 40.5t34.5 33h2q2 2 5.5 6t5.5 6.5t4 2.5q6 1 14.5 -0.5t9.5 -1.5q2 0 6 -4q26 -2 45 -33q19 -27 29 -72q10 -34 21 -61q0 -3 4 -19q0 -2 -4 -10q-3 -2 -8 -8t-7 -8zM373 627q-44 -58 -59 -96t-2.5 -50.5t50.5 -1 t95 48.5q17 7 20 29q0 34 4 100q9 122 -10 123q-15 0 -64 -90q-4 -7 -11 -21z" />
<glyph unicode="&#xc3;" horiz-adv-x="983" d="M762 680l4 -4l41 18q43 22 82 25q12 3 26 -4q6 -2 18.5 -9t18.5 -10q-4 -11 -26 -20q-25 -13 -52.5 -29t-60.5 -37t-51 -32q-17 -10 -17 -27q0 -9 -2 -28.5t-2 -28.5q-4 -28 -18 -33q-10 -4 -10 -29q5 4 9 11t5 8q6 -1 7 -8t-2.5 -15t-10.5 -12l-4 -4q-2 0 -8 -6 q0 -107 -2 -160q0 -6 -5 -41q-11 -46 0 -123q8 -43 11 -96q0 -12 1 -34t1 -34q0 -15 -4 -51l-19 18l-6 -8q-2 -2 -2 -10h-15t-18 -4t-4 -15q-17 -5 -35 9q-27 22 -32 30q-40 63 -60 146q0 1 -0.5 6t0 7t2.5 5.5t6 5.5q2 0 2 19l-12 49q-27 87 -39 264l-6 33q-3 -2 -11 -5 t-11 -5q-11 -8 -21.5 -15t-26.5 -14t-22.5 -9.5t-28 -10.5t-24.5 -9q-54 -16 -105 -28q-42 -14 -76 -72q-19 -33 -59 -90.5t-55 -81.5q-11 -11 -27 -14q-16 -1 -19 -8.5t2 -14t2.5 -10t-16.5 1.5q-36 -6 -53.5 2t-19.5 22t-7 37.5t-16 38.5q48 63 103 127l55 58l12 13 q-2 -1 -1 2q2 3 11 15l-18 17l-41 30q-16 16 -10 35q16 7 39 -8q22 -12 59 -27q9 -5 18 4l66 76q2 2 5 8.5t5 8.5q25 28 47 59t52.5 79.5t40.5 63.5l157 248q34 49 37 103q3 35 21 131q22 92 81 213q9 17 16.5 20t24.5 -2l93 -22q16 -3 28 -15q33 -33 47 -51q10 -16 13 -33 q12 -55 -2 -135q-11 -83 -27 -176q0 -3 -1 -11t-1 -12q0 -54 -25 -131q-5 -13 -20 -102q-2 -14 -2 -43zM373 627q-44 -58 -59 -96t-2.5 -50.5t50.5 -1t95 48.5q17 7 20 29q0 34 4 100q9 122 -10 123q-15 0 -64 -90q-4 -7 -11 -21zM631 1544l-15 -8q0 1 -1.5 2t-5.5 3.5 t-7 8.5q-7 24 10 41q20 17 43 27q27 0 41 2q7 0 11 -2q10 0 26 -4q2 -1 5 -0.5t5 -1.5q5 0 9 -2q8 0 20 -4q6 -4 16.5 -7t12.5 -4l4 -2l14 -4q1 0 7.5 -2t11.5 -2q27 -11 34 -12l21 -6h2q7 3 19.5 4.5t17.5 3.5l4 2q14 3 14 8q4 12 4 21l-2 4h11q1 -3 4.5 -6.5t5 -7 t0.5 -7.5l-2 -16q-11 -16 -19 -19l-22 -14q-10 -6 -47 -10q-31 -6 -66 0q-11 1 -80 22l-55 15q-20 4 -31 4l-18 -6q-8 -12 -4 -17zM922 1542q0 2 -2 2l-33 -8q-9 0 -29 -4q-7 -4 -10 2l-2 2l-51 8q-2 -2 -4 0v-4l8 -2q30 -4 43 -8q5 -1 10.5 -1t12 0.5t9.5 0.5l33 6 q9 0 15 6z" />
<glyph unicode="&#xc4;" horiz-adv-x="983" d="M762 680l4 -4l41 18q43 22 82 25q12 3 26 -4q6 -2 18.5 -9t18.5 -10q-4 -11 -26 -20q-25 -13 -52.5 -29t-60.5 -37t-51 -32q-17 -10 -17 -27q0 -9 -2 -28.5t-2 -28.5q-4 -28 -18 -33q-10 -4 -10 -29q5 4 9 11t5 8q6 -1 7 -8t-2.5 -15t-10.5 -12l-4 -4q-2 0 -8 -6 q0 -107 -2 -160q0 -6 -5 -41q-11 -46 0 -123q8 -43 11 -96q0 -12 1 -34t1 -34q0 -15 -4 -51l-19 18l-6 -8q-2 -2 -2 -10h-15t-18 -4t-4 -15q-17 -5 -35 9q-27 22 -32 30q-40 63 -60 146q0 1 -0.5 6t0 7t2.5 5.5t6 5.5q2 0 2 19l-12 49q-27 87 -39 264l-6 33q-3 -2 -11 -5 t-11 -5q-11 -8 -21.5 -15t-26.5 -14t-22.5 -9.5t-28 -10.5t-24.5 -9q-54 -16 -105 -28q-42 -14 -76 -72q-19 -33 -59 -90.5t-55 -81.5q-11 -11 -27 -14q-16 -1 -19 -8.5t2 -14t2.5 -10t-16.5 1.5q-36 -6 -53.5 2t-19.5 22t-7 37.5t-16 38.5q48 63 103 127l55 58l12 13 q-2 -1 -1 2q2 3 11 15l-18 17l-41 30q-16 16 -10 35q16 7 39 -8q22 -12 59 -27q9 -5 18 4l66 76q2 2 5 8.5t5 8.5q25 28 47 59t52.5 79.5t40.5 63.5l157 248q34 49 37 103q3 35 21 131q22 92 81 213q9 17 16.5 20t24.5 -2l93 -22q16 -3 28 -15q33 -33 47 -51q10 -16 13 -33 q12 -55 -2 -135q-11 -83 -27 -176q0 -3 -1 -11t-1 -12q0 -54 -25 -131q-5 -13 -20 -102q-2 -14 -2 -43zM373 627q-44 -58 -59 -96t-2.5 -50.5t50.5 -1t95 48.5q17 7 20 29q0 34 4 100q9 122 -10 123q-15 0 -64 -90q-4 -7 -11 -21zM737 1583q0 -6 -2 -10q-3 -6 -11.5 -34.5 t-16.5 -41.5q-7 -10 -15 -10q-29 -8 -41 0l-2 2q-16 0 -28 18q-11 18 -11 39q2 39 33 82q5 5 8 2q53 -8 76 -28q10 -10 10 -19zM954 1583q0 -6 -2 -10q-2 -6 -11 -34.5t-17 -41.5q-7 -10 -15 -10q-29 -8 -41 0l-2 2q-16 0 -28 18q-11 18 -11 39q2 39 33 82q5 5 8 2 q53 -8 76 -28q10 -10 10 -19z" />
<glyph unicode="&#xc5;" horiz-adv-x="983" d="M762 680l4 -4l41 18q43 22 82 25q12 3 26 -4q6 -2 18.5 -9t18.5 -10q-4 -11 -26 -20q-25 -13 -52.5 -29t-60.5 -37t-51 -32q-17 -10 -17 -27q0 -9 -2 -28.5t-2 -28.5q-4 -28 -18 -33q-10 -4 -10 -29q5 4 9 11t5 8q6 -1 7 -8t-2.5 -15t-10.5 -12l-4 -4q-2 0 -8 -6 q0 -107 -2 -160q0 -6 -5 -41q-11 -46 0 -123q8 -43 11 -96q0 -12 1 -34t1 -34q0 -15 -4 -51l-19 18l-6 -8q-2 -2 -2 -10h-15t-18 -4t-4 -15q-17 -5 -35 9q-27 22 -32 30q-40 63 -60 146q0 1 -0.5 6t0 7t2.5 5.5t6 5.5q2 0 2 19l-12 49q-27 87 -39 264l-6 33q-3 -2 -11 -5 t-11 -5q-11 -8 -21.5 -15t-26.5 -14t-22.5 -9.5t-28 -10.5t-24.5 -9q-54 -16 -105 -28q-42 -14 -76 -72q-19 -33 -59 -90.5t-55 -81.5q-11 -11 -27 -14q-16 -1 -19 -8.5t2 -14t2.5 -10t-16.5 1.5q-36 -6 -53.5 2t-19.5 22t-7 37.5t-16 38.5q48 63 103 127l55 58l12 13 q-2 -1 -1 2q2 3 11 15l-18 17l-41 30q-16 16 -10 35q16 7 39 -8q22 -12 59 -27q9 -5 18 4l66 76q2 2 5 8.5t5 8.5q25 28 47 59t52.5 79.5t40.5 63.5l157 248q34 49 37 103q3 35 21 131q22 92 81 213q9 17 16.5 20t24.5 -2l93 -22q16 -3 28 -15q33 -33 47 -51q10 -16 13 -33 q12 -55 -2 -135q-11 -83 -27 -176q0 -3 -1 -11t-1 -12q0 -54 -25 -131q-5 -13 -20 -102q-2 -14 -2 -43zM897 1624q0 -8 -4 -16q-6 -16 -14.5 -46t-17.5 -53.5t-21 -40.5q-13 -20 -25 -20q-5 -1 -15.5 -4t-16 -4t-14 -1.5t-16.5 2t-16 7.5l-2 4q-30 0 -51 35q-20 30 -20 72 q5 74 59 151q13 4 14 2q37 -6 52.5 -9t42.5 -14.5t45 -29.5q20 -20 20 -35zM373 627q-44 -58 -59 -96t-2.5 -50.5t50.5 -1t95 48.5q17 7 20 29q0 34 4 100q9 122 -10 123q-15 0 -64 -90q-4 -7 -11 -21zM707 1565q-5 -5 -5 -13q10 -21 43 -49q3 0 9 -2q37 20 49 45 q9 23 10 27q-3 21 -16 24q-2 4 -4 6.5t-5.5 4t-5.5 2t-7.5 1.5t-6.5 1q-2 5 -10 0q-10 -6 -24.5 -19.5t-24.5 -19.5q0 -2 -2 -8z" />
<glyph unicode="&#xc6;" horiz-adv-x="1591" d="M1120 1169q148 46 287 31q26 -2 72 -18q31 -16 41 -66l18 -78q1 -5 10 -37q6 -39 -22 -67q-48 -51 -105 -39q-36 8 -75 8q-12 25 -140 -7q-134 -33 -197.5 -75t25.5 -56q20 -3 47 -5q79 -10 146 -2q33 8 78 -2q17 -6 22 -27v-4q-25 -13 -49 -43q-16 -18 -45 -33 q-79 -37 -197 -122t-188 -169q0 -18 -1 -55.5t-1 -56.5q0 -13 -4 -41q-6 -27 -6 -53l30 -7q56 -7 133 -4q18 3 81 10t96 13l122 12q56 10 103 37q12 9 17.5 8.5t11.5 -12.5q24 -31 32 -70q-14 -3 -26 -12q-34 -37 -62 -51q-79 -43 -119 -53q-31 -8 -65 -11q-72 -10 -78 -10 q-14 -2 -39 -4t-39 -4q-4 1 -15.5 -3t-17.5 -1q-13 5 -30 -2q-60 -6 -119 10v-12q0 -12 1 -34t1 -34q0 -15 -4 -51l-19 18l-6 -8q-2 -2 -2 -10h-15t-18 -4t-4 -15q-16 -5 -34 9q-29 24 -33 30q-40 63 -60 146v4v4.5v4t1 4.5t3 4t5 3q2 0 2 19l-13 49q-27 87 -39 264l-6 33 q-3 -2 -11 -5t-11 -5q-11 -8 -21.5 -15t-26.5 -14t-22.5 -9.5t-28 -10.5t-24.5 -9q-54 -16 -105 -28q-41 -14 -75 -72q-19 -33 -59.5 -90t-55.5 -82q-11 -11 -27 -14q-16 -1 -18.5 -8.5t2 -14t2.5 -10t-16 1.5q-47 -7 -61.5 5.5t-18.5 45t-17 49.5q48 63 103 127l55 58l8 8 l5 5q-2 -1 -1 1q2 4 11 16l-19 17l-41 30q-16 16 -10 35q16 7 39 -8q22 -12 59 -27q10 -5 19 4l65 76q1 1 5 8t6 9q25 27 47.5 59t51.5 79t40 64l157 248q34 49 37 103q3 35 21 131q21 88 82 213q9 17 16.5 20t24.5 -2l92 -22q17 -3 29 -15q33 -33 47 -51q8 -13 12 -33 q12 -55 -2 -135q-8 -51 -10 -72q62 54 153 86zM512 627q-44 -58 -59 -96t-2.5 -50.5t50.5 -1t95 48.5q17 7 20 29q0 17 5 100q3 48 3 77.5t-5.5 38t-13 6t-19.5 -20t-24.5 -39.5t-28.5 -53q-1 -2 -2 -3.5t-2.5 -4.5t-2.5 -4.5t-2 -4t-2 -4.5t-2.5 -4.5t-2.5 -4.5t-2.5 -4.5 t-2.5 -4.5zM901 680l4 -4l41 18q33 17 53 21q-7 14 -32 22q-22 14 -47 47l-7 9l-10 -70q-2 -14 -2 -43z" />
<glyph unicode="&#xc7;" horiz-adv-x="808" d="M-55 -274q19 1 33.5 1h18.5t7 1q36 2 74 24q9 5 22.5 14.5t18.5 12.5q2 1 4 3.5t4 2.5l10 12l15 10q0 3 6 9q3 11 -8 14q-1 3 -11.5 0.5t-11.5 -2.5q-4 0 -14 1.5t-15 0.5q-7 0 -17.5 -1t-17.5 -1l-12 -2q-6 2 -18 2q-7 0 -17 9.5t-12 17.5l-4 18v35q7 36 18 72l5 16 q-11 7 -41 41q-27 27 -29 51q0 2 -14 43q-20 63 -17 143q0 25 12 91q28 113 37 147q3 9 20.5 57t24.5 72q27 66 29 72h-8l-10 -19q-3 -6 -15 -18q77 167 105 221q23 64 131 209t149 186q23 26 52 23q131 70 226 -49q76 -95 96 -260q19 -155 -25 -243q-11 -22 -25 -36 q-48 -53 -127 -43q-16 5 -62 14q-14 3 -14 17l8 155l6 78q6 65 9 146v16q12 85 -30 82q-32 -3 -67 -42q-15 -18 -16 -28q-7 -28 -29 -53q-31 -29 -57 -86q-8 -21 -28 -63.5t-29 -65.5q-37 -85 -49 -172q-14 -81 -19 -133q-2 -20 -10 -64.5t-10 -66.5q-1 -15 4 -101l6 -47 q8 -55 19.5 -86.5t25 -38.5t27 -1.5t26.5 24.5t23.5 39t19.5 43q3 8 31 106q9 23 -2 45q-12 25 -0.5 47.5t41.5 34.5q36 14 125 27q60 8 67 -55q0 -33 -10 -58q-14 -32 -52.5 -134.5t-70.5 -168.5t-65 -100q-4 -2 -21 -25q-20 -36 -57 -30q-40 5 -82 0t-96 16q-14 2 -39 2 q-14 -3 -31 4l-12 4q-4 -8 -9 -17t-7.5 -14t-5.5 -10.5t-3 -8.5t0.5 -6t3.5 -4.5t8 -3t13 -3.5l28 -6q27 -5 50.5 -10.5t25.5 -8.5q8 -12 10 -18q8 -12 5 -21q0 -20 -7 -45q-2 -4 -3.5 -8.5t-2.5 -6.5t-3.5 -5t-6.5 -7q-3 -3 -2.5 -4t-3.5 -4q0 -3 -3 -5.5t-5 -2.5l-13 -6 l-10 -10q-3 -3 -8 -13t-12 -12q-2 0 -4 -2q-4 -4 -7 -4q-4 -2 -7 -4t-6 -4.5t-5 -3.5q-1 -1 -16 -11q-1 0 -9 -4q-5 -2 -17.5 -7.5t-18.5 -8.5q-3 0 -8.5 -1t-8.5 -1q-7 -3 -31.5 16.5t-27.5 30.5q-2 6 -2 25z" />
<glyph unicode="&#xc8;" horiz-adv-x="862" d="M238 737q-24 16 -48 47q-53 83 -34 164t73 127q67 62 162 94q148 46 287 31q26 -2 72 -18q31 -16 41 -66l18 -78q1 -5 10 -37q6 -39 -22 -67q-48 -51 -105 -39q-36 8 -76 8q-12 25 -140 -7q-137 -33 -198.5 -76t32.5 -56q18 -3 42 -4q79 -10 146 -2q33 8 77 -2 q18 -6 23 -27v-4q-25 -13 -49 -43q-16 -18 -45 -33q-63 -29 -153.5 -90t-180 -146.5t-111.5 -152.5q-6 -14 -1.5 -45.5t16.5 -42.5q22 -20 63 -27q56 -7 133 -4q17 2 80 9.5t96 13.5l123 12q56 10 103 37q12 9 17 8.5t11 -12.5q25 -32 33 -70q-14 -3 -26 -12 q-34 -37 -62 -51q-79 -43 -119 -53q-31 -8 -65 -11q-73 -10 -78 -10q-13 -2 -39 -4t-39 -4q-4 1 -15.5 -3t-17.5 -1q-12 5 -30 -2q-71 -6 -131 14q-78 27 -125 96q-2 6 -5 12.5t-7 12.5t-5 8q-64 108 -18 242q38 112 123 182q12 10 100 63q99 58 99 88q1 19 -35 31z M604 1260q-4 2 -8 2q-44 23 -94 69q-34 31 -72 76q-11 18 -20 25q-3 8 2 10l7.5 7.5t6.5 8.5t4 2q8 8 12 10q15 10 36 5.5t32 -19.5l25 -39q9 -21 12 -41q5 -21 6 -22q11 -22 12 -23q10 -10 25 -35q8 -8 6 -16q0 -10 6 -16q2 0 2 -4z" />
<glyph unicode="&#xc9;" horiz-adv-x="862" d="M238 737q-24 16 -48 47q-53 83 -34 164t73 127q67 62 162 94q148 46 287 31q26 -2 72 -18q31 -16 41 -66l18 -78q1 -5 10 -37q6 -39 -22 -67q-48 -51 -105 -39q-36 8 -76 8q-12 25 -140 -7q-137 -33 -198.5 -76t32.5 -56q18 -3 42 -4q79 -10 146 -2q33 8 77 -2 q18 -6 23 -27v-4q-25 -13 -49 -43q-16 -18 -45 -33q-63 -29 -153.5 -90t-180 -146.5t-111.5 -152.5q-6 -14 -1.5 -45.5t16.5 -42.5q22 -20 63 -27q56 -7 133 -4q17 2 80 9.5t96 13.5l123 12q56 10 103 37q12 9 17 8.5t11 -12.5q25 -32 33 -70q-14 -3 -26 -12 q-34 -37 -62 -51q-79 -43 -119 -53q-31 -8 -65 -11q-73 -10 -78 -10q-13 -2 -39 -4t-39 -4q-4 1 -15.5 -3t-17.5 -1q-12 5 -30 -2q-71 -6 -131 14q-78 27 -125 96q-2 6 -5 12.5t-7 12.5t-5 8q-64 108 -18 242q38 112 123 182q12 10 100 63q99 58 99 88q1 19 -35 31z M473 1255q0 5 2 5q6 6 6 16q-3 8 6 16q15 25 25 35q1 1 12 23q1 1 6 22q2 16 13 41l24 39q11 15 32 19.5t36 -5.5q4 -2 12 -10q1 2 4 -2q1 -3 7 -8t8 -8q5 -2 2 -11q-12 -9 -21 -24q-38 -45 -72 -76q-52 -48 -94 -70q-4 0 -8 -2z" />
<glyph unicode="&#xca;" horiz-adv-x="862" d="M238 737q-24 16 -48 47q-53 83 -34 164t73 127q67 62 162 94q148 46 287 31q26 -2 72 -18q31 -16 41 -66l18 -78q1 -5 10 -37q6 -39 -22 -67q-48 -51 -105 -39q-36 8 -76 8q-12 25 -140 -7q-137 -33 -198.5 -76t32.5 -56q18 -3 42 -4q79 -10 146 -2q33 8 77 -2 q18 -6 23 -27v-4q-25 -13 -49 -43q-16 -18 -45 -33q-63 -29 -153.5 -90t-180 -146.5t-111.5 -152.5q-6 -14 -1.5 -45.5t16.5 -42.5q22 -20 63 -27q56 -7 133 -4q17 2 80 9.5t96 13.5l123 12q56 10 103 37q12 9 17 8.5t11 -12.5q25 -32 33 -70q-14 -3 -26 -12 q-34 -37 -62 -51q-79 -43 -119 -53q-31 -8 -65 -11q-73 -10 -78 -10q-13 -2 -39 -4t-39 -4q-4 1 -15.5 -3t-17.5 -1q-12 5 -30 -2q-71 -6 -131 14q-78 27 -125 96q-2 6 -5 12.5t-7 12.5t-5 8q-64 108 -18 242q38 112 123 182q12 10 100 63q99 58 99 88q1 19 -35 31z M719 1262q-9 0 -19 10q-20 41 -22 45q-3 7 -7 24t-7 25q0 4 -5 14q-5 -7 -16 -14q-48 -42 -72 -59q-6 -4 -36 -19q-39 -9 -56 -24q-4 2 -12 6.5t-12 5.5q-9 6 -6 14q7 22 14 33l26 35q83 88 103 106h2q2 2 5 6t5 6.5t4 2.5q6 1 15 -0.5t10 -1.5q2 0 6 -4q26 -2 45 -33 q19 -27 29 -72q13 -44 20 -61q0 -3 4 -19q0 -2 -4 -10q-3 -2 -7.5 -8t-6.5 -8z" />
<glyph unicode="&#xcb;" horiz-adv-x="862" d="M238 737q-24 16 -48 47q-53 83 -34 164t73 127q67 62 162 94q148 46 287 31q26 -2 72 -18q31 -16 41 -66l18 -78q1 -5 10 -37q6 -39 -22 -67q-48 -51 -105 -39q-36 8 -76 8q-12 25 -140 -7q-137 -33 -198.5 -76t32.5 -56q18 -3 42 -4q79 -10 146 -2q33 8 77 -2 q18 -6 23 -27v-4q-25 -13 -49 -43q-16 -18 -45 -33q-63 -29 -153.5 -90t-180 -146.5t-111.5 -152.5q-6 -14 -1.5 -45.5t16.5 -42.5q22 -20 63 -27q56 -7 133 -4q17 2 80 9.5t96 13.5l123 12q56 10 103 37q12 9 17 8.5t11 -12.5q25 -32 33 -70q-14 -3 -26 -12 q-34 -37 -62 -51q-79 -43 -119 -53q-31 -8 -65 -11q-73 -10 -78 -10q-13 -2 -39 -4t-39 -4q-4 1 -15.5 -3t-17.5 -1q-12 5 -30 -2q-71 -6 -131 14q-78 27 -125 96q-2 6 -5 12.5t-7 12.5t-5 8q-64 108 -18 242q38 112 123 182q12 10 100 63q99 58 99 88q1 19 -35 31z M743 1391q0 -7 -2 -11q-2 -6 -11 -34t-17 -41q-7 -11 -15 -11q-29 -8 -41 0l-2 2q-15 0 -28 19q-11 18 -11 39q2 39 33 82q5 5 8 2q51 -8 76 -29q10 -10 10 -18zM526 1391q0 -7 -2 -11q-2 -6 -11 -34t-17 -41q-7 -11 -15 -11q-29 -8 -41 0l-2 2q-15 0 -28 19q-11 18 -11 39 q2 39 33 82q5 5 8 2q51 -8 76 -29q10 -10 10 -18z" />
<glyph unicode="&#xcc;" d="M227 1053q4 5 0.5 7.5t-10 2.5t-11 1.5t-1.5 6.5q3 2 7 7.5t5 6.5q26 17 29 41q12 10 26.5 17t23.5 9.5t25 5.5t23 5q58 19 184 51q66 17 107 3q61 -13 49 -76q-4 -26 8 -33q12 -5 -4 -59q-19 -7 -66 -14t-78.5 -21t-43.5 -43q-5 -23 -13.5 -46.5t-13.5 -43.5l-57 -228 q-2 -7 -7 -33t-10 -42l-45 -138q-3 -9 -12 -31q-41 -99 -32 -131t61 -22q19 1 73 -4q0 -2 -0.5 -8.5t0 -8t1.5 -6.5t4.5 -4t9.5 0q-9 -17 -6 -22q3 -4 1.5 -15t-3.5 -16.5l-6 -16.5t-5 -16q-2 -4 -5 -13.5t-5 -12.5q-24 -30 -18 -52q5 -12 -15 -22q-31 -12 -37 -2 q-13 16 -55 10l-131 -18q-13 -2 -71.5 -11.5t-88.5 -13.5q-24 -3 -70 -6t-59 -4q-15 0 -32 10q-21 9 -22.5 23.5t13.5 42.5l35 51q7 14 19 18q45 23 82 37q29 11 77 25q16 5 35 18l12 17q18 52 33 102q12 63 37 129q2 2 5.5 8.5t6.5 9.5q26 38 43 111q17 61 27 82q5 11 7 30 t3 23q2 8 3.5 29.5t4.5 32.5q14 55 17 69q11 41 13 62t-8.5 30.5t-23 11.5t-40.5 5t-52 10q-2 0 -1.5 11t1 21t-1.5 13q1 1 3.5 2.5t9.5 5t12.5 7t11.5 6.5t9 5zM518 1276q-4 2 -8 2q-42 22 -94 70q-38 34 -72 75q-11 18 -20 25q-3 8 2 10q2 2 7.5 8t6.5 9t4 2q8 8 12 10 q15 10 36 5.5t32 -19.5l25 -39q9 -22 12 -41q6 -22 6 -23q10 -20 12 -22q10 -10 25 -35q9 -9 6 -17q0 -10 6 -16q2 0 2 -4zM-59 20l6 -4q10 0 29.5 -1t29.5 -1l109 13q46 5 63 8l26 6.5t34 11.5q7 3 15 4t17.5 1t14.5 1q5 2 14.5 4t17 5t17.5 10q-8 0 -19 1t-16 1 q-10 2 -35 -2q-3 0 -10 -1t-12 -1t-9 2l56 6q-7 10 -31 6q-8 -2 -76 -12q-14 -5 -16 -6q-17 -9 -55 -17q-26 -2 -73.5 -8t-64.5 -8q-21 -4 -32 -19zM524 1051l58 16q-6 1 -16 4t-16 4t-15.5 -1t-20.5 -9q-5 -8 -2.5 -11.5t12.5 -2.5zM270 1018l25 4v4q-6 0 -10 -2 q-9 0 -13 -2q0 -2 -2 -4z" />
<glyph unicode="&#xcd;" d="M227 1053q4 5 0.5 7.5t-10 2.5t-11 1.5t-1.5 6.5q3 2 7 7.5t5 6.5q26 17 29 41q12 10 26.5 17t23.5 9.5t25 5.5t23 5q58 19 184 51q66 17 107 3q61 -13 49 -76q-4 -26 8 -33q12 -5 -4 -59q-19 -7 -66 -14t-78.5 -21t-43.5 -43q-5 -23 -13.5 -46.5t-13.5 -43.5l-57 -228 q-2 -7 -7 -33t-10 -42l-45 -138q-3 -9 -12 -31q-41 -99 -32 -131t61 -22q19 1 73 -4q0 -2 -0.5 -8.5t0 -8t1.5 -6.5t4.5 -4t9.5 0q-9 -17 -6 -22q3 -4 1.5 -15t-3.5 -16.5l-6 -16.5t-5 -16q-2 -4 -5 -13.5t-5 -12.5q-24 -30 -18 -52q5 -12 -15 -22q-31 -12 -37 -2 q-13 16 -55 10l-131 -18q-13 -2 -71.5 -11.5t-88.5 -13.5q-24 -3 -70 -6t-59 -4q-15 0 -32 10q-21 9 -22.5 23.5t13.5 42.5l35 51q7 14 19 18q45 23 82 37q29 11 77 25q16 5 35 18l12 17q18 52 33 102q12 63 37 129q2 2 5.5 8.5t6.5 9.5q26 38 43 111q17 61 27 82q5 11 7 30 t3 23q2 8 3.5 29.5t4.5 32.5q14 55 17 69q11 41 13 62t-8.5 30.5t-23 11.5t-40.5 5t-52 10q-2 0 -1.5 11t1 21t-1.5 13q1 1 3.5 2.5t9.5 5t12.5 7t11.5 6.5t9 5zM438 1298q0 5 2 5q6 6 6 16q-2 7 7 16q16 27 24 35q1 1 12 23q2 4 7 22q3 20 12 41l24 39q11 15 32 19.5 t36 -5.5q4 -2 12 -10q1 2 4 -2q1 -3 7 -8t8 -8q5 -2 2 -11q-12 -9 -21 -24q-42 -49 -71 -76q-51 -47 -95 -70q-4 0 -8 -2zM-59 20l6 -4q10 0 29.5 -1t29.5 -1l109 13q46 5 63 8l26 6.5t34 11.5q7 3 15 4t17.5 1t14.5 1q5 2 14.5 4t17 5t17.5 10q-8 0 -19 1t-16 1 q-10 2 -35 -2q-3 0 -10 -1t-12 -1t-9 2l56 6q-7 10 -31 6q-8 -2 -76 -12q-14 -5 -16 -6q-17 -9 -55 -17q-26 -2 -73.5 -8t-64.5 -8q-21 -4 -32 -19zM524 1051l58 16q-6 1 -16 4t-16 4t-15.5 -1t-20.5 -9q-5 -8 -2.5 -11.5t12.5 -2.5zM270 1018l25 4v4q-6 0 -10 -2 q-9 0 -13 -2q0 -2 -2 -4z" />
<glyph unicode="&#xce;" d="M227 1053q4 5 0.5 7.5t-10 2.5t-11 1.5t-1.5 6.5q3 2 7 7.5t5 6.5q26 17 29 41q12 10 26.5 17t23.5 9.5t25 5.5t23 5q58 19 184 51q66 17 107 3q61 -13 49 -76q-4 -26 8 -33q12 -5 -4 -59q-19 -7 -66 -14t-78.5 -21t-43.5 -43q-5 -23 -13.5 -46.5t-13.5 -43.5l-57 -228 q-2 -7 -7 -33t-10 -42l-45 -138q-3 -9 -12 -31q-41 -99 -32 -131t61 -22q19 1 73 -4q0 -2 -0.5 -8.5t0 -8t1.5 -6.5t4.5 -4t9.5 0q-9 -17 -6 -22q3 -4 1.5 -15t-3.5 -16.5l-6 -16.5t-5 -16q-2 -4 -5 -13.5t-5 -12.5q-24 -30 -18 -52q5 -12 -15 -22q-31 -12 -37 -2 q-13 16 -55 10l-131 -18q-13 -2 -71.5 -11.5t-88.5 -13.5q-24 -3 -70 -6t-59 -4q-15 0 -32 10q-21 9 -22.5 23.5t13.5 42.5l35 51q7 14 19 18q45 23 82 37q29 11 77 25q16 5 35 18l12 17q18 52 33 102q12 63 37 129q2 2 5.5 8.5t6.5 9.5q26 38 43 111q17 61 27 82q5 11 7 30 t3 23q2 8 3.5 29.5t4.5 32.5q14 55 17 69q11 41 13 62t-8.5 30.5t-23 11.5t-40.5 5t-52 10q-2 0 -1.5 11t1 21t-1.5 13q1 1 3.5 2.5t9.5 5t12.5 7t11.5 6.5t9 5zM606 1298q-7 0 -18 11q-2 3 -10.5 19.5t-12.5 25.5q-3 7 -7 24t-7 25q0 6 -4 14q-4 -5 -17 -14 q-59 -52 -71 -60q-7 -5 -21 -11t-16 -7q-36 -8 -55 -25q-5 2 -13 7t-12 6q-9 6 -6 14q7 22 14 33l27 35q9 9 30 32.5t37.5 40.5t34.5 33h2q2 2 5.5 6t5.5 6.5t4 2.5q6 1 14 -1t10 -2t6 -4q26 -2 45 -32q19 -27 29 -72q11 -38 21 -62q0 -2 4 -18q0 -2 -4 -10q-3 -2 -8 -8.5 t-7 -8.5zM-59 20l6 -4q10 0 29.5 -1t29.5 -1l109 13q46 5 63 8l26 6.5t34 11.5q7 3 15 4t17.5 1t14.5 1q5 2 14.5 4t17 5t17.5 10q-8 0 -19 1t-16 1q-10 2 -35 -2q-3 0 -10 -1t-12 -1t-9 2l56 6q-7 10 -31 6q-8 -2 -76 -12q-14 -5 -16 -6q-17 -9 -55 -17q-26 -2 -73.5 -8 t-64.5 -8q-21 -4 -32 -19zM524 1051l58 16q-6 1 -16 4t-16 4t-15.5 -1t-20.5 -9q-5 -8 -2.5 -11.5t12.5 -2.5zM270 1018l25 4v4q-6 0 -10 -2q-9 0 -13 -2q0 -2 -2 -4z" />
<glyph unicode="&#xcf;" d="M227 1053q4 5 0.5 7.5t-10 2.5t-11 1.5t-1.5 6.5q3 2 7 7.5t5 6.5q26 17 29 41q12 10 26.5 17t23.5 9.5t25 5.5t23 5q58 19 184 51q66 17 107 3q61 -13 49 -76q-4 -26 8 -33q12 -5 -4 -59q-19 -7 -66 -14t-78.5 -21t-43.5 -43q-5 -23 -13.5 -46.5t-13.5 -43.5l-57 -228 q-2 -7 -7 -33t-10 -42l-45 -138q-3 -9 -12 -31q-41 -99 -32 -131t61 -22q19 1 73 -4q0 -2 -0.5 -8.5t0 -8t1.5 -6.5t4.5 -4t9.5 0q-9 -17 -6 -22q3 -4 1.5 -15t-3.5 -16.5l-6 -16.5t-5 -16q-2 -4 -5 -13.5t-5 -12.5q-24 -30 -18 -52q5 -12 -15 -22q-31 -12 -37 -2 q-13 16 -55 10l-131 -18q-13 -2 -71.5 -11.5t-88.5 -13.5q-24 -3 -70 -6t-59 -4q-15 0 -32 10q-21 9 -22.5 23.5t13.5 42.5l35 51q7 14 19 18q45 23 82 37q29 11 77 25q16 5 35 18l12 17q18 52 33 102q12 63 37 129q2 2 5.5 8.5t6.5 9.5q26 38 43 111q17 61 27 82q5 11 7 30 t3 23q2 8 3.5 29.5t4.5 32.5q14 55 17 69q11 41 13 62t-8.5 30.5t-23 11.5t-40.5 5t-52 10q-2 0 -1.5 11t1 21t-1.5 13q1 1 3.5 2.5t9.5 5t12.5 7t11.5 6.5t9 5zM319 1376l-14 -8q0 1 -1.5 2t-5.5 3.5t-7 8.5q-7 24 10 41q20 17 43 27q27 0 41 2q6 0 10 -2q11 0 27 -4 q2 -1 5 -0.5t5 -1.5q4 0 8 -2q9 0 21 -4q4 -3 9 -4.5t10.5 -3.5t8.5 -3l5 -2l14 -4q1 0 7.5 -2t10.5 -2q26 -11 35 -12l21 -6h2q7 3 19.5 4.5t17.5 3.5l4 2q14 3 14 8q4 12 4 21l-2 4h10q1 -1 6.5 -8t4.5 -13l-3 -16q-11 -17 -18 -19l-23 -14q-10 -6 -47 -10q-30 -6 -65 0 q-11 1 -80 22l-55 15q-20 4 -31 4l-18 -6q-8 -12 -5 -17zM-59 20l6 -4q10 0 29.5 -1t29.5 -1l109 13q46 5 63 8l26 6.5t34 11.5q7 3 15 4t17.5 1t14.5 1q5 2 14.5 4t17 5t17.5 10q-8 0 -19 1t-16 1q-10 2 -35 -2q-3 0 -10 -1t-12 -1t-9 2l56 6q-7 10 -31 6q-8 -2 -76 -12 q-14 -5 -16 -6q-17 -9 -55 -17q-26 -2 -73.5 -8t-64.5 -8q-21 -4 -32 -19zM524 1051l58 16q-6 1 -16 4t-16 4t-15.5 -1t-20.5 -9q-5 -8 -2.5 -11.5t12.5 -2.5zM610 1374q0 2 -2 2l-33 -8q-8 0 -28 -4q-7 -4 -10 2l-2 2l-52 8q-2 -2 -4 0v-4l8 -2q30 -4 43 -8q5 -1 11 -1 t12.5 0.5t9.5 0.5l33 6q8 0 14 6zM270 1018l25 4v4q-6 0 -10 -2q-9 0 -13 -2q0 -2 -2 -4z" />
<glyph unicode="&#xd0;" horiz-adv-x="1124" d="M279 -20l49 12q-18 -15 -40.5 -24.5t-37.5 -6.5q-2 -1 -8 -2t-8 -1.5t-6.5 -2t-6 -3t-5.5 -4.5t-6.5 -6.5t-6.5 -8t-8 -11.5q-16 -16 -29 -10q-10 2 -12 2.5t-14.5 -2t-14.5 -2.5q-14 -4 -22 -6.5t-9.5 -4l-3 -3t-3.5 -2t-9.5 -2t-22.5 -3.5q-86 -10 -94 -12q-10 6 -14 2 q-10 -3 -18.5 -4.5t-18 1t-13.5 3.5t-15.5 6t-12.5 6q-13 4 -16 27q3 27 -5 47q-5 0 -5.5 6t1.5 9q4 10 14 35.5t15 39.5q12 24 31 27q49 28 69 31q18 7 111 32l18 7q0 1 -4 1h-5q2 2 16 7q17 4 21.5 8.5t10.5 21.5l27 76l84 250q3 9 8 27t8 26q-27 -1 -43.5 -2t-20.5 -1.5 t-9.5 -1.5t-17.5 -1h-38q-15 1 -19.5 8t-8.5 20t-13 23l-26 25q-13 10 -6 25l38 -5q17 -4 29 -2q28 3 76 5q68 3 88 2l55 163q0 1 21 66q-20 -4 -25 -4q-65 -24 -100 -29q-25 0 -39 4q-35 6 -35 58v41q-4 23 6 110q2 14 23 60q6 18 22 18q13 -3 29 1t36.5 12t28.5 10l68 12 q21 5 69.5 12.5t73.5 15.5q114 24 246 17q133 -11 207 -45q64 -29 100 -92q33 -55 15 -170q-4 -37 -45 -152q-9 -19 -34.5 -78t-43.5 -90q-5 -9 -20 -31t-23 -36q-5 -8 -17.5 -26.5t-19.5 -28.5t-18 -24.5t-21.5 -27t-21.5 -24.5q-51 -62 -86 -95q-76 -79 -148 -135 q-139 -99 -264 -162l-55 -28q0 -4 -2 -6zM557 629l2 -6q-4 -35 -51 -43q-6 -1 -51.5 -6.5t-69.5 -6.5h-8q-1 -3 -23 -67q-1 -6 -9 -43.5t-15 -59.5q-80 -172 -15 -183q58 -11 197 107l4 3q109 72 189 155q106 110 163 203q61 109 68 184q3 9 -0.5 17t-9.5 10q-52 15 -84 22 q-158 26 -312 -10q-23 -6 -30 -10q-3 0 -6 -4.5t-2 -7.5q-16 -22 -27 -52q-14 -51 -57 -174l-2 -2l110 -14q4 -1 18 -6t21 -6z" />
<glyph unicode="&#xd1;" horiz-adv-x="1200" d="M49 664l101 276q8 25 34 92q11 28 35 25q12 -4 49.5 -0.5t50.5 2.5q101 -7 130 -64q9 -15 22 -57q5 -15 -2 -25q-10 -18 -15.5 -34.5t-10 -42.5t-5.5 -33q-6 -28 -19 -77q-22 -92 -16 -100q8 -11 68 58q14 20 38.5 56.5t45.5 67t41 56.5q166 217 262 277l23 16 q25 22 47 19q4 0 28 6q11 1 34 5t34.5 5.5t33.5 3t32 -1.5q48 -9 57 -55q10 -71 -21 -181q-9 -27 -59 -127t-59 -129q-18 -51 -29 -71q-4 -9 -5.5 -25.5t-4.5 -23.5q-7 -20 -27 -103q-1 -10 -7 -28.5t-7 -24.5q-4 -17 -2 -23q9 -31 -2 -63q-1 -4 -6 -18t-7 -21t-6 -21.5 t-3 -19t3 -12.5q4 -8 4 -12l13 -29q26 16 60 53.5t50 50.5q0 -31 10 -43q6 -3 0 -14q-13 -24 -34 -55q-6 -9 -23.5 -31.5t-26.5 -36.5q-19 -25 -43 -37q-73 -38 -92 -45q-50 -22 -98.5 -11t-58.5 60q-10 45 -21 111q0 9 4 29q1 9 9.5 35.5t12 41.5t-0.5 31q-11 21 4 55 q8 20 12 45q1 3 -0.5 5.5t-5 6.5t-4.5 7q14 15 21.5 44.5t13.5 39.5q8 16 10.5 42.5t9.5 41.5q-2 -2 -8 -2q-5 -20 -29 -88h-4q20 60 39 133q5 31 54 159q49 126 32 147q-7 8 -22 5l-170 -244q-21 -30 -39 -43q-42 -38 -64 -82q-19 -40 -59 -83q-35 -38 -60 -86 q-31 -66 -82 -123q-27 -30 -49 -82q-35 -82 -43 -99q-23 -45 -37 -102q-11 -49 -38 -74q-8 -12 -15 -12q-8 -1 -15 -5t-17 -12t-13 -10q-44 -26 -80 -34q-53 -7 -84 -2q-8 2 -17.5 16t-6.5 24q9 43 14 160q8 181 100 424l82 209q10 34 11 43q-14 -18 -25 -39t-22 -46.5 t-17 -37.5q1 2 1 8t1 9zM514 1290l-14 -8q0 1 -2 2t-6 3.5t-7 8.5q-7 23 11 41q20 17 43 27q27 0 41 2q6 0 10 -2q10 0 26 -4q2 -1 5.5 -0.5t5.5 -1.5q4 0 8 -2q8 0 20 -4q6 -4 16.5 -7t12.5 -4l4 -2l14 -4q2 0 8 -2t11 -2q26 -11 35 -12l20 -6h2q7 3 19.5 4.5t17.5 3.5l4 2 q15 4 15 8q4 12 4 21l-2 4h10q1 -3 4.5 -6.5t5 -7t0.5 -7.5l-2 -16q-11 -17 -18 -19l-23 -14q-10 -6 -47 -10q-31 -6 -66 0q-9 1 -79 22l-56 15q-20 4 -30 4l-19 -6q-8 -11 -4 -17zM805 1288q0 2 -2 2l-33 -8q-9 0 -29 -4q-7 -4 -10 2l-2 2l-51 8q-2 -2 -4 0v-4l8 -2 q30 -4 43 -8q5 -1 11 -1t12.5 0.5t9.5 0.5l33 6q8 0 14 6z" />
<glyph unicode="&#xd2;" horiz-adv-x="958" d="M-25 365q-10 110 48 268l104 270q19 49 31 64l49 98q19 43 72 104q27 27 71 23q20 -9 31 10q22 15 65 49q76 58 201 62q50 -3 74 -27q51 -51 76 -82q30 -38 57 -137q20 -60 16 -160q-6 -68 -34 -125q-2 -3 -3.5 -12t-3.5 -12q0 -12 -1 -34t-1 -34q-2 -18 -12.5 -66 t-11.5 -73q-2 -25 -8 -51t-17 -63.5t-14 -49.5q-4 -21 -19 -57.5t-18 -44.5q-4 -16 -12 -34t-14.5 -29t-20 -32.5t-18.5 -29.5q-1 -6 -10.5 -19t-10.5 -14q-13 -13 -47.5 -49.5t-56.5 -57.5q-58 -58 -134 -75q-6 -3 -36 -13q-31 -16 -62 -6q-42 6 -43 6q-49 3 -94 33 q-105 67 -152 176q-39 82 -39 205q-1 3 -1 9.5t-1 9.5zM170 604q-4 -14 -4 -37q-8 -26 -12 -75q-1 -10 -5 -32.5t-4 -35.5q2 -10 10 -44.5t9 -53.5q27 -108 35 -164q10 -62 47 -86q24 -16 41 -4q58 26 78 43q133 120 200 245q83 154 119 345q22 138 27 239q3 48 -29 80 q-26 30 -68 18q-3 -2 -18 -7t-23 -11q-13 -3 -26 -23q-12 -18 -32.5 -52.5t-31.5 -51.5q-2 -4 -19.5 -30.5t-23.5 -43.5q-9 -32 -30 -78q-9 -6 -9 -14q-9 -22 -30 -68t-31 -71q0 -8 -7.5 -13.5t-15.5 -5.5q-37 0 -45 5q-10 6 -23 10t-22.5 6t-28 5t-28.5 5zM657 1366 q-4 2 -8 2q-42 22 -94 70q-37 34 -72 75q-11 18 -20 25q-3 8 2 10q1 2 7 8t7 9t4 2q7 7 13 10q15 10 35.5 5.5t31.5 -19.5l25 -39q9 -22 12 -41q6 -22 6 -23q10 -20 12 -22q10 -10 25 -35q9 -9 6 -17q0 -10 6 -16q2 0 2 -4z" />
<glyph unicode="&#xd3;" horiz-adv-x="958" d="M-25 365q-10 110 48 268l104 270q19 49 31 64l49 98q19 43 72 104q27 27 71 23q20 -9 31 10q22 15 65 49q76 58 201 62q50 -3 74 -27q51 -51 76 -82q30 -38 57 -137q20 -60 16 -160q-6 -68 -34 -125q-2 -3 -3.5 -12t-3.5 -12q0 -12 -1 -34t-1 -34q-2 -18 -12.5 -66 t-11.5 -73q-2 -25 -8 -51t-17 -63.5t-14 -49.5q-4 -21 -19 -57.5t-18 -44.5q-4 -16 -12 -34t-14.5 -29t-20 -32.5t-18.5 -29.5q-1 -6 -10.5 -19t-10.5 -14q-13 -13 -47.5 -49.5t-56.5 -57.5q-58 -58 -134 -75q-6 -3 -36 -13q-31 -16 -62 -6q-42 6 -43 6q-49 3 -94 33 q-105 67 -152 176q-39 82 -39 205q-1 3 -1 9.5t-1 9.5zM170 604q-4 -14 -4 -37q-8 -26 -12 -75q-1 -10 -5 -32.5t-4 -35.5q2 -10 10 -44.5t9 -53.5q27 -108 35 -164q10 -62 47 -86q24 -16 41 -4q58 26 78 43q133 120 200 245q83 154 119 345q22 138 27 239q3 48 -29 80 q-26 30 -68 18q-3 -2 -18 -7t-23 -11q-13 -3 -26 -23q-12 -18 -32.5 -52.5t-31.5 -51.5q-2 -4 -19.5 -30.5t-23.5 -43.5q-9 -32 -30 -78q-9 -6 -9 -14q-9 -22 -30 -68t-31 -71q0 -8 -7.5 -13.5t-15.5 -5.5q-37 0 -45 5q-10 6 -23 10t-22.5 6t-28 5t-28.5 5zM561 1366 q0 4 2 4q6 6 6 16q-3 8 6 17q15 25 25 35q2 2 12 22q0 1 6 23q2 16 13 41l24 39q11 15 32 19.5t36 -5.5q4 -2 12 -10q1 2 4 -2q1 -3 7 -9l8 -8q5 -2 2 -10q-11 -8 -21 -25q-38 -45 -71 -75q-51 -47 -95 -70q-4 0 -8 -2z" />
<glyph unicode="&#xd4;" horiz-adv-x="958" d="M-25 365q-10 110 48 268l104 270q19 49 31 64l49 98q19 43 72 104q27 27 71 23q20 -9 31 10q22 15 65 49q76 58 201 62q50 -3 74 -27q51 -51 76 -82q30 -38 57 -137q20 -60 16 -160q-6 -68 -34 -125q-2 -3 -3.5 -12t-3.5 -12q0 -12 -1 -34t-1 -34q-2 -18 -12.5 -66 t-11.5 -73q-2 -25 -8 -51t-17 -63.5t-14 -49.5q-4 -21 -19 -57.5t-18 -44.5q-4 -16 -12 -34t-14.5 -29t-20 -32.5t-18.5 -29.5q-1 -6 -10.5 -19t-10.5 -14q-13 -13 -47.5 -49.5t-56.5 -57.5q-58 -58 -134 -75q-6 -3 -36 -13q-31 -16 -62 -6q-42 6 -43 6q-49 3 -94 33 q-105 67 -152 176q-39 82 -39 205q-1 3 -1 9.5t-1 9.5zM170 604q-4 -14 -4 -37q-8 -26 -12 -75q-1 -10 -5 -32.5t-4 -35.5q2 -10 10 -44.5t9 -53.5q27 -108 35 -164q10 -62 47 -86q24 -16 41 -4q58 26 78 43q133 120 200 245q83 154 119 345q22 138 27 239q3 48 -29 80 q-26 30 -68 18q-3 -2 -18 -7t-23 -11q-13 -3 -26 -23q-12 -18 -32.5 -52.5t-31.5 -51.5q-2 -4 -19.5 -30.5t-23.5 -43.5q-9 -32 -30 -78q-9 -6 -9 -14q-9 -22 -30 -68t-31 -71q0 -8 -7.5 -13.5t-15.5 -5.5q-37 0 -45 5q-10 6 -23 10t-22.5 6t-28 5t-28.5 5zM735 1382 q-7 0 -18 11q-2 3 -10.5 19.5t-12.5 25.5q-3 7 -7 24t-7 25q0 6 -4 14q-4 -5 -17 -14q-59 -52 -71 -60q-7 -5 -21 -11t-16 -7q-36 -8 -55 -25q-5 2 -13 7t-12 6q-9 6 -6 14q7 22 14 33l27 35q9 9 30 32.5t37.5 40.5t34.5 33h2q14 14 15 14q6 1 14.5 -0.5t9.5 -1.5q2 0 6 -4 q26 -2 45 -32q19 -27 29 -72q11 -38 21 -62q0 -2 4 -18q0 -2 -4 -10q-3 -2 -8 -8.5t-7 -8.5z" />
<glyph unicode="&#xd5;" horiz-adv-x="958" d="M-25 365q-10 110 48 268l104 270q19 49 31 64l49 98q19 43 72 104q27 27 71 23q20 -9 31 10q22 15 65 49q76 58 201 62q50 -3 74 -27q51 -51 76 -82q30 -38 57 -137q20 -60 16 -160q-6 -68 -34 -125q-2 -3 -3.5 -12t-3.5 -12q0 -12 -1 -34t-1 -34q-2 -18 -12.5 -66 t-11.5 -73q-2 -25 -8 -51t-17 -63.5t-14 -49.5q-4 -21 -19 -57.5t-18 -44.5q-4 -16 -12 -34t-14.5 -29t-20 -32.5t-18.5 -29.5q-1 -6 -10.5 -19t-10.5 -14q-13 -13 -47.5 -49.5t-56.5 -57.5q-58 -58 -134 -75q-6 -3 -36 -13q-31 -16 -62 -6q-42 6 -43 6q-49 3 -94 33 q-105 67 -152 176q-39 82 -39 205q-1 3 -1 9.5t-1 9.5zM170 604q-4 -14 -4 -37q-8 -26 -12 -75q-1 -10 -5 -32.5t-4 -35.5q2 -10 10 -44.5t9 -53.5q27 -108 35 -164q10 -62 47 -86q24 -16 41 -4q58 26 78 43q133 120 200 245q83 154 119 345q22 138 27 239q3 48 -29 80 q-26 30 -68 18q-3 -2 -18 -7t-23 -11q-13 -3 -26 -23q-12 -18 -32.5 -52.5t-31.5 -51.5q-2 -4 -19.5 -30.5t-23.5 -43.5q-9 -32 -30 -78q-9 -6 -9 -14q-9 -22 -30 -68t-31 -71q0 -8 -7.5 -13.5t-15.5 -5.5q-37 0 -45 5q-10 6 -23 10t-22.5 6t-28 5t-28.5 5zM469 1440l-14 -8 q0 1 -2 2t-6 3.5t-7 8.5q-7 23 11 41q18 15 43 26q20 0 41 3q4 0 10 -3q10 0 26 -4q2 -1 5.5 -0.5t5.5 -1.5q4 0 8 -2q8 0 20 -4q6 -3 16 -6t13 -4l4 -2l14 -4q1 0 8 -2t11 -2q31 -12 35 -13l20 -6h2q7 3 19.5 4.5t17.5 3.5l4 3q14 3 14 8q5 15 5 20l-2 4h10q1 -3 4.5 -6 t5 -6.5t0.5 -7.5l-2 -17q-10 -15 -18 -18l-23 -14q-13 -7 -47 -11q-31 -6 -66 0q-13 2 -26 5.5t-29.5 9t-24.5 8.5l-55 14q-20 4 -31 4l-18 -6q-7 -11 -4 -16zM760 1438q0 2 -2 2l-33 -8q-4 0 -29 -5q-7 -3 -10 3l-2 2l-51 8q-2 -2 -4 0v-4l8 -2q23 -3 43 -9q5 -1 11 -1 t12.5 0.5t9.5 0.5l32 7q9 0 15 6z" />
<glyph unicode="&#xd6;" horiz-adv-x="958" d="M-25 365q-10 110 48 268l104 270q19 49 31 64l49 98q19 43 72 104q27 27 71 23q20 -9 31 10q22 15 65 49q76 58 201 62q50 -3 74 -27q51 -51 76 -82q30 -38 57 -137q20 -60 16 -160q-6 -68 -34 -125q-2 -3 -3.5 -12t-3.5 -12q0 -12 -1 -34t-1 -34q-2 -18 -12.5 -66 t-11.5 -73q-2 -25 -8 -51t-17 -63.5t-14 -49.5q-4 -21 -19 -57.5t-18 -44.5q-4 -16 -12 -34t-14.5 -29t-20 -32.5t-18.5 -29.5q-1 -6 -10.5 -19t-10.5 -14q-13 -13 -47.5 -49.5t-56.5 -57.5q-58 -58 -134 -75q-6 -3 -36 -13q-31 -16 -62 -6q-42 6 -43 6q-49 3 -94 33 q-105 67 -152 176q-39 82 -39 205q-1 3 -1 9.5t-1 9.5zM170 604q-4 -14 -4 -37q-8 -26 -12 -75q-1 -10 -5 -32.5t-4 -35.5q2 -10 10 -44.5t9 -53.5q27 -108 35 -164q10 -62 47 -86q24 -16 41 -4q58 26 78 43q133 120 200 245q83 154 119 345q22 138 27 239q3 48 -29 80 q-26 30 -68 18q-3 -2 -18 -7t-23 -11q-13 -3 -26 -23q-12 -18 -32.5 -52.5t-31.5 -51.5q-2 -4 -19.5 -30.5t-23.5 -43.5q-9 -32 -30 -78q-9 -6 -9 -14q-9 -22 -30 -68t-31 -71q0 -8 -7.5 -13.5t-15.5 -5.5q-37 0 -45 5q-10 6 -23 10t-22.5 6t-28 5t-28.5 5zM586 1497 q0 -6 -2 -10q-2 -5 -11.5 -33.5t-17.5 -42.5q-7 -10 -14 -10q-29 -8 -41 0l-2 2q-17 0 -29 18q-10 17 -10 39q2 39 33 82q5 5 8 2q52 -8 75 -28q11 -11 11 -19zM803 1497q0 -6 -2 -10q-2 -5 -11.5 -33.5t-17.5 -42.5q-7 -10 -14 -10q-29 -8 -41 0l-2 2q-17 0 -29 18 q-10 17 -10 39q2 39 33 82q5 5 8 2q53 -8 76 -28q10 -10 10 -19z" />
<glyph unicode="&#xd7;" horiz-adv-x="841" d="M410 639q2 4 6 6l4 2q15 10 41 30.5t35 27.5q7 6 41.5 25.5t46.5 37.5l26 -25q3 -2 7.5 -8.5t5.5 -7.5l10 -27q0 -4 -1 -11.5t-1 -10.5q-1 -4 -2 -10t-2.5 -10t-5.5 -7q-16 -12 -19 -18q-67 -71 -98 -94q-6 -6 -6 -11l37 -41q1 -1 53 -59q39 -49 28 -100l-6 -11 q-4 -1 -5 -4t-1.5 -7.5t-1.5 -6.5l-4 -12q-28 12 -37 18q-19 15 -55 23q-28 5 -60 30q-18 18 -61 76q-12 15 -18 17t-21 -7q-4 0 -12 -8l-29 -18l-53 -45q-10 -8 -33 -29t-37 -31q-17 -12 -43 -18q-21 -9 -26 -12q-2 -2 -8 -5t-9 -6l-2 2q2 3 4 8t4 7l43 51l105 133 q40 45 47 55q6 8 6 11t-6 12q-64 73 -78 92q-23 33 -16 62q7 23 26 61q0 1 1.5 2l3 2t2.5 2q84 -32 174 -133z" />
<glyph unicode="&#xd8;" horiz-adv-x="958" d="M-25 365q-10 110 48 268l104 270q19 49 31 64l49 98q19 43 72 104q27 27 71 23q20 -9 31 10q22 15 65 49q76 58 201 62q50 -3 74 -27q51 -51 76 -82l18 -28l10 10q14 12 29.5 24t35.5 26l30 21q7 9 22 13q10 4 17.5 -1.5t7.5 -17.5q3 -17 0 -34q-27 -90 -58 -132l-45 -57 q6 -39 6 -121q-6 -68 -34 -125q-2 -3 -3.5 -12t-3.5 -12q0 -12 -1 -34t-1 -34q-2 -18 -12.5 -66t-11.5 -73q-2 -25 -8 -51t-17 -63.5t-14 -49.5q-4 -21 -19 -57.5t-18 -44.5q-4 -16 -12 -34t-14.5 -29t-20 -32.5t-18.5 -29.5q-1 -6 -10.5 -19t-10.5 -14q-13 -13 -47.5 -49.5 t-56.5 -57.5q-58 -58 -134 -75q-6 -3 -36 -13q-31 -16 -62 -6q-42 6 -43 6q-49 3 -94 33q-26 17 -49 37q-11 -12 -43 -74q-14 -21 -23 -45q-18 -27 -33 0q-16 25 -26 31q-18 9 -12 29q19 51 20 53q-5 -14 -10 -43q6 3 6 6q26 76 53 117q-27 45 -35 65q-39 82 -39 205 q-1 3 -1 9.5t-1 9.5zM246 76q24 -16 41 -4q58 26 78 43q133 120 200 245q83 154 119 345l12 90q-9 -14 -27.5 -37t-25.5 -33q-51 -66 -80 -109q-3 -5 -14.5 -19t-16.5 -22q-84 -122 -94 -135q-28 -33 -59 -86q-9 -12 -29 -33.5t-28 -31.5q-7 -8 -17.5 -24.5t-15.5 -22.5 q-32 -43 -82 -119q12 -31 39 -47zM170 604q-4 -14 -4 -37q-8 -26 -12 -75q-1 -10 -5 -32.5t-4 -35.5q2 -10 10 -44.5t9 -53.5l14 -58q12 19 27 27q10 5 10 16q-4 19 14 25q3 18 9 22q17 31 51 78h-2q8 11 32 49q15 6 15 23q0 2 2 2q25 19 39 55q3 6 16 19l58 90q11 18 16 31 l8 -3q2 3 7.5 14.5t8.5 14.5q10 7 24 23t19 20l-10 10l13 13q2 2 5.5 5t5.5 4.5t4.5 5t2.5 7v8.5q-1 0 -4.5 -1t-5.5 -1l8 17q9 13 55 78t72 98l4 6q-26 30 -68 18q-3 -2 -18 -7t-23 -11q-13 -3 -26 -23q-12 -18 -32.5 -52.5t-31.5 -51.5q-2 -4 -19.5 -30.5t-23.5 -43.5 q-9 -32 -30 -78q-9 -6 -9 -14q-9 -22 -30 -68t-31 -71q0 -8 -7.5 -13.5t-15.5 -5.5q-37 0 -45 5q-10 6 -23 10t-22.5 6t-28 5t-28.5 5z" />
<glyph unicode="&#xd9;" horiz-adv-x="1064" d="M569 399q15 15 38.5 43t33.5 39q7 7 29 55.5t46 105.5t29 67q4 9 17.5 39t19.5 47q67 168 115 260q2 6 30.5 48.5t30.5 49.5q5 0 16.5 1.5t14.5 0.5q70 -4 109 -8q11 0 -21 -64q-8 -17 -10 -22l-41 -123q-13 -55 -57 -121q-21 -36 -29 -61q-11 -43 -58 -160t-57 -180 q-3 -17 -14 -51.5t-20.5 -65t-16 -61t-1 -48.5t25.5 -18q2 -2 8 -8.5t8.5 -10t5.5 -10.5t4 -14q5 -47 -67 -100q-6 -4 -20 -12t-19 -11q-51 -25 -98 -16q-42 6 -43 6q-43 3 -46 31q-7 45 -2 79q13 47 13 74t-8 34.5t-28 0.5t-38.5 -20t-46.5 -35q-59 -50 -135 -94 q-120 -68 -232 -46q-76 12 -104 101q-22 85 10 205q8 33 21.5 97t21.5 97q12 40 29 106.5t31.5 112.5t39.5 107q4 9 43 119l21 73q8 11 31 15l67 12q48 4 78 -6q15 -7 47.5 -17.5t46.5 -17.5q73 -36 43 -137q-12 -32 -28.5 -67t-28.5 -75q-7 -18 -17 -52t-12 -40 q-7 -26 -26 -84.5t-27 -89.5q-10 -30 -16 -57q-4 -24 -12.5 -50t-23.5 -62.5t-20 -51.5q-66 -192 131 -19q45 39 126 119q33 33 42 41zM715 1096q-4 2 -8 2q-47 24 -95 69q-29 27 -71 76q-10 17 -21 25q-3 8 2 10q2 3 8 8t7 8t4 2q10 10 12 11q15 10 36 5t32 -20l24 -39 q9 -21 12 -41q5 -18 7 -22q11 -22 12 -23q9 -9 24 -34q10 -9 7 -17q0 -10 6 -16q2 0 2 -4z" />
<glyph unicode="&#xda;" horiz-adv-x="1064" d="M569 399q15 15 38.5 43t33.5 39q7 7 29 55.5t46 105.5t29 67q4 9 17.5 39t19.5 47q67 168 115 260q2 6 30.5 48.5t30.5 49.5q5 0 16.5 1.5t14.5 0.5q70 -4 109 -8q11 0 -21 -64q-8 -17 -10 -22l-41 -123q-13 -55 -57 -121q-21 -36 -29 -61q-11 -43 -58 -160t-57 -180 q-3 -17 -14 -51.5t-20.5 -65t-16 -61t-1 -48.5t25.5 -18q2 -2 8 -8.5t8.5 -10t5.5 -10.5t4 -14q5 -47 -67 -100q-6 -4 -20 -12t-19 -11q-51 -25 -98 -16q-42 6 -43 6q-43 3 -46 31q-7 45 -2 79q13 47 13 74t-8 34.5t-28 0.5t-38.5 -20t-46.5 -35q-59 -50 -135 -94 q-120 -68 -232 -46q-76 12 -104 101q-22 85 10 205q8 33 21.5 97t21.5 97q12 40 29 106.5t31.5 112.5t39.5 107q4 9 43 119l21 73q8 11 31 15l67 12q48 4 78 -6q15 -7 47.5 -17.5t46.5 -17.5q73 -36 43 -137q-12 -32 -28.5 -67t-28.5 -75q-7 -18 -17 -52t-12 -40 q-7 -26 -26 -84.5t-27 -89.5q-10 -30 -16 -57q-4 -24 -12.5 -50t-23.5 -62.5t-20 -51.5q-66 -192 131 -19q45 39 126 119q33 33 42 41zM612 1145q0 4 2 4q7 7 7 16q-3 8 6 17q16 28 24 35q4 4 13 22q0 1 6 23q3 20 12 41l25 38q11 15 31.5 20t35.5 -5q4 -2 12 -10q0 2 3 -1 q2 -1 2 -2q1 -3 6.5 -8.5l7.5 -7.5q5 -2 2 -10q-11 -8 -21 -25q-38 -45 -71 -75q-52 -48 -94 -70q-5 0 -9 -2z" />
<glyph unicode="&#xdb;" horiz-adv-x="1064" d="M569 399q15 15 38.5 43t33.5 39q7 7 29 55.5t46 105.5t29 67q4 9 17.5 39t19.5 47q67 168 115 260q2 6 30.5 48.5t30.5 49.5q5 0 16.5 1.5t14.5 0.5q70 -4 109 -8q11 0 -21 -64q-8 -17 -10 -22l-41 -123q-13 -55 -57 -121q-21 -36 -29 -61q-11 -43 -58 -160t-57 -180 q-3 -17 -14 -51.5t-20.5 -65t-16 -61t-1 -48.5t25.5 -18q2 -2 8 -8.5t8.5 -10t5.5 -10.5t4 -14q5 -47 -67 -100q-6 -4 -20 -12t-19 -11q-51 -25 -98 -16q-42 6 -43 6q-43 3 -46 31q-7 45 -2 79q13 47 13 74t-8 34.5t-28 0.5t-38.5 -20t-46.5 -35q-59 -50 -135 -94 q-120 -68 -232 -46q-76 12 -104 101q-22 85 10 205q8 33 21.5 97t21.5 97q12 40 29 106.5t31.5 112.5t39.5 107q4 9 43 119l21 73q8 11 31 15l67 12q48 4 78 -6q15 -7 47.5 -17.5t46.5 -17.5q73 -36 43 -137q-12 -32 -28.5 -67t-28.5 -75q-7 -18 -17 -52t-12 -40 q-7 -26 -26 -84.5t-27 -89.5q-10 -30 -16 -57q-4 -24 -12.5 -50t-23.5 -62.5t-20 -51.5q-66 -192 131 -19q45 39 126 119q33 33 42 41zM782 1167q-7 0 -18 11q-2 3 -10.5 19.5t-12.5 25.5q-3 7 -7 24t-7 25q0 6 -4 14q-5 -7 -16 -14q-55 -47 -72 -60q-7 -5 -21 -11t-16 -7 q-36 -8 -55 -25q-5 2 -13 7t-12 6q-9 6 -6 14q7 22 14 33l27 35q9 9 30 32.5t37.5 40.5t34.5 33h2q14 14 15 14q6 1 14.5 -0.5t9.5 -1.5q2 0 6 -4q27 -2 46 -32q18 -25 28 -72q11 -38 21 -62q0 -2 4 -18q0 -2 -4 -10q-3 -2 -8 -8.5t-7 -8.5z" />
<glyph unicode="&#xdc;" horiz-adv-x="1064" d="M569 399q15 15 38.5 43t33.5 39q7 7 29 55.5t46 105.5t29 67q4 9 17.5 39t19.5 47q67 168 115 260q2 6 30.5 48.5t30.5 49.5q5 0 16.5 1.5t14.5 0.5q70 -4 109 -8q11 0 -21 -64q-8 -17 -10 -22l-41 -123q-13 -55 -57 -121q-21 -36 -29 -61q-11 -43 -58 -160t-57 -180 q-3 -17 -14 -51.5t-20.5 -65t-16 -61t-1 -48.5t25.5 -18q2 -2 8 -8.5t8.5 -10t5.5 -10.5t4 -14q5 -47 -67 -100q-6 -4 -20 -12t-19 -11q-51 -25 -98 -16q-42 6 -43 6q-43 3 -46 31q-7 45 -2 79q13 47 13 74t-8 34.5t-28 0.5t-38.5 -20t-46.5 -35q-59 -50 -135 -94 q-120 -68 -232 -46q-76 12 -104 101q-22 85 10 205q8 33 21.5 97t21.5 97q12 40 29 106.5t31.5 112.5t39.5 107q4 9 43 119l21 73q8 11 31 15l67 12q48 4 78 -6q15 -7 47.5 -17.5t46.5 -17.5q73 -36 43 -137q-12 -32 -28.5 -67t-28.5 -75q-7 -18 -17 -52t-12 -40 q-7 -26 -26 -84.5t-27 -89.5q-10 -30 -16 -57q-4 -24 -12.5 -50t-23.5 -62.5t-20 -51.5q-66 -192 131 -19q45 39 126 119q33 33 42 41zM879 1315q0 -6 -2 -10q-2 -5 -11.5 -33.5t-17.5 -42.5q-7 -10 -14 -10q-29 -8 -41 0l-2 2q-17 0 -29 18q-10 17 -10 39q2 41 32 82 q6 6 9 2q50 -7 75 -29q11 -11 11 -18zM662 1315q0 -4 -3 -10t-11.5 -34.5t-16.5 -41.5q-7 -10 -15 -10q-29 -8 -41 0l-2 2q-16 0 -28 18q-10 17 -10 39q2 41 32 82q5 5 8 2q51 -8 76 -29q11 -11 11 -18z" />
<glyph unicode="&#xdd;" horiz-adv-x="1067" d="M874 799q2 0 6.5 -1t6.5 -1q-1 -6 -3 -31.5t-5.5 -43.5t-8.5 -32q-1 -4 -5 -12t-5 -11.5t-2.5 -11.5t0.5 -12q2 -9 -12 -45q3 -1 8.5 -1t9.5 -1q-1 -6 -16 -57q-12 -32 -10 -47q0 -8 -12.5 -24.5t-14.5 -21.5l-29 -49q-5 -10 -8 -28q10 -4 10.5 -32.5t-4.5 -41.5 q31 2 107 -19l-60 -38q-45 -30 -53 -37q-18 -16 -26 -47q-1 -3 -1.5 -9t-1.5 -8q-12 -12 -16.5 -37t-13.5 -37q-2 -2 -2 -8l-6 -55l16 -4l-27 -19q-12 -24 -16 -36q-3 -12 -9 -23.5t-18 -28t-16 -22.5l-12 -12q-56 -35 -90 -41q-9 -2 -56 -23q-76 -27 -121 -47 q-18 -9 -63 -27q-37 -11 -76 -8q3 2 5.5 4.5t6.5 7t7 7.5l-33 -4q-49 -13 -82 -11q-18 2 -50 2.5t-42 1.5q-8 0 -23 3.5t-16 3.5t-7 3t-10 3q-31 -2 -61 37q-35 49 -53 79q-5 6 0.5 22t17.5 26q33 30 68 38q60 18 78 19q53 8 157 55l242 105q23 11 29 17t10 28q3 23 16 84v4 q0 26 14 59.5t17 52.5l25 146q0 6 -5 8l-8 -39q-1 12 1.5 27t5.5 25.5t8.5 29.5t7.5 27q-4 0 -4 2q-16 -22 -17 -25q-8 -22 -33 -46t-34 -38q-24 -40 -15 -63q4 -4 0 -15q-6 -10 -22 -30q-10 -16 -22 -28t-30 -21.5t-28 -13.5t-33 -13q-25 -8 -55 -15q-147 -38 -191 72 q-9 23 -23 36.5t-18 26t0 46.5q5 36 8.5 66.5t5 43.5t7 39.5t18.5 69.5q28 78 24 93q-6 23 -69 -17q-7 -2 -14.5 -6.5t-12 -8.5t-12 -11t-10.5 -9q-11 -15 -22 -23q-4 -2 -17 -2q-4 4 2 15q13 16 27 45.5t18 35.5q5 8 24.5 39t28 44.5t25 36t31.5 40.5l37 47l37 33 q15 12 24 27q15 18 37 24q145 34 225 -55q40 -42 15 -137q-3 -11 -31 -125q-17 -65 -18 -68q-16 -37 -11 -41t-6 -43q-47 -155 -6 -137q55 24 229 306q113 184 142 251q10 32 30 70l52 104q21 42 24 51q5 13 23 17q22 1 25 6q1 2 7 -1q7 -4 13 -7q12 -5 16.5 -8.5t3.5 -6.5 t1.5 -9.5t9.5 -14.5q12 -9 6.5 -30t-16 -39.5t-24 -43.5t-16.5 -41q-20 -103 -24 -143q-3 -18 -6 -64t-7 -69zM115 -215l-23 -8q33 -16 92 10q20 8 82 45q60 25 111 96q44 63 31 88q-18 31 -123 -43q-109 -50 -193 -63l-37 -10q-39 -9 -26 -39l30 -54q7 -14 23 -12 q4 0 9 -1.5t12 -4.5t12 -4zM549 1229q0 4 2 4q6 6 6 16q-3 8 6 17q13 22 25 34q1 1 12 23q0 1 6 23q3 18 12 40l25 39q11 15 32 20t36 -5q4 -2 12 -10q1 2 4 -3q1 -3 6.5 -8.5l7.5 -7.5q5 -2 2 -10q-9 -7 -20 -25q-38 -45 -72 -76q-50 -46 -94 -69q-4 0 -8 -2zM545 428 q-25 -55 -10 -82l10 80q14 60 33 125l30 123q-8 -3 -8 -8q-5 -19 -25.5 -91.5t-29.5 -111.5q0 -2 -3 -11.5t-2.5 -14.5t5.5 -9zM530 324q-3 -16 -12.5 -55.5t-14.5 -68.5t-7 -55q2 9 12 43.5t13.5 49.5t6.5 40.5t2 45.5zM449 35h-5l-8 -21q3 5 7.5 12t5.5 9z" />
<glyph unicode="&#xde;" horiz-adv-x="1138" d="M1040 588q15 -102 -30 -176q-36 -68 -109 -107q-7 -3 -27 -13l-29 -14.5t-27 -12.5t-29.5 -12t-27.5 -8t-30 -5q-25 -3 -93 -2.5t-95 4.5h-19q-96 -6 -180 28q-26 9 -53 29q-2 -4 -2 -8q-7 -22 -8.5 -31.5t-1 -17.5t-11 -60t-35.5 -145q-4 -42 -20 -77.5t-39 -59.5 t-39.5 -37.5t-32.5 -22.5l-12 -7q1 0 4 1q8 1 6.5 -0.5t-10.5 -7.5q-6 -3 -29 -16t-36 -19q-20 -8 -66 -20q-4 0 -6 2q-37 25 -41 28q-5 3 -14 27q-1 6 -5.5 19t-5.5 20v35q5 30 2 37q-2 8 4 16.5t17 9.5q26 21 35.5 32.5t22.5 45t30 104.5q6 21 26 96t33 117q47 163 88 287 q18 53 63 212t64 212l33 80q9 16 15.5 20.5t19.5 4.5q12 0 45 31.5t45 31.5q57 -6 66 -61q5 -24 -2 -60q-5 -41 -68 -293q1 0 3 1t3 1q25 10 29 9q69 12 129 12q99 0 127 -8q3 0 10 1t12 1q7 0 24 -1t28 -1q6 -1 18 -3.5t19 -4t18 -5.5t20 -10q52 -19 74 -35q3 -5 11 -9.5 t10 -8.5q34 -21 55 -82q5 -15 24 -94zM371 530q26 -16 51 -16q10 -8 35 -8q4 -1 31.5 -6t41.5 -6q5 -1 70.5 -4t75.5 -5q93 -4 143 23q11 8 34.5 18t29.5 13q29 11 45 43q3 6 12 20t14 26t7 27q0 2 -0.5 7.5t-0.5 7t-0.5 5.5t-1.5 5.5t-2 4t-2 4t-3 3.5t-5 4q-28 22 -55 31 q-60 25 -90 27q-10 1 -29.5 1t-28.5 1q-85 13 -145 10q-83 0 -133 -12l-59 -13l-50 -206q2 0 7 -2.5t8 -2.5z" />
<glyph unicode="&#xdf;" horiz-adv-x="1077" d="M260 694q68 121 162 226q65 72 92 95q152 132 379 99q26 -7 40.5 -12t32 -12.5t25.5 -15t16.5 -19t11 -26t2 -34t-4.5 -45.5q-6 -41 -43 -88l-23 -37q-26 -40 -61 -61l-27 -16q-18 -13 -47 -29l-98 -49q-18 -4 -25 -8l-33 -13q0 -4 -2 -6q5 -1 14 -1t13 -1q-4 0 -14.5 -3 t-14.5 -3l-2 -2l11 -6q-5 -5 -17 -9q2 -4 2 -6q4 -1 18 -4t21 -6q15 -4 47 -13t49 -14q3 -1 8.5 -5t8.5 -5q6 -2 17.5 -3t15.5 -3q3 -2 5 -6t4 -9.5t3 -8.5q6 -12 25.5 -39.5t27.5 -44.5q28 -69 10 -123q-3 -9 -18 -39q-2 -4 -8 -13t-10 -16.5t-7 -15.5q-26 -30 -32 -58 q-1 -2 -13 -14q-9 -13 -20.5 -23.5t-33 -26.5t-26.5 -20h-8q-9 -5 -41 -16q8 -6 6 -10l-2 -2l-14 -8q-22 -24 -66 -35q-13 -5 -53.5 -17t-62.5 -22q-10 -3 -31 -6t-27 -4q-4 0 -24 -5q-10 -4 -56 -14q-10 -5 -22 -8l-4 -4q4 0 8 -2q-13 -11 -22 -2q-5 10 -23 10l-49 31 q1 0 2 14.5t9 38t25 49t58.5 51.5t101.5 41q45 2 125 27l185 49q38 14 32 43q0 3 -0.5 14.5t-1.5 16.5t-3 14t-5.5 14.5t-9.5 10.5q0 1 -1 3t-1 3q0 7 -3 14.5t-5 11.5t-8.5 10.5l-8 8t-10.5 9t-10 7.5q-1 2 -5 2t-9.5 -0.5t-10.5 0.5h-14q-50 -3 -84 2q-46 8 -73.5 26 t-36 45.5t-8.5 51t5 60.5q42 14 71.5 31t66.5 32q44 19 137 73.5t139 86.5q25 15 31.5 35.5t-10.5 29.5q-2 2 -4.5 6t-4.5 5q-36 21 -49 22q-38 13 -104 0q-3 0 -8 -1t-7 -1q-22 16 -65 -2q-1 -3 -4 -3.5t-4 1.5q-3 2 -25 -13.5t-46.5 -34t-27.5 -20.5q-18 -11 -47 -44 t-58 -70t-36 -45q-27 -28 -74 -113.5t-59 -103.5l-45 -101q-11 -25 -23 -48t-28.5 -53t-28.5 -52q-6 -16 -23 -78t-32 -94l-41 -123q-4 -12 -18.5 -32.5t-18.5 -29.5v-12q-8 -14 -23.5 -25t-27.5 -10q-2 0 -14 1.5t-19 0.5q-1 0 -5.5 0.5t-6.5 1l-6 1.5t-6 2t-4.5 2.5 t-3.5 4t-1 5.5q1 4 0.5 11t1.5 23q3 25 16 64t22.5 64.5t8.5 25.5q53 146 84 225.5t85.5 196.5t119.5 227zM150 236l106 219l-20 -17l-80 -174l-9 -28h3zM809 393q-12 -17 0 -69q1 -2 3 -3.5t5.5 -4.5t5.5 -5q7 21 2 46t-16 36zM428 4q-17 0 -41 -12q25 -6 41 12zM522 29 q-2 -2 -2 -6q1 0 10.5 2t14.5 4q2 2 2 6q-4 -2 -8 -3t-9 -1.5t-8 -1.5zM489 2q12 -3 16.5 -1.5t16.5 11.5q-26 -8 -33 -10z" />
<glyph unicode="&#xe0;" d="M727 477l6 4q17 -3 35 -20q-2 -11 -14 -38.5t-19 -33.5q-3 -1 -6.5 -5t-5.5 -5l-23 -27q-11 -11 -12 -14q-8 -15 -24 -25q-9 -5 -11 -8q-7 -8 -22 -21.5t-19 -17.5q-16 -13 -39 -20q-5 -1 -23.5 -4t-27.5 -6q-8 -4 -26 -7t-21 -4h-18q-56 18 -70 29l-10 6q-34 15 -49 35 q-27 -13 -43 -27l-23 -14l-4 -2q-4 -6 -10.5 -10t-10 -6t-13 -5t-11.5 -4q-47 -13 -84 6q-13 8 -31 15q-89 38 -98 133q-6 47 16 92q24 46 50 76q0 2 4 6q29 45 90 117q35 38 78 63q8 4 18 4q24 4 39 4h6q7 -3 22.5 -6t20.5 -4q8 -4 12 -4q20 -4 23 -10l4 -2q5 0 14.5 -5 t14.5 -5t10 -5q4 -4 12 -11t13.5 -13t9.5 -12l6 -17q6 -27 -19 -41q-17 -8 -51 -33v-2q-7 -7 -22 -20.5t-26 -25t-19 -23.5l-25 -27q-17 -19 -49 -65l-21 -29q-4 -4 -8 -12q-18 -35 -24 -68v-8l8 6q38 38 67 59q21 18 31 35l17 19q22 25 34 45l43 69q30 3 45 -14l13 -12 q14 -18 18 -60q0 -2 -4 -10l-29 -57q-9 -21 -6 -43q6 -26 19 -51q7 -11 18 -11q26 4 43 11q36 18 39 20l45 27l33 28q14 14 47.5 61t46.5 60zM477 815q-4 2 -8 2q-42 22 -94 70q-34 31 -72 76q-10 16 -20 24q-3 8 2 10q1 2 7 8t7 9t4 2q8 8 12 10q15 10 36 5.5t32 -19.5 l25 -39q9 -21 12 -41q6 -22 6 -23q10 -20 12 -22q10 -10 25 -35q9 -9 6 -16q0 -11 6 -17q2 0 2 -4z" />
<glyph unicode="&#xe1;" d="M727 477l6 4q17 -3 35 -20q-2 -11 -14 -38.5t-19 -33.5q-3 -1 -6.5 -5t-5.5 -5l-23 -27q-11 -11 -12 -14q-8 -15 -24 -25q-9 -5 -11 -8q-7 -8 -22 -21.5t-19 -17.5q-16 -13 -39 -20q-5 -1 -23.5 -4t-27.5 -6q-8 -4 -26 -7t-21 -4h-18q-56 18 -70 29l-10 6q-34 15 -49 35 q-27 -13 -43 -27l-23 -14l-4 -2q-4 -6 -10.5 -10t-10 -6t-13 -5t-11.5 -4q-47 -13 -84 6q-13 8 -31 15q-89 38 -98 133q-6 47 16 92q24 46 50 76q0 2 4 6q29 45 90 117q35 38 78 63q8 4 18 4q24 4 39 4h6q7 -3 22.5 -6t20.5 -4q8 -4 12 -4q20 -4 23 -10l4 -2q5 0 14.5 -5 t14.5 -5t10 -5q4 -4 12 -11t13.5 -13t9.5 -12l6 -17q6 -27 -19 -41q-17 -8 -51 -33v-2q-7 -7 -22 -20.5t-26 -25t-19 -23.5l-25 -27q-17 -19 -49 -65l-21 -29q-4 -4 -8 -12q-18 -35 -24 -68v-8l8 6q38 38 67 59q21 18 31 35l17 19q22 25 34 45l43 69q30 3 45 -14l13 -12 q14 -18 18 -60q0 -2 -4 -10l-29 -57q-9 -21 -6 -43q6 -26 19 -51q7 -11 18 -11q26 4 43 11q36 18 39 20l45 27l33 28q14 14 47.5 61t46.5 60zM346 815q0 4 2 4q6 6 6 17q-2 7 6 16q15 25 25 35q2 2 12 22q0 1 6 23q2 16 13 41l24 39q11 15 32 19.5t36 -5.5q4 -2 12 -10 q1 2 4 -2q1 -3 7 -9l8 -8q5 -2 2 -10q-12 -9 -21 -24q-42 -49 -71 -76q-51 -47 -95 -70q-4 0 -8 -2z" />
<glyph unicode="&#xe2;" d="M727 477l6 4q17 -3 35 -20q-2 -11 -14 -38.5t-19 -33.5q-3 -1 -6.5 -5t-5.5 -5l-23 -27q-11 -11 -12 -14q-8 -15 -24 -25q-9 -5 -11 -8q-7 -8 -22 -21.5t-19 -17.5q-16 -13 -39 -20q-5 -1 -23.5 -4t-27.5 -6q-8 -4 -26 -7t-21 -4h-18q-56 18 -70 29l-10 6q-34 15 -49 35 q-27 -13 -43 -27l-23 -14l-4 -2q-4 -6 -10.5 -10t-10 -6t-13 -5t-11.5 -4q-47 -13 -84 6q-13 8 -31 15q-89 38 -98 133q-6 47 16 92q24 46 50 76q0 2 4 6q29 45 90 117q35 38 78 63q8 4 18 4q24 4 39 4h6q7 -3 22.5 -6t20.5 -4q8 -4 12 -4q20 -4 23 -10l4 -2q5 0 14.5 -5 t14.5 -5t10 -5q4 -4 12 -11t13.5 -13t9.5 -12l6 -17q6 -27 -19 -41q-17 -8 -51 -33v-2q-7 -7 -22 -20.5t-26 -25t-19 -23.5l-25 -27q-17 -19 -49 -65l-21 -29q-4 -4 -8 -12q-18 -35 -24 -68v-8l8 6q38 38 67 59q21 18 31 35l17 19q22 25 34 45l43 69q30 3 45 -14l13 -12 q14 -18 18 -60q0 -2 -4 -10l-29 -57q-9 -21 -6 -43q6 -26 19 -51q7 -11 18 -11q26 4 43 11q36 18 39 20l45 27l33 28q14 14 47.5 61t46.5 60zM512 872q-7 0 -18 11q-2 3 -10.5 19.5t-12.5 25.5q-3 7 -7 24t-7 25q0 6 -4 14q-4 -5 -17 -14q-53 -46 -71 -59q-3 -2 -37 -19 q-37 -8 -56 -25q-5 2 -12.5 7t-11.5 6q-9 6 -6 14q7 22 14 33l27 35q9 9 30 32.5t37.5 40.5t34.5 33h2q2 2 5 6t5 6.5t4 2.5q6 1 15 -1t10 -2q2 0 6 -4q26 -2 45 -32q19 -27 29 -72q13 -44 20 -61q0 -3 4 -19q0 -2 -4 -10q-3 -2 -7.5 -8.5t-6.5 -8.5z" />
<glyph unicode="&#xe3;" d="M727 477l6 4q17 -3 35 -20q-2 -11 -14 -38.5t-19 -33.5q-3 -1 -6.5 -5t-5.5 -5l-23 -27q-11 -11 -12 -14q-8 -15 -24 -25q-9 -5 -11 -8q-7 -8 -22 -21.5t-19 -17.5q-16 -13 -39 -20q-5 -1 -23.5 -4t-27.5 -6q-8 -4 -26 -7t-21 -4h-18q-56 18 -70 29l-10 6q-34 15 -49 35 q-27 -13 -43 -27l-23 -14l-4 -2q-4 -6 -10.5 -10t-10 -6t-13 -5t-11.5 -4q-47 -13 -84 6q-13 8 -31 15q-89 38 -98 133q-6 47 16 92q24 46 50 76q0 2 4 6q29 45 90 117q35 38 78 63q8 4 18 4q24 4 39 4h6q7 -3 22.5 -6t20.5 -4q8 -4 12 -4q20 -4 23 -10l4 -2q5 0 14.5 -5 t14.5 -5t10 -5q4 -4 12 -11t13.5 -13t9.5 -12l6 -17q6 -27 -19 -41q-17 -8 -51 -33v-2q-7 -7 -22 -20.5t-26 -25t-19 -23.5l-25 -27q-17 -19 -49 -65l-21 -29q-4 -4 -8 -12q-18 -35 -24 -68v-8l8 6q38 38 67 59q21 18 31 35l17 19q22 25 34 45l43 69q30 3 45 -14l13 -12 q14 -18 18 -60q0 -2 -4 -10l-29 -57q-9 -21 -6 -43q6 -26 19 -51q7 -11 18 -11q26 4 43 11q36 18 39 20l45 27l33 28q14 14 47.5 61t46.5 60zM205 934l-15 -8q0 1 -1.5 2t-5.5 3.5t-7 8.5q-7 24 10 41q20 17 43 27q27 0 41 2q7 0 11 -2q10 0 26 -4q1 -1 4.5 -1t5.5 -2 q5 0 9 -2q8 0 20 -4q6 -3 16 -6t13 -4l4 -2l14 -4q1 0 8 -2t11 -2q27 -11 34 -12l21 -7h2q7 3 19.5 5t17.5 4l4 2q14 3 14 8q4 12 4 20l-2 4h11q1 -3 4.5 -6t5 -6.5t0.5 -7.5l-2 -16q-11 -16 -19 -19l-22 -14q-10 -6 -47 -10q-31 -6 -66 0q-11 1 -80 22l-55 14q-25 5 -31 5 l-18 -7q-7 -11 -4 -16zM496 932q0 2 -2 2l-33 -8q-9 0 -29 -4q-7 -4 -10 2l-2 2l-51 8q-2 -2 -4 0v-4l8 -2q30 -4 43 -8h33l32 6q9 0 15 6z" />
<glyph unicode="&#xe4;" d="M727 477l6 4q17 -3 35 -20q-2 -11 -14 -38.5t-19 -33.5q-3 -1 -6.5 -5t-5.5 -5l-23 -27q-11 -11 -12 -14q-8 -15 -24 -25q-9 -5 -11 -8q-7 -8 -22 -21.5t-19 -17.5q-16 -13 -39 -20q-5 -1 -23.5 -4t-27.5 -6q-8 -4 -26 -7t-21 -4h-18q-56 18 -70 29l-10 6q-34 15 -49 35 q-27 -13 -43 -27l-23 -14l-4 -2q-4 -6 -10.5 -10t-10 -6t-13 -5t-11.5 -4q-47 -13 -84 6q-13 8 -31 15q-89 38 -98 133q-6 47 16 92q24 46 50 76q0 2 4 6q29 45 90 117q35 38 78 63q8 4 18 4q24 4 39 4h6q7 -3 22.5 -6t20.5 -4q8 -4 12 -4q20 -4 23 -10l4 -2q5 0 14.5 -5 t14.5 -5t10 -5q4 -4 12 -11t13.5 -13t9.5 -12l6 -17q6 -27 -19 -41q-17 -8 -51 -33v-2q-7 -7 -22 -20.5t-26 -25t-19 -23.5l-25 -27q-17 -19 -49 -65l-21 -29q-4 -4 -8 -12q-18 -35 -24 -68v-8l8 6q38 38 67 59q21 18 31 35l17 19q22 25 34 45l43 69q30 3 45 -14l13 -12 q14 -18 18 -60q0 -2 -4 -10l-29 -57q-9 -21 -6 -43q6 -26 19 -51q7 -11 18 -11q26 4 43 11q36 18 39 20l45 27l33 28q14 14 47.5 61t46.5 60zM559 1006q0 -7 -2 -11q-1 -4 -11 -32.5t-18 -42.5q-7 -11 -14 -11q-29 -8 -41 0l-2 2q-16 0 -29 19q-10 17 -10 39q2 39 33 82 q5 5 8 2q51 -8 76 -29q10 -10 10 -18zM342 1006q0 -7 -2 -11t-11.5 -32.5t-17.5 -42.5q-7 -11 -14 -11q-29 -8 -41 0l-2 2q-16 0 -29 19q-10 17 -10 39q2 39 33 82q5 5 8 2q51 -8 76 -29q10 -10 10 -18z" />
<glyph unicode="&#xe5;" d="M727 477l6 4q17 -3 35 -20q-2 -11 -14 -38.5t-19 -33.5q-3 -1 -6.5 -5t-5.5 -5l-23 -27q-11 -11 -12 -14q-8 -15 -24 -25q-9 -5 -11 -8q-7 -8 -22 -21.5t-19 -17.5q-16 -13 -39 -20q-5 -1 -23.5 -4t-27.5 -6q-8 -4 -26 -7t-21 -4h-18q-56 18 -70 29l-10 6q-34 15 -49 35 q-27 -13 -43 -27l-23 -14l-4 -2q-4 -6 -10.5 -10t-10 -6t-13 -5t-11.5 -4q-47 -13 -84 6q-13 8 -31 15q-89 38 -98 133q-6 47 16 92q24 46 50 76q0 2 4 6q29 45 90 117q35 38 78 63q8 4 18 4q24 4 39 4h6q7 -3 22.5 -6t20.5 -4q8 -4 12 -4q20 -4 23 -10l4 -2q5 0 14.5 -5 t14.5 -5t10 -5q4 -4 12 -11t13.5 -13t9.5 -12l6 -17q6 -27 -19 -41q-17 -8 -51 -33v-2q-7 -7 -22 -20.5t-26 -25t-19 -23.5l-25 -27q-17 -19 -49 -65l-21 -29q-4 -4 -8 -12q-18 -35 -24 -68v-8l8 6q38 38 67 59q21 18 31 35l17 19q22 25 34 45l43 69q30 3 45 -14l13 -12 q14 -18 18 -60q0 -2 -4 -10l-29 -57q-9 -21 -6 -43q6 -26 19 -51q7 -11 18 -11q26 4 43 11q36 18 39 20l45 27l33 28q14 14 47.5 61t46.5 60zM506 1012q0 -9 -4 -17q-6 -16 -14.5 -46t-17.5 -53t-21 -40q-13 -20 -25 -20q-5 -1 -15.5 -4t-16 -4t-14 -1.5t-16.5 2t-16 7.5 l-2 4q-30 0 -51 34q-21 32 -21 72q5 74 60 152q13 4 14 2q37 -6 52.5 -9t42 -14.5t44.5 -29.5q21 -21 21 -35zM315 952q-4 -4 -4 -12q10 -21 43 -49q2 0 8 -2q38 21 50 45q9 23 10 27q-3 21 -16 24q-2 5 -6 8t-6 3.5t-8.5 1.5t-8.5 1q-3 5 -10 0q-10 -6 -25 -19t-25 -19 q0 -3 -2 -9z" />
<glyph unicode="&#xe6;" horiz-adv-x="1069" d="M412 338l-78 -66q-3 -1 -45 -22l-23 -14l-4 -3q-5 -5 -11.5 -8.5t-10 -5t-13 -4.5t-12.5 -4q-6 -1 -26 -7t-24 -5t-26 4q-7 3 -33 8q-94 25 -118 117q-11 43 2 94q23 63 37 82q0 2 4 6q18 46 69 129q27 43 68 76q2 3 16 8l39 8l6 2q7 -3 23.5 -3t19.5 -1h15q21 -4 22 -6 l4 -4q5 1 15 -2.5t14 -1.5q10 0 12 -2l41 -31l8 -16q9 -27 -12 -43q-1 -1 -47 -41l2 -2q-3 -5 -25 -34t-30 -46l-19 -29q-21 -29 -41 -74l-14 -30q-1 -1 -8 -15q-12 -38 -12 -69q-1 -1 2 -11l6 9q18 28 78 59q23 19 32 35l19 14l37 45l43 58q0 7 2 13t6.5 15t5.5 12 q26 61 57 105q35 52 76 94q48 51 92 78l21 10q19 8 26 -4q3 -3 10 -4.5t9 -3.5q3 -2 7 -8.5t5 -7.5q11 -5 26 -21.5t23 -21.5q7 -4 15 -21q3 -5 7.5 -14t7.5 -14.5t7.5 -12t9.5 -10.5q4 -4 9 -19q7 -42 0 -73q-5 -33 -31 -80q-20 -35 -23 -43q-3 -12 -20 -41 q-12 -24 -37 -31q-19 -9 -39 -6q-2 1 -4.5 1t-4.5 0.5t-4 2t-3 4.5l-2 2q-9 -1 -23 10.5t-16 12.5q-4 4 -4 10q2 5 -2 18q-22 44 -27 52q-4 12 -14 2q-1 -4 -6 -14t-5 -17q0 -6 -8 -10q-6 -6 -6 -11q-2 -9 -10 -12q-4 -2 -6 -16q6 0 8 -2v-2h-14q2 6 2 16h-5l-6 -43 q8 -4 9 -4q2 -14 2 -41q0 -17 8 -37q3 -4 14 -30.5t14 -30.5q53 -53 77 -63q11 -4 20 -5q15 -3 80 10q68 20 141 76q20 16 55.5 46.5t46.5 39.5l6 6l37 41q42 42 62 72q13 21 24 25q-8 -36 -16 -52q-3 -9 -10 -16q-23 -27 -31 -43l-21 -25l-8 -12l17 6q-1 -6 -7.5 -12.5 t-7.5 -11.5l2 -3q2 -3 4 -4q-6 -10 -20 -24q-19 -16 -35 -35q-19 -21 -59 -53q-28 -22 -29 -23l-24 -16q-22 -11 -37 -21q-34 -20 -66 -26l-18 -6q-38 -12 -74 -15q-10 -1 -30.5 4t-36.5 11t-40.5 15.5t-27.5 10.5q-32 13 -47 25.5t-24.5 28.5t-20.5 26q-19 16 -29 43 q-10 24 -14 74zM692 643q-8 -6 -16.5 -14.5t-13.5 -15t-14 -18.5t-13 -17l-14 -23q-12 -21 4 -31t18 -14q12 -14 45 -10q18 5 33 32q6 16 17.5 36.5t17.5 39.5q16 39 5 49.5t-31.5 5t-37.5 -19.5zM449 285l-5 -2l7 -17q0 -1 2.5 -8t-0.5 -10l-4 4q-11 23 -19 74v6v22l-10 -8 q0 -58 20 -94q1 -1 17 -23q5 -5 14 -8h6q-13 22 -16 29q-3 6 -6 18t-6 17zM440 500l15 32q6 12 4 31q-17 -10 -21 -22q-17 -39 -18 -41h20zM440 319l4 -4l5 56l-13 -11q0 -17 4 -41z" />
<glyph unicode="&#xe7;" horiz-adv-x="653" d="M27 -176q19 1 33.5 1h18.5t7 1q36 2 74 24q9 5 22.5 14.5t18.5 12.5q2 1 4 3.5t4 2.5l10 13l14 10q0 1 7 8q3 11 -9 14q-1 3 -11 0.5t-11 -2.5q-4 0 -14 1.5t-15 0.5q-7 0 -17.5 -1t-17.5 -1l-12 -2q-6 2 -18 2q-7 0 -17 9.5t-12 17.5l-4 18v35q7 36 18 72l4 14l-4 2 q-41 17 -80 45q-56 45 -65 133q-6 52 0 105q3 32 12 61l17 43q6 20 15.5 40t24 45.5t19.5 35.5l16 25q26 41 54 63q8 7 33 29.5t40 32.5q20 14 43 14q7 0 19 4q26 13 47 10q2 -2 2 0q35 3 68 -20q1 0 3 -1t3 -1q4 0 6 2q9 6 16 2q11 -10 8 -23q-5 -12 2 -26q1 -1 1.5 -4 t1.5 -4l-13 -19q4 -26 8 -37q7 -32 7 -57q0 -21 -2 -31q-9 -44 -35 -104q-9 -22 -27 -25q-2 0 -6 -1t-6 -1q-9 0 -13 4q-10 10 -36 23l-7 4q-11 7 -8 20l6 29q24 84 39 119q0 6 2 12l-8 -6q-5 -12 -13.5 -24t-19.5 -25t-16 -21q-29 -42 -43 -73l-49 -103q-19 -37 -37 -100 q-1 -2 -6 -33q-3 -22 6 -43l18 -41q3 -7 17 -25q10 -5 21 -3t31.5 8t23.5 6q35 5 93.5 31t86.5 51q2 2 50.5 41t64.5 57l30 37q9 12 47 45t47 47q5 7 27 23.5t27 23.5q2 3 3 -3q4 -19 7 -19q-3 -13 -19 -42t-26 -40l-37 -52q-25 -36 -37 -63q0 -6 -2 -6q-39 -56 -41 -58 l-65 -69q-38 -33 -70 -51q-84 -48 -104 -48q-6 -1 -52.5 1.5t-52.5 -1.5q-12 -3 -59 9v-2q-4 -8 -8 -17t-7 -14.5t-5.5 -11t-4 -9t-2 -7t1 -5.5t4.5 -4t7.5 -3.5t11.5 -2.5l28 -6q27 -5 50.5 -10.5t25.5 -8.5q8 -12 10 -18q7 -11 4 -21q0 -24 -6 -45q-8 -20 -16 -26 q-3 -3 -2.5 -4t-3.5 -4q0 -3 -3 -6t-5 -3l-13 -6l-10 -10q-4 -4 -8 -12q-6 -11 -12 -13q-3 0 -5 -2q-4 -4 -6 -4l-18 -12q-2 -2 -8 -5.5t-8 -4.5q-1 0 -9 -4q-5 -2 -18 -8t-19 -9q-3 0 -8 -1t-8 -1q-7 -3 -31.5 16.5t-27.5 30.5q-2 6 -2 25z" />
<glyph unicode="&#xe8;" horiz-adv-x="634" d="M147 498q-1 -4 -5.5 -14t-4.5 -17q0 -6 -8 -10q-6 -6 -6 -11q-2 -9 -10 -12q-5 -2 -7 -16q7 0 9 -2v-2h-15q2 6 2 16h-4l-6 -43l8 -4q2 -14 2 -41q0 -14 9 -37q3 -4 14 -30.5t14 -30.5q53 -53 77 -63q11 -4 20 -5q14 -3 79 10q70 20 142 76q20 16 55.5 46.5t46.5 39.5 l6 6l37 41q42 42 62 72q13 21 24 25q-8 -36 -16 -52q-3 -9 -10 -16q-23 -27 -31 -43l-21 -25l-8 -12l16 6q-1 -6 -7 -12.5t-7 -11.5l2 -3q2 -3 4 -4q-6 -10 -20 -24q-19 -16 -35 -35q-19 -21 -59 -53q-28 -22 -29 -23l-25 -16q-18 -9 -36 -21q-34 -20 -66 -26l-18 -6 q-38 -12 -74 -15q-10 -1 -30.5 4t-36.5 11t-40.5 15.5t-27.5 10.5q-32 13 -47 25.5t-25 28.5t-21 26q-17 14 -28 43q-11 31 -15 86q0 91 43 182q7 14 5 31q-17 -10 -21 -22q-9 -27 -24 -54q0 12 14 45q26 61 57 105q34 52 76 94q48 51 92 78l21 10q19 8 26 -4q3 -3 10 -4.5 t9 -3.5q3 -2 7 -8.5t5 -7.5q11 -5 26 -21.5t23 -21.5q5 -4 14 -21q24 -43 33 -51q3 -3 8 -19q7 -42 0 -73q-5 -35 -30 -80q-20 -35 -23 -43q-3 -12 -20 -41q-12 -24 -37 -31q-19 -9 -39 -6q-2 1 -4.5 1t-4.5 0.5t-4 2t-3 4.5l-3 2q-9 -1 -22.5 10.5t-15.5 12.5q-5 5 -5 10 q2 5 -2 18q-3 5 -8 16t-9.5 20t-8.5 16q-2 5 -6 5.5t-9 -3.5zM430 848q-4 2 -8 2q-42 22 -94 70q-38 34 -72 75q-11 18 -20 25q-3 8 2 10q2 2 7.5 8t6.5 9t4 2q8 8 12 10q15 10 36 5t32 -20l24 -38q11 -25 13 -41q6 -22 6 -23q10 -20 12 -22q10 -10 25 -35q9 -9 6 -17 q0 -10 6 -16q2 0 2 -4zM258 643q-8 -6 -16.5 -14.5t-13.5 -15t-14 -18.5t-13 -17l-15 -23q-12 -21 4 -31q17 -12 19 -14q12 -14 45 -10q18 5 33 32q6 16 17.5 36.5t17.5 39.5q16 39 5 49.5t-31.5 5t-37.5 -19.5zM14 285l-4 -2l6 -17q0 -1 2.5 -8t-0.5 -10l-4 4 q-10 20 -18 74v6q0 59 8 90q4 12 4 18v15q-10 -19 -12 -29l-6 -29q-14 -90 16 -145q1 -1 17 -23q5 -5 14 -8h6q-13 22 -16 29q-3 6 -6.5 18t-6.5 17zM14 420q-4 -4 -4 -6q-11 -38 -4 -95l4 -4l6 64q4 29 -2 41z" />
<glyph unicode="&#xe9;" horiz-adv-x="634" d="M147 498q-1 -4 -5.5 -14t-4.5 -17q0 -6 -8 -10q-6 -6 -6 -11q-2 -9 -10 -12q-5 -2 -7 -16q7 0 9 -2v-2h-15q2 6 2 16h-4l-6 -43l8 -4q2 -14 2 -41q0 -14 9 -37q3 -4 14 -30.5t14 -30.5q53 -53 77 -63q11 -4 20 -5q14 -3 79 10q70 20 142 76q20 16 55.5 46.5t46.5 39.5 l6 6l37 41q42 42 62 72q13 21 24 25q-8 -36 -16 -52q-3 -9 -10 -16q-23 -27 -31 -43l-21 -25l-8 -12l16 6q-1 -6 -7 -12.5t-7 -11.5l2 -3q2 -3 4 -4q-6 -10 -20 -24q-19 -16 -35 -35q-19 -21 -59 -53q-28 -22 -29 -23l-25 -16q-18 -9 -36 -21q-34 -20 -66 -26l-18 -6 q-38 -12 -74 -15q-10 -1 -30.5 4t-36.5 11t-40.5 15.5t-27.5 10.5q-32 13 -47 25.5t-25 28.5t-21 26q-17 14 -28 43q-11 31 -15 86q0 91 43 182q7 14 5 31q-17 -10 -21 -22q-9 -27 -24 -54q0 12 14 45q26 61 57 105q34 52 76 94q48 51 92 78l21 10q19 8 26 -4q3 -3 10 -4.5 t9 -3.5q3 -2 7 -8.5t5 -7.5q11 -5 26 -21.5t23 -21.5q5 -4 14 -21q24 -43 33 -51q3 -3 8 -19q7 -42 0 -73q-5 -35 -30 -80q-20 -35 -23 -43q-3 -12 -20 -41q-12 -24 -37 -31q-19 -9 -39 -6q-2 1 -4.5 1t-4.5 0.5t-4 2t-3 4.5l-3 2q-9 -1 -22.5 10.5t-15.5 12.5q-5 5 -5 10 q2 5 -2 18q-3 5 -8 16t-9.5 20t-8.5 16q-2 5 -6 5.5t-9 -3.5zM346 815q0 4 2 4q6 6 6 17q-2 7 6 16q15 25 25 35q2 2 12 22q0 1 6 23q2 16 13 41l24 39q11 15 32 19.5t36 -5.5q4 -2 12 -10q1 2 4 -2q1 -3 7 -9l8 -8q5 -2 2 -10q-12 -9 -21 -24q-42 -49 -71 -76 q-51 -47 -95 -70q-4 0 -8 -2zM258 643q-8 -6 -16.5 -14.5t-13.5 -15t-14 -18.5t-13 -17l-15 -23q-12 -21 4 -31q17 -12 19 -14q12 -14 45 -10q18 5 33 32q6 16 17.5 36.5t17.5 39.5q16 39 5 49.5t-31.5 5t-37.5 -19.5zM14 285l-4 -2l6 -17q0 -1 2.5 -8t-0.5 -10l-4 4 q-10 20 -18 74v6q0 59 8 90q4 12 4 18v15q-10 -19 -12 -29l-6 -29q-14 -90 16 -145q1 -1 17 -23q5 -5 14 -8h6q-13 22 -16 29q-3 6 -6.5 18t-6.5 17zM14 420q-4 -4 -4 -6q-11 -38 -4 -95l4 -4l6 64q4 29 -2 41z" />
<glyph unicode="&#xea;" horiz-adv-x="634" d="M147 498q-1 -4 -5.5 -14t-4.5 -17q0 -6 -8 -10q-6 -6 -6 -11q-2 -9 -10 -12q-5 -2 -7 -16q7 0 9 -2v-2h-15q2 6 2 16h-4l-6 -43l8 -4q2 -14 2 -41q0 -14 9 -37q3 -4 14 -30.5t14 -30.5q53 -53 77 -63q11 -4 20 -5q14 -3 79 10q70 20 142 76q20 16 55.5 46.5t46.5 39.5 l6 6l37 41q42 42 62 72q13 21 24 25q-8 -36 -16 -52q-3 -9 -10 -16q-23 -27 -31 -43l-21 -25l-8 -12l16 6q-1 -6 -7 -12.5t-7 -11.5l2 -3q2 -3 4 -4q-6 -10 -20 -24q-19 -16 -35 -35q-19 -21 -59 -53q-28 -22 -29 -23l-25 -16q-18 -9 -36 -21q-34 -20 -66 -26l-18 -6 q-38 -12 -74 -15q-10 -1 -30.5 4t-36.5 11t-40.5 15.5t-27.5 10.5q-32 13 -47 25.5t-25 28.5t-21 26q-17 14 -28 43q-11 31 -15 86q0 91 43 182q7 14 5 31q-17 -10 -21 -22q-9 -27 -24 -54q0 12 14 45q26 61 57 105q34 52 76 94q48 51 92 78l21 10q19 8 26 -4q3 -3 10 -4.5 t9 -3.5q3 -2 7 -8.5t5 -7.5q11 -5 26 -21.5t23 -21.5q5 -4 14 -21q24 -43 33 -51q3 -3 8 -19q7 -42 0 -73q-5 -35 -30 -80q-20 -35 -23 -43q-3 -12 -20 -41q-12 -24 -37 -31q-19 -9 -39 -6q-2 1 -4.5 1t-4.5 0.5t-4 2t-3 4.5l-3 2q-9 -1 -22.5 10.5t-15.5 12.5q-5 5 -5 10 q2 5 -2 18q-3 5 -8 16t-9.5 20t-8.5 16q-2 5 -6 5.5t-9 -3.5zM463 891q-9 0 -19 10q-20 41 -22 45q-3 7 -7 24t-7 25q0 5 -5 15q-7 -9 -16 -15q-48 -42 -72 -59q-5 -4 -11 -7t-13.5 -6t-11.5 -5q-37 -8 -56 -25q-5 2 -12.5 6.5t-11.5 5.5q-9 6 -6 15q7 19 14 32l26 35 q89 95 103 107h2q2 2 5 6t5 6t4 2q6 1 15 -0.5t10 -1.5q2 0 6 -4q26 -2 45 -33q19 -27 29 -72q13 -44 20 -61q0 -2 4 -18q0 -3 -4 -11q-3 -2 -7.5 -8t-6.5 -8zM258 643q-8 -6 -16.5 -14.5t-13.5 -15t-14 -18.5t-13 -17l-15 -23q-12 -21 4 -31q17 -12 19 -14q12 -14 45 -10 q18 5 33 32q6 16 17.5 36.5t17.5 39.5q16 39 5 49.5t-31.5 5t-37.5 -19.5zM14 285l-4 -2l6 -17q0 -1 2.5 -8t-0.5 -10l-4 4q-10 20 -18 74v6q0 59 8 90q4 12 4 18v15q-10 -19 -12 -29l-6 -29q-14 -90 16 -145q1 -1 17 -23q5 -5 14 -8h6q-13 22 -16 29q-3 6 -6.5 18t-6.5 17z M14 420q-4 -4 -4 -6q-11 -38 -4 -95l4 -4l6 64q4 29 -2 41z" />
<glyph unicode="&#xeb;" horiz-adv-x="634" d="M147 498q-1 -4 -5.5 -14t-4.5 -17q0 -6 -8 -10q-6 -6 -6 -11q-2 -9 -10 -12q-5 -2 -7 -16q7 0 9 -2v-2h-15q2 6 2 16h-4l-6 -43l8 -4q2 -14 2 -41q0 -14 9 -37q3 -4 14 -30.5t14 -30.5q53 -53 77 -63q11 -4 20 -5q14 -3 79 10q70 20 142 76q20 16 55.5 46.5t46.5 39.5 l6 6l37 41q42 42 62 72q13 21 24 25q-8 -36 -16 -52q-3 -9 -10 -16q-23 -27 -31 -43l-21 -25l-8 -12l16 6q-1 -6 -7 -12.5t-7 -11.5l2 -3q2 -3 4 -4q-6 -10 -20 -24q-19 -16 -35 -35q-19 -21 -59 -53q-28 -22 -29 -23l-25 -16q-18 -9 -36 -21q-34 -20 -66 -26l-18 -6 q-38 -12 -74 -15q-10 -1 -30.5 4t-36.5 11t-40.5 15.5t-27.5 10.5q-32 13 -47 25.5t-25 28.5t-21 26q-17 14 -28 43q-11 31 -15 86q0 91 43 182q7 14 5 31q-17 -10 -21 -22q-9 -27 -24 -54q0 12 14 45q26 61 57 105q34 52 76 94q48 51 92 78l21 10q19 8 26 -4q3 -3 10 -4.5 t9 -3.5q3 -2 7 -8.5t5 -7.5q11 -5 26 -21.5t23 -21.5q5 -4 14 -21q24 -43 33 -51q3 -3 8 -19q7 -42 0 -73q-5 -35 -30 -80q-20 -35 -23 -43q-3 -12 -20 -41q-12 -24 -37 -31q-19 -9 -39 -6q-2 1 -4.5 1t-4.5 0.5t-4 2t-3 4.5l-3 2q-9 -1 -22.5 10.5t-15.5 12.5q-5 5 -5 10 q2 5 -2 18q-3 5 -8 16t-9.5 20t-8.5 16q-2 5 -6 5.5t-9 -3.5zM258 643q-8 -6 -16.5 -14.5t-13.5 -15t-14 -18.5t-13 -17l-15 -23q-12 -21 4 -31q17 -12 19 -14q12 -14 45 -10q18 5 33 32q6 16 17.5 36.5t17.5 39.5q16 39 5 49.5t-31.5 5t-37.5 -19.5zM250 1032q0 -6 -2 -10 q-2 -5 -11.5 -33.5t-17.5 -42.5q-7 -10 -14 -10q-29 -8 -41 0l-2 2q-17 0 -29 18q-10 17 -10 39q2 39 33 82q5 5 8 2q53 -8 76 -28q10 -10 10 -19zM467 1032q0 -6 -2 -10q-2 -5 -11.5 -33.5t-17.5 -42.5q-7 -10 -14 -10q-29 -8 -41 0l-2 2q-17 0 -29 18q-10 17 -10 39 q2 39 33 82q5 5 8 2q53 -8 76 -28q10 -10 10 -19zM14 285l-4 -2l6 -17q0 -1 2.5 -8t-0.5 -10l-4 4q-10 20 -18 74v6q0 59 8 90q4 12 4 18v15q-10 -19 -12 -29l-6 -29q-14 -90 16 -145q1 -1 17 -23q5 -5 14 -8h6q-13 22 -16 29q-3 6 -6.5 18t-6.5 17zM14 420q-4 -4 -4 -6 q-11 -38 -4 -95l4 -4l6 64q4 29 -2 41z" />
<glyph unicode="&#xec;" horiz-adv-x="499" d="M94 647q7 -4 12 -2l3 2q6 9 16 15q8 1 28.5 11t38.5 16t27 1q3 -4 17 -13t18 -13q13 -16 4 -46q-6 -14 -21 -41t-22 -42l-10 -31q-1 -2 -11 -26.5t-16 -35.5q-3 -9 2 -1q2 4 8 14q13 23 15 23q1 1 0 -3q0 -4 -6 -16q-4 -9 -8 -19t-5 -13t-2.5 -9t-2 -11.5t-1.5 -17.5 q0 -6 -3.5 -69.5t-2.5 -73.5q2 -12 16 -31q3 -1 8.5 -4.5t11.5 -6.5t11 -5q8 -6 33 -2q60 22 91 41.5t39 35t27.5 47.5t49.5 64q4 6 17.5 24t21 31.5t12.5 28.5q0 2 6 12q5 -11 2 -22t-1 -20.5t15 -12.5q-11 -20 -37.5 -79.5t-50.5 -96.5t-55 -55q-9 -12 -34.5 -34 t-64 -46.5t-77.5 -35t-74 0.5q-13 -4 -26.5 0.5t-31.5 15.5t-28 15q-29 12 -59 45q-21 57 -21 82q-4 12 -4 36q3 11 5 45t6 43q6 30 6 33l3 7q3 7 11 8q1 0 2 2t2 4.5t2 3.5q5 7 11.5 20.5t11.5 20.5l-22 -19q-11 -5 3 17q9 22 35 61.5t31 52.5l4 11q11 23 8 34t6 29z M297 807q-4 2 -8 2q-42 22 -94 70q-37 35 -72 75q-10 17 -21 25q-3 8 2 10l8 8t7 9t4 2q8 8 12 10q15 10 36 5.5t32 -19.5l24 -39q11 -25 13 -41q6 -22 6 -23q10 -20 12 -22q10 -10 25 -35q9 -9 6 -17q0 -10 6 -16q2 0 2 -4z" />
<glyph unicode="&#xed;" horiz-adv-x="499" d="M94 647q7 -4 12 -2l3 2q6 9 16 15q8 1 28.5 11t38.5 16t27 1q3 -4 17 -13t18 -13q13 -16 4 -46q-6 -14 -21 -41t-22 -42l-10 -31q-1 -2 -11 -26.5t-16 -35.5q-3 -9 2 -1q2 4 8 14q13 23 15 23q1 1 0 -3q0 -4 -6 -16q-4 -9 -8 -19t-5 -13t-2.5 -9t-2 -11.5t-1.5 -17.5 q0 -6 -3.5 -69.5t-2.5 -73.5q2 -12 16 -31q3 -1 8.5 -4.5t11.5 -6.5t11 -5q8 -6 33 -2q60 22 91 41.5t39 35t27.5 47.5t49.5 64q4 6 17.5 24t21 31.5t12.5 28.5q0 2 6 12q5 -11 2 -22t-1 -20.5t15 -12.5q-11 -20 -37.5 -79.5t-50.5 -96.5t-55 -55q-9 -12 -34.5 -34 t-64 -46.5t-77.5 -35t-74 0.5q-13 -4 -26.5 0.5t-31.5 15.5t-28 15q-29 12 -59 45q-21 57 -21 82q-4 12 -4 36q3 11 5 45t6 43q6 30 6 33l3 7q3 7 11 8q1 0 2 2t2 4.5t2 3.5q5 7 11.5 20.5t11.5 20.5l-22 -19q-11 -5 3 17q9 22 35 61.5t31 52.5l4 11q11 23 8 34t6 29z M229 815q0 4 2 4q7 7 7 17q-2 7 6 16q16 27 24 35q4 4 13 22q0 1 6 23q3 20 12 41l25 39q11 15 31.5 19.5t35.5 -5.5q4 -2 12 -10q0 2 3 0q2 -1 2 -2q1 -3 6.5 -9t7.5 -8q5 -2 2 -10q-12 -9 -21 -24q-42 -49 -71 -76q-52 -48 -94 -70q-5 0 -9 -2z" />
<glyph unicode="&#xee;" horiz-adv-x="499" d="M94 647q7 -4 12 -2l3 2q6 9 16 15q8 1 28.5 11t38.5 16t27 1q3 -4 17 -13t18 -13q13 -16 4 -46q-6 -14 -21 -41t-22 -42l-10 -31q-1 -2 -11 -26.5t-16 -35.5q-3 -9 2 -1q2 4 8 14q13 23 15 23q1 1 0 -3q0 -4 -6 -16q-4 -9 -8 -19t-5 -13t-2.5 -9t-2 -11.5t-1.5 -17.5 q0 -6 -3.5 -69.5t-2.5 -73.5q2 -12 16 -31q3 -1 8.5 -4.5t11.5 -6.5t11 -5q8 -6 33 -2q60 22 91 41.5t39 35t27.5 47.5t49.5 64q4 6 17.5 24t21 31.5t12.5 28.5q0 2 6 12q5 -11 2 -22t-1 -20.5t15 -12.5q-11 -20 -37.5 -79.5t-50.5 -96.5t-55 -55q-9 -12 -34.5 -34 t-64 -46.5t-77.5 -35t-74 0.5q-13 -4 -26.5 0.5t-31.5 15.5t-28 15q-29 12 -59 45q-21 57 -21 82q-4 12 -4 36q3 11 5 45t6 43q6 30 6 33l3 7q3 7 11 8q1 0 2 2t2 4.5t2 3.5q5 7 11.5 20.5t11.5 20.5l-22 -19q-11 -5 3 17q9 22 35 61.5t31 52.5l4 11q11 23 8 34t6 29z M373 850q-9 0 -19 10q-21 41 -22 45q-3 7 -7.5 24.5t-7.5 24.5q0 7 -4 15q-7 -9 -16 -15q-48 -42 -72 -59q-7 -5 -21 -11t-16 -7q-36 -8 -55 -25q-5 2 -12.5 6.5t-11.5 5.5q-10 7 -7 15q5 16 15 32l26 35q89 95 103 107h2q2 2 5 6t5 6t4 2q6 1 15 -0.5t10 -1.5q2 0 6 -4 q26 -2 45 -33q19 -27 29 -72q13 -44 20 -61q0 -2 4 -18q0 -3 -4 -11q-3 -2 -7.5 -8t-6.5 -8z" />
<glyph unicode="&#xef;" horiz-adv-x="499" d="M94 647q7 -4 12 -2l3 2q6 9 16 15q8 1 28.5 11t38.5 16t27 1q3 -4 17 -13t18 -13q13 -16 4 -46q-6 -14 -21 -41t-22 -42l-10 -31q-1 -2 -11 -26.5t-16 -35.5q-3 -9 2 -1q2 4 8 14q13 23 15 23q1 1 0 -3q0 -4 -6 -16q-4 -9 -8 -19t-5 -13t-2.5 -9t-2 -11.5t-1.5 -17.5 q0 -6 -3.5 -69.5t-2.5 -73.5q2 -12 16 -31q3 -1 8.5 -4.5t11.5 -6.5t11 -5q8 -6 33 -2q60 22 91 41.5t39 35t27.5 47.5t49.5 64q4 6 17.5 24t21 31.5t12.5 28.5q0 2 6 12q5 -11 2 -22t-1 -20.5t15 -12.5q-11 -20 -37.5 -79.5t-50.5 -96.5t-55 -55q-9 -12 -34.5 -34 t-64 -46.5t-77.5 -35t-74 0.5q-13 -4 -26.5 0.5t-31.5 15.5t-28 15q-29 12 -59 45q-21 57 -21 82q-4 12 -4 36q3 11 5 45t6 43q6 30 6 33l3 7q3 7 11 8q1 0 2 2t2 4.5t2 3.5q5 7 11.5 20.5t11.5 20.5l-22 -19q-11 -5 3 17q9 22 35 61.5t31 52.5l4 11q11 23 8 34t6 29z M422 969q0 -7 -2 -11t-11.5 -32.5t-17.5 -42.5q-7 -11 -14 -11q-29 -8 -41 0l-2 2q-16 0 -29 19q-10 17 -10 39q2 39 33 82q5 5 8 2q51 -8 76 -29q10 -10 10 -18zM205 969q0 -7 -2 -11q-1 -4 -11 -32.5t-18 -42.5q-7 -11 -14 -11q-29 -8 -41 0l-2 2q-16 0 -29 19 q-10 17 -10 39q2 39 33 82q5 5 8 2q51 -8 76 -29q10 -10 10 -18z" />
<glyph unicode="&#xf0;" horiz-adv-x="778" d="M592 1309l6 -4q6 -10 7 -19.5t-3 -18.5t-7 -13.5t-11 -14.5q-12 -11 -40.5 -40t-45.5 -44l-29 -25l4 -6q6 -7 19 -19t16 -15q2 -4 7 -9.5t7 -7.5q1 -1 7.5 -8t7.5 -12q6 -3 6 -9q5 -11 18 -33.5t21 -41t12 -37.5q2 -8 9 -28.5t9 -31.5q8 -17 11 -32q13 -65 18 -82 q6 -35 0 -70q0 -7 -2 -15.5t-5.5 -18.5t-4.5 -15q-5 -30 -8 -39q-1 -7 -6.5 -27t-6.5 -30q-5 -16 -13 -49.5t-13 -49.5q0 -8 -2 -10q-6 -10 -15 -47q-21 -60 -26 -86q-16 -30 -33 -111q-3 -14 -21 -40q-32 -49 -55 -80q-18 -12 -35 -29q-3 -1 -20 -12q-7 -8 -15 -15 t-18.5 -13.5t-16.5 -10t-20.5 -10.5t-17.5 -9q-119 -34 -193 0q-15 8 -37 25q-64 61 -84 121q-18 59 -18 94q-3 66 10 137q2 14 6.5 29t12 34t10.5 29q23 64 67 131q35 53 76 97q14 16 41 32q27 18 35 19q4 2 14 2q9 -5 18.5 -6.5t24.5 -2.5t19 -1q5 -1 26 -4t33 -7l41 -4 q25 -4 37 -10h10q0 3 1 7.5t1 6.5q-4 47 -12 70q-37 105 -47 127l-33 82l-18 35l-74 -66q-2 -2 -13 -8.5t-16 -11.5q-32 -21 -94 -10q-25 0 -35 2q-18 0 -20 14l33 22q11 3 22 17q106 101 117 110q3 3 28 23l-24 31q-5 7 -39 41q-15 10 -25 10q-22 0 -30 -2q-2 1 -8 -2 l-5 -2q-28 -11 -53 -33q-15 -19 -33 -19q-4 0 -21 -1.5t-26 -0.5q-7 0 -18 -8h-12q-9 6 -5 17q16 51 27 63q2 2 12 27l13 22q19 25 47 31q74 13 106 20q23 4 33 -4q5 -2 17 -7.5t18 -8.5l8 -6q35 -11 57 -25q42 -26 47 -30q6 -5 19.5 -13.5t15.5 -9.5q67 46 156 98q5 2 19 7 t20 8zM442 582q-7 -6 -23 -14l-18 -9q-10 -10 -12 -14q-7 -14 -16 -23q-9 -8 -23.5 -27t-21.5 -26l-23 -31q-42 -73 -53 -98q-14 -40 -33 -80q-14 -42 -18 -110q4 -22 8 -27q28 -51 74 -62q15 -6 20 7q6 2 10 10q17 19 43 69q3 4 29 56q1 3 7 19.5t7 25.5q17 50 17 53 q12 43 14 47q11 39 14 92q5 44 5 103q3 16 -7 39z" />
<glyph unicode="&#xf1;" horiz-adv-x="997" d="M444 518q-4 -7 -10.5 -14.5t-15 -17t-12.5 -13.5q-6 -6 -38 -40.5t-46 -53.5q-21 -29 -64 -72q-20 -20 -35 -47q-22 -35 -28 -41q-14 -10 -17 -20q-11 -11 -35.5 -87t-31.5 -85q-13 -13 -27 -13q-9 0 -29 -10q-15 -12 -32 -6q-10 3 -21.5 4t-25 1t-21.5 1q-8 2 -23.5 4 t-17.5 2q-24 8 -35.5 31t-5.5 55q33 153 61 226q18 51 48 112q34 87 67 154q17 31 72 125q34 61 39 73q16 29 22 56q0 3 1 7t1 7q17 10 25 -2q22 -28 55 -37q5 0 10 -10l31 -41q12 -18 8 -59q-3 -103 -63 -230q-5 -10 -8.5 -19t-4.5 -12.5t-5.5 -10.5t-12.5 -19 q-24 -38 -7 -55q10 -9 26 -1q29 28 84 91q27 33 63 68t51 52l39 41q14 24 43 31h21q13 -2 37.5 -3t37.5 -3q22 -5 37 -31q8 -13 8 -31q7 -55 0 -83q-16 -76 -22 -101q-9 -30 -12 -85t0 -85q1 -17 13 -25.5t27.5 -8.5t29 3t22.5 7q4 1 14 6.5t17 7.5q33 21 83 62t70 67 q3 4 38.5 32.5t39.5 33.5q8 12 16.5 30.5t16.5 30.5l2.5 5t3.5 6t6 7q0 -8 2 -10q1 -6 0 -16.5t0 -16.5q0 -3 -4 -12q-8 -11 -8 -27q-2 -13 -13 -30q-5 -7 -26 -42.5t-31 -47.5q-88 -99 -115 -123q-3 -3 -30 -19l-25 -8q-22 -9 -83.5 -11t-88.5 7q-130 43 -133 217 q4 54 4 78q15 78 0 101q-10 12 -29 -7zM367 991l-15 -8q0 1 -1.5 2t-5.5 3.5t-7 8.5q-7 24 10 41q20 17 43 27q27 0 41 2q6 0 10 -2q11 0 27 -4q2 -1 5 -0.5t5 -1.5q4 0 8 -2q9 0 21 -4q6 -4 16.5 -7t12.5 -4l4 -2l14 -4q1 0 7 -2t11 -2q26 -11 35 -12l21 -6h2q7 3 19.5 4.5 t17.5 3.5l4 2q14 4 14 8q4 12 4 21l-2 4h10q1 -1 6.5 -8t4.5 -13l-2 -16q-11 -16 -19 -19l-22 -14q-10 -6 -48 -10q-30 -6 -65 0q-11 1 -80 22l-55 15q-20 4 -31 4l-18 -6q-8 -12 -4 -17zM657 989q0 2 -2 2l-32 -8q-9 0 -29 -4q-7 -4 -10 2l-2 2l-52 8q-2 -2 -4 0v-4l9 -2 q30 -4 43 -8q5 -1 10.5 -1t12 0.5t9.5 0.5l33 6q8 0 14 6z" />
<glyph unicode="&#xf2;" horiz-adv-x="643" d="M57 524q0 4 -2 6q-28 46 -39 129q-8 45 23 101q4 7 14 10q20 17 62 41q25 17 65 10q11 0 72 -49q33 -28 39 -31q27 -24 41 -61q15 -39 18 -45q3 -8 5 -18t4 -22.5t3 -19.5q4 -38 7 -49q0 -5 1 -16l1 -10q-1 -9 0.5 -36t-2.5 -34q-5 -9 2.5 -18t19.5 -9q54 3 136 33 t124 37l33 16l14 9q5 -8 0 -19q-3 -5 4 -11.5t3 -10.5q-42 -46 -162.5 -85.5t-184.5 -39.5h-6q-12 0 -12 -6q0 -3 -4 -11q-3 -16 -9 -32t-16 -37.5t-14 -32.5q-9 -22 -39 -61q-19 -28 -29 -35l-14 -11q-10 -5 -12 -12q-28 -31 -58 -39q-8 0 -20 -8q-34 -9 -84 -2 q-47 5 -82 66l-18 55q-7 65 -2 113q5 53 34 112q23 58 76 121q5 2 8 12zM301 563q7 28 -2 49q-5 32 -14 66q-10 33 -29 49q-2 2 -5.5 6t-6.5 7t-7 6.5t-8 5.5q-21 17 -36 26q-26 21 -84 -37q-28 -37 -23 -84t24.5 -85.5t47.5 -69.5q28 -56 67.5 -67t63.5 26t12 102zM156 301 q-20 -28 -39 -88q-2 -10 -2 -33q-2 -2 2 -10q8 -19 22 -25q2 0 4 2l9 7q42 45 79 131q4 7 8 15.5t7.5 19t5.5 14.5q-38 12 -55.5 4t-40.5 -37zM369 526l-1 4l1 -6v2zM371 522q-2 0 -2 2z" />
<glyph unicode="&#xf3;" horiz-adv-x="643" d="M57 524q0 4 -2 6q-28 46 -39 129q-8 45 23 101q4 7 14 10q20 17 62 41q25 17 65 10q11 0 72 -49q33 -28 39 -31q27 -24 41 -61q15 -39 18 -45q3 -8 5 -18t4 -22.5t3 -19.5q4 -38 7 -49q0 -5 1 -16l1 -10q-1 -9 0.5 -36t-2.5 -34q-5 -9 2.5 -18t19.5 -9q54 3 136 33 t124 37l33 16l14 9q5 -8 0 -19q-3 -5 4 -11.5t3 -10.5q-42 -46 -162.5 -85.5t-184.5 -39.5h-6q-12 0 -12 -6q0 -3 -4 -11q-3 -16 -9 -32t-16 -37.5t-14 -32.5q-9 -22 -39 -61q-19 -28 -29 -35l-14 -11q-10 -5 -12 -12q-28 -31 -58 -39q-8 0 -20 -8q-34 -9 -84 -2 q-47 5 -82 66l-18 55q-7 65 -2 113q5 53 34 112q23 58 76 121q5 2 8 12zM301 563q7 28 -2 49q-5 32 -14 66q-10 33 -29 49q-2 2 -5.5 6t-6.5 7t-7 6.5t-8 5.5q-21 17 -36 26q-26 21 -84 -37q-28 -37 -23 -84t24.5 -85.5t47.5 -69.5q28 -56 67.5 -67t63.5 26t12 102zM193 901 q0 4 2 4q6 6 6 17q-3 8 6 16q16 28 24 35q4 4 13 22q0 1 6 23q3 20 12 41l25 39q11 15 31.5 19.5t35.5 -5.5q6 -3 13 -10q1 2 4 -2q1 -3 7 -9t7 -8q5 -2 2 -10q-10 -8 -20 -24q-38 -45 -72 -76q-52 -48 -94 -70q-4 0 -8 -2zM156 301q-20 -28 -39 -88q-2 -10 -2 -33 q-2 -2 2 -10q8 -19 22 -25q2 0 4 2l9 7q42 45 79 131q4 7 8 15.5t7.5 19t5.5 14.5q-38 12 -55.5 4t-40.5 -37zM369 526l-1 4l1 -6v2zM371 520q0 1 -1 2t-1 2q0 -1 1 -2t1 -2z" />
<glyph unicode="&#xf4;" horiz-adv-x="643" d="M57 524q0 4 -2 6q-28 46 -39 129q-8 45 23 101q4 7 14 10q20 17 62 41q25 17 65 10q11 0 72 -49q33 -28 39 -31q27 -24 41 -61q15 -39 18 -45q3 -8 5 -18t4 -22.5t3 -19.5q4 -38 7 -49q0 -5 1 -16l1 -10q-1 -9 0.5 -36t-2.5 -34q-5 -9 2.5 -18t19.5 -9q54 3 136 33 t124 37l33 16l14 9q5 -8 0 -19q-3 -5 4 -11.5t3 -10.5q-42 -46 -162.5 -85.5t-184.5 -39.5h-6q-12 0 -12 -6q0 -3 -4 -11q-3 -16 -9 -32t-16 -37.5t-14 -32.5q-9 -22 -39 -61q-19 -28 -29 -35l-14 -11q-10 -5 -12 -12q-28 -31 -58 -39q-8 0 -20 -8q-34 -9 -84 -2 q-47 5 -82 66l-18 55q-7 65 -2 113q5 53 34 112q23 58 76 121q5 2 8 12zM301 563q7 28 -2 49q-5 32 -14 66q-10 33 -29 49q-2 2 -5.5 6t-6.5 7t-7 6.5t-8 5.5q-21 17 -36 26q-26 21 -84 -37q-28 -37 -23 -84t24.5 -85.5t47.5 -69.5q28 -56 67.5 -67t63.5 26t12 102zM332 903 q-9 0 -19 10q-20 41 -22 45q-3 7 -7.5 25t-7.5 25q0 6 -4 14q-5 -7 -16 -14q-55 -47 -72 -60q-7 -5 -21 -11t-16 -7q-36 -8 -55 -25q-5 2 -12.5 7t-11.5 6q-10 6 -7 14q6 18 15 33l26 34q89 95 103 107h2q2 2 5 6t5 6t4 2q6 1 15 -0.5t10 -1.5q2 0 6 -4q26 -2 45 -33 q19 -28 29 -71q14 -48 20 -62q0 -2 4 -18q0 -2 -4 -10q-3 -2 -7.5 -8t-6.5 -9zM156 301q-20 -28 -39 -88q-2 -10 -2 -33q-2 -2 2 -10q8 -19 22 -25q2 0 4 2l9 7q42 45 79 131q4 7 8 15.5t7.5 19t5.5 14.5q-38 12 -55.5 4t-40.5 -37zM369 526l-1 4l1 -6v2zM371 520q0 1 -1 2 t-1 2q0 -1 1 -2t1 -2z" />
<glyph unicode="&#xf5;" horiz-adv-x="643" d="M57 524q0 4 -2 6q-28 46 -39 129q-8 45 23 101q4 7 14 10q20 17 62 41q25 17 65 10q11 0 72 -49q33 -28 39 -31q27 -24 41 -61q15 -39 18 -45q3 -8 5 -18t4 -22.5t3 -19.5q4 -38 7 -49q0 -5 1 -16l1 -10q-1 -9 0.5 -36t-2.5 -34q-5 -9 2.5 -18t19.5 -9q54 3 136 33 t124 37l33 16l14 9q5 -8 0 -19q-3 -5 4 -11.5t3 -10.5q-42 -46 -162.5 -85.5t-184.5 -39.5h-6q-12 0 -12 -6q0 -3 -4 -11q-3 -16 -9 -32t-16 -37.5t-14 -32.5q-9 -22 -39 -61q-19 -28 -29 -35l-14 -11q-10 -5 -12 -12q-28 -31 -58 -39q-8 0 -20 -8q-34 -9 -84 -2 q-47 5 -82 66l-18 55q-7 65 -2 113q5 53 34 112q23 58 76 121q5 2 8 12zM301 563q7 28 -2 49q-5 32 -14 66q-10 33 -29 49q-2 2 -5.5 6t-6.5 7t-7 6.5t-8 5.5q-21 17 -36 26q-26 21 -84 -37q-28 -37 -23 -84t24.5 -85.5t47.5 -69.5q28 -56 67.5 -67t63.5 26t12 102zM47 952 l-14 -8q0 1 -2 2t-6 3.5t-7 8.5q-7 23 11 41q20 17 43 27q27 0 41 2q6 0 10 -2q11 0 27 -4q2 -1 5 -0.5t5 -1.5q4 0 8 -2q8 0 20 -4q6 -3 16 -6t13 -4l4 -3l15 -4q1 0 7 -2t11 -2q26 -11 35 -12l20 -6h2q7 3 19.5 4.5t17.5 3.5l4 2q15 4 15 8q4 12 4 21l-2 4h10 q1 -3 4.5 -6.5t5 -7t0.5 -7.5l-2 -16q-10 -15 -18 -18l-23 -15q-10 -6 -47 -10q-31 -6 -66 0q-13 2 -26 5.5t-28.5 9t-24.5 8.5l-56 14q-20 4 -30 4l-19 -6q-8 -11 -4 -17zM156 301q-20 -28 -39 -88q-2 -10 -2 -33q-2 -2 2 -10q8 -19 22 -25q2 0 4 2l9 7q42 45 79 131 q4 7 8 15.5t7.5 19t5.5 14.5q-38 12 -55.5 4t-40.5 -37zM338 950q0 2 -2 2l-33 -8q-9 0 -29 -4q-7 -4 -10 2l-2 2l-51 8q-2 -2 -4 0v-4l8 -2q30 -4 43 -8h33l33 6q8 0 14 6zM369 526l-1 4l1 -6v2zM371 522q-2 0 -2 2z" />
<glyph unicode="&#xf6;" horiz-adv-x="643" d="M57 524q0 4 -2 6q-28 46 -39 129q-8 45 23 101q4 7 14 10q20 17 62 41q25 17 65 10q11 0 72 -49q33 -28 39 -31q27 -24 41 -61q15 -39 18 -45q3 -8 5 -18t4 -22.5t3 -19.5q4 -38 7 -49q0 -5 1 -16l1 -10q-1 -9 0.5 -36t-2.5 -34q-5 -9 2.5 -18t19.5 -9q54 3 136 33 t124 37l33 16l14 9q5 -8 0 -19q-3 -5 4 -11.5t3 -10.5q-42 -46 -162.5 -85.5t-184.5 -39.5h-6q-12 0 -12 -6q0 -3 -4 -11q-3 -16 -9 -32t-16 -37.5t-14 -32.5q-9 -22 -39 -61q-19 -28 -29 -35l-14 -11q-10 -5 -12 -12q-28 -31 -58 -39q-8 0 -20 -8q-34 -9 -84 -2 q-47 5 -82 66l-18 55q-7 65 -2 113q5 53 34 112q23 58 76 121q5 2 8 12zM301 563q7 28 -2 49q-5 32 -14 66q-10 33 -29 49q-2 2 -5.5 6t-6.5 7t-7 6.5t-8 5.5q-21 17 -36 26q-26 21 -84 -37q-28 -37 -23 -84t24.5 -85.5t47.5 -69.5q28 -56 67.5 -67t63.5 26t12 102z M373 1036q0 -6 -2 -10q-2 -5 -11.5 -33.5t-17.5 -42.5q-7 -10 -14 -10q-29 -8 -41 0l-2 2q-16 0 -29 19q-10 17 -10 38q2 39 33 82q5 5 8 2q52 -8 75 -28q11 -11 11 -19zM156 1036q0 -6 -2 -10q-2 -5 -11.5 -33.5t-17.5 -42.5q-7 -10 -14 -10q-29 -8 -41 0l-2 2 q-16 0 -29 19q-10 17 -10 38q2 41 32 82q5 5 9 2q52 -8 75 -28q11 -11 11 -19zM156 301q-20 -28 -39 -88q-2 -10 -2 -33q-2 -2 2 -10q8 -19 22 -25q2 0 4 2l9 7q42 45 79 131q4 7 8 15.5t7.5 19t5.5 14.5q-38 12 -55.5 4t-40.5 -37zM369 526l-1 4l1 -6v2zM371 520q0 1 -1 2 t-1 2q0 -1 1 -2t1 -2z" />
<glyph unicode="&#xf7;" horiz-adv-x="966" d="M748 537l2 -7q-4 -35 -52 -43q-114 -12 -120 -12l-177 -4q-21 0 -44.5 -1t-52.5 -2.5t-46 -2.5q-5 0 -17 1t-18 1q-37 2 -80 49l-26 25q-13 10 -6 24l39 -4q17 -4 28 -2q106 12 160 14q169 6 371 -24q4 -1 18 -6t21 -6zM461 346q0 -6 -2 -10q-2 -5 -11.5 -33.5 t-17.5 -42.5q-7 -10 -14 -10q-29 -8 -41 0l-2 2q-17 0 -29 18q-10 17 -10 39q2 39 33 82q5 5 8 2q53 -8 76 -28q10 -10 10 -19zM487 729q0 -6 -2 -10q-3 -6 -11.5 -34.5t-16.5 -41.5q-7 -10 -15 -10q-29 -8 -41 0l-2 2q-16 0 -28 18q-11 18 -11 39q2 39 33 82q5 5 8 2 q53 -8 76 -28q10 -10 10 -19z" />
</font>
</defs>
</svg>
