<svg version="1.2" baseProfile="tiny-ps" xmlns="http://www.w3.org/2000/svg" viewBox="0 0 4878 2500" width="600" height="308">
	<title>shutterstock_1793325052-ai</title>
	<style>
		tspan { white-space:pre }
		.shp0 { fill: #fae9dc } 
		.shp1 { fill: #fff6f0 } 
		.shp2 { fill: #38b8ff } 
		.shp3 { fill: #e6f7ff } 
		.shp4 { fill: #ade2ff } 
		.shp5 { fill: #2b4b6e } 
		.shp6 { fill: #28495c } 
		.shp7 { fill: #79c5ee } 
		.shp8 { fill: #ffb03a } 
		.shp9 { fill: #ff863b } 
		.shp10 { fill: #fe9031 } 
		.shp11 { fill: #ff643b } 
		.shp12 { fill: #ff4e3a } 
		.shp13 { fill: #1d3442 } 
		.shp14 { mix-blend-mode: screen;fill: #1a1a1a } 
		.shp15 { mix-blend-mode: screen;fill: #333333 } 
		.shp16 { fill: #367394 } 
		.shp17 { fill: #f5bc71 } 
		.shp18 { fill: #ffd194 } 
		.shp19 { fill: #506b79 } 
		.shp20 { fill: #333333 } 
		.shp21 { fill: #40312a } 
		.shp22 { fill: #fe653b } 
		.shp23 { fill: #f04936 } 
		.shp24 { fill: #ffffff } 
		.shp25 { fill: #fd9b73 } 
		.shp26 { fill: #fec6ab } 
		.shp27 { fill: #ff6942 } 
		.shp28 { fill: #ffab3b } 
		.shp29 { fill: #11405e } 
		.shp30 { fill: #5091b9 } 
		.shp31 { fill: #fd7816 } 
		.shp32 { fill: #78ceff } 
	</style>
	<g id="\321\353\356\351 1">
		<g id="&lt;Group&gt;">
			<g id="&lt;Group&gt;">
				<g id="&lt;Group&gt;">
					<g id="&lt;Group&gt;">
						<path id="&lt;Path&gt;" class="shp0" d="M2774.96 388.3C2920.9 305.84 3375.08 232.07 3557.68 388.3C3740.27 544.53 3661.17 739.32 3753.49 791.65C3845.8 843.97 4478.95 1074.62 4578.27 1441.01C4644.49 1685.27 4543.1 1840.68 4274.11 1907.22C4307.32 2171.38 4110.78 2307.58 3684.48 2315.82C3045.04 2328.18 2908.37 2180.62 2774.96 2237.04C2641.56 2293.46 2641.02 2429.68 2343.33 2428.84C2045.65 2427.99 1725.97 2069.96 1429.57 2040.67C1133.16 2011.37 648.99 2127.47 301.37 1832.9C-46.24 1538.34 195.85 1058.25 512.42 905.54C723.47 803.74 925.22 760.5 1117.64 775.83C925.33 397.04 1108.45 192.64 1667 162.63C2097.77 139.48 2467.09 214.71 2774.96 388.3Z" />
						<path id="&lt;Path&gt;" class="shp1" d="M1389.73 1478.6C1003.06 1118.87 1186.44 630.9 1627.17 690.21C1920.98 729.75 2122.54 855.57 2231.83 1067.67C2403.02 793.39 2682.31 690.6 3069.7 759.3C3457.09 828 3553.92 1002.28 3360.2 1282.14C3742.54 1025.42 4020.76 1005.78 4194.87 1223.22C4368.98 1440.66 4181.59 1582.44 3632.72 1648.55C3944.09 1650.5 4072.53 1709.46 4018.05 1825.43C3963.56 1941.39 3464.83 1944.04 2521.85 1833.38C2312.79 2007.75 2118.65 2052.97 1939.44 1969.04C1760.23 1885.11 1576.99 1721.63 1389.73 1478.6Z" />
					</g>
					<path id="&lt;Path&gt;" class="shp0" d="M4675.39 2080.06C4743.86 1981.74 4743.91 1792.9 4551.39 1871.22C4358.86 1949.53 4358.86 2081.69 4420.86 2129.82C4482.86 2177.95 4626.44 2150.34 4675.39 2080.06Z" />
					<path id="&lt;Path&gt;" class="shp0" d="M902.62 684.38C1014.77 611.2 1082.37 380.65 944.34 323.76C806.31 266.88 466.87 549.63 549.4 665.06C631.94 780.5 856.67 714.36 902.62 684.38Z" />
					<path id="&lt;Path&gt;" class="shp0" d="M1136.53 2234.14C1115.21 2133.48 1366.89 2073.97 1491.2 2119.68C1615.52 2165.38 1684.99 2258.62 1648.43 2320.78C1611.86 2382.94 1498.52 2397.56 1335.81 2364.66C1173.1 2331.75 1145.67 2277.3 1136.53 2234.14Z" />
				</g>
				<g id="&lt;Group&gt;">
					<path id="&lt;Path&gt;" class="shp2" d="M3473.07 1154.29C3525.72 886.59 3730.9 822.35 3783.99 921.56C3859.84 1063.29 3537.51 1380 3508.28 1367.73C3488.8 1359.55 3477.06 1288.4 3473.07 1154.29Z" />
					<g id="&lt;Group&gt;">
						<path id="&lt;Path&gt;" class="shp2" d="M3484.98 1570.54C3817.22 1288.24 4291.62 1174.33 4304.68 1369.5C4313.38 1499.61 4005.97 1619.58 3382.43 1729.4L3484.98 1570.54Z" />
					</g>
					<g id="&lt;Group&gt;">
						<path id="&lt;Path&gt;" class="shp3" d="M3451.89 1649.72C3446.84 1646.15 3446.26 1639.89 3450.59 1635.73C3500.06 1588.28 3893.21 1391.61 4129.19 1357.34C4135.75 1356.39 4142.02 1359.99 4143.16 1365.39C4144.31 1370.78 4139.94 1375.92 4133.39 1376.88C3907.11 1409.74 3515.71 1603.73 3468.89 1648.65C3464.56 1652.81 3456.94 1653.29 3451.89 1649.72Z" />
					</g>
				</g>
				<g id="&lt;Group&gt;">
					<g id="&lt;Group&gt;">
						<g id="&lt;Group&gt;">
							<path id="&lt;Path&gt;" class="shp4" d="M1235.48 1329.09C1020.27 1010.14 516.82 1081.95 542.73 1242.92C568.65 1403.89 1146.07 1280.1 1203.93 1469.37L1235.48 1329.09Z" />
							<g id="&lt;Group&gt;">
								<path id="&lt;Path&gt;" class="shp3" d="M1154.43 1365.76C1151.4 1366.25 1148.31 1364.65 1147.03 1361.71C1108.94 1274.12 919.52 1171.42 676.61 1215.12C676.57 1215.13 676.53 1215.13 676.49 1215.14C672.79 1215.73 669.29 1213.26 668.63 1209.56C667.96 1205.83 670.44 1202.25 674.18 1201.58C783.81 1181.87 896.55 1190.54 991.69 1225.91C1074.81 1256.81 1137.6 1305.53 1159.65 1356.22C1161.16 1359.71 1159.57 1363.76 1156.08 1365.27C1155.54 1365.51 1154.99 1365.67 1154.43 1365.76Z" />
							</g>
							<g id="&lt;Group&gt;">
								<path id="&lt;Path&gt;" class="shp3" d="M746.69 1260.68C743.55 1261.19 740.37 1259.45 739.18 1256.35C737.83 1252.81 739.6 1248.83 743.15 1247.47L873.44 1197.57C877 1196.2 880.97 1197.99 882.33 1201.54C883.69 1205.08 881.91 1209.06 878.37 1210.42L748.07 1260.31C747.62 1260.49 747.15 1260.61 746.69 1260.68Z" />
							</g>
						</g>
						<g id="&lt;Group&gt;">
							<path id="&lt;Path&gt;" class="shp4" d="M1377.37 1697.83C996.3 1428.13 523.54 1336.47 510.08 1578.61C494.84 1852.65 1222.72 1613.91 1287.1 1872.59L1377.37 1697.83Z" />
							<g id="&lt;Group&gt;">
								<path id="&lt;Path&gt;" class="shp3" d="M598.47 1562.24C596.09 1561.25 594.36 1558.96 594.23 1556.22C594.04 1552.43 596.97 1549.2 600.76 1549.01C908.47 1533.96 1249.83 1656.12 1264.87 1786.68C1265.31 1790.45 1262.6 1793.86 1258.83 1794.3C1255.05 1794.74 1251.64 1792.03 1251.21 1788.25C1244.81 1732.71 1166.06 1672.36 1040.52 1626.77C908.61 1578.89 748.57 1555.56 601.43 1562.76C600.38 1562.81 599.38 1562.62 598.47 1562.24Z" />
							</g>
							<g id="&lt;Group&gt;">
								<path id="&lt;Path&gt;" class="shp3" d="M732.6 1638.15C731.3 1637.61 730.16 1636.68 729.37 1635.39C727.39 1632.16 728.4 1627.92 731.64 1625.94L834.18 1563.01C837.41 1561.02 841.65 1562.03 843.64 1565.28C845.62 1568.51 844.61 1572.75 841.37 1574.73L738.83 1637.66C736.88 1638.86 734.56 1638.97 732.6 1638.15Z" />
							</g>
							<g id="&lt;Group&gt;">
								<path id="&lt;Path&gt;" class="shp3" d="M830.37 1663.82C829.14 1663.31 828.04 1662.44 827.25 1661.24C825.17 1658.06 826.05 1653.8 829.23 1651.71L933.95 1582.98C937.12 1580.9 941.39 1581.78 943.47 1584.96C945.55 1588.13 944.67 1592.4 941.49 1594.48L836.78 1663.22C834.8 1664.52 832.4 1664.66 830.37 1663.82Z" />
							</g>
							<g id="&lt;Group&gt;">
								<path id="&lt;Path&gt;" class="shp3" d="M935.01 1701.65C934.03 1701.25 933.13 1700.61 932.4 1699.74C929.95 1696.84 930.31 1692.5 933.21 1690.05L1026.74 1610.91C1029.64 1608.46 1033.98 1608.82 1036.43 1611.72C1038.89 1614.62 1038.53 1618.96 1035.63 1621.41L942.09 1700.55C940.06 1702.27 937.32 1702.61 935.01 1701.65Z" />
							</g>
						</g>
					</g>
					<g id="&lt;Group&gt;">
						<path id="&lt;Path&gt;" class="shp2" d="M1261.23 1073.46C1257.64 765.7 1007.95 671.46 933.96 774.12C859.96 876.79 1144.76 1078.41 1172.53 1176.15C1191.04 1241.31 1220.6 1207.08 1261.23 1073.46Z" />
						<g id="&lt;Group&gt;">
							<path id="&lt;Path&gt;" class="shp3" d="M1215.17 1140.49C1212.1 1140.48 1209.32 1138.37 1208.58 1135.25C1208.07 1133.09 1155.89 918.52 1000.28 812.71C997.16 810.6 996.36 806.36 998.47 803.25C1000.58 800.14 1004.82 799.33 1007.93 801.45C1168 910.28 1221.32 1129.91 1221.84 1132.12C1222.7 1135.78 1220.43 1139.45 1216.77 1140.31C1216.24 1140.44 1215.7 1140.5 1215.17 1140.49Z" />
						</g>
					</g>
				</g>
				<g id="&lt;Group&gt;">
					<path id="&lt;Compound Path&gt;" fill-rule="evenodd" class="shp5" d="M1122.62 1034.03L1405.22 1034.03C1473.64 1034.03 1538.67 1041.69 1600.26 1056.97C1661.86 1072.28 1715.6 1097.04 1761.49 1131.25C1807.39 1165.49 1843.81 1209.96 1870.79 1264.7C1897.76 1319.46 1911.25 1385.89 1911.25 1463.98C1911.25 1533.23 1898.16 1594.22 1872 1646.94C1845.83 1699.68 1810.59 1743.98 1766.33 1779.79C1722.04 1815.63 1670.91 1842.8 1612.95 1861.31C1554.98 1879.85 1494.18 1889.09 1430.58 1889.09L1122.62 1889.09L1122.62 1034.03ZM1311.02 1715.18L1408.84 1715.18C1452.32 1715.18 1492.78 1710.76 1530.22 1701.89C1567.65 1693.05 1600.06 1678.34 1627.44 1657.81C1654.8 1637.28 1676.35 1610.32 1692.05 1576.9C1707.75 1543.5 1715.6 1502.62 1715.6 1454.32C1715.6 1412.46 1707.75 1376.02 1692.05 1345.01C1676.35 1314.03 1655.21 1288.46 1628.64 1268.32C1602.08 1248.21 1570.86 1233.12 1535.05 1223.04C1499.21 1212.98 1461.57 1207.94 1422.13 1207.94L1311.02 1207.94L1311.02 1715.18Z" />
					<path id="&lt;Compound Path&gt;" class="shp5" d="M2036.84 1034.03L2225.24 1034.03L2225.24 1889.09L2036.84 1889.09L2036.84 1034.03Z" />
					<path id="&lt;Compound Path&gt;" class="shp5" d="M2403.97 1034.03L2984.88 1034.03L2984.88 1207.94L2592.37 1207.94L2592.37 1367.36L2963.14 1367.36L2963.14 1541.27L2592.37 1541.27L2592.37 1715.18L3006.62 1715.18L3006.62 1889.09L2403.97 1889.09L2403.97 1034.03Z" />
					<path id="&lt;Compound Path&gt;" class="shp5" d="M3323.02 1200.7L3079.07 1200.7L3079.07 1034.03L3755.38 1034.03L3755.38 1200.7L3511.43 1200.7L3511.43 1889.09L3323.02 1889.09L3323.02 1200.7Z" />
				</g>
				<g id="&lt;Group&gt;">
					<path id="&lt;Path&gt;" class="shp6" d="M1943.06 955.76C1930.68 969.12 1709.78 1037.69 1688.8 1036.95C1683.71 1036.78 1646.75 975.31 1608.4 902.82C1563.02 817.08 1515.72 715.89 1516.96 682.52C1517.81 659.67 1564.15 632.04 1624.39 608.68C1660.77 594.56 1702.24 581.99 1741.79 572.93C1755.37 569.84 1768.73 567.14 1781.57 564.97C1836.3 555.63 1881.84 555.32 1896.4 570.23C1922.03 596.46 1955.43 942.38 1943.06 955.76Z" />
					<path id="&lt;Path&gt;" class="shp7" d="M1835.31 685.06C1829.84 699.51 1766.83 727.96 1715.61 741.06C1686.06 748.62 1660.41 751.04 1652.04 742.69C1633.24 723.96 1626.28 638.65 1624.39 608.68C1660.77 594.56 1702.24 581.99 1741.79 572.93C1755.37 569.84 1768.73 567.14 1781.57 564.97C1803.22 597.18 1842.87 665.14 1835.31 685.06Z" />
					<path id="&lt;Path&gt;" class="shp8" d="M1814.9 664.33L1762.44 682.42C1760.14 678.49 1757.05 675.2 1753.48 672.69C1752.51 671.99 1751.49 671.34 1750.44 670.76C1746.32 668.5 1741.69 667.19 1736.95 667.01C1736.17 666.97 1735.37 666.97 1734.59 667.01C1731.79 667.12 1728.96 667.64 1726.19 668.6C1723.93 669.37 1721.85 670.38 1719.92 671.63C1718.2 672.71 1716.61 673.99 1715.17 675.39C1712.17 678.31 1709.83 681.84 1708.24 685.71C1706.21 690.67 1705.44 696.22 1706.17 701.81L1653.71 719.9C1649.6 704.62 1649.7 689.1 1653.32 674.75C1656.2 663.28 1661.36 652.54 1668.45 643.26C1671.7 638.96 1675.38 634.99 1679.42 631.38C1687.44 624.22 1696.93 618.54 1707.65 614.84C1717.73 611.37 1728.02 609.94 1738.1 610.35C1742.81 610.54 1747.46 611.12 1752.03 612.1C1763.69 614.54 1774.76 619.44 1784.53 626.41C1785.78 627.31 1787.01 628.23 1788.19 629.18C1799.53 638.18 1808.85 650.1 1814.9 664.33Z" />
					<path id="&lt;Path&gt;" class="shp9" d="M1752.03 612.1C1754.37 629.91 1742.42 660.2 1736.95 667.01C1736.17 666.97 1735.37 666.97 1734.59 667.01C1731.79 667.12 1728.96 667.64 1726.19 668.6C1723.93 669.37 1721.85 670.38 1719.92 671.63C1718.2 672.71 1716.61 673.99 1715.17 675.39C1714.17 674.81 1681.86 656.04 1668.45 643.26C1671.7 638.96 1675.38 634.99 1679.42 631.38C1687.44 624.22 1696.93 618.54 1707.65 614.84C1717.73 611.37 1728.02 609.94 1738.1 610.35C1742.81 610.54 1747.46 611.12 1752.03 612.1Z" />
					<path id="&lt;Path&gt;" class="shp10" d="M1719.92 671.63C1714.6 675 1710.58 679.98 1708.24 685.71C1692.36 682.73 1665.41 677.24 1653.32 674.75C1657.54 658 1666.59 642.81 1679.42 631.38L1719.92 671.63Z" />
					<path id="&lt;Path&gt;" class="shp11" d="M1788.19 629.18C1784.37 638.65 1766.46 660.49 1753.48 672.69C1752.51 671.99 1751.49 671.34 1750.44 670.76C1745.62 668.12 1740.15 666.78 1734.59 667.01L1738.1 610.35C1754.79 611.02 1770.93 616.71 1784.53 626.41C1785.78 627.31 1787.01 628.23 1788.19 629.18Z" />
					<path id="&lt;Path&gt;" class="shp12" d="M1814.9 664.33L1762.44 682.42C1759.49 677.4 1755.29 673.43 1750.44 670.76L1784.53 626.41C1797.52 635.67 1808.2 648.6 1814.9 664.33Z" />
					<g id="&lt;Group&gt;">
						<g id="&lt;Group&gt;">
							<path id="&lt;Path&gt;" class="shp6" d="M1742.32 685.88L1724.13 691.26L1717.08 634.01L1742.32 685.88Z" />
							<path id="&lt;Path&gt;" class="shp13" d="M1717.08 634.01L1733.22 688.57L1724.13 691.26L1717.08 634.01Z" />
						</g>
						<path id="&lt;Path&gt;" class="shp13" d="M1738.78 679.8C1743.37 683.03 1744.47 689.38 1741.24 693.97C1738 698.56 1731.65 699.66 1727.06 696.43C1722.47 693.19 1721.37 686.84 1724.61 682.25C1727.84 677.66 1734.19 676.56 1738.78 679.8Z" />
					</g>
					<path id="&lt;Path&gt;" class="shp14" d="M1741.79 572.93C1743.73 584.02 1744.39 596.8 1743.88 610.79C1743.26 627.99 1740.85 647.02 1736.82 667C1736.46 668.76 1736.09 670.52 1735.71 672.28C1735.3 674.2 1734.88 676.13 1734.44 678.06C1733.82 680.74 1733.17 683.45 1732.5 686.17C1732.27 687.1 1732.05 688.03 1731.8 688.99C1731.8 688.99 1731.8 688.99 1731.8 689C1731.07 691.88 1730.31 694.78 1729.52 697.68C1725.62 712.01 1720.96 726.57 1715.61 741.06C1691.99 804.98 1654.83 867.5 1608.4 902.82C1563.02 817.08 1515.72 715.89 1516.96 682.52C1517.81 659.67 1564.15 632.04 1624.39 608.68C1660.77 594.56 1702.24 581.99 1741.79 572.93Z" />
					<path id="&lt;Path&gt;" class="shp15" d="M1599.8 763.63C1614.98 807.66 1621.27 845.42 1613.85 847.98C1606.43 850.54 1588.11 816.92 1572.94 772.89C1557.76 728.87 1551.47 691.1 1558.89 688.55C1566.3 685.99 1584.62 719.61 1599.8 763.63Z" />
				</g>
				<g id="&lt;Group&gt;">
					<path id="&lt;Path&gt;" class="shp16" d="M2058.26 1915.05C2051.14 1914.88 2043.64 1914.28 2035.8 1913.12C1884.22 1881.98 1999.6 1619.79 2076.29 1612.04C2076.92 1611.98 2077.59 1611.95 2078.25 1611.92C2078.68 1611.89 2079.12 1611.89 2079.52 1611.89C2185.68 1610.62 2240.01 1918.98 2058.26 1915.05Z" />
					<path id="&lt;Path&gt;" class="shp7" d="M2058.26 1915.05C2051.26 1915.37 2043.79 1914.77 2035.8 1913.12C1972.15 1900.06 1955.57 1846.24 1963.44 1787.64C1974.28 1706.66 2031.82 1616.53 2076.29 1612.04C2076.92 1611.98 2077.59 1611.95 2078.25 1611.92C2078.68 1611.89 2079.12 1611.89 2079.52 1611.89C2084.42 1611.95 2089.09 1613.25 2093.56 1615.64C2157.73 1650.02 2174.34 1909.81 2058.26 1915.05Z" />
					<path id="&lt;Path&gt;" class="shp13" d="M2066.94 1712.67C2004.31 1688.99 1959.19 1839.51 2039.95 1851.33C2092.38 1859 2101.73 1725.83 2066.94 1712.67Z" />
					<path id="&lt;Path&gt;" class="shp14" d="M1963.44 1787.64C1974.28 1706.66 2031.82 1616.53 2076.29 1612.04C2076.92 1611.98 2077.59 1611.95 2078.25 1611.92C2078.68 1611.89 2079.12 1611.89 2079.52 1611.89C2084.42 1611.95 2089.09 1613.25 2093.56 1615.64C2113.09 1730.65 2026.45 1786.29 1963.44 1787.64Z" />
					<path id="&lt;Path&gt;" class="shp16" d="M2164.54 1915.14C2226.52 1918.44 2268.28 1891.36 2289.82 1833.87C2339.65 1867.56 2344.27 1898.7 2303.66 1927.31C2242.75 1970.23 2194.99 1960.54 2181.84 1943.23C2173.08 1931.7 2167.31 1922.33 2164.54 1915.14Z" />
					<path id="&lt;Path&gt;" class="shp7" d="M2102.24 1955C2102.96 1952.61 2154.85 1911.96 2164.54 1915.14C2174.23 1918.31 2215.41 1954.13 2266.8 1918.31C2305.99 1891 2286.36 1838.02 2289.82 1833.87C2293.28 1829.72 2356.96 1801.34 2361.11 1806.88C2365.26 1812.41 2379.17 1931.59 2285.04 1984.19C2190.91 2036.8 2100.17 1961.92 2102.24 1955Z" />
				</g>
				<g id="&lt;Group&gt;">
					<path id="&lt;Path&gt;" class="shp17" d="M3462.3 870.82C3462.79 880.69 3384.28 936.49 3336.87 919.21C3305.27 907.69 3305.27 897.35 3336.87 888.19C3362.76 887.97 3383.87 881.77 3400.09 874.17C3400.41 874.04 3400.72 873.88 3401.03 873.73C3403.07 872.76 3405.04 871.76 3406.92 870.75C3407.23 870.59 3407.53 870.44 3407.83 870.26C3410.32 868.91 3412.67 867.54 3414.87 866.17C3415.17 865.99 3415.46 865.81 3415.75 865.62C3418.7 863.76 3421.38 861.92 3423.79 860.14C3424.07 859.93 3424.35 859.73 3424.62 859.52C3431.46 854.4 3436.62 849.77 3440.08 845.63C3454.56 855.84 3461.97 864.23 3462.3 870.82Z" />
					<path id="&lt;Path&gt;" class="shp7" d="M3054.42 913.28C3041.63 925.32 3033.61 934.29 3030.36 940.2C3025.58 933.22 3020.12 926.36 3013.6 921.11C3015.46 903.13 3025.98 886.49 3045.23 875.07C3045.5 874.9 3045.76 874.75 3046.03 874.59L3046.15 875.17L3054.42 913.28Z" />
					<path id="&lt;Path&gt;" class="shp18" d="M3382.85 834.3C3380.81 837.95 3378.93 841.72 3377.09 845.55C3374.78 850.33 3372.56 855.22 3370.23 860.09C3366.13 858.78 3360.76 858 3354.16 858.97C3342.97 860.61 3335.06 863.74 3330.46 868.35C3304.45 852.22 3301.32 839.02 3321.07 828.76C3326.57 825.9 3333.64 823.92 3341.29 823.19C3341.61 823.15 3341.94 823.12 3342.27 823.09L3342.29 823.09C3342.88 823.04 3343.48 823 3344.09 822.97L3344.12 822.97C3357.52 822.24 3372.19 825.37 3382.85 834.3Z" />
					<g id="&lt;Group&gt;">
						<path id="&lt;Path&gt;" class="shp11" d="M3191.2 794.28C3258.61 775.02 3332.68 789.83 3348.97 880.2C3365.27 970.56 3270.46 1052.78 3157.87 1032.04C3045.29 1011.3 3029.73 952.79 3035.66 895.01C3041.58 837.24 3085.28 797.24 3126.02 795.02C3153.18 793.54 3174.91 793.29 3191.2 794.28Z" />
						<path id="&lt;Path&gt;" class="shp19" d="M3202.97 791.29C3199.35 765.76 3219.35 749.84 3220.83 740.58C3222.31 731.32 3213.42 730.21 3206.02 734.28C3198.61 738.35 3190.46 762.8 3190.46 774.28C3190.46 781.93 3191.67 788.33 3194.08 793.48C3179.32 792.78 3166.14 792.06 3154.54 791.31C3142.93 790.57 3130.71 785.76 3117.87 776.87C3117.61 782.74 3119.83 787.18 3124.54 790.2C3129.25 793.22 3138.38 796.56 3151.95 800.2C3142.56 799.22 3133.68 801.68 3125.28 807.61C3116.89 813.54 3111.21 823.41 3108.24 837.24C3118.12 826.37 3129.48 818.35 3142.32 813.16C3155.16 807.98 3167.5 804.89 3179.35 803.91C3172.44 810.33 3169.23 818.72 3169.72 829.09C3170.22 839.46 3167.5 847.61 3161.58 853.53C3182.07 851.8 3194.66 845.63 3199.35 835.02C3204.04 824.4 3205.52 813.38 3203.8 801.97C3209.97 796.33 3219.23 793.27 3231.57 792.78C3243.92 792.3 3254.9 789.46 3264.53 784.28C3259.59 785.27 3252.43 785.14 3243.05 783.91C3228.98 782.06 3224.54 780.94 3214.91 784.28C3208.49 786.5 3204.51 788.84 3202.97 791.29Z" />
						<g id="&lt;Group&gt;" style="mix-blend-mode: screen">
							<path id="&lt;Path&gt;" class="shp20" d="M3066.58 887.02L3098.65 893.91C3097.31 898.25 3096.04 902.92 3094.9 907.89C3088.69 934.96 3088.55 958.65 3094.48 978.96C3075.3 962.88 3065.57 938.77 3065.28 906.62C3065.23 899.57 3065.71 893.03 3066.58 887.02Z" />
							<path id="&lt;Path&gt;" class="shp20" d="M3121.97 847.81C3116.65 853.65 3111.29 862.58 3105.9 874.59L3071.98 864.95C3076.82 851.31 3082.77 841.09 3089.82 834.27C3097.15 841.33 3107.87 845.84 3121.97 847.81Z" />
						</g>
					</g>
					<path id="&lt;Path&gt;" class="shp17" d="M3026.3 960.9C3010.01 976.71 2982.85 983.13 2945.81 970.29C2921.12 961.73 2907.46 952.67 2904.83 943.13C2917.34 941.81 2927.21 933.91 2934.46 919.42C2937.1 921.67 2940.6 924.11 2944.96 926.74C2945.25 926.91 2945.55 927.09 2945.84 927.26C2948.28 928.7 2951.06 930.2 2954.09 931.62C2954.4 931.76 2954.71 931.9 2955.03 932.05C2957.39 933.12 2959.9 934.14 2962.52 935.04C2962.85 935.15 2963.17 935.26 2963.5 935.37C2966.47 936.35 2969.59 937.19 2972.82 937.79C2973.15 937.86 2973.49 937.92 2973.83 937.97C2975.65 938.29 2977.51 938.53 2979.39 938.68C2980.75 938.79 2982.06 938.87 2983.32 938.9C2983.67 938.91 2984.01 938.92 2984.35 938.92C2987.03 938.97 2989.51 938.87 2991.8 938.65C2992.15 938.63 2992.49 938.59 2992.82 938.55C2996.2 938.18 2999.12 937.56 3001.61 936.82C3001.95 936.73 3002.28 936.63 3002.6 936.51C3005.27 935.67 3007.41 934.69 3009.07 933.77C3009.4 933.6 3009.71 933.43 3010 933.25C3011.66 932.26 3012.87 931.36 3013.63 930.56C3032.94 940.25 3037.17 950.37 3026.3 960.9Z" />
					<g id="&lt;Group&gt;">
						<g id="&lt;Group&gt;">
							<path id="&lt;Path&gt;" class="shp11" d="M2945.84 927.26L2934.63 943.4C2934.53 943.54 2934.37 943.62 2934.21 943.62C2934.11 943.62 2934 943.59 2933.91 943.53C2933.68 943.36 2933.62 943.04 2933.79 942.81L2944.96 926.74C2945.25 926.91 2945.55 927.09 2945.84 927.26Z" />
						</g>
						<g id="&lt;Group&gt;">
							<path id="&lt;Path&gt;" class="shp11" d="M2955.03 932.05L2948.54 943.36C2948.45 943.53 2948.27 943.62 2948.1 943.62C2948 943.62 2947.92 943.6 2947.84 943.55C2947.59 943.42 2947.51 943.1 2947.65 942.85L2954.09 931.62C2954.4 931.76 2954.71 931.9 2955.03 932.05Z" />
						</g>
						<g id="&lt;Group&gt;">
							<path id="&lt;Path&gt;" class="shp11" d="M2963.5 935.37L2958.75 946.48C2958.67 946.68 2958.48 946.79 2958.28 946.79C2958.21 946.79 2958.15 946.78 2958.08 946.75C2957.82 946.64 2957.69 946.34 2957.81 946.07L2962.52 935.04C2962.85 935.15 2963.17 935.26 2963.5 935.37Z" />
						</g>
						<g id="&lt;Group&gt;">
							<path id="&lt;Path&gt;" class="shp11" d="M2973.83 937.97L2970.27 958.03C2970.22 958.28 2970.01 958.46 2969.76 958.46C2969.73 958.46 2969.7 958.46 2969.67 958.45C2969.39 958.39 2969.21 958.13 2969.26 957.85L2972.82 937.79C2973.15 937.86 2973.49 937.92 2973.83 937.97Z" />
						</g>
						<g id="&lt;Group&gt;">
							<path id="&lt;Path&gt;" class="shp11" d="M2984.35 938.92L2984.35 950.53C2984.35 950.82 2984.12 951.05 2983.84 951.05C2983.55 951.05 2983.32 950.82 2983.32 950.53L2983.32 938.9C2983.67 938.91 2984.01 938.92 2984.35 938.92Z" />
						</g>
						<g id="&lt;Group&gt;">
							<path id="&lt;Path&gt;" class="shp11" d="M2994.52 948.97C2994.58 949.25 2994.38 949.52 2994.1 949.56C2994.07 949.57 2994.05 949.57 2994.02 949.57C2993.77 949.57 2993.56 949.39 2993.52 949.14L2991.8 938.65C2992.15 938.63 2992.49 938.59 2992.82 938.55L2994.52 948.97Z" />
						</g>
						<g id="&lt;Group&gt;">
							<path id="&lt;Path&gt;" class="shp11" d="M3004.51 946.78C3004.47 946.79 3004.43 946.79 3004.39 946.79C3004.15 946.79 3003.95 946.64 3003.89 946.4L3001.61 936.82C3001.95 936.73 3002.28 936.63 3002.6 936.51L3004.89 946.15C3004.96 946.43 3004.78 946.71 3004.51 946.78Z" />
						</g>
						<g id="&lt;Group&gt;">
							<path id="&lt;Path&gt;" class="shp11" d="M3015.65 953.07C3015.6 953.08 3015.55 953.09 3015.5 953.09C3015.28 953.09 3015.08 952.94 3015.01 952.73L3009.07 933.77C3009.4 933.6 3009.71 933.43 3010 933.25L3015.99 952.42C3016.08 952.68 3015.92 952.97 3015.65 953.07Z" />
						</g>
					</g>
					<path id="&lt;Path&gt;" class="shp18" d="M3386.83 917.71C3341.32 1026.36 3066.27 1010.07 3034.58 976C3019.23 959.49 3012.18 940.58 3013.45 922.83C3013.49 922.25 3013.54 921.69 3013.6 921.11C3018.01 924.66 3021.94 928.96 3025.49 933.53C3025.98 934.14 3026.44 934.74 3026.9 935.36C3028.09 936.95 3029.25 938.57 3030.36 940.2C3029.96 940.94 3029.65 941.6 3029.46 942.2C3029.31 942.65 3029.24 943.06 3029.24 943.41C3029.24 943.91 3029.55 944.57 3030.19 945.36C3030.41 945.63 3030.67 945.9 3030.97 946.2C3032.64 947.88 3035.58 949.98 3039.94 952.21C3040.36 952.42 3040.79 952.63 3041.24 952.86C3043.36 953.89 3045.78 954.94 3048.52 955.99C3048.92 956.14 3049.32 956.3 3049.74 956.45C3051.76 957.2 3053.94 957.94 3056.28 958.67C3056.66 958.78 3057.03 958.91 3057.42 959.02L3057.43 959.02C3060.28 959.89 3063.37 960.72 3066.7 961.51C3067.07 961.6 3067.44 961.7 3067.83 961.78C3071.25 962.58 3074.93 963.34 3078.87 964.04C3079.23 964.1 3079.6 964.17 3079.97 964.23C3082.83 964.72 3085.83 965.18 3088.97 965.61C3089.32 965.66 3089.67 965.7 3090.03 965.75C3092.71 966.1 3095.5 966.42 3098.39 966.72C3098.74 966.75 3099.09 966.79 3099.44 966.82C3102.54 967.13 3105.73 967.4 3109.07 967.61C3109.42 967.64 3109.77 967.66 3110.12 967.68C3114.1 967.94 3118.23 968.15 3122.55 968.28C3122.9 968.29 3123.25 968.3 3123.6 968.31C3126.24 968.38 3128.94 968.43 3131.71 968.46C3132.06 968.47 3132.4 968.47 3132.75 968.47C3135.5 968.49 3138.32 968.48 3141.2 968.43C3141.55 968.43 3141.89 968.43 3142.23 968.42C3146.26 968.36 3150.4 968.25 3154.67 968.07C3155.01 968.06 3155.36 968.05 3155.7 968.03C3158.64 967.91 3161.65 967.76 3164.71 967.57C3165.06 967.56 3165.4 967.54 3165.75 967.51C3168.1 967.38 3170.47 967.21 3172.89 967.04C3173.23 967 3173.58 966.98 3173.93 966.95C3177.38 966.7 3180.9 966.4 3184.49 966.06C3184.83 966.03 3185.18 966 3185.52 965.97C3188.53 965.68 3191.58 965.37 3194.69 965.03C3195.04 965 3195.38 964.96 3195.73 964.92C3200.12 964.43 3204.62 963.89 3209.22 963.29C3209.56 963.25 3209.9 963.21 3210.24 963.17C3215.71 962.44 3221.33 961.64 3227.09 960.75C3227.23 960.73 3227.36 960.71 3227.51 960.69C3227.7 960.66 3227.91 960.63 3228.1 960.6C3232.86 959.85 3237.46 959.06 3241.91 958.22C3242.25 958.16 3242.59 958.1 3242.93 958.02C3247.61 957.13 3252.13 956.18 3256.5 955.18C3256.83 955.11 3257.17 955.03 3257.5 954.95C3263.19 953.64 3268.61 952.24 3273.78 950.77C3274.11 950.69 3274.44 950.59 3274.77 950.49C3279.81 949.04 3284.6 947.53 3289.17 945.96C3289.5 945.84 3289.83 945.73 3290.15 945.62C3294.1 944.24 3297.87 942.82 3301.49 941.36C3301.82 941.23 3302.13 941.1 3302.45 940.97C3305.8 939.61 3309 938.21 3312.05 936.79C3312.38 936.65 3312.7 936.49 3313.02 936.34C3316.25 934.82 3319.32 933.27 3322.25 931.71C3322.58 931.52 3322.9 931.35 3323.23 931.17C3328.07 928.54 3332.49 925.85 3336.54 923.13C3336.87 922.91 3337.2 922.69 3337.53 922.47C3340.05 920.74 3342.43 919.01 3344.65 917.28C3344.98 917.03 3345.3 916.78 3345.62 916.53C3348.52 914.24 3351.17 911.94 3353.6 909.66C3353.93 909.35 3354.26 909.04 3354.58 908.73C3356.32 907.07 3357.94 905.41 3359.46 903.78C3359.8 903.41 3360.13 903.04 3360.45 902.68C3363.34 899.46 3365.8 896.31 3367.88 893.3L3367.88 893.29C3368.21 892.84 3368.52 892.41 3368.82 891.97C3370.68 889.19 3372.22 886.54 3373.51 884.06L3373.51 884.03C3373.84 883.4 3374.16 882.8 3374.44 882.19C3377.14 876.65 3378.5 872.11 3379.18 869.15L3379.18 869.09C3379.42 868.06 3379.58 867.27 3379.67 866.65C3379.76 866.1 3379.81 865.68 3379.84 865.38C3377.65 863.2 3374.44 861.44 3370.23 860.09C3372.56 855.22 3374.78 850.33 3377.09 845.55C3378.93 841.72 3380.81 837.95 3382.85 834.3C3398.53 847.44 3405.49 873.17 3386.83 917.71Z" />
					<path id="&lt;Path&gt;" class="shp17" d="M3379.84 865.38C3377.65 863.2 3374.44 861.44 3370.23 860.09C3366.13 858.78 3360.76 858 3354.16 858.97C3350.41 859.52 3347.16 860.29 3344.36 861.16C3340.09 847.38 3334.23 835.8 3327.1 826.19C3331.38 824.71 3336.22 823.67 3341.29 823.19C3341.63 823.17 3341.96 823.14 3342.27 823.09L3342.29 823.09C3342.83 823 3343.43 822.96 3344.09 822.97L3344.12 822.97C3352.61 823.03 3369.96 830.6 3377.09 845.55C3379.76 851.13 3381.01 857.74 3379.84 865.38Z" />
					<path id="&lt;Path&gt;" class="shp17" d="M3035.68 932.86C3033.4 935.58 3031.49 938.14 3030.36 940.2C3029.65 941.49 3029.24 942.59 3029.24 943.41C3029.24 943.91 3029.55 944.57 3030.19 945.36C3020.69 938.33 3015.87 929.99 3013.45 922.83C3013.49 922.25 3013.54 921.69 3013.6 921.11C3015.21 905.46 3023.39 890.84 3038.18 879.78C3037.03 884.69 3036.19 889.79 3035.66 895.01C3034.35 907.73 3034.09 920.48 3035.68 932.86Z" />
					<g id="&lt;Group&gt;">
						<g id="&lt;Group&gt;">
							<path id="&lt;Path&gt;" class="shp11" d="M3045.94 968.33C3045.89 968.35 3045.83 968.36 3045.78 968.36C3045.56 968.36 3045.37 968.23 3045.3 968.01L3039.94 952.21C3040.36 952.42 3040.79 952.63 3041.24 952.86L3046.26 967.68C3046.36 967.95 3046.21 968.24 3045.94 968.33Z" />
						</g>
						<g id="&lt;Group&gt;">
							<path id="&lt;Path&gt;" class="shp11" d="M3052.85 968.34C3052.8 968.35 3052.74 968.36 3052.69 968.36C3052.48 968.36 3052.27 968.22 3052.2 968L3048.52 955.99C3048.92 956.14 3049.32 956.3 3049.74 956.45L3053.19 967.69C3053.27 967.97 3053.11 968.26 3052.85 968.34Z" />
						</g>
						<g id="&lt;Group&gt;">
							<path id="&lt;Path&gt;" class="shp11" d="M3059.74 969.82C3059.69 969.83 3059.65 969.84 3059.61 969.84C3059.38 969.84 3059.17 969.69 3059.11 969.46L3056.28 958.67C3056.66 958.78 3057.03 958.91 3057.42 959.02L3057.43 959.02L3060.1 969.2C3060.17 969.47 3060.01 969.75 3059.74 969.82Z" />
						</g>
						<g id="&lt;Group&gt;">
							<path id="&lt;Path&gt;" class="shp11" d="M3072.57 982.66C3072.53 982.68 3072.49 982.68 3072.44 982.68C3072.22 982.68 3072 982.53 3071.94 982.29L3066.7 961.51C3067.07 961.6 3067.44 961.7 3067.83 961.78L3072.94 982.05C3073.01 982.32 3072.85 982.6 3072.57 982.66Z" />
						</g>
						<g id="&lt;Group&gt;">
							<path id="&lt;Path&gt;" class="shp11" d="M3082.07 976.25C3082.03 976.26 3082 976.26 3081.96 976.26C3081.72 976.26 3081.52 976.1 3081.46 975.86L3078.87 964.04C3079.23 964.1 3079.6 964.17 3079.97 964.23L3082.46 975.64C3082.53 975.91 3082.35 976.19 3082.07 976.25Z" />
						</g>
						<g id="&lt;Group&gt;">
							<path id="&lt;Path&gt;" class="shp11" d="M3091.69 975.67C3091.73 975.94 3091.55 976.21 3091.27 976.25C3091.24 976.26 3091.21 976.26 3091.18 976.26C3090.93 976.26 3090.71 976.09 3090.67 975.83L3088.97 965.61C3089.32 965.66 3089.67 965.7 3090.03 965.75L3091.69 975.67Z" />
						</g>
						<g id="&lt;Group&gt;">
							<path id="&lt;Path&gt;" class="shp11" d="M3101.1 977.15C3101.15 977.43 3100.95 977.69 3100.67 977.73C3100.64 977.74 3100.62 977.74 3100.59 977.74C3100.34 977.74 3100.13 977.57 3100.09 977.31L3098.39 966.72C3098.74 966.75 3099.09 966.79 3099.44 966.82L3101.1 977.15Z" />
						</g>
						<g id="&lt;Group&gt;">
							<path id="&lt;Path&gt;" class="shp11" d="M3112.95 985.05C3113 985.33 3112.8 985.59 3112.52 985.64C3112.49 985.65 3112.47 985.65 3112.44 985.65C3112.2 985.65 3111.98 985.47 3111.94 985.21L3109.07 967.61C3109.42 967.64 3109.77 967.66 3110.12 967.68L3112.95 985.05Z" />
						</g>
						<g id="&lt;Group&gt;">
							<path id="&lt;Path&gt;" class="shp11" d="M3124.81 978.9C3124.84 979.19 3124.63 979.44 3124.36 979.47L3124.29 979.47C3124.04 979.47 3123.81 979.28 3123.78 979.02L3122.55 968.28C3122.9 968.29 3123.25 968.3 3123.6 968.31L3124.81 978.9Z" />
						</g>
						<g id="&lt;Group&gt;">
							<path id="&lt;Path&gt;" class="shp11" d="M3133.94 978.9C3133.97 979.19 3133.77 979.44 3133.49 979.47L3133.43 979.47C3133.17 979.47 3132.95 979.28 3132.91 979.02L3131.71 968.46C3132.06 968.47 3132.4 968.47 3132.75 968.47L3133.94 978.9Z" />
						</g>
						<g id="&lt;Group&gt;">
							<path id="&lt;Path&gt;" class="shp11" d="M3143.39 978.91C3143.42 979.19 3143.21 979.44 3142.93 979.47L3142.87 979.47C3142.62 979.47 3142.4 979.28 3142.37 979.01L3141.2 968.43C3141.55 968.43 3141.89 968.43 3142.23 968.42L3143.39 978.91Z" />
						</g>
						<g id="&lt;Group&gt;">
							<path id="&lt;Path&gt;" class="shp11" d="M3159.36 990.73C3159.42 991.01 3159.22 991.27 3158.94 991.31C3158.91 991.32 3158.89 991.32 3158.86 991.32C3158.61 991.32 3158.4 991.14 3158.36 990.89L3154.67 968.07C3155.01 968.06 3155.36 968.05 3155.7 968.03L3159.36 990.73Z" />
						</g>
						<g id="&lt;Group&gt;">
							<path id="&lt;Path&gt;" class="shp11" d="M3175.91 977.13C3175.96 977.42 3175.78 977.68 3175.5 977.73C3175.46 977.74 3175.43 977.74 3175.4 977.74C3175.17 977.74 3174.95 977.57 3174.9 977.33L3172.89 967.04C3173.23 967 3173.58 966.98 3173.93 966.95L3175.91 977.13Z" />
						</g>
						<g id="&lt;Group&gt;">
							<path id="&lt;Path&gt;" class="shp11" d="M3187.28 976.25C3187.24 976.26 3187.21 976.26 3187.17 976.26C3186.93 976.26 3186.72 976.1 3186.67 975.86L3184.49 966.06C3184.83 966.03 3185.18 966 3185.52 965.97L3187.67 975.64C3187.74 975.91 3187.56 976.19 3187.28 976.25Z" />
						</g>
						<g id="&lt;Group&gt;">
							<path id="&lt;Path&gt;" class="shp11" d="M3167.36 977.73C3167.33 977.74 3167.28 977.74 3167.25 977.74C3167.02 977.74 3166.8 977.58 3166.75 977.33L3164.71 967.57C3165.06 967.56 3165.4 967.54 3165.75 967.51L3167.76 977.13C3167.82 977.41 3167.63 977.67 3167.36 977.73Z" />
						</g>
						<g id="&lt;Group&gt;">
							<path id="&lt;Path&gt;" class="shp11" d="M3198.25 976.24C3198.21 976.25 3198.16 976.26 3198.12 976.26C3197.89 976.26 3197.68 976.11 3197.62 975.88L3194.69 965.03C3195.04 965 3195.38 964.96 3195.73 964.92L3198.61 975.62C3198.68 975.89 3198.53 976.17 3198.25 976.24Z" />
						</g>
						<g id="&lt;Group&gt;">
							<path id="&lt;Path&gt;" class="shp11" d="M3213.68 985.05C3213.73 985.34 3213.54 985.59 3213.26 985.64C3213.23 985.65 3213.21 985.65 3213.18 985.65C3212.93 985.65 3212.71 985.46 3212.67 985.21L3209.22 963.29C3209.56 963.25 3209.9 963.21 3210.24 963.17L3213.68 985.05Z" />
						</g>
						<g id="&lt;Group&gt;">
							<path id="&lt;Path&gt;" class="shp11" d="M3230.47 975.67C3230.52 975.95 3230.33 976.21 3230.05 976.25C3230.02 976.26 3230 976.26 3229.97 976.26C3229.72 976.26 3229.49 976.08 3229.46 975.83L3227.09 960.75C3227.23 960.73 3227.36 960.71 3227.51 960.69C3227.7 960.66 3227.91 960.63 3228.1 960.6L3230.47 975.67Z" />
						</g>
						<g id="&lt;Group&gt;">
							<path id="&lt;Path&gt;" class="shp11" d="M3245.39 971.56C3245.35 971.57 3245.31 971.57 3245.27 971.57C3245.04 971.57 3244.82 971.41 3244.77 971.17L3241.91 958.22C3242.25 958.16 3242.59 958.1 3242.93 958.02L3245.78 970.94C3245.84 971.22 3245.67 971.5 3245.39 971.56Z" />
						</g>
						<g id="&lt;Group&gt;">
							<path id="&lt;Path&gt;" class="shp11" d="M3259.85 968.25C3259.9 968.53 3259.72 968.79 3259.44 968.85C3259.41 968.86 3259.38 968.86 3259.35 968.86C3259.1 968.86 3258.89 968.68 3258.84 968.43L3256.5 955.18C3256.83 955.11 3257.17 955.03 3257.5 954.95L3259.85 968.25Z" />
						</g>
						<g id="&lt;Group&gt;">
							<path id="&lt;Path&gt;" class="shp11" d="M3278.12 970.98C3278.17 971.25 3277.98 971.52 3277.7 971.56C3277.67 971.57 3277.65 971.57 3277.62 971.57C3277.37 971.57 3277.16 971.4 3277.11 971.14L3273.78 950.77C3274.11 950.69 3274.44 950.59 3274.77 950.49L3278.12 970.98Z" />
						</g>
						<g id="&lt;Group&gt;">
							<path id="&lt;Path&gt;" class="shp11" d="M3292.44 959.37C3292.49 959.65 3292.3 959.92 3292.02 959.96C3291.99 959.97 3291.97 959.97 3291.94 959.97C3291.69 959.97 3291.48 959.79 3291.43 959.54L3289.17 945.96C3289.5 945.84 3289.83 945.73 3290.15 945.62L3292.44 959.37Z" />
						</g>
						<g id="&lt;Group&gt;">
							<path id="&lt;Path&gt;" class="shp11" d="M3305.28 955.54C3305.33 955.82 3305.16 956.09 3304.88 956.14C3304.84 956.15 3304.81 956.15 3304.78 956.15C3304.53 956.15 3304.33 955.99 3304.27 955.74L3301.49 941.36C3301.82 941.23 3302.13 941.1 3302.45 940.97L3305.28 955.54Z" />
						</g>
						<g id="&lt;Group&gt;">
							<path id="&lt;Path&gt;" class="shp11" d="M3315.4 949.73C3315.46 950.01 3315.27 950.28 3314.99 950.33C3314.96 950.34 3314.93 950.34 3314.9 950.34C3314.65 950.34 3314.44 950.16 3314.4 949.92L3312.05 936.79C3312.38 936.65 3312.7 936.49 3313.02 936.34L3315.4 949.73Z" />
						</g>
						<g id="&lt;Group&gt;">
							<path id="&lt;Path&gt;" class="shp11" d="M3325.04 952.01C3325.06 952.28 3324.86 952.53 3324.57 952.56L3324.53 952.56C3324.26 952.56 3324.04 952.36 3324.02 952.09L3322.25 931.71C3322.58 931.52 3322.9 931.35 3323.23 931.17L3325.04 952.01Z" />
						</g>
						<g id="&lt;Group&gt;">
							<path id="&lt;Path&gt;" class="shp11" d="M3338.62 939.42C3338.64 939.7 3338.43 939.95 3338.14 939.97L3338.11 939.97C3337.84 939.97 3337.62 939.76 3337.59 939.49L3336.54 923.13C3336.87 922.91 3337.2 922.69 3337.53 922.47L3338.62 939.42Z" />
						</g>
						<g id="&lt;Group&gt;">
							<path id="&lt;Path&gt;" class="shp11" d="M3346.92 931.02C3346.95 931.3 3346.74 931.54 3346.45 931.57L3346.4 931.57C3346.14 931.57 3345.92 931.38 3345.9 931.11L3344.65 917.28C3344.98 917.03 3345.3 916.78 3345.62 916.53L3346.92 931.02Z" />
						</g>
						<g id="&lt;Group&gt;">
							<path id="&lt;Path&gt;" class="shp11" d="M3355.41 926.6C3355.42 926.87 3355.21 927.12 3354.92 927.13C3354.91 927.13 3354.91 927.13 3354.9 927.13C3354.62 927.13 3354.39 926.91 3354.38 926.64L3353.6 909.66C3353.93 909.35 3354.26 909.04 3354.58 908.73L3355.41 926.6Z" />
						</g>
						<g id="&lt;Group&gt;">
							<path id="&lt;Path&gt;" class="shp11" d="M3361.58 932.44C3361.63 932.72 3361.44 932.99 3361.16 933.05C3361.13 933.05 3361.1 933.06 3361.07 933.06C3360.82 933.06 3360.62 932.88 3360.57 932.64C3360.4 931.81 3359.85 915.62 3359.46 903.78C3359.8 903.41 3360.13 903.04 3360.45 902.68C3360.87 915.38 3361.43 931.62 3361.58 932.44Z" />
						</g>
						<g id="&lt;Group&gt;">
							<path id="&lt;Path&gt;" class="shp11" d="M3370.47 913.49C3370.49 913.78 3370.28 914.02 3370 914.04L3369.96 914.04C3369.69 914.04 3369.47 913.84 3369.45 913.57L3367.88 893.3L3367.88 893.29C3368.21 892.84 3368.52 892.41 3368.82 891.97L3370.47 913.49Z" />
						</g>
						<g id="&lt;Group&gt;">
							<path id="&lt;Path&gt;" class="shp11" d="M3375.66 904.8C3375.67 905.08 3375.45 905.32 3375.18 905.34L3375.14 905.34C3374.88 905.34 3374.65 905.13 3374.63 904.86L3373.51 884.06L3373.51 884.03C3373.84 883.4 3374.16 882.8 3374.44 882.19L3375.66 904.8Z" />
						</g>
						<g id="&lt;Group&gt;">
							<path id="&lt;Path&gt;" class="shp11" d="M3382.33 907.82C3382.34 908.11 3382.12 908.35 3381.84 908.37L3381.81 908.37C3381.54 908.37 3381.32 908.15 3381.3 907.88L3379.18 869.15L3379.18 869.09C3379.42 868.06 3379.58 867.27 3379.67 866.65C3379.9 866.68 3380.08 866.88 3380.1 867.12L3382.33 907.82Z" />
						</g>
					</g>
					<g id="&lt;Group&gt;">
						<g id="&lt;Group&gt;">
							<path id="&lt;Path&gt;" class="shp11" d="M3408.94 892.28C3408.87 892.31 3408.79 892.32 3408.72 892.32C3408.53 892.32 3408.34 892.2 3408.25 892.02L3400.09 874.17C3400.41 874.04 3400.72 873.88 3401.03 873.73L3409.19 891.59C3409.31 891.84 3409.2 892.15 3408.94 892.28Z" />
						</g>
						<g id="&lt;Group&gt;">
							<path id="&lt;Path&gt;" class="shp11" d="M3416.16 884.51C3416.07 884.56 3415.98 884.58 3415.88 884.58C3415.71 884.58 3415.54 884.5 3415.45 884.34L3406.92 870.75C3407.23 870.59 3407.53 870.44 3407.83 870.26L3416.32 883.8C3416.47 884.04 3416.4 884.35 3416.16 884.51Z" />
						</g>
						<g id="&lt;Group&gt;">
							<path id="&lt;Path&gt;" class="shp11" d="M3422.83 877.67C3422.74 877.72 3422.64 877.75 3422.55 877.75C3422.38 877.75 3422.21 877.67 3422.12 877.51L3414.87 866.17C3415.17 865.99 3415.46 865.81 3415.75 865.62L3422.98 876.96C3423.14 877.19 3423.06 877.51 3422.83 877.67Z" />
						</g>
						<g id="&lt;Group&gt;">
							<path id="&lt;Path&gt;" class="shp11" d="M3435.69 876.03C3435.59 876.09 3435.49 876.12 3435.39 876.12C3435.22 876.12 3435.07 876.05 3434.97 875.91L3423.79 860.14C3424.07 859.93 3424.35 859.73 3424.62 859.52L3435.81 875.31C3435.97 875.55 3435.91 875.87 3435.69 876.03Z" />
						</g>
					</g>
				</g>
				<g id="&lt;Group&gt;">
					<g id="&lt;Group&gt;">
						<g id="&lt;Group&gt;">
							<g id="&lt;Group&gt;">
								<path id="&lt;Path&gt;" class="shp13" d="M1695.83 1823.42L1713.43 1816.17L1528.86 1368.5L1511.27 1375.76L1695.83 1823.42Z" />
							</g>
							<path id="&lt;Path&gt;" class="shp6" d="M1716.79 1802.03L897.21 1854.16C879.63 1855.28 866.3 1870.43 867.41 1888C868.49 1904.88 882.61 1917.85 899.29 1917.85L1720.53 1916.16C1752.08 1916.1 1777.6 1890.47 1777.54 1858.92C1777.47 1827.37 1751.85 1801.85 1720.3 1801.91C1719.18 1801.91 1717.89 1801.96 1716.79 1802.03Z" />
							<path id="&lt;Path&gt;" class="shp7" d="M1666.21 1860.82C1666.93 1882.75 1685.3 1899.95 1707.23 1899.23C1729.17 1898.51 1746.37 1880.15 1745.65 1858.21C1744.93 1836.28 1726.57 1819.08 1704.63 1819.8C1682.69 1820.51 1665.49 1838.88 1666.21 1860.82Z" />
							<path id="&lt;Path&gt;" class="shp6" d="M1540.94 1356.41C1560.11 1405.74 1568.59 1432.53 1566.39 1436.76C1563.09 1443.12 1537.17 1454.36 1530.57 1453.38C1526.17 1452.73 1506.36 1430.73 1471.12 1387.4L1540.94 1356.41Z" />
							<path id="&lt;Path&gt;" class="shp6" d="M1442.98 1383.17C1443.4 1388.23 1445.15 1392.53 1446.79 1395.5C1447.8 1397.41 1448.78 1398.9 1449.72 1399.99C1486.26 1385.71 1510.93 1375.21 1523.72 1368.51C1536.51 1361.79 1548.38 1350.97 1559.35 1336.04C1552.19 1316.17 1529.96 1286.71 1514.16 1279.13C1510.74 1277.46 1507.58 1276.85 1504.99 1277.57C1504 1277.84 1502.93 1278.45 1501.72 1279.33C1490.03 1308.33 1468.41 1356.03 1442.98 1383.17Z" />
							<g id="&lt;Group&gt;">
								<path id="&lt;Path&gt;" class="shp13" d="M1388.79 1412.85C1439.1 1412.85 1538.02 1398.03 1603.48 1292.48C1605.14 1289.8 1604.32 1286.28 1601.64 1284.62C1598.96 1282.95 1595.44 1283.78 1593.78 1286.46C1525.57 1396.43 1419.42 1403.28 1376.92 1401.14C1373.84 1400.97 1371.09 1403.41 1370.93 1406.55C1370.77 1409.7 1373.19 1412.39 1376.34 1412.55C1380.05 1412.74 1384.22 1412.85 1388.79 1412.85Z" />
							</g>
							<g id="&lt;Group&gt;">
								<path id="&lt;Path&gt;" class="shp13" d="M1419.34 1407.45C1420.33 1409.47 1422.35 1410.61 1424.44 1410.61C1425.28 1410.61 1426.16 1410.42 1426.99 1410.04C1433.81 1406.66 1440.39 1401.67 1446.79 1395.5C1477.35 1365.89 1502.21 1309.63 1514.16 1279.13C1518.73 1267.52 1521.4 1259.65 1521.81 1258.39C1522.84 1255.38 1521.21 1252.15 1518.24 1251.16C1515.23 1250.13 1511.99 1251.77 1511 1254.74C1510.89 1255.08 1507.54 1264.9 1501.72 1279.33C1490.03 1308.33 1468.41 1356.03 1442.98 1383.17C1436.17 1390.44 1429.12 1396.23 1421.89 1399.8C1419.08 1401.21 1417.93 1404.64 1419.34 1407.45Z" />
							</g>
						</g>
						<path id="&lt;Path&gt;" class="shp7" d="M884.51 1886.46C884.95 1899.88 896.19 1910.41 909.62 1909.97C923.04 1909.53 933.57 1898.29 933.13 1884.86C932.69 1871.44 921.45 1860.91 908.02 1861.35C894.6 1861.79 884.07 1873.03 884.51 1886.46Z" />
					</g>
					<g id="&lt;Group&gt;">
						<g id="&lt;Group&gt;">
							<path id="&lt;Path&gt;" class="shp21" d="M1201.26 1209.31C1160.91 1192.84 1131.73 1154.48 1141.65 1121.4C1151.58 1088.32 1180.92 1103.21 1199.44 1095.93C1217.97 1088.65 1238.13 1056.84 1262.54 1089.53C1275.85 1107.34 1258.7 1151.83 1226.68 1151.83C1205.32 1151.83 1196.85 1170.99 1201.26 1209.31Z" />
						</g>
						<g id="&lt;Group&gt;">
							<path id="&lt;Path&gt;" class="shp22" d="M1289.27 1821.49C1292.29 1824.9 1296.29 1827.18 1301.09 1827.98C1317.36 1830.63 1382.63 1804.93 1390.23 1786.56C1391.06 1784.5 1391.19 1782.53 1390.45 1780.71C1387.13 1772.53 1370.94 1769.63 1353.21 1769.11C1352.05 1769.08 1350.88 1769.05 1349.71 1769.05C1345.55 1768.99 1341.37 1769.08 1337.27 1769.2C1335.98 1769.23 1334.72 1769.3 1333.49 1769.36C1318.84 1770.07 1306.13 1771.73 1302.19 1772.59C1291.85 1774.8 1288.65 1775.23 1287.79 1777.02C1279.45 1794.28 1280.78 1812.1 1289.27 1821.49Z" />
							<g id="&lt;Group&gt;">
								<path id="&lt;Path&gt;" class="shp23" d="M1289.27 1821.49C1292.29 1824.9 1296.29 1827.18 1301.09 1827.98C1317.36 1830.63 1382.63 1804.93 1390.23 1786.56C1390.21 1786.54 1390.2 1786.53 1390.2 1786.53C1328.47 1802.56 1300.78 1813.64 1289.27 1821.49Z" />
							</g>
							<g id="&lt;Group&gt;">
								<g id="&lt;Group&gt;">
									<path id="&lt;Path&gt;" class="shp24" d="M1322.63 1785.45C1322.47 1785.91 1322.69 1786.41 1323.15 1786.59C1323.24 1786.62 1323.37 1786.62 1323.46 1786.62C1323.83 1786.62 1324.17 1786.41 1324.29 1786.07C1327.98 1775.97 1332.78 1771.36 1337.27 1769.2C1335.98 1769.23 1334.72 1769.3 1333.49 1769.36C1329.61 1772.13 1325.73 1776.96 1322.63 1785.45Z" />
								</g>
								<g id="&lt;Group&gt;">
									<path id="&lt;Path&gt;" class="shp24" d="M1338.41 1785.45C1338.23 1785.91 1338.47 1786.41 1338.94 1786.59C1339.03 1786.62 1339.12 1786.62 1339.21 1786.62C1339.58 1786.62 1339.92 1786.41 1340.04 1786.07C1343.8 1775.82 1348.69 1771.23 1353.21 1769.11C1352.05 1769.08 1350.88 1769.05 1349.71 1769.05C1345.68 1771.76 1341.61 1776.65 1338.41 1785.45Z" />
								</g>
							</g>
						</g>
						<g id="&lt;Group&gt;">
							<path id="&lt;Path&gt;" class="shp22" d="M923.96 1719.23C920.63 1722.34 918.46 1726.4 917.79 1731.22C915.57 1747.56 942.99 1812.12 961.56 1819.23C963.64 1820.01 965.61 1820.08 967.41 1819.29C975.5 1815.75 977.96 1799.5 978.02 1781.76C978.02 1780.6 978.02 1779.42 977.99 1778.26C977.94 1774.1 977.73 1769.92 977.5 1765.83C977.44 1764.54 977.34 1763.28 977.25 1762.05C976.15 1747.43 974.15 1734.77 973.19 1730.85C970.7 1720.58 970.18 1717.39 968.38 1716.58C950.9 1708.7 933.12 1710.49 923.96 1719.23Z" />
							<g id="&lt;Group&gt;">
								<path id="&lt;Path&gt;" class="shp23" d="M923.96 1719.23C920.63 1722.34 918.46 1726.4 917.79 1731.22C915.57 1747.56 942.99 1812.12 961.56 1819.23C961.58 1819.21 961.59 1819.2 961.59 1819.2C943.92 1757.92 932.11 1730.53 923.96 1719.23Z" />
							</g>
							<g id="&lt;Group&gt;">
								<g id="&lt;Group&gt;">
									<path id="&lt;Path&gt;" class="shp24" d="M960.87 1751.62C960.41 1751.48 959.92 1751.71 959.75 1752.17C959.72 1752.27 959.72 1752.39 959.72 1752.48C959.73 1752.85 959.96 1753.18 960.3 1753.3C970.49 1756.72 975.23 1761.4 977.5 1765.83C977.44 1764.54 977.34 1763.28 977.25 1762.05C974.38 1758.25 969.44 1754.5 960.87 1751.62Z" />
								</g>
								<g id="&lt;Group&gt;">
									<path id="&lt;Path&gt;" class="shp24" d="M961.29 1767.4C960.82 1767.23 960.34 1767.49 960.17 1767.96C960.14 1768.05 960.14 1768.14 960.14 1768.23C960.15 1768.6 960.38 1768.93 960.72 1769.05C971.06 1772.53 975.77 1777.3 978.02 1781.76C978.02 1780.6 978.02 1779.42 977.99 1778.26C975.17 1774.3 970.17 1770.37 961.29 1767.4Z" />
								</g>
							</g>
						</g>
						<g id="&lt;Group&gt;">
							<path id="&lt;Path&gt;" class="shp10" d="M1242.74 1461.66C1286.68 1570.97 1290.38 1604.94 1298.5 1635.22C1306.63 1665.5 1309.58 1765.94 1308.1 1772.59C1306.63 1779.24 1291.85 1785.88 1286.68 1782.19C1281.51 1778.5 1252.71 1714.24 1249.76 1687.66C1247.79 1669.93 1248.53 1650.73 1251.97 1630.05C1213.57 1586.23 1195.35 1557.92 1197.32 1545.12C1199.29 1532.32 1214.43 1504.5 1242.74 1461.66Z" />
						</g>
						<path id="&lt;Path&gt;" class="shp25" d="M1194.67 1290.78C1141.38 1326.51 1134.18 1344.77 1134.73 1358.63C1135.28 1372.48 1165.19 1428.43 1189.01 1422.89C1212.83 1417.35 1162.52 1366.95 1164.69 1360.85C1166.86 1354.76 1213.79 1336.7 1212.52 1333.39C1211.67 1331.18 1205.72 1316.98 1194.67 1290.78Z" />
						<path id="&lt;Path&gt;" class="shp25" d="M1251.66 1142.18C1264.65 1153.69 1272.04 1168.65 1271.11 1170.12C1270.5 1171.11 1267.27 1172.56 1261.43 1174.48C1252.25 1161.48 1247.91 1153.75 1248.4 1151.29C1248.9 1148.83 1249.98 1145.79 1251.66 1142.18Z" />
						<path id="&lt;Path&gt;" class="shp26" d="M1179.1 1648.88C1209.26 1606.85 1232.22 1513.36 1242 1468.22C1243.42 1461.6 1244.56 1456 1245.45 1451.79C1246.21 1447.97 1246.78 1444.98 1247.17 1442.83C1274.5 1383.5 1289.64 1345.71 1292.59 1329.46C1297.02 1305.09 1244.43 1261.06 1235.57 1249.24C1229.97 1241.76 1231.45 1245.46 1229.39 1230.99C1228.59 1225.41 1227.99 1220.57 1227.6 1216.47C1240.9 1217.97 1250.61 1214.95 1256.71 1207.42C1268.9 1192.38 1261.57 1166.25 1246.06 1127.84C1239.42 1135.45 1230.19 1138.16 1218.37 1135.97C1203.41 1133.2 1196.77 1119.9 1187.35 1134.86C1177.67 1150.22 1178.41 1162.04 1189.57 1170.31C1179.97 1169.57 1176.36 1173.26 1178.73 1181.39C1181.11 1189.51 1187.31 1196.16 1197.32 1201.33C1196.54 1230.81 1195.66 1260.63 1194.67 1290.78C1193.75 1318.57 1192.71 1346.76 1191.78 1365.28C1190.31 1394.09 1187.43 1408.86 1183.17 1409.6C1182.26 1409.9 1181.05 1410.41 1179.53 1411.1C1174.64 1413.35 1165.56 1418.24 1157.07 1426.77C1149.99 1433.84 1143.32 1443.45 1139.72 1456.12C1133.07 1479.51 1135.28 1498.71 1146.36 1513.73L1133.07 1622.3C1111.36 1623.12 1091.79 1627.55 1074.35 1635.59C1031.89 1655.16 965.14 1708.06 961.82 1720.24C958.5 1732.43 1138.61 1705.38 1179.1 1648.88Z" />
						<path id="&lt;Path&gt;" class="shp25" d="M1206.46 1203.27C1215.06 1219.21 1222.7 1228.45 1229.39 1230.99C1228.59 1225.41 1227.99 1220.57 1227.6 1216.47C1220.34 1214.13 1213.29 1209.73 1206.46 1203.27Z" />
						<g id="&lt;Group&gt;">
							<path id="&lt;Path&gt;" class="shp21" d="M1144.04 1099.34C1126.23 1062.05 1074.59 1015.43 1027.98 1052.01C981.36 1088.59 1054.51 1156 997.14 1204.05C939.76 1252.1 916.1 1308.04 959.84 1336.01C1003.59 1363.98 1025.11 1326.69 1030.13 1336.01C1035.15 1345.34 1093.71 1422.08 1144.04 1355.38C1194.36 1288.68 1081.77 1158.87 1094.68 1135.2C1103.28 1119.42 1118.58 1115.12 1140.58 1122.29L1149.14 1113.69L1144.04 1099.34Z" />
						</g>
						<path id="&lt;Path&gt;" class="shp27" d="M1154.13 1103.21C1154.51 1099.33 1146.03 1098.02 1144.04 1099.34C1142.04 1100.67 1136.37 1126.64 1139.7 1127.84C1143.04 1129.04 1153.86 1105.91 1154.13 1103.21Z" />
						<path id="&lt;Path&gt;" class="shp28" d="M961.2 1724.18C961.58 1730.57 965.24 1735.54 972.17 1739.08C1083.13 1716.61 1152.11 1686.55 1179.1 1648.88C1209.26 1606.85 1232.22 1513.36 1242 1468.22C1243.42 1461.6 1244.56 1456 1245.45 1451.79C1236.19 1445.72 1226.46 1439.48 1217.26 1433.78C1205.3 1425.31 1192.73 1417.75 1179.53 1411.1C1174.64 1413.35 1165.56 1418.24 1157.07 1426.77C1149.99 1433.84 1143.32 1443.45 1139.72 1456.12C1133.07 1479.51 1135.28 1498.71 1146.36 1513.73L1133.07 1622.3C1111.36 1623.12 1091.79 1627.55 1074.35 1635.59C1031.89 1655.16 965.14 1708.06 961.82 1720.24C961.79 1720.4 961.73 1720.58 961.7 1720.74C961.39 1721.94 961.14 1723.08 961.2 1724.18Z" />
						<g id="&lt;Group&gt;">
							<g id="&lt;Group&gt;">
								<path id="&lt;Path&gt;" class="shp24" d="M961.2 1724.18C992.75 1712.64 1117.34 1666.33 1142.88 1646.02C1168.18 1625.93 1182.3 1584.97 1195.84 1485.91C1195.97 1484.87 1196.12 1483.82 1196.27 1482.77C1198.12 1469.05 1199.97 1454.22 1201.81 1438.21L1198.74 1437.85C1183.29 1571.15 1169.26 1621.16 1140.98 1643.62C1116.54 1663.04 995.27 1708.37 961.7 1720.74C961.39 1721.94 961.23 1723.08 961.2 1724.18Z" />
							</g>
							<g id="&lt;Group&gt;">
								<path id="&lt;Path&gt;" class="shp24" d="M1194.52 1486.01C1219.09 1485.33 1223.18 1451.84 1223.22 1451.5L1220.16 1451.15C1220.13 1451.46 1216.34 1482.33 1194.44 1482.93L1194.52 1486.01Z" />
							</g>
						</g>
						<path id="&lt;Path&gt;" class="shp22" d="M1157.07 1426.77C1162.61 1434.34 1223.88 1468.89 1242 1468.22C1244.24 1457.84 1245.96 1449.37 1247.17 1442.83C1274.5 1383.5 1289.64 1345.71 1292.59 1329.46C1297.02 1305.09 1244.43 1261.06 1235.57 1249.24C1215.75 1246.1 1205.09 1265.95 1195.09 1277.77C1194.17 1305.55 1192.71 1346.76 1191.78 1365.28C1190.31 1394.09 1187.43 1408.86 1183.17 1409.6C1174.06 1412.71 1165.36 1418.44 1157.07 1426.77Z" />
						<path id="&lt;Path&gt;" class="shp26" d="M1365.71 1326.51C1330.61 1350.64 1306.33 1362.7 1292.86 1362.7C1272.65 1362.7 1254.8 1278.8 1224.96 1275.55C1179.12 1270.57 1217.83 1376.56 1265.92 1400.65C1297.98 1416.71 1334.44 1396.96 1375.31 1341.42C1399.44 1345.76 1411.99 1340.54 1412.97 1325.77C1413.96 1311 1406.82 1304.11 1391.56 1305.09C1392.54 1295.25 1390.08 1290.57 1384.17 1291.06C1378.26 1291.55 1372.11 1303.37 1365.71 1326.51Z" />
						<path id="&lt;Path&gt;" class="shp29" d="M1365.71 1326.51L1375.31 1341.42L1370.51 1347.53L1360.6 1329.93L1365.71 1326.51Z" />
						<path id="&lt;Path&gt;" class="shp7" d="M1361.59 1335.2L1366.15 1342.23C1366.48 1342.75 1367.18 1342.9 1367.7 1342.56L1373.99 1338.48C1374.51 1338.14 1374.66 1337.45 1374.32 1336.93L1369.77 1329.9C1369.43 1329.38 1368.73 1329.23 1368.21 1329.57L1361.92 1333.65C1361.4 1333.99 1361.25 1334.68 1361.59 1335.2Z" />
					</g>
				</g>
				<g id="&lt;Group&gt;">
					<g id="&lt;Group&gt;">
						<g id="&lt;Group&gt;">
							<path id="&lt;Path&gt;" class="shp22" d="M3857.03 1900.66C3855.46 1905.11 3852.51 1908.84 3848.22 1911.48C3833.65 1920.34 3761.1 1921.09 3746.67 1906.44C3745.07 1904.79 3744.18 1902.95 3744.19 1900.92C3744.19 1891.78 3758.58 1882.71 3775.37 1875.32C3776.48 1874.84 3777.58 1874.35 3778.71 1873.9C3782.66 1872.22 3786.71 1870.68 3790.68 1869.21C3791.93 1868.74 3793.17 1868.31 3794.37 1867.89C3808.69 1862.87 3821.51 1859.52 3825.62 1858.81C3836.4 1856.92 3839.63 1856.09 3841.15 1857.46C3855.86 1870.77 3861.52 1888.36 3857.03 1900.66Z" />
							<g id="&lt;Group&gt;">
								<path id="&lt;Path&gt;" class="shp23" d="M3857.03 1900.66C3855.46 1905.11 3852.51 1908.84 3848.22 1911.48C3833.65 1920.34 3761.1 1921.09 3746.67 1906.44C3746.68 1906.41 3746.68 1906.4 3746.68 1906.4C3812.09 1897.76 3842.94 1897.61 3857.03 1900.66Z" />
							</g>
							<g id="&lt;Group&gt;">
								<g id="&lt;Group&gt;">
									<path id="&lt;Path&gt;" class="shp24" d="M3811.04 1879.09C3811.37 1879.47 3811.35 1880.03 3810.98 1880.38C3810.91 1880.45 3810.79 1880.5 3810.7 1880.53C3810.34 1880.68 3809.94 1880.6 3809.69 1880.33C3802.22 1872.09 3795.83 1869.53 3790.68 1869.21C3791.93 1868.74 3793.17 1868.31 3794.37 1867.89C3799.16 1869.03 3804.76 1872.16 3811.04 1879.09Z" />
								</g>
								<g id="&lt;Group&gt;">
									<path id="&lt;Path&gt;" class="shp24" d="M3795.91 1885.23C3796.26 1885.6 3796.22 1886.17 3795.85 1886.52C3795.77 1886.59 3795.68 1886.62 3795.6 1886.66C3795.24 1886.8 3794.83 1886.73 3794.58 1886.45C3787 1878.09 3780.53 1875.6 3775.37 1875.32C3776.48 1874.84 3777.58 1874.35 3778.71 1873.9C3783.62 1874.92 3789.42 1878.04 3795.91 1885.23Z" />
								</g>
							</g>
						</g>
						<g id="&lt;Group&gt;">
							<path id="&lt;Path&gt;" class="shp22" d="M3726.01 1881.23C3724.44 1885.68 3721.5 1889.41 3717.2 1892.05C3702.63 1900.91 3630.08 1901.66 3615.65 1887.01C3614.05 1885.36 3613.16 1883.52 3613.17 1881.49C3613.17 1872.35 3627.56 1863.28 3644.35 1855.89C3645.46 1855.41 3646.57 1854.92 3647.69 1854.47C3651.64 1852.79 3655.69 1851.25 3659.66 1849.78C3660.91 1849.31 3662.15 1848.88 3663.35 1848.46C3677.67 1843.44 3690.49 1840.09 3694.61 1839.38C3705.38 1837.49 3708.61 1836.66 3710.13 1838.03C3724.84 1851.34 3730.5 1868.93 3726.01 1881.23Z" />
							<g id="&lt;Group&gt;">
								<path id="&lt;Path&gt;" class="shp23" d="M3726.01 1881.23C3724.44 1885.68 3721.5 1889.41 3717.2 1892.05C3702.63 1900.91 3630.08 1901.66 3615.65 1887.01C3615.66 1886.98 3615.66 1886.97 3615.66 1886.97C3681.07 1878.33 3711.92 1878.18 3726.01 1881.23Z" />
							</g>
							<g id="&lt;Group&gt;">
								<g id="&lt;Group&gt;">
									<path id="&lt;Path&gt;" class="shp24" d="M3680.02 1859.66C3680.35 1860.04 3680.33 1860.6 3679.96 1860.95C3679.89 1861.02 3679.77 1861.07 3679.68 1861.1C3679.32 1861.25 3678.92 1861.17 3678.67 1860.89C3671.2 1852.66 3664.81 1850.1 3659.66 1849.78C3660.91 1849.31 3662.15 1848.88 3663.35 1848.46C3668.14 1849.6 3673.74 1852.73 3680.02 1859.66Z" />
								</g>
								<g id="&lt;Group&gt;">
									<path id="&lt;Path&gt;" class="shp24" d="M3664.89 1865.8C3665.24 1866.17 3665.2 1866.74 3664.83 1867.09C3664.75 1867.16 3664.66 1867.19 3664.58 1867.23C3664.22 1867.37 3663.81 1867.3 3663.56 1867.02C3655.98 1858.66 3649.51 1856.17 3644.35 1855.89C3645.46 1855.41 3646.57 1854.92 3647.69 1854.47C3652.6 1855.49 3658.4 1858.61 3664.89 1865.8Z" />
								</g>
							</g>
						</g>
						<path id="&lt;Path&gt;" class="shp21" d="M3811.01 1306.07C3756.93 1306.07 3739.87 1293.31 3759.81 1267.8C3758.28 1210.38 3773.62 1175 3805.83 1161.65C3838.05 1148.3 3854.75 1153.96 3855.95 1178.64C3866.64 1166.51 3878.7 1164.89 3892.12 1173.79C3912.25 1187.14 3920.88 1286.66 3892.12 1303.65C3872.94 1314.97 3850.51 1315.78 3824.81 1306.07L3811.01 1306.07Z" />
						<path id="&lt;Path&gt;" class="shp26" d="M3865.09 1256.92C3863.87 1266.63 3855.78 1270.25 3840.81 1267.79C3840.41 1303.02 3844.25 1323.67 3852.34 1329.74C3864.48 1338.84 3840.81 1342.48 3830.5 1344.91C3820.18 1347.34 3766.78 1324.28 3787.41 1324.28C3801.07 1324.28 3809.11 1307.03 3813.05 1295.35C3814.82 1289.89 3815.78 1285.69 3815.88 1284.94C3815.92 1284.87 3815.93 1284.84 3815.93 1284.84C3810.88 1289.79 3804.2 1291.81 3795.91 1290.9C3786.84 1289.91 3761.93 1277.45 3788.63 1213.84C3797.53 1207.77 3807.03 1207.77 3817.15 1213.84C3832.32 1222.94 3831.1 1236.29 3842.63 1240.54C3854.16 1244.78 3866.91 1242.36 3865.09 1256.92Z" />
						<path id="&lt;Path&gt;" class="shp16" d="M3701.55 1680.18C3683.95 1780.3 3676.97 1834 3680.61 1841.29C3686.07 1852.21 3700.64 1854.94 3714.29 1847.66C3727.94 1840.38 3768.9 1751.51 3772.55 1720.39C3774.97 1699.65 3772.55 1683.51 3765.26 1671.98C3787.11 1627.69 3796.82 1595.53 3794.39 1575.5C3790.75 1545.46 3802.58 1504.02 3767.08 1483.33C3743.42 1469.53 3721.57 1535.15 3701.55 1680.18Z" />
						<path id="&lt;Path&gt;" class="shp30" d="M3867.21 1763.01C3861.75 1813.07 3846.27 1858.58 3839.9 1864.04C3838.13 1865.56 3835.45 1866.72 3832.37 1867.48C3830.75 1867.88 3829.03 1868.14 3827.26 1868.34C3820.28 1869 3812.65 1867.73 3808.95 1864.04C3802.58 1857.67 3785.59 1527.87 3757.68 1496.61C3740.13 1476.94 3779.42 1483.01 3810.93 1490.19C3812.85 1490.6 3814.72 1491.05 3816.54 1491.46C3827.23 1494.02 3836.83 1496.55 3845.36 1499.04C3866 1547.59 3867.48 1604.32 3849.81 1669.25C3865.05 1698.38 3870.85 1729.63 3867.21 1763.01Z" />
						<path id="&lt;Path&gt;" class="shp22" d="M3791.44 1323.74C3810.47 1324.28 3844.58 1328.08 3849.31 1332.77C3854.03 1337.46 3825.64 1492.97 3811.69 1499.65C3797.73 1506.32 3765.57 1507.54 3757.68 1496.61C3749.79 1485.69 3762.96 1340.55 3767.82 1334.41C3771.05 1330.32 3778.93 1326.76 3791.44 1323.74Z" />
						<g id="&lt;Group&gt;">
							<path id="&lt;Path&gt;" class="shp24" d="M3832.37 1867.48C3830.75 1867.88 3829.03 1868.14 3827.26 1868.34C3832.01 1786.72 3840.26 1582.78 3810.93 1490.19C3810.27 1488.12 3809.61 1486.15 3808.9 1484.17L3813.66 1482.51C3814.67 1485.39 3815.63 1488.37 3816.54 1491.46C3845.01 1585.66 3837.07 1785.66 3832.37 1867.48Z" />
						</g>
						<path id="&lt;Path&gt;" class="shp24" d="" />
						<path id="&lt;Path&gt;" class="shp26" d="M3611.19 1389.81C3608.34 1371 3547.03 1360.16 3540.95 1368.58C3534.86 1376.99 3584.92 1412.27 3606.05 1407.41C3620.14 1404.18 3621.85 1398.31 3611.19 1389.81Z" />
						<path id="&lt;Path&gt;" class="shp24" d="M3791.44 1323.74C3731.59 1306.98 3692.45 1412.28 3684.25 1414.24C3676.06 1416.21 3624.09 1378.03 3613.17 1380.76C3602.24 1383.49 3590.41 1399.74 3588.59 1410.73C3586.77 1421.72 3638.16 1458.99 3679.87 1464.45C3707.67 1468.09 3726.81 1460.51 3737.27 1441.7C3708.6 1590.37 3694.27 1669.86 3694.27 1680.18C3694.27 1695.65 3744.33 1708.39 3748.88 1703.84C3751.91 1700.81 3766.1 1574.11 3791.44 1323.74Z" />
						<path id="&lt;Path&gt;" class="shp26" d="M3909.06 1579.77C3914.7 1597.92 3906.5 1629.3 3896.25 1631.26C3886 1633.22 3876.27 1591.54 3882.93 1576.83C3887.37 1567.02 3896.08 1568 3909.06 1579.77Z" />
						<path id="&lt;Path&gt;" class="shp24" d="M3848.03 1323.74C3930.01 1352.49 3920.91 1570.95 3913.63 1579.14C3906.35 1587.33 3885.41 1587.33 3877.22 1579.14C3871.76 1573.68 3865.09 1520.89 3857.2 1420.76C3872.37 1595.53 3878.74 1686.24 3876.31 1692.92C3872.67 1702.93 3829.29 1714.81 3820.94 1704.78C3812.6 1694.74 3796.05 1505.41 3810.7 1418.94C3820.46 1361.29 3832.9 1329.56 3848.03 1323.74Z" />
						<path id="&lt;Path&gt;" class="shp25" d="M3793.74 1227.01C3786.86 1234.77 3781.59 1251.35 3782.33 1254.42C3782.6 1255.55 3794.62 1255.78 3795.3 1255.33C3795.76 1255.03 3795.24 1245.59 3793.74 1227.01Z" />
						<path id="&lt;Path&gt;" class="shp25" d="M3830.6 1273.25C3830.04 1274.67 3823.29 1291.85 3813.05 1295.35C3814.82 1289.89 3815.78 1285.69 3815.88 1284.94C3815.92 1284.87 3815.93 1284.84 3815.93 1284.84C3824.81 1279.36 3829.89 1274.17 3830.6 1273.25Z" />
					</g>
					<g id="&lt;Group&gt;">
						<path id="&lt;Path&gt;" class="shp31" d="M3540.94 1368.58C3345.65 1372.52 3350.45 1217.17 3356.57 1215.05C3357.68 1214.65 3361.12 1214.24 3366.43 1213.74C3415.33 1209.39 3624.68 1202.26 3671.26 1207.87C3675.71 1208.38 3678.64 1209.03 3679.85 1209.79C3695.18 1219.6 3673.43 1365.9 3540.94 1368.58Z" />
						<path id="&lt;Path&gt;" class="shp8" d="M3539.43 1358.82C3376.55 1362.25 3363.35 1240.49 3366.43 1213.74C3415.33 1209.39 3624.68 1202.26 3671.26 1207.87C3679.2 1234.06 3653.26 1356.39 3539.43 1358.82Z" />
						<path id="&lt;Path&gt;" class="shp31" d="M3504.33 1226.43C3498.53 1219.34 3386.46 1216.42 3383.73 1229.61C3381 1242.81 3402.84 1312.23 3426.51 1311.88C3450.17 1311.53 3512.52 1236.44 3504.33 1226.43Z" />
						<path id="&lt;Path&gt;" class="shp31" d="M3524.2 1240.47C3513.01 1242.5 3479.6 1328.68 3492.35 1341.87C3505.09 1355.07 3569.26 1353.25 3581.55 1333.68C3593.84 1314.11 3543.77 1236.91 3524.2 1240.47Z" />
						<path id="&lt;Path&gt;" class="shp31" d="M3542.62 1223.6C3540.1 1231.24 3600.88 1309.71 3624.09 1298.79C3647.3 1287.87 3670.96 1228.99 3653.67 1219.15C3636.38 1209.3 3545.81 1213.94 3542.62 1223.6Z" />
						<path id="&lt;Path&gt;" class="shp31" d="M3526.72 1210.53C3515.97 1211.02 3502.15 1218.15 3515.48 1226.1C3528.8 1234.06 3543.03 1223.3 3542.53 1217.22C3542.04 1211.14 3532.01 1210.28 3526.72 1210.53Z" />
					</g>
				</g>
				<g id="&lt;Group&gt;">
					<g id="&lt;Group&gt;">
						<path id="&lt;Path&gt;" class="shp32" d="M2463.14 1093.24C2449.95 1104.91 2496.91 1890.1 2508.06 1907.85C2517.8 1923.39 2544.04 1921.23 2544.04 1898.54C2544.04 1882.81 2489.38 1070.03 2463.14 1093.24Z" />
						<g id="&lt;Group&gt;">
							<path id="&lt;Path&gt;" class="shp32" d="M2652.58 1098.82C2640.17 1111.3 2737.56 1891.95 2749.82 1908.97C2760.55 1923.86 2786.6 1920.05 2785.13 1897.41C2784.12 1881.72 2677.27 1074.01 2652.58 1098.82Z" />
							<g id="&lt;Group&gt;">
								<g id="&lt;Group&gt;">
									<path id="&lt;Path&gt;" class="shp32" d="M2668.8 1214.32L2472.1 1214.32L2472.1 1196.32L2668.8 1196.32L2668.8 1214.32Z" />
								</g>
								<g id="&lt;Group&gt;">
									<path id="&lt;Path&gt;" class="shp32" d="M2695.99 1359.19L2484.27 1359.19L2484.27 1341.18L2695.99 1341.18L2695.99 1359.19Z" />
								</g>
								<g id="&lt;Group&gt;">
									<path id="&lt;Path&gt;" class="shp32" d="M2724.41 1504.06L2502.43 1504.06L2502.43 1486.05L2724.41 1486.05L2724.41 1504.06Z" />
								</g>
								<g id="&lt;Group&gt;">
									<path id="&lt;Path&gt;" class="shp32" d="M2740.77 1648.92L2511.88 1648.92L2511.88 1630.92L2740.77 1630.92L2740.77 1648.92Z" />
								</g>
								<g id="&lt;Group&gt;">
									<path id="&lt;Path&gt;" class="shp32" d="M2750.65 1793.79L2519.44 1793.79L2519.44 1775.78L2750.65 1775.78L2750.65 1793.79Z" />
								</g>
							</g>
						</g>
					</g>
					<g id="&lt;Group&gt;">
						<path id="&lt;Path&gt;" class="shp28" d="M2412.78 783.68C2357.04 759.84 2328.85 760.7 2297.15 801.08C2265.45 841.45 2273.59 898.44 2305.01 939.51C2325.02 965.68 2347.91 970.43 2345.11 982.46C2342.31 994.49 2316.91 1006.33 2315.87 1011.21C2314.82 1016.09 2342.31 1012.16 2355.08 999.4C2367.84 986.64 2370.05 978.8 2398.38 974.85C2426.71 970.91 2486.4 933.89 2476.62 883.9C2470.11 850.58 2448.83 817.17 2412.78 783.68Z" />
						<path id="&lt;Path&gt;" class="shp2" d="M2412.78 767.81C2429.75 632.74 2456.2 562.5 2493.51 558.58C2518.38 555.96 2521.99 576.83 2504.35 621.2C2545.14 572.9 2576.22 560.84 2597.58 585.02C2618.94 609.2 2598 648.82 2534.74 703.88C2574.02 679.01 2595.61 678.68 2599.54 702.9C2605.43 739.22 2456.42 809.23 2434.6 796.46C2420.06 787.94 2412.78 778.39 2412.78 767.81Z" />
						<path id="&lt;Path&gt;" class="shp12" d="M2512.98 990.73C2494.63 988.9 2464.54 931.03 2422.71 817.1C2407.03 812.05 2398.93 799.77 2398.41 780.26C2397.64 751.01 2410.19 746.45 2419.13 752.7C2422.95 755.37 2431.32 772.93 2444.17 796.05C2461.33 827.04 2486.52 867.98 2519.49 896.18C2533.53 961.04 2531.36 992.56 2512.98 990.73Z" />
						<path id="&lt;Path&gt;" class="shp26" d="M2444.17 796.05C2437.19 800.32 2427.93 807.4 2422.71 817.1C2407.03 812.05 2398.93 799.77 2398.41 780.26C2397.64 751.01 2410.19 746.45 2419.13 752.7C2422.95 755.37 2431.32 772.93 2444.17 796.05Z" />
						<g id="&lt;Group&gt;">
							<path id="&lt;Path&gt;" class="shp22" d="M2596.82 1479.52C2595.05 1483.69 2592 1487.1 2587.72 1489.37C2573.21 1497 2503.56 1493.36 2490.6 1478.43C2489.17 1476.75 2488.43 1474.93 2488.55 1472.99C2489.11 1464.22 2503.46 1456.39 2520 1450.3C2521.1 1449.91 2522.19 1449.51 2523.29 1449.14C2527.19 1447.77 2531.16 1446.54 2535.06 1445.36C2536.29 1444.98 2537.5 1444.64 2538.68 1444.31C2552.72 1440.36 2565.22 1437.92 2569.21 1437.49C2579.66 1436.32 2582.81 1435.71 2584.19 1437.13C2597.49 1450.77 2601.87 1467.99 2596.82 1479.52Z" />
							<g id="&lt;Group&gt;">
								<path id="&lt;Path&gt;" class="shp23" d="M2596.82 1479.52C2595.05 1483.69 2592 1487.1 2587.72 1489.37C2573.21 1497 2503.56 1493.36 2490.6 1478.43C2490.61 1478.41 2490.62 1478.39 2490.62 1478.39C2553.88 1474.04 2583.49 1475.75 2596.82 1479.52Z" />
							</g>
							<g id="&lt;Group&gt;">
								<g id="&lt;Group&gt;">
									<path id="&lt;Path&gt;" class="shp24" d="M2554 1456.06C2554.29 1456.45 2554.24 1456.98 2553.87 1457.3C2553.79 1457.36 2553.67 1457.4 2553.58 1457.43C2553.24 1457.54 2552.85 1457.45 2552.63 1457.17C2545.96 1448.82 2539.98 1445.98 2535.06 1445.36C2536.29 1444.98 2537.5 1444.64 2538.68 1444.31C2543.21 1445.7 2548.39 1449.04 2554 1456.06Z" />
								</g>
								<g id="&lt;Group&gt;">
									<path id="&lt;Path&gt;" class="shp24" d="M2539.11 1461.04C2539.43 1461.42 2539.36 1461.96 2538.98 1462.28C2538.9 1462.34 2538.82 1462.37 2538.73 1462.4C2538.38 1462.51 2537.99 1462.42 2537.77 1462.14C2531 1453.66 2524.94 1450.88 2520 1450.3C2521.1 1449.91 2522.19 1449.51 2523.29 1449.14C2527.95 1450.42 2533.32 1453.75 2539.11 1461.04Z" />
								</g>
							</g>
						</g>
						<g id="&lt;Group&gt;">
							<path id="&lt;Path&gt;" class="shp22" d="M2749.9 1447.31C2749.73 1451.84 2748.08 1456.11 2744.88 1459.74C2734 1472.01 2667.57 1493.24 2650.17 1483.86C2648.23 1482.8 2646.9 1481.36 2646.33 1479.49C2643.74 1471.1 2654.39 1458.7 2667.72 1447.15C2668.6 1446.39 2669.48 1445.63 2670.39 1444.9C2673.55 1442.24 2676.83 1439.68 2680.06 1437.2C2681.07 1436.42 2682.09 1435.67 2683.07 1434.94C2694.8 1426.28 2705.64 1419.57 2709.21 1417.76C2718.57 1412.97 2721.31 1411.29 2723.09 1412.12C2740.37 1420.18 2750.55 1434.74 2749.9 1447.31Z" />
							<g id="&lt;Group&gt;">
								<path id="&lt;Path&gt;" class="shp23" d="M2749.9 1447.31C2749.73 1451.84 2748.08 1456.11 2744.88 1459.74C2734 1472.01 2667.57 1493.24 2650.17 1483.86C2650.17 1483.83 2650.17 1483.82 2650.17 1483.82C2707.81 1457.37 2736.11 1448.5 2749.9 1447.31Z" />
							</g>
							<g id="&lt;Group&gt;">
								<g id="&lt;Group&gt;">
									<path id="&lt;Path&gt;" class="shp24" d="M2701.56 1440.52C2701.97 1440.77 2702.11 1441.29 2701.87 1441.72C2701.82 1441.8 2701.72 1441.88 2701.65 1441.94C2701.37 1442.17 2700.97 1442.22 2700.66 1442.03C2691.47 1436.58 2684.87 1436.04 2680.06 1437.2C2681.07 1436.42 2682.09 1435.67 2683.07 1434.94C2687.8 1434.64 2693.82 1435.93 2701.56 1440.52Z" />
								</g>
								<g id="&lt;Group&gt;">
									<path id="&lt;Path&gt;" class="shp24" d="M2689.39 1450.44C2689.83 1450.68 2689.95 1451.21 2689.71 1451.64C2689.66 1451.72 2689.58 1451.78 2689.51 1451.84C2689.23 1452.07 2688.83 1452.12 2688.53 1451.94C2679.19 1446.4 2672.54 1445.94 2667.72 1447.15C2668.6 1446.39 2669.48 1445.63 2670.39 1444.9C2675.19 1444.45 2681.4 1445.67 2689.39 1450.44Z" />
								</g>
							</g>
						</g>
						<path id="&lt;Path&gt;" class="shp30" d="M2731.94 1421.27C2727.5 1427.92 2708 1434.56 2699.13 1427.51C2693.22 1422.83 2671 1340.7 2632.45 1181.11L2596.55 1265.7C2607.6 1280.87 2613.92 1294.47 2615.5 1306.49C2617.82 1324.51 2599.83 1434.56 2587.42 1444.02C2580.22 1449.53 2570.98 1451 2563.7 1449.93C2562.34 1449.75 2561.08 1449.45 2559.9 1449.08C2556.39 1448.01 2553.69 1446.24 2552.4 1444.02C2548.37 1437 2531.16 1251.55 2560.38 1105.82C2563.31 1104.22 2567.2 1102.43 2572.05 1100.46C2572.53 1100.28 2573.01 1100.06 2573.49 1099.87C2595.44 1091.23 2640.43 1079.18 2673.42 1108.26C2703.57 1134.81 2710.95 1180.33 2695.59 1244.83C2709.77 1249.26 2720.12 1259.39 2726.62 1275.2C2736.37 1298.91 2736.37 1414.62 2731.94 1421.27Z" />
						<g id="&lt;Group&gt;">
							<path id="&lt;Path&gt;" class="shp24" d="M2563.7 1449.93C2562.34 1449.75 2561.08 1449.45 2559.9 1449.08C2557.24 1354.03 2554.17 1157.35 2572.05 1100.46C2572.13 1100.13 2572.24 1099.83 2572.35 1099.5L2573.49 1099.87L2575.9 1100.65C2558.02 1155.14 2561.08 1354.95 2563.7 1449.93Z" />
						</g>
						<path id="&lt;Path&gt;" class="shp12" d="M2525.07 1018.06C2527.58 1036 2551.48 1107.77 2560.8 1110.12C2570.13 1112.47 2667.44 1119.42 2673.42 1107.15C2679.41 1094.88 2696.73 1015.39 2684.3 989.45C2676.01 972.16 2622.94 981.7 2525.07 1018.06Z" />
						<path id="&lt;Path&gt;" class="shp21" d="M2646.77 745.41C2680.51 720.59 2690.27 793.29 2695.59 872.2C2700.91 951.11 2758.54 945.79 2754.1 994.55C2751.15 1027.06 2726.62 1036.68 2680.51 1023.4C2689.99 1074.31 2676.1 1103.22 2638.84 1110.12C2601.59 1117.03 2574.69 1097.05 2558.16 1050.2C2512.06 1068.46 2485.16 1052.37 2477.48 1001.94C2465.96 926.28 2573.83 743.6 2602.49 730.21C2623.13 720.57 2637.89 725.63 2646.77 745.41Z" />
						<g id="&lt;Group&gt;" style="mix-blend-mode: screen">
							<path id="&lt;Path&gt;" class="shp20" d="M2329.47 830.12C2324.04 849.19 2321.61 878.71 2322.19 918.69C2307.38 879.85 2303.27 846.33 2309.87 818.14L2329.47 830.12Z" />
							<path id="&lt;Path&gt;" class="shp20" d="M2359.62 794.2C2350.95 796.6 2343.2 803.37 2336.38 814.5L2313.76 806.15C2318.51 795.39 2326.11 786.43 2337.9 780.95L2359.62 794.2Z" />
						</g>
					</g>
				</g>
				<g id="&lt;Group&gt;">
					<path id="&lt;Path&gt;" class="shp2" d="M2300.99 227.89C2292.89 172.61 2256.35 139.43 2191.38 128.36C2206.53 162.79 2226.98 189.84 2252.73 209.48C2278.49 229.13 2294.58 235.27 2300.99 227.89Z" />
					<g id="&lt;Group&gt;">
						<path id="&lt;Path&gt;" class="shp19" d="M2291.65 308.03C2290.58 308.63 2289.25 308.74 2288.05 308.2C2286.01 307.3 2285.08 304.92 2285.99 302.88C2311.86 244.33 2285.51 166.35 2285.24 165.57C2284.51 163.46 2285.63 161.15 2287.74 160.44C2289.85 159.71 2292.15 160.83 2292.88 162.93C2294.02 166.24 2320.54 244.66 2293.37 306.14C2293 306.98 2292.38 307.62 2291.65 308.03Z" />
					</g>
					<path id="&lt;Path&gt;" class="shp11" d="M2296.34 281.66C2373 222.24 2471.49 285.42 2448.53 381.43C2425.57 477.44 2323.53 525.23 2259.21 495.4C2176.15 456.89 2128.89 310.82 2191.59 260.93C2232.05 228.74 2266.97 235.65 2296.34 281.66Z" />
					<g id="&lt;Group&gt;" style="mix-blend-mode: screen">
						<path id="&lt;Path&gt;" class="shp20" d="M2192.66 313.45L2224.65 319.17C2222.51 347.91 2231.79 390.71 2252.48 447.57C2227.51 426.01 2209.31 396.05 2197.88 357.68C2193.12 341.62 2191.41 326.54 2192.66 313.45Z" />
						<path id="&lt;Path&gt;" class="shp20" d="M2260.33 268.48C2245.98 274.02 2235.36 285.41 2228.47 302.66L2196.26 296.88C2204.64 273.39 2226.32 260.79 2260.33 268.48Z" />
					</g>
				</g>
				<g id="&lt;Group&gt;">
					<path id="&lt;Path&gt;" class="shp8" d="M4049.69 855.22C3985.35 953.24 3952 1009.87 3949.66 1025.12C3946.15 1048 4105.34 1152.15 4125.75 1151.23C4139.35 1150.61 4178.05 1098.58 4241.84 995.13C4281.61 1023.94 4306.59 1013.57 4316.78 964.04C4332.06 889.74 4276.02 825.92 4172.66 781.06C4069.31 736.19 4016.53 764.59 4011.06 814.7C4009.13 832.36 4022 845.86 4049.69 855.22Z" />
					<path id="&lt;Path&gt;" class="shp18" d="M4064.46 850.31C3999.12 949.09 3965.33 1005.63 3963.1 1019.92C3959.74 1041.36 4107.25 1138.25 4126.22 1137.31C4138.87 1136.68 4176.34 1084.86 4238.65 981.86C4274.32 1008.42 4297.58 998.61 4308.41 952.44C4320.58 900.55 4266.77 832.97 4171.3 790.47C4084.56 751.85 4029.78 767.07 4024.49 814.01C4022.63 830.55 4035.95 842.65 4064.46 850.31Z" />
					<path id="&lt;Path&gt;" class="shp8" d="M4228.23 935.01C4222.76 947.3 4208.36 952.84 4196.07 947.37C4183.78 941.9 4178.24 927.5 4183.71 915.21C4189.18 902.92 4203.58 897.38 4215.87 902.85C4228.16 908.32 4233.7 922.72 4228.23 935.01Z" />
					<path id="&lt;Path&gt;" class="shp8" d="M4096.87 1006.37C4090 1021.82 4071.9 1028.77 4056.45 1021.9C4041 1015.02 4034.05 996.93 4040.92 981.48C4047.79 966.03 4065.89 959.07 4081.34 965.95C4096.79 972.82 4103.74 990.92 4096.87 1006.37Z" />
					<path id="&lt;Path&gt;" class="shp8" d="M4113.34 1073.4C4109.9 1081.13 4100.85 1084.61 4093.13 1081.17C4085.4 1077.73 4081.92 1068.68 4085.36 1060.96C4088.8 1053.23 4097.85 1049.76 4105.57 1053.19C4113.3 1056.63 4116.77 1065.68 4113.34 1073.4Z" />
					<path id="&lt;Path&gt;" class="shp8" d="M4146.07 977.42C4143.65 982.84 4137.3 985.28 4131.87 982.87C4126.44 980.46 4124 974.1 4126.42 968.67C4128.83 963.25 4135.19 960.8 4140.61 963.22C4146.04 965.63 4148.48 971.99 4146.07 977.42Z" />
					<path id="&lt;Path&gt;" class="shp8" d="M4160.02 851.98C4158.48 855.44 4154.43 857 4150.96 855.46C4147.5 853.92 4145.94 849.86 4147.48 846.4C4149.02 842.94 4153.08 841.38 4156.54 842.92C4160.01 844.46 4161.57 848.52 4160.02 851.98Z" />
					<path id="&lt;Path&gt;" class="shp8" d="M4089.04 899.76C4086.63 905.18 4080.27 907.62 4074.85 905.21C4069.42 902.8 4066.98 896.44 4069.39 891.01C4071.81 885.59 4078.16 883.14 4083.59 885.56C4089.02 887.97 4091.46 894.33 4089.04 899.76Z" />
				</g>
				<g id="&lt;Group&gt;">
					<g id="&lt;Group&gt;">
						<path id="&lt;Path&gt;" class="shp8" d="M460.97 1004.61C458.41 1004.2 456.54 1001.89 456.74 999.26C460.36 951.03 495.83 785.7 578.06 679.71C579.77 677.51 582.92 677.11 585.13 678.82C587.33 680.53 587.73 683.69 586.03 685.89C505.21 790.05 470.34 952.59 466.79 1000.01C466.58 1002.79 464.16 1004.87 461.39 1004.66C461.24 1004.65 461.1 1004.63 460.97 1004.61Z" />
					</g>
					<path id="&lt;Path&gt;" class="shp8" d="M570.71 689.52C528.53 644.85 562.23 604.69 671.82 569.06C676.35 620.04 668.63 656.97 648.66 679.85C620.96 711.58 582.34 701.84 570.71 689.52Z" />
					<path id="&lt;Path&gt;" class="shp8" d="M559.15 715.18C522.08 697.09 510.74 615.63 502.02 620.37C493.31 625.1 473.25 697.2 497.67 720.68C513.95 736.34 530.67 741.86 547.84 737.25L559.15 715.18Z" />
					<path id="&lt;Path&gt;" class="shp8" d="M543.07 738C618.65 806.69 699.9 723.25 695.45 716.56C691.01 709.87 568.27 725.94 557.24 718.91C549.89 714.23 545.16 720.59 543.07 738Z" />
					<path id="&lt;Path&gt;" class="shp8" d="M513.08 804.56C377.5 775.61 446.17 667.38 450.77 676.89C455.38 686.4 503.51 765.89 525.07 767.27C539.45 768.19 535.45 780.62 513.08 804.56Z" />
					<path id="&lt;Path&gt;" class="shp8" d="M513.08 804.56C612.12 866.87 690.53 793.66 684.99 784.21C679.45 774.75 546.39 764.57 527.55 771.36C514.99 775.89 510.17 786.96 513.08 804.56Z" />
					<path id="&lt;Path&gt;" class="shp8" d="M485.4 882.19C364.78 874.6 388.81 773.74 391.87 769.94C394.92 766.14 496.57 831.32 493.74 852.91C491.85 867.3 489.07 877.06 485.4 882.19Z" />
					<path id="&lt;Path&gt;" class="shp8" d="M488.47 886.35C564.95 928.53 640.83 878.79 638.05 865.5C635.27 852.2 509.04 837.59 493.74 852.91C483.54 863.12 481.79 874.26 488.47 886.35Z" />
				</g>
				<g id="&lt;Group&gt;">
					<path id="&lt;Path&gt;" class="shp2" d="M3506.35 349.26C3527.24 319.34 3588.39 287.52 3595.56 290.19C3600.34 291.97 3604 299.82 3606.55 313.75C3616.78 307.85 3626.91 307.68 3636.94 313.24C3651.98 321.58 3656.29 344.54 3666.73 351.89C3677.18 359.23 3682.04 361.39 3682.52 372.7C3682.85 380.24 3624.12 372.43 3506.35 349.26Z" />
					<path id="&lt;Path&gt;" class="shp2" d="M3475.81 523.19C3495.12 539.35 3565.08 577.37 3572.97 564.61C3578.23 556.11 3568.74 538.37 3544.5 511.39L3475.81 523.19Z" />
					<path id="&lt;Path&gt;" class="shp32" d="M3749.99 414.01C3761.77 473.34 3575.34 542.27 3462.14 524.23C3447.3 521.85 3433.28 518.86 3420.11 515.36C3415.65 514.17 3411.25 512.96 3407 511.6C3328.08 487.74 3285.5 446.98 3303.71 429.68C3446.2 293.92 3738.21 354.68 3749.99 414.01Z" />
					<path id="&lt;Path&gt;" class="shp32" d="M3726.87 398.75C3779.28 352.64 3815.63 336.46 3817.34 343.69C3819.04 350.91 3819.26 398.8 3803.14 415.66C3792.4 426.91 3779.1 434.4 3763.24 438.13C3789.03 453.85 3806.08 466.54 3814.38 476.21C3826.83 490.72 3827.46 523.25 3820.09 526.08C3812.72 528.9 3747.43 469.09 3721.16 451.3C3703.64 439.44 3705.54 421.92 3726.87 398.75Z" />
					<g id="&lt;Group&gt;">
						<path id="&lt;Path&gt;" class="shp2" d="M3384.64 428.97C3385.19 437.47 3383.38 444.51 3380.61 444.69C3377.83 444.87 3375.13 438.12 3374.58 429.62C3374.03 421.12 3375.84 414.09 3378.61 413.91C3381.39 413.73 3384.09 420.47 3384.64 428.97Z" />
						<path id="&lt;Path&gt;" class="shp2" d="M3420.11 515.36C3415.65 514.17 3411.25 512.96 3407 511.6C3471.47 467.92 3423.1 399.47 3419.44 394.46C3423.89 399.46 3485.49 471.4 3420.11 515.36Z" />
						<path id="&lt;Path&gt;" class="shp2" d="M3465.12 458.16C3503.86 446.86 3506.32 445.74 3511.3 457.64C3516.28 469.55 3504.03 507.24 3500.04 508.18C3488.51 510.89 3475.38 504.08 3460.64 487.74C3479.05 497.76 3490.88 500.64 3496.12 496.39C3503.99 490 3508.46 460.69 3497.47 458.38C3490.15 456.83 3479.37 456.76 3465.12 458.16Z" />
						<path id="&lt;Path&gt;" class="shp2" d="M3519.6 405.57C3534.68 394.94 3554.02 400.74 3558.3 416.62C3561.16 427.21 3556.16 434.52 3543.31 438.56C3563.9 437.28 3574.43 442.65 3574.88 454.67C3575.51 471.23 3561.72 482.82 3533.5 489.46C3555.25 478.3 3565.81 467.64 3565.2 457.49C3564.58 447.34 3552.1 441.56 3527.74 440.16C3546.17 432.54 3552.93 424.05 3548.04 414.68C3543.15 405.31 3533.67 402.27 3519.6 405.57Z" />
						<path id="&lt;Path&gt;" class="shp2" d="M3601.09 401.65C3634.97 397.49 3633.88 420.63 3631.33 428.31C3629.63 433.43 3622.71 437.97 3610.56 441.91C3630.8 441.51 3640.25 446.91 3638.89 458.13C3637.53 469.34 3627.01 474 3607.31 472.1C3622.53 468.88 3630.36 464.31 3630.78 458.4C3631.21 452.49 3620.26 447.62 3597.93 443.8C3616.68 432.41 3625.42 423.27 3624.16 416.38C3622.9 409.48 3615.21 404.57 3601.09 401.65Z" />
					</g>
				</g>
				<g id="&lt;Group&gt;">
					<path id="&lt;Path&gt;" class="shp2" d="M1482.26 229.32C1479.15 317.06 1453.29 386.65 1404.68 438.09C1355.8 489.81 1304.08 515.67 1249.52 515.67C1255.19 405.15 1332.77 309.7 1482.26 229.32Z" />
					<path id="&lt;Path&gt;" class="shp32" d="M1482.26 229.32C1376.7 352.92 1299.12 448.37 1249.52 515.67C1255.19 405.15 1332.77 309.7 1482.26 229.32Z" />
					<path id="&lt;Path&gt;" class="shp32" d="M1249.52 515.67C1192.84 518.51 1130.14 495.01 1061.42 445.18C992.7 395.35 961.52 319.48 967.9 217.57C1149.98 229.97 1243.86 329.34 1249.52 515.67Z" />
					<path id="&lt;Path&gt;" class="shp2" d="M1249.52 515.67L967.9 217.57C1149.98 229.97 1243.86 329.34 1249.52 515.67Z" />
				</g>
			</g>
		</g>
	</g>
</svg>