<svg id="Capa_1" enable-background="new 0 0 512 512" height="512" viewBox="0 0 512 512" width="512" xmlns="http://www.w3.org/2000/svg"><g><g><path d="m478.791 39.793c-21.533-21.533-49.753-32.3-77.973-32.293-21.897 0-43.794 6.484-62.568 19.445l.493 36.238-37.517-1.772-35.221 35.221 1.772 37.517-37.517-1.772-35.221 35.221 1.772 37.517-36.238-.493c-29.673 42.962-25.39 102.302 12.849 140.541 16.664 16.664 38.505 24.992 60.346 24.992s43.682-8.328 60.346-24.992l184.677-184.677c33.328-33.329 33.328-87.365 0-120.693z" fill="#f8d070"/><path d="m153.288 216.783c2.145-4.172 4.573-8.235 7.285-12.162l36.238.493-6.896 39.209-27.064-12.384z" fill="#f9ed80"/><path d="m245.331 217.889-50.292-50.292-21.617 21.617c-4.821 4.821-9.104 9.984-12.849 15.406l49.013 49.013c4.94 4.94 11.403 7.406 17.872 7.406 6.47 0 12.933-2.466 17.872-7.406 9.874-9.871 9.874-25.871.001-35.744z" fill="#f9ed80"/><path d="m217.348 253.535c-14.086-14.085-29.259-25.874-44.795-35.214l-138.578 138.577c9.339 15.536 21.128 30.709 35.214 44.795 62.361 62.361 146.085 79.754 186.999 38.84s23.52-124.638-38.84-186.998z" fill="#b2b0bc"/><g><path d="m305.636 319.789c-.135-.726-3.286-18.019-.252-38.907 3.074-21.159 11.316-38.859 24.145-52.166 7.593-7.876 20.63-6.318 26.312 3.031 3.914 6.439 3.125 14.768-2.109 20.189-22.061 22.851-15.226 61.262-15.145 61.696z" fill="#60d9a7"/></g><path d="m195.517 339.761c-6.208-6.208-13.902-10.02-21.937-11.439-17.421-3.076-32.68 12.184-29.604 29.604 1.419 8.034 5.231 15.729 11.439 21.936 12.922 12.922 32.282 15.464 47.748 7.647 7.818-15.466 5.276-34.826-7.646-47.748z" fill="#90d3f1"/><path d="m66.979 323.894-33.004 33.004c9.339 15.536 21.128 30.709 35.214 44.795 48.495 48.495 109.905 69.789 154.059 57.623-64.699-14.51-129.507-74.017-156.269-135.422z" fill="#a19dae"/><path d="m332.087 265.975c-6.385 1.91-13.211 1.91-19.597 0-1.209-.362-2.414-.689-3.619-1.018-1.509 5.061-2.681 10.37-3.488 15.925-3.034 20.888.117 38.181.252 38.907l32.952-6.157c-.069-.372-5.083-28.635 7.37-51.095-4.586.907-9.21 2.044-13.87 3.438z" fill="#00cd8c"/><path d="m323.347 495.925c.325.177.65.352.974.523 24.791 13.113 55.035 9.88 77.204-7.297 110.353-85.501 50.219-253.065-79.236-198.404-129.456-54.661-189.59 112.903-79.237 198.404 22.169 17.177 52.414 20.41 77.204 7.297.324-.171.649-.346.974-.523.66-.359 1.459-.359 2.117 0z" fill="#ff748f"/><path d="m56.865 197.971c-6.597 2.413-10.732 8.987-10.252 15.995.66 9.645-7.348 17.652-16.992 16.992-7.008-.479-13.582 3.655-15.995 10.252-11.763 32.16-4.071 75.123 20.35 115.688 35.188-.897 70.103-14.766 96.957-41.62s40.723-61.769 41.62-96.957c-40.566-24.421-83.528-32.113-115.688-20.35z" fill="#90d3f1"/><g><g><g><g><ellipse cx="98.813" cy="270.376" fill="#fff" rx="22.612" ry="28.394" transform="matrix(.707 -.707 .707 .707 -162.243 149.062)"/></g></g></g></g><path d="m316.297 146.923-50.292-50.292-35.745 35.745 50.292 50.292c9.872 9.872 25.872 9.872 35.745 0 4.933-4.933 7.406-11.403 7.406-17.872 0-6.47-2.466-12.933-7.406-17.873z" fill="#f9ed80"/><path d="m387.263 75.958-49.013-49.013c-5.422 3.745-10.585 8.028-15.413 12.856l-21.61 21.61 50.292 50.292c9.873 9.872 25.872 9.872 35.745 0 4.94-4.94 7.406-11.403 7.406-17.872-.001-6.471-2.467-12.934-7.407-17.873z" fill="#f9ed80"/><path d="m54.183 268.42c0-27.198 7.681-52.746 21.146-74.933-6.455.87-12.639 2.354-18.463 4.484-6.597 2.413-10.732 8.987-10.252 15.995.66 9.645-7.348 17.652-16.992 16.992-7.008-.479-13.582 3.655-15.995 10.252-11.763 32.16-4.071 75.123 20.35 115.688 15.475-.395 30.896-3.301 45.603-8.714-15.857-26.335-25.397-54.129-25.397-79.764z" fill="#59c2e7"/><path d="m229.814 381.18c0-40.698 19.688-77.037 50.528-100.945-99.129-6.51-134.89 133.295-37.29 208.915 19.615 15.198 45.55 19.47 68.437 11.172-48.122-20.306-81.675-66.009-81.675-119.142z" fill="#fd5f7e"/></g><g><path d="m247.302 364.108c-4.142 0-7.499 3.358-7.499 7.499v14.405c0 4.142 3.358 7.499 7.499 7.499 4.142 0 7.499-3.358 7.499-7.499v-14.405c0-4.141-3.358-7.499-7.499-7.499z"/><path d="m397.237 393.512c4.142 0 7.499-3.358 7.499-7.499v-14.405c0-4.142-3.358-7.499-7.499-7.499-4.142 0-7.499 3.358-7.499 7.499v14.405c-.001 4.141 3.357 7.499 7.499 7.499z"/><path d="m346.961 379.93c-3.123-2.72-7.86-2.396-10.581.727-7.474 8.576-20.756 8.567-28.222 0-2.722-3.123-7.458-3.447-10.581-.727-3.122 2.721-3.447 7.459-.726 10.581 13.452 15.435 37.398 15.419 50.836 0 2.722-3.122 2.396-7.859-.726-10.581z"/><path d="m107.807 248.625 8.207-8.207c2.929-2.928 2.929-7.677 0-10.605-2.928-2.928-7.677-2.928-10.605 0l-8.207 8.207c-2.929 2.928-2.929 7.677 0 10.605 2.928 2.929 7.676 2.929 10.605 0z"/><path d="m400.79.062c-40.325 0-66.923 20.82-66.823 20.771-12.344 8.526-7.184 4.455-144.237 141.508-17.892 18.417-25.873 24.37-35.325 38.054-35.742-16.099-71.928-19.733-100.11-9.423-9.632 3.523-15.865 13.207-15.157 23.548.347 5.075-3.842 9.349-8.998 8.998-10.342-.706-20.025 5.525-23.548 15.157-12.436 33.998-4.601 79.645 20.958 122.108 2.108 2.84 19.564 35.079 57.918 65.459 3.246 2.571 7.964 2.024 10.535-1.223 2.572-3.247 2.025-7.963-1.222-10.535-18.337-14.526-34.694-31.991-47.649-50.946 68.894-7.692 124.202-62.139 132.023-132.002 19.306 13.194 37.566 30.168 53.087 50.37-17.596 8.695-32.878 23.713-42.769 44.159-30.931-16.703-57.41 7.566-52.884 33.195 3.813 21.596 21.515 37.706 42.984 39.933 3.097 19.455 10.357 38.545 21.649 55.906-25.208.96-54.443-7.45-82.163-23.875-3.564-2.11-8.164-.933-10.274 2.629-2.112 3.563-.934 8.163 2.629 10.274 28.883 17.114 58.58 26.086 85.537 26.086 5.001 0 9.909-.313 14.699-.937 7.534 9.11 16.434 17.79 26.798 25.821 14.425 11.175 31.813 16.903 49.173 16.903 11.884 0 23.757-2.687 34.648-8.148 26.802 13.439 59.52 10.071 83.822-8.757 66.263-51.34 72.66-129.223 45.037-176.437-13.806-23.599-38.891-43.79-73.91-45.983l46.054-46.054c2.929-2.928 2.929-7.677 0-10.605-2.928-2.928-7.677-2.928-10.605 0l-57.62 57.62c-2.072.297-4.17.651-6.296 1.069 1.411-4.132 3.206-8.013 5.697-11.734 1.24-1.853 2.962-4.031 4.657-5.787 13.773-14.267 5.064-38.61-14.994-40.835-7.497-.831-14.787 1.794-20.002 7.202-13.732 14.247-21.856 32.134-25.424 51.756-19.608-4.319-36.964-3.449-51.917.942-2.191-2.965-5.097-6.703-7.646-9.805 22.348-8.515 28.175-37.142 11.499-53.816l-44.984-44.985 24.612-24.612 44.984 44.984c20.512 20.512 55.949 5.942 55.949-23.174 0-8.752-3.41-16.981-9.601-23.174l-44.984-44.984 24.612-24.612 44.984 44.984c6.191 6.191 14.421 9.6 23.174 9.6 29.193 0 43.725-35.397 23.173-55.947-4.786-4.786-37.607-37.607-42.358-42.359 38.006-21.562 88.94-17.528 123.273 16.804 30.417 30.418 30.421 79.653 0 110.075l-39.575 39.575c-2.929 2.928-2.929 7.677 0 10.605 2.928 2.928 7.677 2.928 10.605 0l39.575-39.575c36.196-36.195 36.196-95.089 0-131.286-37.456-37.453-83.37-34.505-83.27-34.485zm-205.758 178.187 44.984 44.985c11.028 11.028 3.408 30.053-12.243 30.329-13.722-14.553-29.654-27.835-45.979-38.28l-11.365-11.366c6.128-7.815 10.279-11.111 24.603-25.668zm-174.355 65.577c1.231-3.364 4.666-5.599 8.439-5.345 14.187.964 25.954-10.816 24.985-24.985-.255-3.724 1.943-7.194 5.345-8.438 28.802-10.535 67.941-3.983 105.414 17.487-3.929 68.288-58.378 122.765-126.696 126.696-21.469-37.474-28.022-76.613-17.487-105.415zm130.681 112.825c-2.51-14.212 12.435-28.731 32.482-16.543-4.253 13.068-6.479 28.013-5.816 43.705-13.564-2.691-24.232-13.384-26.666-27.162zm286.825-30.419c24.399 41.705 18.224 110.905-41.278 157.007-19.957 15.463-47.371 18.47-69.986 6.118-2.911-1.588-6.387-1.589-9.301.001-22.713 12.389-50.095 9.291-69.984-6.119-10.528-8.157-19.379-17.039-26.694-26.362-.065-.091-.119-.187-.187-.276-61.496-78.894-15.823-193.652 83.577-164.305 22.073 6.555 13.411 8.06 26.579 3.13 25.573-9.581 47.125-9.54 63.834-4.408 18.213 5.595 33.235 17.772 43.44 35.214zm-95.725-94.976c7.585.84 11.081 10.098 5.856 15.51-8.545 8.853-13.749 20.207-16.287 32.348-3.201 1.052-6.452 2.231-9.758 3.558-2.701-1.084-6.299-2.409-9.054-3.329 2.879-17.067 9.678-32.922 21.692-45.382 1.961-2.033 4.715-3.018 7.551-2.705zm-31.483-78.982c6.949 6.95 6.951 18.185 0 25.136-6.93 6.93-18.206 6.93-25.136 0l-44.984-44.984 25.136-25.136zm58.391-40.616c-4.747 0-9.21-1.849-12.568-5.207l-44.984-44.984c14.419-14.19 17.82-18.449 25.668-24.604 9.597 9.597 35.743 35.744 44.452 44.452 11.255 11.254 3.098 30.343-12.568 30.343z"/></g></g></svg>